<svg width="183" height="54" viewBox="0 0 183 54" fill="none" xmlns="http://www.w3.org/2000/svg">
<path d="M0 23.6222C0 20.6076 0.679771 17.9033 2.03931 15.5093C3.39885 13.0857 5.24606 11.1942 7.58092 9.83466C9.94534 8.47512 12.561 7.79535 15.4278 7.79535C18.7971 7.79535 21.7379 8.60812 24.2501 10.2337C26.7623 11.8592 28.5947 14.1645 29.7474 17.1496H24.9151C24.058 15.2876 22.8167 13.8542 21.1911 12.8493C19.5951 11.8444 17.674 11.342 15.4278 11.342C13.2703 11.342 11.3344 11.8444 9.62023 12.8493C7.90603 13.8542 6.56126 15.2876 5.58594 17.1496C4.61062 18.982 4.12296 21.1396 4.12296 23.6222C4.12296 26.0753 4.61062 28.2328 5.58594 30.0948C6.56126 31.9272 7.90603 33.3459 9.62023 34.3508C11.3344 35.3556 13.2703 35.8581 15.4278 35.8581C17.674 35.8581 19.5951 35.3704 21.1911 34.3951C22.8167 33.3902 24.058 31.9568 24.9151 30.0948H29.7474C28.5947 33.0503 26.7623 35.3409 24.2501 36.9664C21.7379 38.5624 18.7971 39.3604 15.4278 39.3604C12.561 39.3604 9.94534 38.6954 7.58092 37.3654C5.24606 36.0059 3.39885 34.1291 2.03931 31.7351C0.679771 29.3411 0 26.6368 0 23.6222Z" fill="white"/>
<path d="M52.9982 8.19435V11.475H44.575V39.0944H40.5407V11.475H32.0731V8.19435H52.9982Z" fill="white"/>
<path d="M79.5986 17.1496C78.7415 15.3467 77.5002 13.9576 75.8747 12.9823C74.2491 11.9774 72.3576 11.475 70.2001 11.475C68.0425 11.475 66.0919 11.9774 64.3481 12.9823C62.6339 13.9576 61.2744 15.3763 60.2695 17.2383C59.2942 19.0707 58.8065 21.1987 58.8065 23.6222C58.8065 26.0457 59.2942 28.1737 60.2695 30.0061C61.2744 31.8386 62.6339 33.2572 64.3481 34.2621C66.0919 35.2374 68.0425 35.7251 70.2001 35.7251C73.2147 35.7251 75.6973 34.8236 77.648 33.0208C79.5986 31.2179 80.7365 28.7796 81.0616 25.7058H68.7371V22.4252H85.3619V25.5285C85.1255 28.0703 84.3275 30.4051 82.9679 32.5331C81.6084 34.6315 79.8203 36.3014 77.6036 37.5427C75.387 38.7545 72.9191 39.3604 70.2001 39.3604C67.3332 39.3604 64.7176 38.6954 62.3531 37.3654C59.9887 36.0059 58.112 34.1291 56.7229 31.7351C55.3633 29.3411 54.6836 26.6368 54.6836 23.6222C54.6836 20.6076 55.3633 17.9033 56.7229 15.5093C58.112 13.0857 59.9887 11.209 62.3531 9.879C64.7176 8.51945 67.3332 7.83968 70.2001 7.83968C73.4807 7.83968 76.3771 8.65245 78.8893 10.278C81.431 11.9035 83.2783 14.1941 84.4309 17.1496H79.5986Z" fill="white"/>
<path d="M104.558 17.5897C104.67 17.5897 104.781 17.6082 104.892 17.6453C105.004 17.6824 105.134 17.7381 105.282 17.8123C105.653 18.035 105.857 18.3504 105.894 18.7586C105.931 19.2039 105.727 20.0389 105.282 21.2635C105.022 21.8943 104.688 22.6922 104.28 23.657C103.909 24.5847 103.427 25.7166 102.833 27.0525C102.462 27.8689 102.165 28.5925 101.942 29.2234C101.683 29.8171 101.571 30.1325 101.608 30.1696C101.608 30.2067 101.812 30.0954 102.221 29.8357C102.629 29.5759 103.093 29.2605 103.612 28.8894C106.618 26.7742 108.956 25.1785 110.626 24.1023C112.259 23.0633 113.223 22.5437 113.52 22.5437C113.854 22.5808 114.17 22.7664 114.467 23.1004C114.763 23.4343 114.912 23.7683 114.912 24.1023C114.875 24.3992 114.392 24.9002 113.465 25.6052C112.537 26.3474 110.978 27.4607 108.789 28.945C106.637 30.3552 104.93 31.5612 103.668 32.5632C102.443 33.6022 101.571 34.4743 101.052 35.1794C100.532 35.9586 100.124 36.9235 99.8271 38.0739C99.4931 39.2242 99.1776 40.9127 98.8808 43.1392C98.621 45.2173 98.3798 46.7203 98.1572 47.648C97.9345 48.6128 97.6376 49.5034 97.2665 50.3198C96.8212 51.2847 96.2089 52.0825 95.4296 52.7134C94.6875 53.27 94.0009 53.5483 93.3701 53.5483C93.333 53.5483 93.2773 53.5483 93.2031 53.5483C93.0547 53.5483 92.8506 53.4741 92.5908 53.3257C92.331 53.1772 92.0898 53.0102 91.8672 52.8247C91.2734 52.2309 90.9766 51.2847 90.9766 49.9859C90.9766 48.9839 91.1621 47.7964 91.5332 46.4234C92.3496 43.1578 94.1494 38.6119 96.9326 32.7858C97.3408 31.9323 97.6933 31.1716 97.9902 30.5036C98.287 29.8357 98.4355 29.4646 98.4355 29.3903C98.4355 29.279 98.3241 29.2976 98.1015 29.446C97.9159 29.5573 97.6747 29.7429 97.3779 30.0026C96.1162 31.0417 94.9472 31.5983 93.8711 31.6726C92.832 31.7097 92.1084 31.2458 91.7002 30.281C91.2178 29.1677 91.3477 27.7019 92.0898 25.8835C92.8691 24.0652 94.0381 22.4324 95.5966 20.9852C96.6357 20.0574 97.6191 19.4822 98.5468 19.2596C99.5116 19.0369 100.291 19.2039 100.885 19.7606C101.07 19.909 101.237 20.0389 101.386 20.1502C101.497 20.2244 101.571 20.2801 101.608 20.3172C101.645 20.3172 101.775 20.1873 101.998 19.9275C102.183 19.6678 102.388 19.3709 102.61 19.0369C102.944 18.5174 103.26 18.1463 103.557 17.9237C103.853 17.701 104.15 17.5897 104.447 17.5897C104.484 17.5897 104.503 17.5897 104.503 17.5897C104.54 17.5897 104.558 17.5897 104.558 17.5897ZM95.5966 25.6052C95.1513 26.3845 94.8359 27.0154 94.6504 27.4978C94.4277 28.0173 94.4091 28.2956 94.5947 28.3327C94.6318 28.3327 94.8173 28.2029 95.1513 27.9431C95.4482 27.6833 95.8007 27.3865 96.2089 27.0525C97.248 26.0876 97.9531 25.364 98.3241 24.8816C98.6581 24.3992 98.8437 23.8611 98.8808 23.2674C98.8808 23.0076 98.8808 22.7849 98.8808 22.5994C98.8437 22.3767 98.788 22.2654 98.7138 22.2654C98.5282 22.2654 98.0644 22.6551 97.3222 23.4343C96.5429 24.2136 95.9677 24.9373 95.5966 25.6052ZM94.1494 48.7613C94.1123 49.021 94.0937 49.3736 94.0937 49.8189C94.205 49.6333 94.372 49.3364 94.5947 48.9282C94.7431 48.6685 94.8916 48.2603 95.04 47.7037C95.2255 47.147 95.374 46.6089 95.4853 46.0894C95.708 45.0875 95.8564 44.3453 95.9306 43.8629C95.9677 43.3433 95.9492 43.0836 95.8749 43.0836C95.6894 43.2691 95.3554 44.1226 94.873 45.6441C94.3906 47.1656 94.1494 48.2046 94.1494 48.7613Z" fill="white"/>
<path d="M118.31 35.8473C117.938 35.6989 117.586 35.3835 117.252 34.901C116.918 34.4186 116.695 33.9362 116.584 33.4538C116.547 33.2311 116.547 32.8786 116.584 32.3962C116.584 31.8767 116.621 31.4128 116.695 31.0046C116.77 30.5593 116.825 30.1696 116.862 29.8357C116.899 29.5017 116.899 29.3161 116.862 29.279C116.862 29.279 116.714 29.3718 116.417 29.5573C116.12 29.78 115.786 30.0398 115.415 30.3366C114.71 30.8933 114.023 31.32 113.356 31.6169C112.65 31.8767 112.057 31.9323 111.574 31.7839C111.389 31.7468 111.185 31.654 110.962 31.5056C110.702 31.32 110.48 31.1345 110.294 30.9489C109.96 30.5778 109.719 30.0769 109.57 29.446C109.496 29.0749 109.459 28.6667 109.459 28.2214C109.459 27.8874 109.478 27.5534 109.515 27.2195C109.552 26.8484 109.682 26.1248 109.904 25.0486C110.164 23.9353 110.35 23.1746 110.461 22.7664C110.609 22.2469 110.739 21.8016 110.851 21.4305C110.999 21.0965 111.166 20.8367 111.352 20.6512C111.537 20.5027 111.741 20.41 111.964 20.3729C112.149 20.3357 112.409 20.3543 112.743 20.4285C112.966 20.5027 113.151 20.5955 113.3 20.7068C113.448 20.8553 113.541 21.0408 113.578 21.2635C113.615 21.4861 113.615 21.7644 113.578 22.0984C113.541 22.4324 113.448 22.8592 113.3 23.3787C113.226 23.6756 113.077 24.3064 112.855 25.2712C112.632 26.2361 112.502 26.8298 112.465 27.0525C112.391 27.4978 112.372 27.8689 112.409 28.1657C112.446 28.4255 112.521 28.5925 112.632 28.6667C112.855 28.8152 113.56 28.2029 114.747 26.8298C115.935 25.4939 116.955 24.1209 117.809 22.7107C118.699 21.2635 119.367 20.3729 119.812 20.0389C119.998 19.8904 120.202 19.8162 120.425 19.8162C120.685 19.8162 120.963 19.909 121.26 20.0945C121.408 20.2059 121.557 20.3543 121.705 20.5398C121.853 20.7254 121.946 20.8924 121.983 21.0408C122.02 21.1893 121.946 21.7088 121.761 22.5994C121.575 23.4529 121.334 24.4177 121.037 25.4939C120.703 26.5701 120.425 27.6462 120.202 28.7224C119.942 29.7985 119.794 30.5407 119.757 30.9489C119.72 31.32 119.683 31.8581 119.645 32.5632C119.831 32.3405 120.128 32.0065 120.536 31.5612C120.796 31.3015 121.223 30.7448 121.816 29.8913C122.41 29.0749 123.004 28.2214 123.598 27.3308C124.154 26.4031 124.692 25.5867 125.212 24.8816C125.694 24.1394 125.991 23.7127 126.102 23.6013C126.511 23.156 126.993 23.0633 127.55 23.323C128.143 23.5828 128.44 24.0466 128.44 24.7146C128.44 24.9002 128.181 25.4197 127.661 26.2732C127.179 27.1638 126.622 28.1101 125.991 29.112C125.657 29.6687 125.323 30.1882 124.989 30.6706C124.618 31.1901 124.284 31.6354 123.987 32.0065C122.837 33.528 121.779 34.6227 120.814 35.2907C120.146 35.736 119.534 35.9586 118.978 35.9586C118.755 35.9586 118.532 35.9215 118.31 35.8473Z" fill="white"/>
<path d="M131.782 25.3269C131.634 25.8093 131.56 26.1248 131.56 26.2732C131.597 26.4216 131.69 26.5144 131.838 26.5515C132.135 26.6257 132.84 26.4402 133.953 25.9949C135.066 25.5496 136.068 24.9929 136.959 24.325C137.85 23.6199 138.573 23.2117 139.13 23.1004C139.649 22.9519 140.039 23.1004 140.299 23.5457C140.447 23.7683 140.522 23.9539 140.522 24.1023C140.522 24.2879 140.466 24.5105 140.355 24.7703C140.243 25.03 140.021 25.3084 139.687 25.6052C139.353 25.9392 138.944 26.2917 138.462 26.6628C137.571 27.2937 136.514 27.906 135.289 28.4997C134.102 29.0564 132.988 29.4089 131.949 29.5573C131.504 29.5944 130.836 29.6687 129.945 29.78C129.76 30.0398 129.444 30.4108 128.999 30.8933C128.109 32.0065 127.274 32.7487 126.494 33.1198C126.049 33.3053 125.622 33.3981 125.214 33.3981C124.843 33.3981 124.472 33.3239 124.101 33.1755C123.136 32.7302 122.561 31.7282 122.375 30.1696C122.375 29.8728 122.375 29.5759 122.375 29.279C122.375 27.8689 122.672 26.199 123.266 24.2693C123.451 23.6756 123.637 23.1375 123.822 22.6551C124.045 22.2098 124.231 21.9314 124.379 21.8201C124.49 21.7459 124.695 21.5418 124.991 21.2078C125.288 20.8738 125.567 20.5213 125.826 20.1502C126.123 19.742 126.439 19.3895 126.773 19.0926C127.107 18.7957 127.385 18.6102 127.608 18.536C127.756 18.4617 127.904 18.4061 128.053 18.369C128.201 18.3319 128.35 18.3133 128.498 18.3133C128.647 18.2762 128.777 18.2576 128.888 18.2576C130.075 18.2576 130.985 18.8885 131.615 20.1502C132.32 21.5603 132.376 23.2859 131.782 25.3269ZM127.663 24.1023C127.812 25.0671 128.016 25.5681 128.276 25.6052C128.535 25.6423 128.758 25.2156 128.944 24.325C129.129 23.5828 129.185 22.9148 129.111 22.3211C129.036 21.6902 128.869 21.3934 128.61 21.4305C128.35 21.4676 128.109 21.8016 127.886 22.4324C127.663 23.0261 127.589 23.5828 127.663 24.1023ZM125.325 29.3347C125.288 29.8913 125.362 30.1882 125.548 30.2253C125.696 30.2253 125.975 29.9841 126.383 29.5017C126.68 29.1677 126.828 28.945 126.828 28.8337C126.828 28.7224 126.717 28.5183 126.494 28.2214C126.309 27.9988 126.142 27.8318 125.993 27.7204C125.845 27.572 125.734 27.5163 125.659 27.5534C125.548 27.5906 125.474 27.7575 125.437 28.0544C125.362 28.3513 125.325 28.778 125.325 29.3347Z" fill="white"/>
<path d="M137.295 39.8551C137.11 39.818 136.869 39.7067 136.572 39.5211C136.275 39.3727 136.015 39.1686 135.792 38.9088C135.31 38.4264 134.957 37.7399 134.735 36.8493C134.586 36.2555 134.512 35.6247 134.512 34.9567C134.512 34.5856 134.531 34.2145 134.568 33.8434C134.642 33.1755 134.809 32.3034 135.069 31.2272C135.291 30.1511 135.588 28.9636 135.959 27.6648C136.627 25.2898 137.444 22.6922 138.409 19.8719C139.373 17.0887 140.338 14.6024 141.303 12.413C141.637 11.6337 141.897 10.9657 142.082 10.4091C142.268 9.85245 142.342 9.55557 142.305 9.51847C142.268 9.48136 142.082 9.48136 141.748 9.51847C141.414 9.55557 141.006 9.61124 140.524 9.68546C140.078 9.75967 139.577 9.83389 139.021 9.90811C138.464 10.0194 138 10.0937 137.629 10.1308C137.073 10.1679 136.702 10.1679 136.516 10.1308C136.368 10.0565 136.182 9.871 135.959 9.57413C135.774 9.27726 135.681 9.0546 135.681 8.90617C135.644 8.75773 135.718 8.55363 135.904 8.29387C136.126 7.88567 136.535 7.57024 137.128 7.34759C137.722 7.16204 138.835 6.93939 140.468 6.67962C141.173 6.5683 141.823 6.45697 142.416 6.34564C143.01 6.23432 143.381 6.17865 143.53 6.17865C143.715 6.14154 143.956 5.88178 144.253 5.39936C144.55 4.91695 144.958 4.13766 145.478 3.06149C146.146 1.68846 146.591 0.834953 146.814 0.500972C147.036 0.2041 147.333 0.037109 147.704 0C147.779 0 147.834 0 147.871 0C148.242 0 148.558 0.111327 148.818 0.333981C149.114 0.556635 149.263 0.890617 149.263 1.33592C149.263 1.48436 149.189 1.76268 149.04 2.17088C148.892 2.54197 148.725 2.93161 148.539 3.33981C148.354 3.7109 148.168 4.08199 147.983 4.45308C147.834 4.82417 147.723 5.10249 147.649 5.28804C147.612 5.39936 147.556 5.56635 147.482 5.78901C148.187 5.78901 149.244 5.78901 150.654 5.78901C152.362 5.78901 153.438 5.88178 153.883 6.06733C154.365 6.25287 154.607 6.67962 154.607 7.34759C154.607 7.90422 154.347 8.27531 153.827 8.46086C153.345 8.6464 152.343 8.73917 150.821 8.73917C150.079 8.73917 149.337 8.75773 148.595 8.79484C147.853 8.83195 147.333 8.86906 147.036 8.90617C146.814 8.94327 146.461 8.99894 145.979 9.07316C145.682 9.74112 145.255 10.7245 144.699 12.0233C144.439 12.58 144.123 13.3407 143.752 14.3055C143.381 15.2704 142.973 16.328 142.528 17.4783C141.748 19.5936 140.95 21.783 140.134 24.0466C139.318 26.3103 138.761 28.0359 138.464 29.2234C138.279 29.9655 138.112 30.7819 137.963 31.6726C137.815 32.5261 137.722 33.3425 137.685 34.1217C137.648 35.235 137.629 35.9401 137.629 36.237C137.666 36.5338 137.796 36.7194 138.019 36.7936C138.687 37.0534 140.208 36.1442 142.583 34.0661C144.921 31.988 147.352 29.3718 149.875 26.2175C150.988 24.8816 151.749 24.0095 152.157 23.6013C152.528 23.1931 152.862 22.989 153.159 22.989C153.568 22.989 153.92 23.1375 154.217 23.4343C154.514 23.7312 154.662 24.0652 154.662 24.4363C154.662 24.5847 154.514 24.8816 154.217 25.3269C153.957 25.7722 153.586 26.3103 153.104 26.9412C152.213 28.0915 151.1 29.4275 149.764 30.9489C148.391 32.4704 147.073 33.8434 145.812 35.068C143.919 36.9606 142.324 38.2594 141.025 38.9645C139.949 39.5582 138.91 39.8551 137.908 39.8551C137.685 39.8551 137.481 39.8551 137.295 39.8551Z" fill="white"/>
<path d="M157.615 19.1483C158.208 19.3709 158.654 19.7049 158.951 20.1502C159.247 20.5955 159.396 21.1893 159.396 21.9314C159.396 23.3045 158.876 24.6033 157.837 25.8279C156.835 27.0896 155.388 28.1843 153.496 29.112C153.013 29.3718 152.271 29.7429 151.269 30.2253C151.121 30.7077 151.102 31.1345 151.213 31.5056C151.325 31.9138 151.492 32.2477 151.714 32.5075C151.863 32.7302 152.104 32.86 152.438 32.8971C152.735 32.9714 153.162 32.9899 153.718 32.9528C155.054 32.8415 156.668 32.1921 158.561 31.0046C160.453 29.8171 162.569 28.1101 164.907 25.8835C165.575 25.2156 166.187 24.6404 166.743 24.158C167.3 23.6756 167.634 23.4158 167.745 23.3787C168.116 23.2674 168.488 23.3601 168.859 23.657C169.193 23.991 169.36 24.3806 169.36 24.8259C169.36 25.1599 169.211 25.5125 168.914 25.8835C168.617 26.2546 167.931 26.9597 166.855 27.9988C163.96 30.8933 161.177 33.0456 158.505 34.4557C156.427 35.569 154.646 36.1256 153.162 36.1256C152.753 36.1256 152.345 36.07 151.937 35.9586C150.527 35.5876 149.506 34.7712 148.875 33.5094C148.467 32.6931 148.263 31.7653 148.263 30.7263C148.263 30.1325 148.319 29.5017 148.43 28.8337C148.95 26.3103 150.063 24.0652 151.77 22.0984C153.477 20.0945 155.11 19.074 156.668 19.0369C156.705 19.0369 156.724 19.0369 156.724 19.0369C156.872 19.0369 157.021 19.0369 157.169 19.0369C157.318 19.074 157.466 19.1111 157.615 19.1483ZM153.162 25.0486C152.79 25.6794 152.605 26.0505 152.605 26.1619C152.642 26.2732 152.902 26.199 153.384 25.9392C154.201 25.531 154.998 24.7888 155.778 23.7127C156.594 22.6365 156.743 22.0984 156.223 22.0984C156.038 22.0984 155.555 22.4695 154.776 23.2117C154.034 23.9539 153.496 24.5662 153.162 25.0486Z" fill="white"/>
<path d="M173.648 17.2C173.908 17.6453 173.926 18.0535 173.704 18.4246C173.444 18.7957 172.665 19.5379 171.366 20.6512C169.659 22.0984 168.564 23.3787 168.082 24.492C167.599 25.6423 167.655 26.7556 168.249 27.8318C168.434 28.1286 168.638 28.407 168.861 28.6667C169.084 28.9636 169.269 29.1491 169.418 29.2234C169.752 29.4089 170.048 29.4275 170.308 29.279C170.605 29.1677 171.793 28.4441 173.871 27.1081C175.8 25.8835 177.47 24.9187 178.88 24.2136C180.29 23.5086 181.237 23.1746 181.719 23.2117C182.164 23.2859 182.517 23.5086 182.777 23.8797C182.925 24.1394 182.999 24.3806 182.999 24.6033C182.999 24.7517 182.962 24.9002 182.888 25.0486C182.814 25.197 182.536 25.4382 182.053 25.7722C181.571 26.1062 181.014 26.4216 180.383 26.7185C179.456 27.2009 178.305 27.8689 176.932 28.7224C175.596 29.5388 174.056 30.5036 172.312 31.6169C172.089 31.7653 171.978 31.9323 171.978 32.1179C171.941 32.3034 172.034 32.6559 172.256 33.1755C172.479 33.8063 172.516 34.6042 172.368 35.569C172.256 36.5338 171.997 37.2946 171.588 37.8512C171.217 38.4078 170.698 38.9459 170.03 39.4654C169.325 40.0221 168.694 40.4117 168.137 40.6344C167.729 40.7828 167.302 40.857 166.857 40.857C166.634 40.857 166.412 40.8385 166.189 40.8014C165.484 40.69 164.964 40.4674 164.63 40.1334C164.037 39.5768 163.74 38.8903 163.74 38.0739C163.74 37.777 163.796 37.443 163.907 37.0719C164.204 35.8102 165.02 34.4372 166.356 32.9528C166.616 32.6559 166.838 32.3776 167.024 32.1179C167.21 31.8952 167.302 31.7653 167.302 31.7282C167.339 31.6911 167.265 31.5241 167.08 31.2272C166.894 30.9675 166.671 30.6706 166.412 30.3366C165.707 29.4089 165.243 28.5739 165.02 27.8318C164.76 27.0525 164.686 26.2361 164.797 25.3826C164.946 24.158 165.484 22.8963 166.412 21.5975C167.339 20.2986 168.694 18.9627 170.475 17.5897C170.995 17.1815 171.44 16.8661 171.811 16.6434C172.108 16.4579 172.386 16.3651 172.646 16.3651C172.646 16.3651 172.665 16.3651 172.702 16.3651C172.887 16.4022 173.054 16.495 173.203 16.6434C173.351 16.7547 173.5 16.9403 173.648 17.2ZM166.913 37.4059C166.913 37.6286 166.931 37.777 166.968 37.8512C167.005 37.8883 167.117 37.8698 167.302 37.7955C167.451 37.7584 167.618 37.6657 167.803 37.5172C168.026 37.3688 168.211 37.2204 168.36 37.0719C168.879 36.6637 169.232 36.1071 169.418 35.402C169.64 34.6969 169.585 34.3258 169.251 34.2887C169.065 34.2887 168.638 34.734 167.97 35.6247C167.302 36.5153 166.95 37.109 166.913 37.4059Z" fill="white"/>
</svg>
