<svg width="24" height="24" viewBox="0 0 24 24" fill="none" xmlns="http://www.w3.org/2000/svg">
<path d="M11.438 1.23438C12.5309 1.23438 13.1489 1.39295 13.8749 2.10437L13.9589 2.1888L19.5037 7.82366C20.1689 8.50509 20.3797 9.00823 20.4324 9.8958L20.4427 10.1259L20.447 10.3741L20.4479 19.6261C20.4479 21.6738 19.454 22.7277 17.4573 22.7688L17.3339 22.7701H6.66673C4.63873 22.7701 3.59516 21.7668 3.55402 19.7508L3.55273 19.6261V4.38823C3.55273 2.34095 4.55602 1.27723 6.54373 1.23566L6.66673 1.23438H11.438ZM11.2169 2.85137H6.75716C5.74573 2.85137 5.20573 3.38795 5.17145 4.32352L5.16973 4.41866V19.5961C5.16973 20.5681 5.67802 21.1167 6.64831 21.1509L6.74688 21.1531H17.2537C18.2647 21.1531 18.7957 20.6354 18.8292 19.6917L18.8309 19.5961V10.5759H13.1052C11.8953 10.5759 11.2537 9.98837 11.2182 8.79437L11.2169 8.68723V2.85137ZM7.76859 14.1151C8.13845 14.1151 8.43802 14.4151 8.43802 14.7849V19.4735C8.43802 19.8429 8.13802 20.1429 7.76859 20.1429H7.09873C6.72888 20.1429 6.42888 19.8429 6.42888 19.4731V14.7845C6.42888 14.4151 6.72888 14.1151 7.09873 14.1151H7.76859ZM13.7964 16.1242C14.1663 16.1242 14.4659 16.4242 14.4659 16.7941V19.4731C14.4659 19.8429 14.1659 20.1429 13.7964 20.1429H13.1266C12.7567 20.1429 12.4567 19.8429 12.4567 19.4731V16.7945C12.4567 16.4242 12.7567 16.1242 13.1266 16.1242H13.7964ZM10.7823 12.1059C11.1522 12.1059 11.4522 12.4059 11.4522 12.7754V19.4731C11.4522 19.8429 11.1522 20.1429 10.7823 20.1429H10.1124C9.74259 20.1429 9.44302 19.8429 9.44302 19.4731V12.7758C9.44302 12.4059 9.74302 12.1064 10.1124 12.1064L10.7823 12.1059ZM12.7336 3.16295V8.49652C12.7336 8.87495 12.8759 9.03952 13.2192 9.05752L13.286 9.05923H18.5189L12.7336 3.16295Z" fill="white"/>
</svg>
