<svg width="22" height="24" viewBox="0 0 22 24" fill="none" xmlns="http://www.w3.org/2000/svg">
<path d="M4 24C3.26667 24 2.63912 23.7391 2.11734 23.2173C1.59556 22.6956 1.33423 22.0676 1.33334 21.3333V4C0.95556 4 0.639116 3.872 0.384005 3.616C0.128894 3.36 0.000893487 3.04356 4.5977e-06 2.66667C-0.000884291 2.28978 0.127116 1.97333 0.384005 1.71733C0.640894 1.46133 0.957338 1.33333 1.33334 1.33333H6.66667C6.66667 0.955555 6.79467 0.639111 7.05067 0.384C7.30667 0.128889 7.62312 0.000888889 8 0H13.3333C13.7111 0 14.028 0.128 14.284 0.384C14.54 0.64 14.6676 0.956444 14.6667 1.33333H20C20.3778 1.33333 20.6947 1.46133 20.9507 1.71733C21.2067 1.97333 21.3342 2.28978 21.3333 2.66667C21.3325 3.04356 21.2045 3.36044 20.9493 3.61733C20.6942 3.87422 20.3778 4.00178 20 4V21.3333C20 22.0667 19.7391 22.6947 19.2173 23.2173C18.6956 23.74 18.0676 24.0009 17.3333 24H4ZM8 18.6667C8.37778 18.6667 8.69467 18.5387 8.95067 18.2827C9.20667 18.0267 9.33423 17.7102 9.33334 17.3333V8C9.33334 7.62222 9.20534 7.30578 8.94934 7.05067C8.69334 6.79556 8.37689 6.66756 8 6.66667C7.62312 6.66578 7.30667 6.79378 7.05067 7.05067C6.79467 7.30756 6.66667 7.624 6.66667 8V17.3333C6.66667 17.7111 6.79467 18.028 7.05067 18.284C7.30667 18.54 7.62312 18.6676 8 18.6667ZM13.3333 18.6667C13.7111 18.6667 14.028 18.5387 14.284 18.2827C14.54 18.0267 14.6676 17.7102 14.6667 17.3333V8C14.6667 7.62222 14.5387 7.30578 14.2827 7.05067C14.0267 6.79556 13.7102 6.66756 13.3333 6.66667C12.9564 6.66578 12.64 6.79378 12.384 7.05067C12.128 7.30756 12 7.624 12 8V17.3333C12 17.7111 12.128 18.028 12.384 18.284C12.64 18.54 12.9564 18.6676 13.3333 18.6667Z" fill="#EE2A52"/>
</svg>
