<svg width="20" height="12" viewBox="0 0 20 12" fill="none" xmlns="http://www.w3.org/2000/svg">
<path d="M0.43918 0.438696C0.720471 0.157489 1.10193 -0.000484467 1.49968 -0.000484467C1.89743 -0.000484467 2.27889 0.157489 2.56018 0.438696L9.98518 7.8637L17.4102 0.438696C17.6931 0.165459 18.072 0.014267 18.4653 0.0176849C18.8586 0.021102 19.2348 0.178856 19.5129 0.456967C19.791 0.73508 19.9488 1.1113 19.9522 1.50459C19.9556 1.89789 19.8044 2.27679 19.5312 2.5597L11.0457 11.0452C10.7644 11.3264 10.3829 11.4844 9.98518 11.4844C9.58743 11.4844 9.20597 11.3264 8.92468 11.0452L0.43918 2.5597C0.157973 2.2784 0 1.89694 0 1.4992C0 1.10145 0.157973 0.719987 0.43918 0.438696Z" fill="black"/>
</svg>
