<svg width="18" height="17" viewBox="0 0 18 17" fill="none" xmlns="http://www.w3.org/2000/svg">
<path d="M1 16.416V13.916L14.927 0L17.416 2.489L3.5 16.416H1ZM2 15.416H3.073L13.629 4.866L13.102 4.314L12.55 3.787L2 14.343V15.416ZM13.102 4.314L12.55 3.787L13.629 4.866L13.102 4.314ZM14.769 13.416C14.769 12.842 14.5757 12.332 14.189 11.886C13.8023 11.44 13.2393 11.0707 12.5 10.778L11.736 11.542C12.376 11.76 12.875 12.03 13.233 12.352C13.591 12.674 13.7697 13.0287 13.769 13.416C13.769 13.9787 13.404 14.4527 12.674 14.838C11.944 15.2233 10.9757 15.416 9.769 15.416V16.416C11.1303 16.416 12.304 16.1527 13.29 15.626C14.276 15.0993 14.7693 14.3627 14.77 13.416M1.613 9.939L2.343 9.189C1.891 9.00433 1.554 8.805 1.332 8.591C1.11 8.377 0.999333 8.152 1 7.916C1 7.60067 1.19267 7.29733 1.578 7.006C1.96333 6.71467 2.65667 6.35567 3.658 5.929C4.90467 5.397 5.77333 4.909 6.264 4.465C6.75467 4.021 7 3.50467 7 2.916C7 2.17133 6.71267 1.56833 6.138 1.107C5.56267 0.646333 4.76667 0.416 3.75 0.416C3.14467 0.416 2.50967 0.557667 1.845 0.841C1.18033 1.12433 0.639 1.502 0.221 1.974L0.866 2.644C1.244 2.25333 1.70133 1.951 2.238 1.737C2.774 1.523 3.278 1.416 3.75 1.416C4.47 1.416 5.02533 1.554 5.416 1.83C5.80533 2.10533 6 2.46733 6 2.916C6 3.26467 5.821 3.57967 5.463 3.861C5.10433 4.14233 4.37067 4.52467 3.262 5.008C2.02333 5.56467 1.17 6.05067 0.702 6.466C0.234 6.88133 0 7.36467 0 7.916C0 8.32267 0.135667 8.696 0.407 9.036C0.678333 9.376 1.07967 9.677 1.613 9.939Z" fill="#1C1C1C"/>
</svg>
