<svg width="49" height="57" viewBox="0 0 49 57" fill="none" xmlns="http://www.w3.org/2000/svg">
<mask id="path-1-outside-1_2_1336" maskUnits="userSpaceOnUse" x="-0.75" y="-0.75" width="50" height="58" fill="black">
<rect fill="white" x="-0.75" y="-0.75" width="50" height="58"/>
<path fill-rule="evenodd" clip-rule="evenodd" d="M24.25 31.704C22.9367 32.9283 21.3774 33.8637 19.6742 34.4489C17.9711 35.034 16.1625 35.2557 14.367 35.0993C14.3589 36.1411 14.3344 37.2103 14.3118 38.2259C14.1273 46.3739 14.0307 50.7632 24.25 54.8885C34.4693 50.7632 34.3727 46.3739 34.1882 38.2259C34.1656 37.2103 34.1411 36.1411 34.133 35.0993C32.3375 35.2557 30.5289 35.034 28.8258 34.4489C27.1226 33.8637 25.5633 32.9283 24.25 31.704ZM27.2285 40.5465C27.2894 40.483 27.3625 40.4322 27.4434 40.3971C27.5244 40.3621 27.6117 40.3434 27.7 40.3423C27.7884 40.3412 27.8761 40.3577 27.9579 40.3907C28.0398 40.4238 28.1141 40.4727 28.1766 40.5347C28.239 40.5967 28.2883 40.6705 28.3216 40.7517C28.3549 40.8329 28.3714 40.9199 28.3702 41.0075C28.3691 41.0951 28.3502 41.1816 28.3148 41.2619C28.2794 41.3422 28.2281 41.4147 28.164 41.475L23.7719 45.8313C23.7105 45.8922 23.6375 45.9406 23.5573 45.9736C23.477 46.0065 23.391 46.0235 23.3041 46.0235C23.2172 46.0235 23.1312 46.0065 23.051 45.9736C22.9707 45.9406 22.8978 45.8922 22.8364 45.8313L20.336 43.3513C20.2171 43.2272 20.1517 43.062 20.1539 42.8908C20.156 42.7196 20.2255 42.556 20.3476 42.4349C20.4696 42.3138 20.6344 42.2448 20.807 42.2425C20.9796 42.2403 21.1463 42.305 21.2715 42.4228L23.3044 44.4391L27.2285 40.5465ZM13.151 45.1592C8.38865 42.6955 4.59717 38.7185 2.38335 33.8647C0.169526 29.0109 -0.338669 23.5609 0.940089 18.3867C2.21885 13.2125 5.21063 8.61338 9.43668 5.32522C13.6627 2.03707 18.8787 0.25 24.25 0.25C29.6213 0.25 34.8373 2.03707 39.0633 5.32522C43.2894 8.61338 46.2812 13.2125 47.5599 18.3867C48.8387 23.5609 48.3305 29.0109 46.1166 33.8647C43.9028 38.7185 40.1114 42.6955 35.349 45.1592C34.7278 49.8266 32.3956 53.0682 24.4941 56.2029C24.3367 56.2657 24.1608 56.2657 24.0034 56.2029C16.1044 53.0682 13.7716 49.8259 13.151 45.1592ZM35.4958 43.5878C35.5918 41.9698 35.5516 40.1906 35.5065 38.1997C35.4807 37.0547 35.4531 35.8349 35.4531 34.3625C35.4532 34.2763 35.4361 34.1909 35.4029 34.1112C35.3697 34.0315 35.3209 33.9591 35.2594 33.8981C35.1979 33.8371 35.1249 33.7887 35.0446 33.7558C34.9642 33.7228 34.8781 33.7059 34.7912 33.706C34.7478 33.706 34.7045 33.7102 34.6619 33.7184C32.8532 33.9792 31.0078 33.8077 29.2793 33.2182C27.5509 32.6287 25.9895 31.6382 24.725 30.3293C24.6649 30.2673 24.5932 30.2176 24.5138 30.1832C24.4344 30.1487 24.3489 30.1301 24.2622 30.1284C24.1756 30.1267 24.0895 30.142 24.0088 30.1734C23.9281 30.2048 23.8544 30.2516 23.792 30.3112L23.7738 30.3293C22.5053 31.6423 20.9381 32.6348 19.2035 33.2237C17.4689 33.8126 15.6172 33.9807 13.8036 33.7141C13.7175 33.7011 13.6296 33.7051 13.5451 33.726C13.4606 33.7468 13.3811 33.784 13.3111 33.8354C13.2411 33.8868 13.1821 33.9514 13.1374 34.0256C13.0927 34.0997 13.0632 34.1818 13.0506 34.2673C13.0462 34.2989 13.0439 34.3307 13.0437 34.3625C13.0437 35.8337 13.0161 37.0547 12.9904 38.1997C12.9452 40.1912 12.9057 41.971 13.0011 43.5878C11.8397 42.9278 10.7395 42.1673 9.71323 41.3151C9.83957 37.5748 11.4265 34.0296 14.1388 31.428C16.8512 28.8265 20.4768 27.3721 24.25 27.3721C28.0232 27.3721 31.6488 28.8265 34.3612 31.428C37.0735 34.0296 38.6604 37.5748 38.7868 41.3151C37.7593 42.1668 36.6581 42.9269 35.4958 43.5866V43.5878ZM24.25 36.2743C25.8628 36.2743 27.4256 36.8289 28.6723 37.8437C29.919 38.8585 30.7724 40.2706 31.087 41.8395C31.4016 43.4083 31.158 45.0368 30.3978 46.4475C29.6375 47.8582 28.4076 48.9639 26.9176 49.576C25.4276 50.1881 23.7697 50.2689 22.2263 49.8045C20.683 49.3402 19.3498 48.3595 18.4538 47.0294C17.5578 45.6994 17.1545 44.1024 17.3125 42.5105C17.4706 40.9187 18.1803 39.4304 19.3207 38.2993C19.9674 37.6564 20.7358 37.1466 21.5817 36.799C22.4276 36.4515 23.3344 36.2732 24.25 36.2743ZM28.2437 39.2278C29.1675 40.1441 29.7424 41.3497 29.8705 42.6392C29.9986 43.9287 29.6719 45.2224 28.9461 46.2998C28.2204 47.3772 27.1404 48.1717 25.8902 48.5479C24.64 48.9241 23.297 48.8587 22.09 48.363C20.8829 47.8672 19.8866 46.9716 19.2706 45.8289C18.6547 44.6862 18.4573 43.367 18.712 42.0961C18.9668 40.8252 19.658 39.6812 20.6678 38.8591C21.6776 38.037 22.9436 37.5875 24.25 37.5874C24.9919 37.5865 25.7266 37.731 26.412 38.0126C27.0973 38.2943 27.7199 38.7068 28.2437 39.2278ZM24.25 26.0614C25.8264 26.0614 27.3539 25.5193 28.5725 24.5274C29.791 23.5355 30.6251 22.1553 30.9326 20.6218C31.2401 19.0884 31.002 17.4967 30.2588 16.1178C29.5157 14.739 28.3135 13.6584 26.8571 13.0601C25.4008 12.4619 23.7803 12.383 22.2718 12.8369C20.7634 13.2908 19.4603 14.2495 18.5846 15.5495C17.7089 16.8495 17.3147 18.4105 17.4693 19.9664C17.6239 21.5223 18.3177 22.9769 19.4324 24.0824C20.0644 24.7108 20.8154 25.2091 21.6421 25.5487C22.4689 25.8883 23.3551 26.0625 24.25 26.0614ZM30.0037 25.0103C31.2162 23.8057 32.0133 22.2514 32.2809 20.5701C32.5484 18.8887 32.2727 17.1665 31.4932 15.6501C30.7136 14.1336 29.4703 12.9007 27.9412 12.1279C26.412 11.3551 24.6756 11.082 22.9804 11.3478C21.2853 11.6135 19.7184 12.4045 18.5041 13.6074C17.2899 14.8102 16.4905 16.3634 16.2205 18.0443C15.9505 19.7253 16.2238 21.4479 17.0011 22.9655C17.7785 24.483 19.02 25.7177 20.548 26.4927C17.3509 27.2562 14.4716 28.9854 12.3076 31.4413C10.1437 33.8973 8.80174 36.9589 8.46711 40.2036C5.21933 37.0858 2.98423 33.0772 2.04826 28.6914C1.11229 24.3056 1.5181 19.7425 3.21367 15.5869C4.90925 11.4313 7.81734 7.87261 11.5652 5.36683C15.3131 2.86105 19.7301 1.52238 24.25 1.52238C28.7699 1.52238 33.1869 2.86105 36.9348 5.36683C40.6827 7.87261 43.5908 11.4313 45.2863 15.5869C46.9819 19.7425 47.3877 24.3056 46.4517 28.6914C45.5158 33.0772 43.2807 37.0858 40.0329 40.2036C39.6983 36.9589 38.3563 33.8973 36.1924 31.4413C34.0284 28.9854 31.1491 27.2562 27.952 26.4927C28.7098 26.1079 29.4021 25.6077 30.0037 25.0103Z"/>
</mask>
<path fill-rule="evenodd" clip-rule="evenodd" d="M24.25 31.704C22.9367 32.9283 21.3774 33.8637 19.6742 34.4489C17.9711 35.034 16.1625 35.2557 14.367 35.0993C14.3589 36.1411 14.3344 37.2103 14.3118 38.2259C14.1273 46.3739 14.0307 50.7632 24.25 54.8885C34.4693 50.7632 34.3727 46.3739 34.1882 38.2259C34.1656 37.2103 34.1411 36.1411 34.133 35.0993C32.3375 35.2557 30.5289 35.034 28.8258 34.4489C27.1226 33.8637 25.5633 32.9283 24.25 31.704ZM27.2285 40.5465C27.2894 40.483 27.3625 40.4322 27.4434 40.3971C27.5244 40.3621 27.6117 40.3434 27.7 40.3423C27.7884 40.3412 27.8761 40.3577 27.9579 40.3907C28.0398 40.4238 28.1141 40.4727 28.1766 40.5347C28.239 40.5967 28.2883 40.6705 28.3216 40.7517C28.3549 40.8329 28.3714 40.9199 28.3702 41.0075C28.3691 41.0951 28.3502 41.1816 28.3148 41.2619C28.2794 41.3422 28.2281 41.4147 28.164 41.475L23.7719 45.8313C23.7105 45.8922 23.6375 45.9406 23.5573 45.9736C23.477 46.0065 23.391 46.0235 23.3041 46.0235C23.2172 46.0235 23.1312 46.0065 23.051 45.9736C22.9707 45.9406 22.8978 45.8922 22.8364 45.8313L20.336 43.3513C20.2171 43.2272 20.1517 43.062 20.1539 42.8908C20.156 42.7196 20.2255 42.556 20.3476 42.4349C20.4696 42.3138 20.6344 42.2448 20.807 42.2425C20.9796 42.2403 21.1463 42.305 21.2715 42.4228L23.3044 44.4391L27.2285 40.5465ZM13.151 45.1592C8.38865 42.6955 4.59717 38.7185 2.38335 33.8647C0.169526 29.0109 -0.338669 23.5609 0.940089 18.3867C2.21885 13.2125 5.21063 8.61338 9.43668 5.32522C13.6627 2.03707 18.8787 0.25 24.25 0.25C29.6213 0.25 34.8373 2.03707 39.0633 5.32522C43.2894 8.61338 46.2812 13.2125 47.5599 18.3867C48.8387 23.5609 48.3305 29.0109 46.1166 33.8647C43.9028 38.7185 40.1114 42.6955 35.349 45.1592C34.7278 49.8266 32.3956 53.0682 24.4941 56.2029C24.3367 56.2657 24.1608 56.2657 24.0034 56.2029C16.1044 53.0682 13.7716 49.8259 13.151 45.1592ZM35.4958 43.5878C35.5918 41.9698 35.5516 40.1906 35.5065 38.1997C35.4807 37.0547 35.4531 35.8349 35.4531 34.3625C35.4532 34.2763 35.4361 34.1909 35.4029 34.1112C35.3697 34.0315 35.3209 33.9591 35.2594 33.8981C35.1979 33.8371 35.1249 33.7887 35.0446 33.7558C34.9642 33.7228 34.8781 33.7059 34.7912 33.706C34.7478 33.706 34.7045 33.7102 34.6619 33.7184C32.8532 33.9792 31.0078 33.8077 29.2793 33.2182C27.5509 32.6287 25.9895 31.6382 24.725 30.3293C24.6649 30.2673 24.5932 30.2176 24.5138 30.1832C24.4344 30.1487 24.3489 30.1301 24.2622 30.1284C24.1756 30.1267 24.0895 30.142 24.0088 30.1734C23.9281 30.2048 23.8544 30.2516 23.792 30.3112L23.7738 30.3293C22.5053 31.6423 20.9381 32.6348 19.2035 33.2237C17.4689 33.8126 15.6172 33.9807 13.8036 33.7141C13.7175 33.7011 13.6296 33.7051 13.5451 33.726C13.4606 33.7468 13.3811 33.784 13.3111 33.8354C13.2411 33.8868 13.1821 33.9514 13.1374 34.0256C13.0927 34.0997 13.0632 34.1818 13.0506 34.2673C13.0462 34.2989 13.0439 34.3307 13.0437 34.3625C13.0437 35.8337 13.0161 37.0547 12.9904 38.1997C12.9452 40.1912 12.9057 41.971 13.0011 43.5878C11.8397 42.9278 10.7395 42.1673 9.71323 41.3151C9.83957 37.5748 11.4265 34.0296 14.1388 31.428C16.8512 28.8265 20.4768 27.3721 24.25 27.3721C28.0232 27.3721 31.6488 28.8265 34.3612 31.428C37.0735 34.0296 38.6604 37.5748 38.7868 41.3151C37.7593 42.1668 36.6581 42.9269 35.4958 43.5866V43.5878ZM24.25 36.2743C25.8628 36.2743 27.4256 36.8289 28.6723 37.8437C29.919 38.8585 30.7724 40.2706 31.087 41.8395C31.4016 43.4083 31.158 45.0368 30.3978 46.4475C29.6375 47.8582 28.4076 48.9639 26.9176 49.576C25.4276 50.1881 23.7697 50.2689 22.2263 49.8045C20.683 49.3402 19.3498 48.3595 18.4538 47.0294C17.5578 45.6994 17.1545 44.1024 17.3125 42.5105C17.4706 40.9187 18.1803 39.4304 19.3207 38.2993C19.9674 37.6564 20.7358 37.1466 21.5817 36.799C22.4276 36.4515 23.3344 36.2732 24.25 36.2743ZM28.2437 39.2278C29.1675 40.1441 29.7424 41.3497 29.8705 42.6392C29.9986 43.9287 29.6719 45.2224 28.9461 46.2998C28.2204 47.3772 27.1404 48.1717 25.8902 48.5479C24.64 48.9241 23.297 48.8587 22.09 48.363C20.8829 47.8672 19.8866 46.9716 19.2706 45.8289C18.6547 44.6862 18.4573 43.367 18.712 42.0961C18.9668 40.8252 19.658 39.6812 20.6678 38.8591C21.6776 38.037 22.9436 37.5875 24.25 37.5874C24.9919 37.5865 25.7266 37.731 26.412 38.0126C27.0973 38.2943 27.7199 38.7068 28.2437 39.2278ZM24.25 26.0614C25.8264 26.0614 27.3539 25.5193 28.5725 24.5274C29.791 23.5355 30.6251 22.1553 30.9326 20.6218C31.2401 19.0884 31.002 17.4967 30.2588 16.1178C29.5157 14.739 28.3135 13.6584 26.8571 13.0601C25.4008 12.4619 23.7803 12.383 22.2718 12.8369C20.7634 13.2908 19.4603 14.2495 18.5846 15.5495C17.7089 16.8495 17.3147 18.4105 17.4693 19.9664C17.6239 21.5223 18.3177 22.9769 19.4324 24.0824C20.0644 24.7108 20.8154 25.2091 21.6421 25.5487C22.4689 25.8883 23.3551 26.0625 24.25 26.0614ZM30.0037 25.0103C31.2162 23.8057 32.0133 22.2514 32.2809 20.5701C32.5484 18.8887 32.2727 17.1665 31.4932 15.6501C30.7136 14.1336 29.4703 12.9007 27.9412 12.1279C26.412 11.3551 24.6756 11.082 22.9804 11.3478C21.2853 11.6135 19.7184 12.4045 18.5041 13.6074C17.2899 14.8102 16.4905 16.3634 16.2205 18.0443C15.9505 19.7253 16.2238 21.4479 17.0011 22.9655C17.7785 24.483 19.02 25.7177 20.548 26.4927C17.3509 27.2562 14.4716 28.9854 12.3076 31.4413C10.1437 33.8973 8.80174 36.9589 8.46711 40.2036C5.21933 37.0858 2.98423 33.0772 2.04826 28.6914C1.11229 24.3056 1.5181 19.7425 3.21367 15.5869C4.90925 11.4313 7.81734 7.87261 11.5652 5.36683C15.3131 2.86105 19.7301 1.52238 24.25 1.52238C28.7699 1.52238 33.1869 2.86105 36.9348 5.36683C40.6827 7.87261 43.5908 11.4313 45.2863 15.5869C46.9819 19.7425 47.3877 24.3056 46.4517 28.6914C45.5158 33.0772 43.2807 37.0858 40.0329 40.2036C39.6983 36.9589 38.3563 33.8973 36.1924 31.4413C34.0284 28.9854 31.1491 27.2562 27.952 26.4927C28.7098 26.1079 29.4021 25.6077 30.0037 25.0103Z" fill="white"/>
<path fill-rule="evenodd" clip-rule="evenodd" d="M24.25 31.704C22.9367 32.9283 21.3774 33.8637 19.6742 34.4489C17.9711 35.034 16.1625 35.2557 14.367 35.0993C14.3589 36.1411 14.3344 37.2103 14.3118 38.2259C14.1273 46.3739 14.0307 50.7632 24.25 54.8885C34.4693 50.7632 34.3727 46.3739 34.1882 38.2259C34.1656 37.2103 34.1411 36.1411 34.133 35.0993C32.3375 35.2557 30.5289 35.034 28.8258 34.4489C27.1226 33.8637 25.5633 32.9283 24.25 31.704ZM27.2285 40.5465C27.2894 40.483 27.3625 40.4322 27.4434 40.3971C27.5244 40.3621 27.6117 40.3434 27.7 40.3423C27.7884 40.3412 27.8761 40.3577 27.9579 40.3907C28.0398 40.4238 28.1141 40.4727 28.1766 40.5347C28.239 40.5967 28.2883 40.6705 28.3216 40.7517C28.3549 40.8329 28.3714 40.9199 28.3702 41.0075C28.3691 41.0951 28.3502 41.1816 28.3148 41.2619C28.2794 41.3422 28.2281 41.4147 28.164 41.475L23.7719 45.8313C23.7105 45.8922 23.6375 45.9406 23.5573 45.9736C23.477 46.0065 23.391 46.0235 23.3041 46.0235C23.2172 46.0235 23.1312 46.0065 23.051 45.9736C22.9707 45.9406 22.8978 45.8922 22.8364 45.8313L20.336 43.3513C20.2171 43.2272 20.1517 43.062 20.1539 42.8908C20.156 42.7196 20.2255 42.556 20.3476 42.4349C20.4696 42.3138 20.6344 42.2448 20.807 42.2425C20.9796 42.2403 21.1463 42.305 21.2715 42.4228L23.3044 44.4391L27.2285 40.5465ZM13.151 45.1592C8.38865 42.6955 4.59717 38.7185 2.38335 33.8647C0.169526 29.0109 -0.338669 23.5609 0.940089 18.3867C2.21885 13.2125 5.21063 8.61338 9.43668 5.32522C13.6627 2.03707 18.8787 0.25 24.25 0.25C29.6213 0.25 34.8373 2.03707 39.0633 5.32522C43.2894 8.61338 46.2812 13.2125 47.5599 18.3867C48.8387 23.5609 48.3305 29.0109 46.1166 33.8647C43.9028 38.7185 40.1114 42.6955 35.349 45.1592C34.7278 49.8266 32.3956 53.0682 24.4941 56.2029C24.3367 56.2657 24.1608 56.2657 24.0034 56.2029C16.1044 53.0682 13.7716 49.8259 13.151 45.1592ZM35.4958 43.5878C35.5918 41.9698 35.5516 40.1906 35.5065 38.1997C35.4807 37.0547 35.4531 35.8349 35.4531 34.3625C35.4532 34.2763 35.4361 34.1909 35.4029 34.1112C35.3697 34.0315 35.3209 33.9591 35.2594 33.8981C35.1979 33.8371 35.1249 33.7887 35.0446 33.7558C34.9642 33.7228 34.8781 33.7059 34.7912 33.706C34.7478 33.706 34.7045 33.7102 34.6619 33.7184C32.8532 33.9792 31.0078 33.8077 29.2793 33.2182C27.5509 32.6287 25.9895 31.6382 24.725 30.3293C24.6649 30.2673 24.5932 30.2176 24.5138 30.1832C24.4344 30.1487 24.3489 30.1301 24.2622 30.1284C24.1756 30.1267 24.0895 30.142 24.0088 30.1734C23.9281 30.2048 23.8544 30.2516 23.792 30.3112L23.7738 30.3293C22.5053 31.6423 20.9381 32.6348 19.2035 33.2237C17.4689 33.8126 15.6172 33.9807 13.8036 33.7141C13.7175 33.7011 13.6296 33.7051 13.5451 33.726C13.4606 33.7468 13.3811 33.784 13.3111 33.8354C13.2411 33.8868 13.1821 33.9514 13.1374 34.0256C13.0927 34.0997 13.0632 34.1818 13.0506 34.2673C13.0462 34.2989 13.0439 34.3307 13.0437 34.3625C13.0437 35.8337 13.0161 37.0547 12.9904 38.1997C12.9452 40.1912 12.9057 41.971 13.0011 43.5878C11.8397 42.9278 10.7395 42.1673 9.71323 41.3151C9.83957 37.5748 11.4265 34.0296 14.1388 31.428C16.8512 28.8265 20.4768 27.3721 24.25 27.3721C28.0232 27.3721 31.6488 28.8265 34.3612 31.428C37.0735 34.0296 38.6604 37.5748 38.7868 41.3151C37.7593 42.1668 36.6581 42.9269 35.4958 43.5866V43.5878ZM24.25 36.2743C25.8628 36.2743 27.4256 36.8289 28.6723 37.8437C29.919 38.8585 30.7724 40.2706 31.087 41.8395C31.4016 43.4083 31.158 45.0368 30.3978 46.4475C29.6375 47.8582 28.4076 48.9639 26.9176 49.576C25.4276 50.1881 23.7697 50.2689 22.2263 49.8045C20.683 49.3402 19.3498 48.3595 18.4538 47.0294C17.5578 45.6994 17.1545 44.1024 17.3125 42.5105C17.4706 40.9187 18.1803 39.4304 19.3207 38.2993C19.9674 37.6564 20.7358 37.1466 21.5817 36.799C22.4276 36.4515 23.3344 36.2732 24.25 36.2743ZM28.2437 39.2278C29.1675 40.1441 29.7424 41.3497 29.8705 42.6392C29.9986 43.9287 29.6719 45.2224 28.9461 46.2998C28.2204 47.3772 27.1404 48.1717 25.8902 48.5479C24.64 48.9241 23.297 48.8587 22.09 48.363C20.8829 47.8672 19.8866 46.9716 19.2706 45.8289C18.6547 44.6862 18.4573 43.367 18.712 42.0961C18.9668 40.8252 19.658 39.6812 20.6678 38.8591C21.6776 38.037 22.9436 37.5875 24.25 37.5874C24.9919 37.5865 25.7266 37.731 26.412 38.0126C27.0973 38.2943 27.7199 38.7068 28.2437 39.2278ZM24.25 26.0614C25.8264 26.0614 27.3539 25.5193 28.5725 24.5274C29.791 23.5355 30.6251 22.1553 30.9326 20.6218C31.2401 19.0884 31.002 17.4967 30.2588 16.1178C29.5157 14.739 28.3135 13.6584 26.8571 13.0601C25.4008 12.4619 23.7803 12.383 22.2718 12.8369C20.7634 13.2908 19.4603 14.2495 18.5846 15.5495C17.7089 16.8495 17.3147 18.4105 17.4693 19.9664C17.6239 21.5223 18.3177 22.9769 19.4324 24.0824C20.0644 24.7108 20.8154 25.2091 21.6421 25.5487C22.4689 25.8883 23.3551 26.0625 24.25 26.0614ZM30.0037 25.0103C31.2162 23.8057 32.0133 22.2514 32.2809 20.5701C32.5484 18.8887 32.2727 17.1665 31.4932 15.6501C30.7136 14.1336 29.4703 12.9007 27.9412 12.1279C26.412 11.3551 24.6756 11.082 22.9804 11.3478C21.2853 11.6135 19.7184 12.4045 18.5041 13.6074C17.2899 14.8102 16.4905 16.3634 16.2205 18.0443C15.9505 19.7253 16.2238 21.4479 17.0011 22.9655C17.7785 24.483 19.02 25.7177 20.548 26.4927C17.3509 27.2562 14.4716 28.9854 12.3076 31.4413C10.1437 33.8973 8.80174 36.9589 8.46711 40.2036C5.21933 37.0858 2.98423 33.0772 2.04826 28.6914C1.11229 24.3056 1.5181 19.7425 3.21367 15.5869C4.90925 11.4313 7.81734 7.87261 11.5652 5.36683C15.3131 2.86105 19.7301 1.52238 24.25 1.52238C28.7699 1.52238 33.1869 2.86105 36.9348 5.36683C40.6827 7.87261 43.5908 11.4313 45.2863 15.5869C46.9819 19.7425 47.3877 24.3056 46.4517 28.6914C45.5158 33.0772 43.2807 37.0858 40.0329 40.2036C39.6983 36.9589 38.3563 33.8973 36.1924 31.4413C34.0284 28.9854 31.1491 27.2562 27.952 26.4927C28.7098 26.1079 29.4021 25.6077 30.0037 25.0103Z" stroke="white" stroke-width="0.5" mask="url(#path-1-outside-1_2_1336)"/>
</svg>
