<svg width="49" height="53" viewBox="0 0 49 53" fill="none" xmlns="http://www.w3.org/2000/svg">
<path d="M35.7622 29.1937C36.436 28.7574 37.2436 28.7572 37.9155 29.1937C39.8986 30.4809 42.0425 31.2554 44.2896 31.4935C44.904 31.5587 45.4543 31.9197 45.8413 32.4965C46.1723 32.9916 46.3519 33.598 46.355 34.2269L46.3452 34.4974C45.8318 41.5612 42.8104 47.84 38.0464 51.7191C37.7153 51.9887 37.3361 52.1348 36.9497 52.1586V52.1664H36.8394C36.417 52.1664 35.995 52.0164 35.6323 51.7211C30.8682 47.8418 27.8458 41.5633 27.3325 34.4994C27.2802 33.7759 27.458 33.065 27.8384 32.4965C28.2252 31.9198 28.7736 31.5588 29.3882 31.4935C31.6352 31.2555 33.779 30.4808 35.7622 29.1937ZM36.8384 30.4633C36.6907 30.4634 36.5385 30.5083 36.396 30.6019V30.6029C34.2541 31.9939 31.9349 32.8307 29.5054 33.0883C29.2632 33.1142 29.0373 33.2566 28.8706 33.5043L28.8696 33.5033C28.7086 33.7438 28.6324 34.0476 28.6548 34.3607L28.7075 34.976C29.3141 41.3158 32.0911 46.9084 36.3784 50.3969C36.6558 50.6224 37.0219 50.6223 37.2993 50.3969C41.7227 46.7955 44.5418 40.9497 45.0229 34.3578C45.0453 34.0446 44.9686 33.7418 44.8081 33.5043L44.8071 33.5033C44.6403 33.2559 44.4145 33.114 44.1724 33.0883C41.743 32.8307 39.4245 31.9938 37.2827 30.6029C37.1378 30.5089 36.9876 30.4635 36.8384 30.4633Z" fill="white" stroke="white" stroke-width="0.25"/>
<path d="M42.5786 21.515C42.9688 21.5153 43.2425 21.8991 43.2427 22.3148V28.5795C43.2427 28.9922 42.9715 29.379 42.5786 29.3793C42.1881 29.3793 41.9136 28.9955 41.9136 28.5795V22.3148C41.9138 21.9021 42.1856 21.515 42.5786 21.515Z" fill="white" stroke="white" stroke-width="0.25"/>
<path d="M22.312 0.728516C23.1867 -0.0144628 24.3135 -0.0732435 25.229 0.560547L25.4087 0.697266L47.1353 18.543C47.752 19.0504 48.1692 19.8207 48.3169 20.7109C48.4461 21.4898 48.3571 22.2842 48.064 22.9824L47.9263 23.2754C47.4202 24.2435 46.5549 24.834 45.604 24.834C45.0574 24.8339 44.5286 24.6351 44.0757 24.2617V24.2627L23.9058 7.69336L4.4585 24.2334C3.99563 24.6274 3.45394 24.8369 2.89795 24.8369C2.72215 24.8369 2.54455 24.8151 2.36768 24.7725V24.7715C1.63437 24.5973 1.00784 24.076 0.596191 23.3232V23.3223C-0.247078 21.7694 0.0689908 19.6418 1.32373 18.5723L22.312 0.728516ZM23.8774 1.72461C23.6372 1.72489 23.3957 1.8036 23.1743 1.96191L23.0806 2.03418L2.09424 19.8779C1.47268 20.4068 1.27374 21.4527 1.63037 22.2793L1.70947 22.4414L1.79639 22.5879C2.01203 22.912 2.30453 23.1242 2.62842 23.2021C2.9984 23.2907 3.37291 23.1947 3.69092 22.9248L23.5132 6.06641C23.7398 5.87266 24.0433 5.87379 24.271 6.06055L44.8237 22.9404H44.8228C45.0594 23.1339 45.3276 23.2334 45.6011 23.2334C46.0746 23.2333 46.5273 22.9371 46.7993 22.416L46.8003 22.415C47.0171 22.0032 47.0918 21.5078 47.0112 21.0225C46.9306 20.5371 46.7037 20.1249 46.3823 19.8584L24.6567 2.01758V2.0166C24.4174 1.81923 24.1459 1.72474 23.8774 1.72461Z" fill="white" stroke="white" stroke-width="0.25"/>
<path d="M5.91455 21.4955C6.30475 21.4958 6.57842 21.8795 6.57861 22.2953V48.6918H29.8394C30.2296 48.692 30.5032 49.0758 30.5034 49.4916C30.5034 49.9043 30.2323 50.2921 29.8394 50.2924H5.91455C5.52399 50.2924 5.24951 49.9076 5.24951 49.4916V22.2953C5.24971 21.8826 5.52157 21.4955 5.91455 21.4955Z" fill="white" stroke="white" stroke-width="0.25"/>
<path d="M22.1079 25.776C23.491 25.7761 24.5707 27.172 24.5708 28.8268V46.1227C24.5707 46.5347 24.3006 46.9201 23.9087 46.9215V46.9225H23.9067V46.9215C23.5172 46.9203 23.2437 46.538 23.2437 46.1227V28.8268C23.2436 27.9985 22.7094 27.3766 22.1099 27.3766H13.7124C13.1154 27.3768 12.5826 27.9982 12.5825 28.8268V46.1227C12.5824 46.5353 12.3113 46.9222 11.9185 46.9225C11.528 46.9225 11.2535 46.5387 11.2534 46.1227V28.8268C11.2535 27.1724 12.3313 25.7762 13.7104 25.776H22.1079Z" fill="white" stroke="white" stroke-width="0.25"/>
<path d="M13.9458 34.5912C14.336 34.5915 14.6097 34.9752 14.6099 35.391V36.7699C14.6098 37.1825 14.3386 37.5694 13.9458 37.5697C13.5553 37.5697 13.2808 37.1859 13.2808 36.7699V35.391C13.281 34.9783 13.5528 34.5912 13.9458 34.5912Z" fill="white" stroke="white" stroke-width="0.25"/>
<path d="M23.9312 13.5043C25.7829 13.5044 27.2444 15.3782 27.2446 17.6195C27.2446 19.8611 25.7831 21.7355 23.9312 21.7357C22.0791 21.7357 20.6167 19.8612 20.6167 17.6195C20.6169 15.3781 22.0792 13.5043 23.9312 13.5043ZM23.9312 15.1019C22.8608 15.1019 21.9438 16.2052 21.9438 17.6205C21.944 19.0355 22.8609 20.1381 23.9312 20.1381C25.0013 20.1379 25.9173 19.0354 25.9175 17.6205C25.9175 16.2054 25.0014 15.1021 23.9312 15.1019Z" fill="white" stroke="white" stroke-width="0.25"/>
<path d="M5.91064 48.6932C6.30121 48.6933 6.57568 49.0778 6.57568 49.494C6.57561 49.9069 6.30373 50.2947 5.91064 50.2948H3.6333C3.24274 50.2948 2.96834 49.9102 2.96826 49.494C2.96826 49.081 3.24012 48.6932 3.6333 48.6932H5.91064Z" fill="white" stroke="white" stroke-width="0.25"/>
<path d="M39.2153 37.1771C39.395 37.1771 39.5675 37.2633 39.6938 37.4213C39.9405 37.7299 39.9405 38.222 39.6938 38.5306L36.3569 42.7064C36.2355 42.8581 36.0638 42.9506 35.8774 42.9506H35.6196L35.6577 42.9008C35.5596 42.8592 35.4708 42.7922 35.3999 42.7035L33.981 40.9281C33.7346 40.6195 33.7345 40.1273 33.981 39.8187C34.1073 39.6606 34.2807 39.5746 34.4604 39.5746C34.64 39.5747 34.8127 39.6608 34.939 39.8187L35.8794 40.9955L38.7368 37.4213C38.8631 37.2632 39.0357 37.1772 39.2153 37.1771Z" fill="white" stroke="white" stroke-width="0.25"/>
</svg>
