<svg width="49" height="49" viewBox="0 0 49 49" fill="none" xmlns="http://www.w3.org/2000/svg">
<path d="M0.560547 8.47656C1.2978 7.40768 2.79489 7.01418 4.02832 7.59082C4.05638 7.60221 8.46845 9.58163 17.5195 10.2783C18.0523 10.3184 18.4625 10.76 18.418 11.2764C18.3732 11.7938 17.8829 12.1561 17.3613 12.1211H17.3604C7.9452 11.397 3.36956 9.34581 3.16602 9.25195H3.16504C2.78856 9.0754 2.34759 9.21581 2.16992 9.54395H2.16895C1.98973 9.86988 2.12654 10.2767 2.48633 10.4482C2.63392 10.5191 6.55458 12.3265 14.6191 13.2217L21.5225 11.6123C23.3068 11.1955 25.1968 11.1955 26.9834 11.6123L33.8115 13.2051C41.8923 12.3014 45.8386 10.5304 46.0068 10.4541L46.1328 10.3809C46.3998 10.1879 46.4903 9.84336 46.3418 9.55664C46.1693 9.22602 45.7248 9.07769 45.3564 9.24414L45.3555 9.24316C45.2304 9.29984 40.5011 11.3707 31.0234 12.1123L31.0244 12.1133C30.4975 12.1627 30.0089 11.7847 29.9619 11.2705V11.2695C29.9176 10.7511 30.3285 10.3129 30.8604 10.2705V10.2695C38.805 9.64713 43.2733 8.06072 44.2891 7.66406L44.5127 7.57324C45.8428 6.979 47.4504 7.49521 48.1035 8.74023V8.74121C48.7548 9.99873 48.1919 11.5101 46.8662 12.1211H46.8652C46.6885 12.2005 42.9501 13.8823 35.5205 14.8652V24.7305C35.5205 26.223 35.0006 27.8698 34.1543 29.3457C33.3077 30.822 32.1288 32.1383 30.8008 32.9639L30.377 33.2266V47.4502C30.3767 47.9686 29.9292 48.3748 29.3955 48.375C28.8616 48.375 28.4133 47.9687 28.4131 47.4502V34.4482L25.2344 36.4277V47.4492C25.2344 47.9679 24.7859 48.3749 24.252 48.375C23.7179 48.375 23.2695 47.9679 23.2695 47.4492V36.4248L20.0908 34.4482V47.4502C20.0906 47.9687 19.6423 48.375 19.1084 48.375C18.5745 48.375 18.1262 47.9687 18.126 47.4502V33.2266L17.7031 32.9639C16.3752 32.1375 15.1962 30.8217 14.3496 29.3457C13.5032 27.8699 12.9825 26.2232 12.9824 24.7305V14.8906C6.59561 14.0548 3.00547 12.7022 1.91895 12.2412L1.60449 12.1016C0.959851 11.7964 0.482515 11.2754 0.258789 10.6318C0.0350363 9.9878 0.0936482 9.30067 0.422852 8.69922L0.560547 8.47656ZM26.5107 13.4082C25.0316 13.0626 23.4687 13.0627 21.9941 13.4082L14.9453 15.0527L14.9443 24.7285C14.9444 25.8855 15.3817 27.2341 16.085 28.46C16.788 29.6854 17.7493 30.7743 18.7832 31.418L24.251 34.8193L28.8467 31.96L28.877 31.9414L29.7168 31.418C30.7518 30.7754 31.7132 29.6867 32.416 28.4609C33.119 27.2349 33.5556 25.8857 33.5557 24.7285V15.0518L26.5107 13.4082Z" fill="white" stroke="white" stroke-width="0.25"/>
<path d="M16.1992 3.86377C16.701 3.68965 17.2671 3.92697 17.457 4.40869C17.6511 4.89578 17.3803 5.42797 16.875 5.60107C15.0882 6.2142 13.396 7.05163 11.8447 8.09131L11.8457 8.09229C11.6718 8.20924 11.4725 8.26416 11.2754 8.26416C10.9729 8.26412 10.6739 8.1343 10.4805 7.88428C10.1573 7.46596 10.2651 6.88409 10.7061 6.5874L11.3496 6.17139C12.8663 5.22663 14.4932 4.45192 16.1992 3.86377Z" fill="white" stroke="white" stroke-width="0.25"/>
<path d="M31.0547 4.41064C31.2448 3.92845 31.8137 3.69506 32.3125 3.8667C34.2602 4.53687 36.1054 5.4522 37.7998 6.5874C38.2405 6.88416 38.3485 7.46606 38.0254 7.88428C37.8323 8.13401 37.5328 8.26611 37.2295 8.26611C37.0345 8.26607 36.8358 8.21107 36.6621 8.09424C35.1086 7.05457 33.4191 6.21831 31.6367 5.60303C31.1322 5.42791 30.8603 4.89615 31.0547 4.41064Z" fill="white" stroke="white" stroke-width="0.25"/>
<path d="M24.2529 0.125C27.1509 0.12508 29.5213 2.32712 29.5215 5.0498C29.5215 7.77265 27.151 9.97551 24.2529 9.97559C21.3548 9.97559 18.9844 7.77481 18.9844 5.0498C18.9846 2.32707 21.3549 0.125 24.2529 0.125ZM24.2529 1.97461C22.423 1.97461 20.9494 3.36235 20.9492 5.0498C20.9492 6.73742 22.4229 8.125 24.2529 8.125C26.0829 8.12492 27.5566 6.73738 27.5566 5.0498C27.5564 3.36239 26.0828 1.97469 24.2529 1.97461Z" fill="white" stroke="white" stroke-width="0.25"/>
<path d="M3.03809 15.2998C3.2636 14.8314 3.84436 14.6326 4.33398 14.8398C4.82779 15.0471 5.05353 15.5965 4.82617 16.0674C3.5775 18.6485 2.94336 21.401 2.94336 24.2529C2.94338 31.9939 7.72415 38.9794 15.2002 42.251L15.9326 42.5557C16.3979 42.7406 16.6395 43.2294 16.4893 43.6855L16.4531 43.7764C16.2923 44.1298 15.928 44.3367 15.5498 44.3369C15.4226 44.3369 15.2925 44.3135 15.168 44.2637C6.55003 40.8504 0.976562 32.9979 0.976562 24.2529C0.976602 21.1358 1.67044 18.1229 3.03809 15.2998Z" fill="white" stroke="white" stroke-width="0.25"/>
<path d="M44.2871 15.0723C44.7813 14.8699 45.3606 15.0763 45.5762 15.5488H45.5752C46.8641 18.2965 47.5176 21.2274 47.5176 24.2539C47.5174 33.0091 41.933 40.8655 33.3037 44.2725H33.3027C33.1811 44.3197 33.0517 44.3438 32.9248 44.3438C32.5468 44.3436 32.1824 44.1364 32.0215 43.7832C31.8039 43.3062 32.046 42.7633 32.5439 42.5664H32.5449C40.4522 39.4438 45.5537 32.2537 45.5537 24.2529C45.5537 21.4856 44.9569 18.8075 43.7793 16.2949C43.557 15.8186 43.7938 15.2741 44.2871 15.0723Z" fill="white" stroke="white" stroke-width="0.25"/>
<path d="M30.4199 17.9971C30.8028 17.6401 31.42 17.6399 31.8027 17.9971C32.1905 18.3589 32.1904 18.9496 31.8027 19.3115L24.9443 25.7119C24.7576 25.8838 24.5101 25.9785 24.252 25.9785C23.9936 25.9785 23.744 25.8821 23.5596 25.71L20.1309 22.5059C19.743 22.1439 19.7431 21.5533 20.1309 21.1914C20.5137 20.8341 21.1308 20.8341 21.5137 21.1914L24.25 23.749L30.4199 17.9971Z" fill="white" stroke="white" stroke-width="0.25"/>
</svg>
