<svg width="31" height="56" viewBox="0 0 31 56" fill="none" xmlns="http://www.w3.org/2000/svg">
<path d="M14.459 11.0776C14.8336 10.9281 15.0876 10.9401 15.9258 11.0532C16.5183 11.3805 16.5311 11.3918 17.165 11.8716L17.1699 11.8755L17.8857 12.4077C18.058 12.5412 18.2307 12.6745 18.4082 12.812L18.7754 13.0972L19.1934 12.895C19.8457 12.5801 20.4245 12.2499 21.0264 11.8569C21.5172 11.7851 21.5523 11.7858 22.2295 11.77H22.2441C22.4632 11.7607 22.6822 11.7503 22.9062 11.7407C23.331 11.8326 23.5626 11.942 23.7432 12.0796C23.9316 12.2233 24.1073 12.4288 24.373 12.7915C24.4784 13.4388 24.46 14.0777 24.4189 14.8306L24.418 14.8403V14.8501C24.4119 15.0628 24.4057 15.2755 24.3994 15.4946C24.3838 16.0096 24.3598 16.5264 24.334 17.0474L24.3057 17.6128L24.8428 17.7944C25.1158 17.8868 25.1298 17.8908 25.3818 17.9761C26.1631 18.3287 26.7389 18.7734 27.4756 19.3843L27.4795 19.3872C27.7283 19.591 27.9773 19.7946 28.2334 20.0044C29.0515 20.7468 29.4271 21.1165 29.5752 21.9175C29.5081 22.3391 29.4126 22.6355 29.2773 22.8999C29.1396 23.169 28.9474 23.4325 28.6562 23.7837C28.1742 24.038 27.6897 24.2835 27.1992 24.5112L26.7666 24.7124L26.7656 25.189C26.7645 25.5321 26.7629 25.8755 26.7617 26.229C26.7558 27.5041 26.7419 28.7797 26.7246 30.0571V30.0591C26.7183 30.6137 26.7144 31.1684 26.7129 31.7231C26.7104 32.5138 26.6992 33.3052 26.6865 34.1001V34.1147C26.6876 34.3539 26.6884 34.5934 26.6895 34.8394C26.6641 35.951 26.6047 36.5488 26.0684 37.2495C25.5261 37.7448 25.1584 37.9791 24.7871 38.1069C24.393 38.2426 23.925 38.2845 23.1182 38.2769H23.1143C22.8226 38.2755 22.5309 38.2743 22.2305 38.2729H22.2314C21.8603 38.268 21.4888 38.2634 21.1064 38.2583H21.1045C19.6154 38.2443 19.3769 38.2414 18.2666 38.231V29.0356H12.1719V38.2378C11.2453 38.2554 10.3138 38.2733 9.36035 38.2915L9.35449 38.2925L8.24512 38.3218C7.49307 38.3287 6.95159 38.333 6.53125 38.3188C6.10753 38.3045 5.85633 38.2721 5.67578 38.2222C5.3637 38.1359 5.18647 37.9909 4.5498 37.3784C4.23531 37.0164 4.078 36.7825 3.98633 36.5581C3.89662 36.3384 3.84657 36.0698 3.85059 35.604V34.8892C3.85477 34.6346 3.85897 34.3799 3.86328 34.1177V34.1089C3.86443 33.8469 3.86601 33.5849 3.86719 33.3149C3.87171 32.4808 3.88226 31.6455 3.89258 30.8081V30.8042L3.90332 29.1001C3.91224 27.7105 3.92573 26.3206 3.94238 24.9302L3.95117 24.2573L3.28223 24.1763C3.04257 24.1474 2.80291 24.1181 2.55664 24.0884C2.14751 24.0013 1.91385 23.9034 1.73242 23.7788C1.54821 23.6523 1.36758 23.4641 1.11426 23.1177C0.844079 22.5889 0.727424 22.1388 0.754883 21.6021C0.950959 21.1197 1.28841 20.704 1.73633 20.2993C2.22972 19.8535 2.77532 19.4863 3.375 19.0337L3.37598 19.0327C3.64925 18.8252 3.64947 18.8234 3.92676 18.6128L3.92773 18.6138C5.20942 17.6462 6.50664 16.6976 7.8125 15.7544H7.81348C8.4979 15.2589 9.17929 14.7593 9.8584 14.2603L9.85742 14.2593C10.2884 13.9441 10.7202 13.63 11.1514 13.3149L11.1543 13.313C11.3513 13.168 11.5481 13.0229 11.751 12.8735C12.51 12.3224 13.0631 11.9211 13.502 11.6265C13.9429 11.3304 14.2308 11.1688 14.459 11.0776Z" stroke="white" stroke-width="1.5"/>
<path d="M22.1436 42.8014C23.3504 41.3683 24.3854 40.5296 25.9229 40.776C26.2709 40.958 26.3829 41.0206 26.4727 41.0924C26.544 41.1495 26.6062 41.2181 26.7598 41.402C26.6991 42.7607 26.0358 43.501 24.9258 44.7614L24.9189 44.7692C24.5729 45.1728 24.2275 45.5772 23.8818 45.9811C23.6278 46.2746 23.6273 46.2744 23.3682 46.5739L23.3643 46.5787C22.9417 47.0761 22.5369 47.5797 22.1416 48.0963C21.9407 48.3575 21.7392 48.6183 21.5322 48.8873L21.5283 48.8932C21.372 49.1005 21.215 49.3075 21.0547 49.5201C19.8959 50.6251 18.5324 50.7852 16.7002 50.8873H16.6934L16.6855 50.8883L15.2988 50.9948C14.5835 51.0473 13.8708 51.0966 13.1582 51.1373C11.2995 51.2433 10.2167 51.2975 9.23828 51.65C8.25792 52.0033 7.4059 52.6475 5.94043 53.7389L5.87207 53.7887L5.81738 53.8531C5.66907 54.0272 5.52021 54.2011 5.36816 54.3795C4.95504 54.7273 4.58933 54.9715 4.11816 55.2291C3.94794 55.211 3.85667 55.1956 3.78418 55.1696C3.74756 55.1564 3.70565 55.1376 3.65137 55.1002C3.56532 53.8019 3.53973 52.4982 3.51855 51.1725V51.1696L3.5 50.442L3.47363 49.7155C3.39164 47.6961 3.35806 46.7909 3.43457 46.1989C3.49667 45.7186 3.62159 45.4847 4.01465 44.8317C4.5663 44.2822 5.12662 43.8316 5.78418 43.3727L5.82324 43.3453L5.8584 43.3141C6.13093 43.0675 6.4016 42.8171 6.6709 42.5641C7.73057 41.7435 8.63933 41.3185 9.58887 41.1129C10.5618 40.9023 11.6257 40.9109 13.0254 41.026H13.0322C13.7154 41.076 14.3899 41.0943 15.0576 41.1061V41.1071C15.4928 41.1186 15.9282 41.1298 16.3633 41.1422L16.3711 41.1432C16.5693 41.1467 16.7676 41.1493 16.9717 41.153C17.588 41.1825 17.9975 41.2543 18.3398 41.3951C18.6322 41.5155 18.9172 41.7039 19.252 42.0358C19.3165 42.3712 19.3379 42.4993 19.3379 42.6227C19.3379 42.741 19.3172 42.8635 19.2588 43.1696C18.9418 43.4382 18.7261 43.6017 18.5059 43.7106C18.2704 43.827 17.9922 43.899 17.5156 43.899H16.7656V45.8668L17.4395 45.9362C17.8484 45.9781 18.2589 46.0163 18.667 45.942C19.1059 45.8621 19.4816 45.6665 19.8848 45.3639L19.9375 45.3239L19.9834 45.275C20.2462 44.9924 20.2465 44.9921 20.5146 44.7037L20.5137 44.7028C20.6994 44.506 20.8858 44.3098 21.0771 44.1071L21.0859 44.0983L21.0947 44.0885C21.463 43.6702 21.8105 43.2375 22.1436 42.8014Z" stroke="white" stroke-width="1.5"/>
<path d="M2.69531 1.63281C4.49935 0.516696 6.52508 0.461407 8.38574 1.46191C8.50561 1.6058 8.62666 1.75038 8.75 1.89844L8.79102 1.94727L8.83887 1.98828C9.33285 2.40966 9.78422 2.64583 10.3027 2.75586C10.7673 2.85442 11.2698 2.84151 11.7676 2.84473V2.8457C12.1238 2.85197 12.4807 2.8578 12.8477 2.86426L12.8574 2.86523C13.2318 2.867 13.6061 2.86711 13.9805 2.86816V2.86914C14.7121 2.87496 15.4441 2.88502 16.1777 2.89648H16.1855C16.4992 2.89804 16.8132 2.8988 17.1357 2.90039C18.0167 2.9714 18.639 3.17038 19.3408 3.62988C19.5532 3.9972 19.6483 4.46665 19.6553 5.03516C19.6623 5.60917 19.5797 6.20404 19.498 6.80273C19.2559 7.14182 19.0853 7.34103 18.9033 7.48926C18.7214 7.63749 18.4943 7.76132 18.1055 7.90527C17.837 7.56966 17.5671 7.23186 17.291 6.88672L16.4873 5.88184L16.0098 7.07617C15.9345 7.26426 15.8581 7.45239 15.7812 7.64453C15.679 7.77212 15.6086 7.86149 15.5498 7.92871C15.5086 7.97574 15.4834 7.99983 15.4707 8.01172C15.4483 8.0168 15.3984 8.02668 15.2998 8.04395C14.9423 8.03878 14.582 8.01664 14.2129 7.98926L13.8633 7.29004L13.6562 6.875H12.0713L11.9258 7.4375C11.8929 7.56496 11.8596 7.69271 11.8262 7.82227C11.7852 7.87866 11.7444 7.93542 11.7031 7.99219C11.2926 8.03287 10.887 8.07166 10.4824 8.09961L10.4277 8.10352L10.373 8.11523C9.2336 8.36616 8.57469 9.0709 7.9668 9.67285C7.6042 9.99211 7.14636 10.1415 6.56445 10.1963C5.9537 10.2537 5.35898 10.2035 4.64062 10.1953C4.15629 10.1511 3.83828 10.0667 3.56641 9.93555C3.28477 9.79972 3.00536 9.59178 2.62109 9.23633L2.61523 9.23145L2.60938 9.22559C2.37781 9.02033 2.14604 8.8153 1.9082 8.60449C0.937096 7.48232 0.839002 6.40791 0.866211 4.71387C1.03741 3.44414 1.6612 2.64702 2.69531 1.63281Z" stroke="white" stroke-width="1.5"/>
</svg>
