<svg width="73" height="41" viewBox="0 0 73 41" fill="none" xmlns="http://www.w3.org/2000/svg">
<mask id="path-1-outside-1_2_1296" maskUnits="userSpaceOnUse" x="-0.75" y="-0.75" width="74" height="42" fill="black">
<rect fill="white" x="-0.75" y="-0.75" width="74" height="42"/>
<path fill-rule="evenodd" clip-rule="evenodd" d="M53.8265 7.90077C47.6838 4.01429 40.5716 1.94657 33.3086 1.93564C30.5634 1.94542 27.8257 2.22407 25.1344 2.76763L27.728 7.90238L53.8265 7.90077ZM39.8101 22.9777C39.9697 22.8257 40.1822 22.7423 40.4022 22.7452C40.6223 22.7482 40.8325 22.8372 40.988 22.9933C41.1436 23.1494 41.2322 23.3603 41.235 23.581C41.2377 23.8017 41.1544 24.0147 41.0028 24.1747L36.2886 28.9027C36.2102 28.9813 36.1171 29.0436 36.0147 29.0862C35.9123 29.1287 35.8026 29.1506 35.6918 29.1506C35.5809 29.1506 35.4712 29.1287 35.3688 29.0862C35.2664 29.0436 35.1734 28.9813 35.095 28.9027L32.4095 26.211C32.258 26.0509 32.1748 25.8378 32.1777 25.6171C32.1806 25.3964 32.2694 25.1856 32.425 25.0295C32.5807 24.8735 32.791 24.7847 33.011 24.7819C33.2311 24.7791 33.4435 24.8627 33.603 25.0147L35.6894 27.1079L39.8101 22.9777ZM36.7069 13.6565C35.3047 14.9554 33.6501 15.9498 31.8468 16.5776C30.0435 17.2053 28.1303 17.4528 26.2272 17.3046C26.2168 18.3805 26.192 19.4949 26.168 20.5555C25.972 29.3263 25.8688 34.0575 36.7029 38.4942C47.5379 34.0575 47.4339 29.3263 47.2379 20.5555C47.2147 19.4949 47.1891 18.3805 47.1795 17.3046C45.2764 17.4528 43.3632 17.2053 41.5599 16.5776C39.7566 15.9498 38.102 14.9554 36.6997 13.6565H36.7069ZM31.2503 14.9972C29.4074 15.6295 27.4403 15.81 25.5136 15.5235C25.4042 15.5074 25.2926 15.5132 25.1854 15.5404C25.0781 15.5676 24.9773 15.6158 24.8886 15.6821C24.7999 15.7484 24.7251 15.8316 24.6684 15.9269C24.6118 16.0222 24.5744 16.1277 24.5585 16.2375C24.5525 16.2782 24.5493 16.3192 24.5489 16.3603C24.5489 17.9777 24.5201 19.2903 24.4921 20.5226C24.4865 20.7922 24.4801 21.0578 24.4745 21.3201H22.9929C22.8062 19.8758 22.1016 18.549 21.0107 17.5876C19.9198 16.6262 18.5173 16.096 17.0651 16.096C15.6128 16.096 14.2103 16.6262 13.1194 17.5876C12.0285 18.549 11.3239 19.8758 11.1372 21.3201H5.13018C4.55301 21.3303 3.99055 21.1372 3.54062 20.7745L2.92384 20.2932C2.60981 20.0558 2.35638 19.7471 2.18437 19.3924C2.01235 19.0377 1.92663 18.6472 1.93426 18.2529V9.77656C1.93468 9.72803 1.95415 9.68163 1.98843 9.64739C2.02272 9.61316 2.06908 9.59384 2.11746 9.59363H7.23412C7.37727 9.59393 7.51807 9.55717 7.64291 9.48693C12.5933 6.6582 17.9069 4.5232 23.4353 3.1415L28.6928 13.549C28.7414 13.6498 28.8096 13.7399 28.8934 13.8141C28.9771 13.8882 29.0747 13.9448 29.1805 13.9808C29.2863 14.0167 29.3982 14.0311 29.5096 14.0232C29.621 14.0153 29.7298 13.9852 29.8295 13.9347C29.9292 13.8842 30.0179 13.8144 30.0904 13.7291C30.1629 13.6439 30.2178 13.5451 30.2518 13.4384C30.2858 13.3317 30.2984 13.2193 30.2886 13.1077C30.2789 12.9961 30.2471 12.8876 30.1951 12.7884L28.5832 9.59684H55.5496C55.5823 9.59673 55.6149 9.59459 55.6472 9.59043C60.7634 9.40452 65.7627 11.151 69.6565 14.4845C69.9233 14.8188 70.1082 15.2112 70.1965 15.6302C70.4143 16.3751 70.5369 17.1448 70.5612 17.9207V21.1412C70.5617 21.1654 70.5572 21.1895 70.5482 21.212C70.5391 21.2345 70.5257 21.2549 70.5086 21.2721C70.4915 21.2892 70.4711 21.3027 70.4487 21.3118C70.4262 21.3209 70.4022 21.3254 70.3781 21.3249H62.3383C62.1516 19.8806 61.447 18.5538 60.3561 17.5924C59.2652 16.631 57.8626 16.1008 56.4104 16.1008C54.9582 16.1008 53.5556 16.631 52.4648 17.5924C51.3739 18.5538 50.6693 19.8806 50.4826 21.3249H48.9402C48.9343 21.0623 48.9285 20.7965 48.9226 20.5274C48.8954 19.2951 48.8658 17.9825 48.8658 16.3651C48.8662 16.2538 48.8447 16.1435 48.8026 16.0405C48.7604 15.9375 48.6983 15.8439 48.62 15.7651C48.5417 15.6862 48.4486 15.6236 48.3461 15.5809C48.2435 15.5382 48.1336 15.5162 48.0226 15.5162C47.9673 15.5163 47.9121 15.5216 47.8578 15.5323C45.938 15.811 43.9796 15.6259 42.1455 14.9924C40.3115 14.3588 38.6548 13.2951 37.3133 11.8898C37.2368 11.8099 37.1453 11.7459 37.044 11.7015C36.9428 11.657 36.8338 11.633 36.7234 11.6309C36.6129 11.6287 36.503 11.6484 36.4002 11.6889C36.2973 11.7293 36.2034 11.7897 36.1238 11.8666L36.1006 11.8898C34.7544 13.2992 33.0913 14.3647 31.2503 14.9972ZM48.969 23.0122C49.0578 31.0609 48.1514 35.7223 37.0205 40.1895C36.8195 40.2702 36.5952 40.2702 36.3941 40.1895C25.2624 35.7223 24.3561 31.0609 24.4449 23.0122H22.9697C22.7492 24.4241 22.033 25.7106 20.9502 26.6397C19.8674 27.5688 18.4893 28.0793 17.0643 28.0793C15.6393 28.0793 14.2611 27.5688 13.1783 26.6397C12.0955 25.7106 11.3793 24.4241 11.1588 23.0122H5.13018C4.17777 23.0226 3.25123 22.7014 2.50865 22.1032L1.89187 21.6218C1.37476 21.2278 0.956911 20.7178 0.671836 20.1326C0.386761 19.5474 0.242392 18.9033 0.250309 18.2521V9.77656C0.251155 9.27933 0.448481 8.80271 0.799056 8.45111C1.14963 8.09952 1.62487 7.90162 2.12066 7.90077H7.02293C16.227 2.81523 24.9889 0.264976 33.3086 0.25C41.7753 0.280292 50.0229 2.95158 56.908 7.89355C61.993 8.01481 66.8816 9.8874 70.7524 13.1968C71.2759 13.7393 71.6426 14.4143 71.8132 15.1496C72.0752 16.0494 72.222 16.979 72.25 17.9159V21.1364C72.25 21.3823 72.2014 21.6258 72.1073 21.8528C72.0131 22.0799 71.8751 22.286 71.7012 22.4594C71.5284 22.6336 71.323 22.7718 71.0967 22.8661C70.8705 22.9604 70.6279 23.009 70.3829 23.009H62.3159C62.0959 24.4214 61.3799 25.7086 60.2969 26.6382C59.214 27.5678 57.8355 28.0787 56.41 28.0787C54.9846 28.0787 53.606 27.5678 52.5231 26.6382C51.4402 25.7086 50.7241 24.4214 50.5042 23.009L48.969 23.0122ZM36.7069 18.3018C34.9444 18.3009 33.2361 18.9129 31.8732 20.0336C30.5102 21.1544 29.577 22.7144 29.2324 24.4479C28.8878 26.1814 29.1534 27.9811 29.9837 29.5403C30.814 31.0995 32.1577 32.3217 33.7858 32.9986C35.414 33.6755 37.2258 33.7652 38.9125 33.2524C40.5992 32.7397 42.0565 31.6562 43.0359 30.1866C44.0153 28.717 44.4562 26.9523 44.2836 25.1932C44.111 23.434 43.3355 21.7894 42.0892 20.5395C41.3828 19.8291 40.5433 19.2657 39.6191 18.8817C38.6949 18.4977 37.7041 18.3006 36.7037 18.3018H36.7069ZM40.8996 21.7357C39.9297 20.7625 38.6533 20.1567 37.2878 20.0215C35.9224 19.8863 34.5526 20.2302 33.4116 20.9945C32.2707 21.7587 31.4292 22.8961 31.0307 24.2128C30.6322 25.5295 30.7013 26.9441 31.2262 28.2154C31.7511 29.4868 32.6992 30.5363 33.9092 31.1851C35.1191 31.8339 36.516 32.0419 37.8617 31.7736C39.2074 31.5052 40.4187 30.7773 41.2892 29.7136C42.1597 28.65 42.6355 27.3166 42.6356 25.9406C42.6367 25.1596 42.4839 24.386 42.186 23.6644C41.8881 22.9428 41.4509 22.2873 40.8996 21.7357ZM59.4431 19.0464C58.7414 18.3423 57.818 17.9041 56.8302 17.8063C55.8424 17.7085 54.8513 17.9573 54.0259 18.5102C53.2005 19.0631 52.5918 19.886 52.3035 20.8385C52.0152 21.7911 52.0652 22.8145 52.4449 23.7342C52.8246 24.654 53.5105 25.4133 54.3859 25.8827C55.2612 26.3521 56.2717 26.5025 57.2453 26.3084C58.2188 26.1144 59.0951 25.5877 59.7249 24.8183C60.3547 24.0489 60.699 23.0842 60.6991 22.0887C60.7 21.5236 60.5895 20.9639 60.374 20.4418C60.1584 19.9197 59.8421 19.4455 59.4431 19.0464ZM20.0978 19.0464C19.3961 18.3429 18.4729 17.9052 17.4855 17.8079C16.4981 17.7105 15.5076 17.9595 14.6827 18.5125C13.8578 19.0654 13.2496 19.888 12.9617 20.8403C12.6738 21.7925 12.724 22.8154 13.1037 23.7346C13.4835 24.6539 14.1693 25.4127 15.0443 25.8817C15.9193 26.3508 16.9294 26.501 17.9025 26.3069C18.8756 26.1128 19.7515 25.5863 20.381 24.8172C21.0104 24.048 21.3545 23.0838 21.3545 22.0887C21.3553 21.5236 21.2447 20.9638 21.029 20.4417C20.8133 19.9196 20.4969 19.4454 20.0978 19.0464Z"/>
</mask>
<path fill-rule="evenodd" clip-rule="evenodd" d="M53.8265 7.90077C47.6838 4.01429 40.5716 1.94657 33.3086 1.93564C30.5634 1.94542 27.8257 2.22407 25.1344 2.76763L27.728 7.90238L53.8265 7.90077ZM39.8101 22.9777C39.9697 22.8257 40.1822 22.7423 40.4022 22.7452C40.6223 22.7482 40.8325 22.8372 40.988 22.9933C41.1436 23.1494 41.2322 23.3603 41.235 23.581C41.2377 23.8017 41.1544 24.0147 41.0028 24.1747L36.2886 28.9027C36.2102 28.9813 36.1171 29.0436 36.0147 29.0862C35.9123 29.1287 35.8026 29.1506 35.6918 29.1506C35.5809 29.1506 35.4712 29.1287 35.3688 29.0862C35.2664 29.0436 35.1734 28.9813 35.095 28.9027L32.4095 26.211C32.258 26.0509 32.1748 25.8378 32.1777 25.6171C32.1806 25.3964 32.2694 25.1856 32.425 25.0295C32.5807 24.8735 32.791 24.7847 33.011 24.7819C33.2311 24.7791 33.4435 24.8627 33.603 25.0147L35.6894 27.1079L39.8101 22.9777ZM36.7069 13.6565C35.3047 14.9554 33.6501 15.9498 31.8468 16.5776C30.0435 17.2053 28.1303 17.4528 26.2272 17.3046C26.2168 18.3805 26.192 19.4949 26.168 20.5555C25.972 29.3263 25.8688 34.0575 36.7029 38.4942C47.5379 34.0575 47.4339 29.3263 47.2379 20.5555C47.2147 19.4949 47.1891 18.3805 47.1795 17.3046C45.2764 17.4528 43.3632 17.2053 41.5599 16.5776C39.7566 15.9498 38.102 14.9554 36.6997 13.6565H36.7069ZM31.2503 14.9972C29.4074 15.6295 27.4403 15.81 25.5136 15.5235C25.4042 15.5074 25.2926 15.5132 25.1854 15.5404C25.0781 15.5676 24.9773 15.6158 24.8886 15.6821C24.7999 15.7484 24.7251 15.8316 24.6684 15.9269C24.6118 16.0222 24.5744 16.1277 24.5585 16.2375C24.5525 16.2782 24.5493 16.3192 24.5489 16.3603C24.5489 17.9777 24.5201 19.2903 24.4921 20.5226C24.4865 20.7922 24.4801 21.0578 24.4745 21.3201H22.9929C22.8062 19.8758 22.1016 18.549 21.0107 17.5876C19.9198 16.6262 18.5173 16.096 17.0651 16.096C15.6128 16.096 14.2103 16.6262 13.1194 17.5876C12.0285 18.549 11.3239 19.8758 11.1372 21.3201H5.13018C4.55301 21.3303 3.99055 21.1372 3.54062 20.7745L2.92384 20.2932C2.60981 20.0558 2.35638 19.7471 2.18437 19.3924C2.01235 19.0377 1.92663 18.6472 1.93426 18.2529V9.77656C1.93468 9.72803 1.95415 9.68163 1.98843 9.64739C2.02272 9.61316 2.06908 9.59384 2.11746 9.59363H7.23412C7.37727 9.59393 7.51807 9.55717 7.64291 9.48693C12.5933 6.6582 17.9069 4.5232 23.4353 3.1415L28.6928 13.549C28.7414 13.6498 28.8096 13.7399 28.8934 13.8141C28.9771 13.8882 29.0747 13.9448 29.1805 13.9808C29.2863 14.0167 29.3982 14.0311 29.5096 14.0232C29.621 14.0153 29.7298 13.9852 29.8295 13.9347C29.9292 13.8842 30.0179 13.8144 30.0904 13.7291C30.1629 13.6439 30.2178 13.5451 30.2518 13.4384C30.2858 13.3317 30.2984 13.2193 30.2886 13.1077C30.2789 12.9961 30.2471 12.8876 30.1951 12.7884L28.5832 9.59684H55.5496C55.5823 9.59673 55.6149 9.59459 55.6472 9.59043C60.7634 9.40452 65.7627 11.151 69.6565 14.4845C69.9233 14.8188 70.1082 15.2112 70.1965 15.6302C70.4143 16.3751 70.5369 17.1448 70.5612 17.9207V21.1412C70.5617 21.1654 70.5572 21.1895 70.5482 21.212C70.5391 21.2345 70.5257 21.2549 70.5086 21.2721C70.4915 21.2892 70.4711 21.3027 70.4487 21.3118C70.4262 21.3209 70.4022 21.3254 70.3781 21.3249H62.3383C62.1516 19.8806 61.447 18.5538 60.3561 17.5924C59.2652 16.631 57.8626 16.1008 56.4104 16.1008C54.9582 16.1008 53.5556 16.631 52.4648 17.5924C51.3739 18.5538 50.6693 19.8806 50.4826 21.3249H48.9402C48.9343 21.0623 48.9285 20.7965 48.9226 20.5274C48.8954 19.2951 48.8658 17.9825 48.8658 16.3651C48.8662 16.2538 48.8447 16.1435 48.8026 16.0405C48.7604 15.9375 48.6983 15.8439 48.62 15.7651C48.5417 15.6862 48.4486 15.6236 48.3461 15.5809C48.2435 15.5382 48.1336 15.5162 48.0226 15.5162C47.9673 15.5163 47.9121 15.5216 47.8578 15.5323C45.938 15.811 43.9796 15.6259 42.1455 14.9924C40.3115 14.3588 38.6548 13.2951 37.3133 11.8898C37.2368 11.8099 37.1453 11.7459 37.044 11.7015C36.9428 11.657 36.8338 11.633 36.7234 11.6309C36.6129 11.6287 36.503 11.6484 36.4002 11.6889C36.2973 11.7293 36.2034 11.7897 36.1238 11.8666L36.1006 11.8898C34.7544 13.2992 33.0913 14.3647 31.2503 14.9972ZM48.969 23.0122C49.0578 31.0609 48.1514 35.7223 37.0205 40.1895C36.8195 40.2702 36.5952 40.2702 36.3941 40.1895C25.2624 35.7223 24.3561 31.0609 24.4449 23.0122H22.9697C22.7492 24.4241 22.033 25.7106 20.9502 26.6397C19.8674 27.5688 18.4893 28.0793 17.0643 28.0793C15.6393 28.0793 14.2611 27.5688 13.1783 26.6397C12.0955 25.7106 11.3793 24.4241 11.1588 23.0122H5.13018C4.17777 23.0226 3.25123 22.7014 2.50865 22.1032L1.89187 21.6218C1.37476 21.2278 0.956911 20.7178 0.671836 20.1326C0.386761 19.5474 0.242392 18.9033 0.250309 18.2521V9.77656C0.251155 9.27933 0.448481 8.80271 0.799056 8.45111C1.14963 8.09952 1.62487 7.90162 2.12066 7.90077H7.02293C16.227 2.81523 24.9889 0.264976 33.3086 0.25C41.7753 0.280292 50.0229 2.95158 56.908 7.89355C61.993 8.01481 66.8816 9.8874 70.7524 13.1968C71.2759 13.7393 71.6426 14.4143 71.8132 15.1496C72.0752 16.0494 72.222 16.979 72.25 17.9159V21.1364C72.25 21.3823 72.2014 21.6258 72.1073 21.8528C72.0131 22.0799 71.8751 22.286 71.7012 22.4594C71.5284 22.6336 71.323 22.7718 71.0967 22.8661C70.8705 22.9604 70.6279 23.009 70.3829 23.009H62.3159C62.0959 24.4214 61.3799 25.7086 60.2969 26.6382C59.214 27.5678 57.8355 28.0787 56.41 28.0787C54.9846 28.0787 53.606 27.5678 52.5231 26.6382C51.4402 25.7086 50.7241 24.4214 50.5042 23.009L48.969 23.0122ZM36.7069 18.3018C34.9444 18.3009 33.2361 18.9129 31.8732 20.0336C30.5102 21.1544 29.577 22.7144 29.2324 24.4479C28.8878 26.1814 29.1534 27.9811 29.9837 29.5403C30.814 31.0995 32.1577 32.3217 33.7858 32.9986C35.414 33.6755 37.2258 33.7652 38.9125 33.2524C40.5992 32.7397 42.0565 31.6562 43.0359 30.1866C44.0153 28.717 44.4562 26.9523 44.2836 25.1932C44.111 23.434 43.3355 21.7894 42.0892 20.5395C41.3828 19.8291 40.5433 19.2657 39.6191 18.8817C38.6949 18.4977 37.7041 18.3006 36.7037 18.3018H36.7069ZM40.8996 21.7357C39.9297 20.7625 38.6533 20.1567 37.2878 20.0215C35.9224 19.8863 34.5526 20.2302 33.4116 20.9945C32.2707 21.7587 31.4292 22.8961 31.0307 24.2128C30.6322 25.5295 30.7013 26.9441 31.2262 28.2154C31.7511 29.4868 32.6992 30.5363 33.9092 31.1851C35.1191 31.8339 36.516 32.0419 37.8617 31.7736C39.2074 31.5052 40.4187 30.7773 41.2892 29.7136C42.1597 28.65 42.6355 27.3166 42.6356 25.9406C42.6367 25.1596 42.4839 24.386 42.186 23.6644C41.8881 22.9428 41.4509 22.2873 40.8996 21.7357ZM59.4431 19.0464C58.7414 18.3423 57.818 17.9041 56.8302 17.8063C55.8424 17.7085 54.8513 17.9573 54.0259 18.5102C53.2005 19.0631 52.5918 19.886 52.3035 20.8385C52.0152 21.7911 52.0652 22.8145 52.4449 23.7342C52.8246 24.654 53.5105 25.4133 54.3859 25.8827C55.2612 26.3521 56.2717 26.5025 57.2453 26.3084C58.2188 26.1144 59.0951 25.5877 59.7249 24.8183C60.3547 24.0489 60.699 23.0842 60.6991 22.0887C60.7 21.5236 60.5895 20.9639 60.374 20.4418C60.1584 19.9197 59.8421 19.4455 59.4431 19.0464ZM20.0978 19.0464C19.3961 18.3429 18.4729 17.9052 17.4855 17.8079C16.4981 17.7105 15.5076 17.9595 14.6827 18.5125C13.8578 19.0654 13.2496 19.888 12.9617 20.8403C12.6738 21.7925 12.724 22.8154 13.1037 23.7346C13.4835 24.6539 14.1693 25.4127 15.0443 25.8817C15.9193 26.3508 16.9294 26.501 17.9025 26.3069C18.8756 26.1128 19.7515 25.5863 20.381 24.8172C21.0104 24.048 21.3545 23.0838 21.3545 22.0887C21.3553 21.5236 21.2447 20.9638 21.029 20.4417C20.8133 19.9196 20.4969 19.4454 20.0978 19.0464Z" fill="white"/>
<path fill-rule="evenodd" clip-rule="evenodd" d="M53.8265 7.90077C47.6838 4.01429 40.5716 1.94657 33.3086 1.93564C30.5634 1.94542 27.8257 2.22407 25.1344 2.76763L27.728 7.90238L53.8265 7.90077ZM39.8101 22.9777C39.9697 22.8257 40.1822 22.7423 40.4022 22.7452C40.6223 22.7482 40.8325 22.8372 40.988 22.9933C41.1436 23.1494 41.2322 23.3603 41.235 23.581C41.2377 23.8017 41.1544 24.0147 41.0028 24.1747L36.2886 28.9027C36.2102 28.9813 36.1171 29.0436 36.0147 29.0862C35.9123 29.1287 35.8026 29.1506 35.6918 29.1506C35.5809 29.1506 35.4712 29.1287 35.3688 29.0862C35.2664 29.0436 35.1734 28.9813 35.095 28.9027L32.4095 26.211C32.258 26.0509 32.1748 25.8378 32.1777 25.6171C32.1806 25.3964 32.2694 25.1856 32.425 25.0295C32.5807 24.8735 32.791 24.7847 33.011 24.7819C33.2311 24.7791 33.4435 24.8627 33.603 25.0147L35.6894 27.1079L39.8101 22.9777ZM36.7069 13.6565C35.3047 14.9554 33.6501 15.9498 31.8468 16.5776C30.0435 17.2053 28.1303 17.4528 26.2272 17.3046C26.2168 18.3805 26.192 19.4949 26.168 20.5555C25.972 29.3263 25.8688 34.0575 36.7029 38.4942C47.5379 34.0575 47.4339 29.3263 47.2379 20.5555C47.2147 19.4949 47.1891 18.3805 47.1795 17.3046C45.2764 17.4528 43.3632 17.2053 41.5599 16.5776C39.7566 15.9498 38.102 14.9554 36.6997 13.6565H36.7069ZM31.2503 14.9972C29.4074 15.6295 27.4403 15.81 25.5136 15.5235C25.4042 15.5074 25.2926 15.5132 25.1854 15.5404C25.0781 15.5676 24.9773 15.6158 24.8886 15.6821C24.7999 15.7484 24.7251 15.8316 24.6684 15.9269C24.6118 16.0222 24.5744 16.1277 24.5585 16.2375C24.5525 16.2782 24.5493 16.3192 24.5489 16.3603C24.5489 17.9777 24.5201 19.2903 24.4921 20.5226C24.4865 20.7922 24.4801 21.0578 24.4745 21.3201H22.9929C22.8062 19.8758 22.1016 18.549 21.0107 17.5876C19.9198 16.6262 18.5173 16.096 17.0651 16.096C15.6128 16.096 14.2103 16.6262 13.1194 17.5876C12.0285 18.549 11.3239 19.8758 11.1372 21.3201H5.13018C4.55301 21.3303 3.99055 21.1372 3.54062 20.7745L2.92384 20.2932C2.60981 20.0558 2.35638 19.7471 2.18437 19.3924C2.01235 19.0377 1.92663 18.6472 1.93426 18.2529V9.77656C1.93468 9.72803 1.95415 9.68163 1.98843 9.64739C2.02272 9.61316 2.06908 9.59384 2.11746 9.59363H7.23412C7.37727 9.59393 7.51807 9.55717 7.64291 9.48693C12.5933 6.6582 17.9069 4.5232 23.4353 3.1415L28.6928 13.549C28.7414 13.6498 28.8096 13.7399 28.8934 13.8141C28.9771 13.8882 29.0747 13.9448 29.1805 13.9808C29.2863 14.0167 29.3982 14.0311 29.5096 14.0232C29.621 14.0153 29.7298 13.9852 29.8295 13.9347C29.9292 13.8842 30.0179 13.8144 30.0904 13.7291C30.1629 13.6439 30.2178 13.5451 30.2518 13.4384C30.2858 13.3317 30.2984 13.2193 30.2886 13.1077C30.2789 12.9961 30.2471 12.8876 30.1951 12.7884L28.5832 9.59684H55.5496C55.5823 9.59673 55.6149 9.59459 55.6472 9.59043C60.7634 9.40452 65.7627 11.151 69.6565 14.4845C69.9233 14.8188 70.1082 15.2112 70.1965 15.6302C70.4143 16.3751 70.5369 17.1448 70.5612 17.9207V21.1412C70.5617 21.1654 70.5572 21.1895 70.5482 21.212C70.5391 21.2345 70.5257 21.2549 70.5086 21.2721C70.4915 21.2892 70.4711 21.3027 70.4487 21.3118C70.4262 21.3209 70.4022 21.3254 70.3781 21.3249H62.3383C62.1516 19.8806 61.447 18.5538 60.3561 17.5924C59.2652 16.631 57.8626 16.1008 56.4104 16.1008C54.9582 16.1008 53.5556 16.631 52.4648 17.5924C51.3739 18.5538 50.6693 19.8806 50.4826 21.3249H48.9402C48.9343 21.0623 48.9285 20.7965 48.9226 20.5274C48.8954 19.2951 48.8658 17.9825 48.8658 16.3651C48.8662 16.2538 48.8447 16.1435 48.8026 16.0405C48.7604 15.9375 48.6983 15.8439 48.62 15.7651C48.5417 15.6862 48.4486 15.6236 48.3461 15.5809C48.2435 15.5382 48.1336 15.5162 48.0226 15.5162C47.9673 15.5163 47.9121 15.5216 47.8578 15.5323C45.938 15.811 43.9796 15.6259 42.1455 14.9924C40.3115 14.3588 38.6548 13.2951 37.3133 11.8898C37.2368 11.8099 37.1453 11.7459 37.044 11.7015C36.9428 11.657 36.8338 11.633 36.7234 11.6309C36.6129 11.6287 36.503 11.6484 36.4002 11.6889C36.2973 11.7293 36.2034 11.7897 36.1238 11.8666L36.1006 11.8898C34.7544 13.2992 33.0913 14.3647 31.2503 14.9972ZM48.969 23.0122C49.0578 31.0609 48.1514 35.7223 37.0205 40.1895C36.8195 40.2702 36.5952 40.2702 36.3941 40.1895C25.2624 35.7223 24.3561 31.0609 24.4449 23.0122H22.9697C22.7492 24.4241 22.033 25.7106 20.9502 26.6397C19.8674 27.5688 18.4893 28.0793 17.0643 28.0793C15.6393 28.0793 14.2611 27.5688 13.1783 26.6397C12.0955 25.7106 11.3793 24.4241 11.1588 23.0122H5.13018C4.17777 23.0226 3.25123 22.7014 2.50865 22.1032L1.89187 21.6218C1.37476 21.2278 0.956911 20.7178 0.671836 20.1326C0.386761 19.5474 0.242392 18.9033 0.250309 18.2521V9.77656C0.251155 9.27933 0.448481 8.80271 0.799056 8.45111C1.14963 8.09952 1.62487 7.90162 2.12066 7.90077H7.02293C16.227 2.81523 24.9889 0.264976 33.3086 0.25C41.7753 0.280292 50.0229 2.95158 56.908 7.89355C61.993 8.01481 66.8816 9.8874 70.7524 13.1968C71.2759 13.7393 71.6426 14.4143 71.8132 15.1496C72.0752 16.0494 72.222 16.979 72.25 17.9159V21.1364C72.25 21.3823 72.2014 21.6258 72.1073 21.8528C72.0131 22.0799 71.8751 22.286 71.7012 22.4594C71.5284 22.6336 71.323 22.7718 71.0967 22.8661C70.8705 22.9604 70.6279 23.009 70.3829 23.009H62.3159C62.0959 24.4214 61.3799 25.7086 60.2969 26.6382C59.214 27.5678 57.8355 28.0787 56.41 28.0787C54.9846 28.0787 53.606 27.5678 52.5231 26.6382C51.4402 25.7086 50.7241 24.4214 50.5042 23.009L48.969 23.0122ZM36.7069 18.3018C34.9444 18.3009 33.2361 18.9129 31.8732 20.0336C30.5102 21.1544 29.577 22.7144 29.2324 24.4479C28.8878 26.1814 29.1534 27.9811 29.9837 29.5403C30.814 31.0995 32.1577 32.3217 33.7858 32.9986C35.414 33.6755 37.2258 33.7652 38.9125 33.2524C40.5992 32.7397 42.0565 31.6562 43.0359 30.1866C44.0153 28.717 44.4562 26.9523 44.2836 25.1932C44.111 23.434 43.3355 21.7894 42.0892 20.5395C41.3828 19.8291 40.5433 19.2657 39.6191 18.8817C38.6949 18.4977 37.7041 18.3006 36.7037 18.3018H36.7069ZM40.8996 21.7357C39.9297 20.7625 38.6533 20.1567 37.2878 20.0215C35.9224 19.8863 34.5526 20.2302 33.4116 20.9945C32.2707 21.7587 31.4292 22.8961 31.0307 24.2128C30.6322 25.5295 30.7013 26.9441 31.2262 28.2154C31.7511 29.4868 32.6992 30.5363 33.9092 31.1851C35.1191 31.8339 36.516 32.0419 37.8617 31.7736C39.2074 31.5052 40.4187 30.7773 41.2892 29.7136C42.1597 28.65 42.6355 27.3166 42.6356 25.9406C42.6367 25.1596 42.4839 24.386 42.186 23.6644C41.8881 22.9428 41.4509 22.2873 40.8996 21.7357ZM59.4431 19.0464C58.7414 18.3423 57.818 17.9041 56.8302 17.8063C55.8424 17.7085 54.8513 17.9573 54.0259 18.5102C53.2005 19.0631 52.5918 19.886 52.3035 20.8385C52.0152 21.7911 52.0652 22.8145 52.4449 23.7342C52.8246 24.654 53.5105 25.4133 54.3859 25.8827C55.2612 26.3521 56.2717 26.5025 57.2453 26.3084C58.2188 26.1144 59.0951 25.5877 59.7249 24.8183C60.3547 24.0489 60.699 23.0842 60.6991 22.0887C60.7 21.5236 60.5895 20.9639 60.374 20.4418C60.1584 19.9197 59.8421 19.4455 59.4431 19.0464ZM20.0978 19.0464C19.3961 18.3429 18.4729 17.9052 17.4855 17.8079C16.4981 17.7105 15.5076 17.9595 14.6827 18.5125C13.8578 19.0654 13.2496 19.888 12.9617 20.8403C12.6738 21.7925 12.724 22.8154 13.1037 23.7346C13.4835 24.6539 14.1693 25.4127 15.0443 25.8817C15.9193 26.3508 16.9294 26.501 17.9025 26.3069C18.8756 26.1128 19.7515 25.5863 20.381 24.8172C21.0104 24.048 21.3545 23.0838 21.3545 22.0887C21.3553 21.5236 21.2447 20.9638 21.029 20.4417C20.8133 19.9196 20.4969 19.4454 20.0978 19.0464Z" stroke="white" stroke-width="0.5" mask="url(#path-1-outside-1_2_1296)"/>
</svg>
