<svg width="49" height="49" viewBox="0 0 49 49" fill="none" xmlns="http://www.w3.org/2000/svg">
<path d="M7.4165 20.8777C7.87742 20.8779 8.25706 21.2112 8.25732 21.6414V38.5798H12.5269C12.9796 38.5801 13.3677 38.9127 13.3677 39.3435C13.3676 39.7765 12.9849 40.1069 12.5269 40.1072H12.4507V40.1033H7.4165C6.96355 40.1033 6.57471 39.7696 6.57471 39.3386V21.6414C6.57498 21.2159 6.95784 20.8777 7.4165 20.8777Z" fill="white" stroke="white" stroke-width="0.15"/>
<path d="M40.8823 20.8777C41.3432 20.8779 41.7229 21.2112 41.7231 21.6414V39.3386C41.7231 39.7641 41.341 40.1031 40.8823 40.1033H35.772C35.3192 40.1033 34.9304 39.7704 34.9302 39.3396C34.9302 38.9064 35.3137 38.575 35.772 38.575H40.0405V21.6414C40.0408 21.2159 40.4237 20.8777 40.8823 20.8777Z" fill="white" stroke="white" stroke-width="0.15"/>
<path d="M23.0142 0.50354C23.6499 -0.0680986 24.6811 -0.0680721 25.3169 0.50354L47.6655 20.6002C48.0269 20.9252 48.2251 21.3532 48.2251 21.8141C48.2251 22.2744 48.0277 22.7095 47.6655 23.028L47.6646 23.027L45.7925 24.7125C45.4445 25.0255 44.9934 25.1964 44.5093 25.2086L44.5063 25.2194H44.4526C43.9486 25.2194 43.4686 25.0446 43.1147 24.7194L24.1519 7.66858L5.19092 24.7194C4.44837 25.3871 3.24988 25.3871 2.50732 24.7194L0.634277 23.0348C0.272926 22.7099 0.074707 22.2818 0.074707 21.8209C0.0747637 21.3607 0.272079 20.9255 0.634277 20.6071L23.0142 0.50354ZM1.81885 21.6901C1.76628 21.7374 1.75734 21.7912 1.75732 21.819C1.75732 21.8467 1.76614 21.9015 1.81885 21.9489L3.69287 23.6334C3.77901 23.7106 3.92029 23.7107 4.00635 23.6334L22.9995 6.55432C23.3143 6.27148 23.7338 6.12759 24.1489 6.12756H24.1812L24.1851 6.13147C24.5917 6.13901 24.995 6.28183 25.3013 6.55725L44.2935 23.6354C44.3796 23.7128 44.5218 23.7128 44.6079 23.6354L46.4819 21.9508C46.5342 21.9037 46.5424 21.8497 46.5425 21.8219C46.5425 21.7942 46.5345 21.7394 46.4819 21.692L24.1655 1.62073L1.81885 21.6901Z" fill="white" stroke="white" stroke-width="0.15"/>
<path d="M24.1499 28.2605C25.4319 28.2605 26.4868 29.1987 26.4868 30.3699C26.4867 31.541 25.4319 32.4783 24.1499 32.4783C22.8681 32.4781 21.8131 31.5409 21.813 30.3699C21.813 29.1988 22.868 28.2606 24.1499 28.2605ZM24.1499 29.7791C23.7771 29.7792 23.4908 30.046 23.4907 30.365C23.4907 30.6819 23.7748 30.9508 24.1499 30.9509C24.5229 30.9509 24.8101 30.684 24.8101 30.365C24.81 30.048 24.5251 29.7791 24.1499 29.7791Z" fill="white" stroke="white" stroke-width="0.15"/>
<path d="M24.1548 25.74C26.9847 25.74 29.3013 27.8126 29.3013 30.3757C29.3011 32.1155 28.1992 33.7091 26.5122 34.489V37.0662C26.5121 37.1979 26.4747 37.3275 26.4058 37.4402L26.3267 37.5466L25.9126 38.0056L26.3784 38.6599C26.521 38.8592 26.5502 39.1112 26.4614 39.3328L26.4165 39.4255L26.019 40.116L26.395 40.7009H26.396C26.4728 40.8178 26.5073 40.9527 26.5073 41.0896V42.0857C26.5072 42.262 26.4401 42.4299 26.3218 42.5623L26.3208 42.5613L24.8081 44.2771H24.8071C24.6461 44.4555 24.4037 44.5593 24.1519 44.5593C23.9292 44.5593 23.7181 44.4799 23.561 44.3406L23.4966 44.2761L21.9829 42.5613C21.8645 42.4288 21.7974 42.2612 21.7974 42.0847V34.489C20.1107 33.7025 19.0084 32.1157 19.0083 30.3757C19.0083 27.8126 21.3248 25.74 24.1548 25.74ZM24.1519 27.2517C22.2312 27.2518 20.6861 28.6524 20.686 30.3611C20.686 31.6441 21.5807 32.8138 22.9302 33.2712H22.9312C23.2572 33.3836 23.4741 33.6673 23.4741 33.9841V41.8103L24.1519 42.5779L24.8306 41.8103V41.2917L24.3345 40.5183C24.1864 40.2912 24.1774 40.0154 24.311 39.78V39.7791L24.7017 39.1052L24.1694 38.3601V38.3611C23.9679 38.0851 23.9935 37.7228 24.2212 37.4636L24.8306 36.781V33.9841C24.8306 33.6589 25.0562 33.3831 25.3726 33.2712H25.3735C26.7203 32.8185 27.6187 31.6443 27.6187 30.3611C27.6186 28.6523 26.0726 27.2517 24.1519 27.2517Z" fill="white" stroke="white" stroke-width="0.15"/>
<path d="M24.1509 10.9685C26.7071 10.9687 28.7964 12.837 28.7964 15.1541C28.7964 17.4711 26.7071 19.3394 24.1509 19.3396C21.5946 19.3396 19.5044 17.4712 19.5044 15.1541C19.5044 12.8369 21.5945 10.9685 24.1509 10.9685ZM24.1509 12.5017C22.509 12.5017 21.1899 13.6989 21.1899 15.157C21.1901 16.6149 22.5091 17.8113 24.1509 17.8113C25.7925 17.8111 27.1116 16.6148 27.1118 15.157C27.1118 13.699 25.7926 12.5019 24.1509 12.5017Z" fill="white" stroke="white" stroke-width="0.15"/>
<path d="M24.1899 20.2156L24.189 20.2166C24.4123 20.2235 24.623 20.3134 24.7759 20.4636L24.8384 20.531V20.532C27.8474 24.3061 31.8234 26.3659 36.9956 26.8445C37.4213 26.8825 37.7522 27.2047 37.7524 27.6033V34.8748C37.7524 38.8354 35.3857 42.5173 31.5796 44.4929L24.5747 48.1277V48.1287C24.4433 48.1954 24.298 48.2253 24.1597 48.2253H24.1333L24.1226 48.2166C23.9883 48.2124 23.8542 48.1818 23.7368 48.1218V48.1208L16.7319 44.4871C12.9258 42.5142 10.5592 38.8295 10.5591 34.8689V27.5974C10.5591 27.206 10.8812 26.8918 11.2915 26.8386H11.2925C16.0032 26.2948 19.9987 24.216 23.5161 20.4783V20.4773C23.6851 20.2996 23.9336 20.2003 24.1899 20.2156ZM24.1167 22.1677C20.6636 25.5817 16.7659 27.5802 12.2388 28.2517V34.8611C12.2388 38.268 14.2746 41.4472 17.5698 43.158L24.1587 46.5769L30.7495 43.158C34.0368 41.447 36.0796 38.2676 36.0796 34.8611V28.2673C31.1773 27.6654 27.1588 25.6157 24.1167 22.1677Z" fill="white" stroke="white" stroke-width="0.15"/>
</svg>
