<svg width="17" height="17" viewBox="0 0 17 17" fill="none" xmlns="http://www.w3.org/2000/svg">
<path d="M15.884 0.921913C15.592 0.629649 15.2452 0.397796 14.8636 0.239609C14.482 0.0814211 14.0729 0 13.6598 0C13.2466 0 12.8376 0.0814211 12.4559 0.239609C12.0743 0.397796 11.7275 0.629649 11.4356 0.921913L1.98916 10.3683C1.54075 10.8174 1.22086 11.3785 1.06276 11.9931L0.0187563 16.0563C-0.0071333 16.1574 -0.00620633 16.2635 0.0214457 16.3641C0.0490978 16.4648 0.102519 16.5564 0.176433 16.6301C0.250348 16.7038 0.3422 16.7569 0.44292 16.7842C0.54364 16.8116 0.649744 16.8121 0.750756 16.7859L4.81276 15.7431C5.42761 15.5856 5.9888 15.2656 6.43756 14.8167L15.884 5.37031C16.1762 5.07833 16.4081 4.7316 16.5663 4.34996C16.7244 3.96832 16.8059 3.55924 16.8059 3.14611C16.8059 2.73299 16.7244 2.32391 16.5663 1.94227C16.4081 1.56062 16.1762 1.2139 15.884 0.921913ZM12.284 1.77031C12.6488 1.40543 13.1437 1.20044 13.6598 1.20044C14.1758 1.20044 14.6707 1.40543 15.0356 1.77031C15.4004 2.1352 15.6054 2.63009 15.6054 3.14611C15.6054 3.66214 15.4004 4.15703 15.0356 4.52191L14.1008 5.45671L11.3492 2.70511L12.284 1.77031ZM10.5008 3.55351L13.2524 6.30511L5.58916 13.9683C5.29215 14.2651 4.92077 14.4765 4.51396 14.5803L1.43356 15.3723L2.22556 12.2919C2.32885 11.8849 2.54031 11.5134 2.83756 11.2167L10.5008 3.55351Z" fill="white"/>
</svg>
