<svg width="24" height="24" viewBox="0 0 24 24" fill="none" xmlns="http://www.w3.org/2000/svg">
<path d="M12 3H5C4.46957 3 3.96086 3.21071 3.58579 3.58579C3.21071 3.96086 3 4.46957 3 5V19C3 19.5304 3.21071 20.0391 3.58579 20.4142C3.96086 20.7893 4.46957 21 5 21H19C19.5304 21 20.0391 20.7893 20.4142 20.4142C20.7893 20.0391 21 19.5304 21 19V12" stroke="white" stroke-width="2" stroke-linecap="round" stroke-linejoin="round"/>
<path d="M18.3741 2.62498C18.7719 2.22716 19.3115 2.00366 19.8741 2.00366C20.4367 2.00366 20.9763 2.22716 21.3741 2.62498C21.7719 3.02281 21.9954 3.56237 21.9954 4.12498C21.9954 4.68759 21.7719 5.22716 21.3741 5.62498L12.3611 14.639C12.1237 14.8762 11.8303 15.0499 11.5081 15.144L8.63512 15.984C8.54907 16.0091 8.45786 16.0106 8.37103 15.9883C8.2842 15.9661 8.20494 15.9209 8.14156 15.8575C8.07818 15.7942 8.03301 15.7149 8.01076 15.6281C7.98852 15.5412 7.99002 15.45 8.01512 15.364L8.85512 12.491C8.94964 12.169 9.12365 11.876 9.36112 11.639L18.3741 2.62498Z" stroke="white" stroke-width="2" stroke-linecap="round" stroke-linejoin="round"/>
</svg>
