<svg width="28" height="28" viewBox="0 0 28 28" fill="none" xmlns="http://www.w3.org/2000/svg">
<path d="M13 2.32861H3.66667C2.95942 2.32861 2.28115 2.60956 1.78105 3.10966C1.28095 3.60976 1 4.28804 1 4.99528V23.6619C1 24.3692 1.28095 25.0475 1.78105 25.5476C2.28115 26.0477 2.95942 26.3286 3.66667 26.3286H22.3333C23.0406 26.3286 23.7189 26.0477 24.219 25.5476C24.719 25.0475 25 24.3692 25 23.6619V14.3286" stroke="#0057FF" stroke-width="2" stroke-linecap="round" stroke-linejoin="round"/>
<path d="M21.4988 1.82843C22.0293 1.29799 22.7487 1 23.4988 1C24.249 1 24.9684 1.29799 25.4988 1.82843C26.0293 2.35886 26.3272 3.07828 26.3272 3.82843C26.3272 4.57857 26.0293 5.29799 25.4988 5.82843L13.4815 17.8471C13.1649 18.1634 12.7738 18.395 12.3442 18.5204L8.51349 19.6404C8.39876 19.6739 8.27714 19.6759 8.16137 19.6462C8.0456 19.6166 7.93993 19.5563 7.85542 19.4718C7.77091 19.3873 7.71067 19.2817 7.68101 19.1659C7.65135 19.0501 7.65336 18.9285 7.68682 18.8138L8.80682 14.9831C8.93286 14.5538 9.16487 14.1632 9.48149 13.8471L21.4988 1.82843Z" stroke="#0057FF" stroke-width="2" stroke-linecap="round" stroke-linejoin="round"/>
</svg>
