<svg width="32" height="32" viewBox="0 0 32 32" fill="none" xmlns="http://www.w3.org/2000/svg">
<path d="M16 4H6.66667C5.95942 4 5.28115 4.28095 4.78105 4.78105C4.28095 5.28115 4 5.95942 4 6.66667V25.3333C4 26.0406 4.28095 26.7189 4.78105 27.219C5.28115 27.719 5.95942 28 6.66667 28H25.3333C26.0406 28 26.7189 27.719 27.219 27.219C27.719 26.7189 28 26.0406 28 25.3333V16" stroke="#0057FF" stroke-width="2" stroke-linecap="round" stroke-linejoin="round"/>
<path d="M24.4988 3.50006C25.0293 2.96962 25.7487 2.67163 26.4988 2.67163C27.249 2.67163 27.9684 2.96962 28.4988 3.50006C29.0293 4.03049 29.3272 4.74991 29.3272 5.50006C29.3272 6.2502 29.0293 6.96962 28.4988 7.50006L16.4815 19.5187C16.1649 19.8351 15.7738 20.0666 15.3442 20.1921L11.5135 21.3121C11.3988 21.3455 11.2771 21.3475 11.1614 21.3179C11.0456 21.2882 10.9399 21.228 10.8554 21.1435C10.7709 21.059 10.7107 20.9533 10.681 20.8375C10.6514 20.7217 10.6534 20.6001 10.6868 20.4854L11.8068 16.6547C11.9329 16.2255 12.1649 15.8348 12.4815 15.5187L24.4988 3.50006Z" stroke="#0057FF" stroke-width="2" stroke-linecap="round" stroke-linejoin="round"/>
</svg>
