<svg width="18" height="13" viewBox="0 0 18 13" fill="none" xmlns="http://www.w3.org/2000/svg">
<path d="M11.1496 6.34922C11.1496 6.98574 10.8968 7.59619 10.4467 8.04628C9.99658 8.49636 9.38613 8.74922 8.74961 8.74922C8.11309 8.74922 7.50264 8.49636 7.05255 8.04628C6.60247 7.59619 6.34961 6.98574 6.34961 6.34922C6.34961 5.7127 6.60247 5.10225 7.05255 4.65216C7.50264 4.20207 8.11309 3.94922 8.74961 3.94922C9.38613 3.94922 9.99658 4.20207 10.4467 4.65216C10.8968 5.10225 11.1496 5.7127 11.1496 6.34922Z" stroke="white" stroke-width="1.5" stroke-linecap="round" stroke-linejoin="round"/>
<path d="M0.75 6.35C2.03 3.0724 5.0188 0.75 8.75 0.75C12.4812 0.75 15.47 3.0724 16.75 6.35C15.47 9.6276 12.4812 11.95 8.75 11.95C5.0188 11.95 2.03 9.6276 0.75 6.35Z" stroke="white" stroke-width="1.5" stroke-linecap="round" stroke-linejoin="round"/>
</svg>
