<svg width="38" height="31" viewBox="0 0 38 31" fill="none" xmlns="http://www.w3.org/2000/svg">
<path d="M18.5494 24.7188C18.7828 24.7188 18.9945 24.6826 19.1847 24.6102C19.3749 24.5379 19.5569 24.4282 19.7307 24.2812C20.664 23.4354 21.5536 22.6042 22.3994 21.7875C23.2453 20.9708 23.982 20.1688 24.6097 19.3813C25.2374 18.5938 25.7402 17.8284 26.1182 17.0853C26.4962 16.3421 26.6858 15.6199 26.6869 14.9187C26.6869 13.6354 26.2494 12.5708 25.3744 11.725C24.4994 10.8792 23.4494 10.4563 22.2244 10.4563C21.4661 10.4563 20.7737 10.6097 20.1472 10.9165C19.5207 11.2233 18.9881 11.6241 18.5494 12.1187C18.1119 11.6229 17.5654 11.2222 16.9097 10.9165C16.254 10.6108 15.5756 10.4574 14.8744 10.4563C13.6494 10.4563 12.5994 10.8792 11.7244 11.725C10.8494 12.5708 10.4119 13.6354 10.4119 14.9187C10.4119 15.6187 10.6015 16.3409 10.9807 17.0853C11.3599 17.8296 11.8633 18.5949 12.4909 19.3813C13.1186 20.1676 13.8548 20.9697 14.6994 21.7875C15.5441 22.6053 16.4337 23.4366 17.3682 24.2812C17.5432 24.4271 17.7258 24.5367 17.9159 24.6102C18.1061 24.6838 18.3173 24.7199 18.5494 24.7188ZM8.04944 30.5813C7.08694 30.5813 6.26327 30.2388 5.57844 29.554C4.89361 28.8692 4.55061 28.0449 4.54944 27.0813V14.175L2.79944 15.5312C2.39111 15.8229 1.95361 15.9396 1.48694 15.8813C1.02027 15.8229 0.641108 15.5896 0.349441 15.1812C0.0577743 14.7729 -0.0513091 14.3354 0.0221909 13.8687C0.0956909 13.4021 0.321441 13.0229 0.699441 12.7312L16.4057 0.7C16.7265 0.466666 17.0695 0.291667 17.4347 0.175C17.7999 0.0583332 18.1714 0 18.5494 0C18.9274 0 19.2996 0.0583332 19.6659 0.175C20.0323 0.291667 20.3747 0.466666 20.6932 0.7L36.4432 12.7312C36.8224 13.0229 37.0411 13.4021 37.0994 13.8687C37.1578 14.3354 37.0411 14.7729 36.7494 15.1812C36.4578 15.5604 36.0786 15.7792 35.6119 15.8375C35.1453 15.8958 34.7224 15.7792 34.3432 15.4875L32.5494 14.175V27.0813C32.5494 28.0438 32.207 28.868 31.5222 29.554C30.8374 30.24 30.0131 30.5824 29.0494 30.5813H8.04944ZM8.04944 27.0813H29.0494V11.5063L18.5494 3.5L8.04944 11.5063V27.0813Z" fill="#0057FF"/>
</svg>
