<svg width="22" height="32" viewBox="0 0 22 32" fill="none" xmlns="http://www.w3.org/2000/svg">
<path d="M1 31V27.6667C1 25.8986 1.70238 24.2029 2.95262 22.9526C4.20286 21.7024 5.89856 21 7.66667 21H14.3333C16.1014 21 17.7971 21.7024 19.0474 22.9526C20.2976 24.2029 21 25.8986 21 27.6667V31M4.33333 7.66667C4.33333 9.43478 5.03571 11.1305 6.28595 12.3807C7.5362 13.631 9.23189 14.3333 11 14.3333C12.7681 14.3333 14.4638 13.631 15.714 12.3807C16.9643 11.1305 17.6667 9.43478 17.6667 7.66667C17.6667 5.89856 16.9643 4.20286 15.714 2.95262C14.4638 1.70238 12.7681 1 11 1C9.23189 1 7.5362 1.70238 6.28595 2.95262C5.03571 4.20286 4.33333 5.89856 4.33333 7.66667Z" stroke="#007BFF" stroke-width="2" stroke-linecap="round" stroke-linejoin="round"/>
</svg>
