<svg width="40" height="40" viewBox="0 0 40 40" fill="none" xmlns="http://www.w3.org/2000/svg">
<path d="M14.1671 15.8332C14.1671 16.7515 14.3805 17.6215 14.7605 18.3948C13.9438 19.4415 13.4355 20.7399 13.3671 22.1549C11.7988 20.5082 10.8338 18.2815 10.8338 15.8349C10.8338 10.1498 16.0371 5.65652 21.9321 6.86652C25.4021 7.57985 28.2138 10.3748 28.9538 13.8398C29.1771 14.8865 29.2188 15.9115 29.1054 16.8915C29.0088 17.7215 28.2805 18.3349 27.4438 18.3349H27.3688C26.3821 18.3349 25.6888 17.4565 25.7971 16.4765C25.8705 15.8182 25.8321 15.1265 25.6638 14.4215C25.1671 12.3332 23.4638 10.6415 21.3721 10.1599C17.5621 9.28485 14.1655 12.1715 14.1655 15.8349L14.1671 15.8332ZM7.68378 13.6748C8.14045 11.0198 9.43878 8.59985 11.4521 6.71152C14.0005 4.32318 17.3371 3.14318 20.8355 3.35985C27.4238 3.78652 32.5755 9.55818 32.4988 16.4682C32.4671 19.3615 30.0438 21.6649 27.1521 21.6649H23.1421C22.7355 20.2832 21.4721 19.2665 19.9588 19.2665C18.1171 19.2665 16.6255 20.7582 16.6255 22.5999C16.6255 24.4415 18.1171 25.9332 19.9588 25.9332C20.8555 25.9332 21.6671 25.5749 22.2655 24.9982H27.1521C31.8505 24.9982 35.7655 21.2565 35.8321 16.5598C35.9555 7.85818 29.4188 0.574849 21.0505 0.0348495C16.6105 -0.253484 12.3988 1.25485 9.17378 4.28152C6.67545 6.62318 5.01378 9.72318 4.41545 13.0582C4.23378 14.0715 5.03545 15.0015 6.06378 15.0015C6.85045 15.0015 7.55212 14.4532 7.68378 13.6765V13.6748ZM20.0005 28.3332C13.8421 28.3332 8.51378 32.1532 6.74212 37.8365C6.46712 38.7149 6.95878 39.6499 7.83712 39.9249C8.71378 40.1899 9.64878 39.7065 9.92378 38.8299C11.2388 34.6132 15.3805 31.6665 19.9988 31.6665C24.6171 31.6665 28.7605 34.6132 30.0738 38.8299C30.2971 39.5432 30.9538 39.9999 31.6655 39.9999C31.8305 39.9999 31.9955 39.9749 32.1621 39.9249C33.0405 39.6499 33.5305 38.7149 33.2571 37.8365C31.4855 32.1532 26.1571 28.3332 19.9988 28.3332H20.0005Z" fill="#007BFF"/>
</svg>
