<svg width="40" height="40" viewBox="0 0 40 40" fill="none" xmlns="http://www.w3.org/2000/svg">
<g clip-path="url(#clip0_3_4458)">
<path d="M33.44 26.0799C34.14 24.2077 34.52 22.2034 34.52 20.0008C34.52 18.415 34.3 16.8952 33.92 15.4856C32.62 15.816 31.26 15.9922 29.84 15.9922C26.9319 15.9956 24.0658 15.2291 21.4831 13.7571C18.9004 12.2851 16.6769 10.1509 15 7.53439C13.2079 12.3156 9.82343 16.161 5.54 18.2828C5.46 18.8335 5.46 19.4282 5.46 20.0008C5.46 22.1036 5.83609 24.1858 6.56679 26.1286C7.29749 28.0713 8.3685 29.8365 9.71867 31.3234C12.4454 34.3264 16.1438 36.0134 20 36.0134C22.1 36.0134 24.12 35.5068 25.94 34.6037C27.08 37.0045 27.6 38.1939 27.56 38.1939C24.28 39.4053 21.74 40 20 40C15.16 40 10.54 37.9076 7.14 34.1412C5.0701 31.8724 3.53254 29.0831 2.66 26.0138H0V15.9922H2.18C2.84048 12.4516 4.35899 9.17399 6.57438 6.5071C8.78977 3.84021 11.6194 1.88354 14.7631 0.844713C17.9067 -0.194118 21.2471 -0.276356 24.4297 0.606723C27.6124 1.4898 30.5186 3.30526 32.84 5.86045C35.3596 8.62593 37.0786 12.1516 37.78 15.9922H40V26.0138H39.88L32.76 33.2161L22.16 31.8946V28.2164H31.82L33.44 26.0799ZM14.54 19.4942C15.14 19.4942 15.72 19.7586 16.14 20.2431C16.5621 20.7118 16.7989 21.3451 16.7989 22.0052C16.7989 22.6652 16.5621 23.2986 16.14 23.7672C15.72 24.2297 15.14 24.494 14.54 24.494C13.28 24.494 12.26 23.3928 12.26 22.0052C12.26 20.6175 13.28 19.4942 14.54 19.4942ZM25.44 19.4942C26.7 19.4942 27.7 20.6175 27.7 22.0052C27.7 23.3928 26.7 24.494 25.44 24.494C24.18 24.494 23.16 23.3928 23.16 22.0052C23.16 21.3392 23.4002 20.7006 23.8278 20.2297C24.2554 19.7588 24.8353 19.4942 25.44 19.4942Z" fill="#007BFF"/>
</g>
<defs>
<clipPath id="clip0_3_4458">
<rect width="40" height="40" fill="white"/>
</clipPath>
</defs>
</svg>
