<svg width="40" height="40" viewBox="0 0 40 40" fill="none" xmlns="http://www.w3.org/2000/svg">
<g clip-path="url(#clip0_3_4471)">
<path d="M30.97 3.56707L20.5283 0.0854014C20.1864 -0.0284671 19.8168 -0.0284671 19.475 0.0854014L9.0333 3.56707C7.37314 4.11854 5.92899 5.17916 4.90604 6.59825C3.88308 8.01734 3.33336 9.72271 3.33496 11.4721V20.0004C3.33496 32.6054 18.6683 39.5671 19.325 39.8571C19.538 39.9517 19.7685 40.0006 20.0016 40.0006C20.2347 40.0006 20.4653 39.9517 20.6783 39.8571C21.335 39.5671 36.6683 32.6054 36.6683 20.0004V11.4721C36.6699 9.72271 36.1202 8.01734 35.0972 6.59825C34.0743 5.17916 32.6301 4.11854 30.97 3.56707ZM33.335 20.0004C33.335 29.0921 22.8033 35.0554 20.0016 36.4821C17.1966 35.0604 6.6683 29.1154 6.6683 20.0004V11.4721C6.66839 10.4225 6.99876 9.39963 7.61257 8.54831C8.22639 7.69698 9.09254 7.06039 10.0883 6.72874L20.0016 3.42373L29.915 6.72874C30.9107 7.06039 31.7769 7.69698 32.3907 8.54831C33.0045 9.39963 33.3349 10.4225 33.335 11.4721V20.0004Z" fill="#007BFF"/>
<path d="M25.5013 13.8335L18.5213 20.8335L14.7813 16.9335C14.6312 16.7694 14.4498 16.6369 14.2477 16.544C14.0457 16.4511 13.8271 16.3996 13.6048 16.3925C13.3825 16.3854 13.161 16.4228 12.9535 16.5026C12.7459 16.5824 12.5564 16.7029 12.3961 16.8571C12.2358 17.0112 12.108 17.1959 12.0202 17.4003C11.9324 17.6046 11.8863 17.8244 11.8848 18.0468C11.8833 18.2692 11.9263 18.4896 12.0112 18.6951C12.0962 18.9007 12.2215 19.0871 12.3796 19.2435L16.2229 23.2435C16.5096 23.553 16.856 23.8013 17.2413 23.9732C17.6266 24.145 18.0428 24.237 18.4646 24.2435H18.5196C18.933 24.2448 19.3426 24.1641 19.7246 24.0058C20.1065 23.8476 20.4533 23.6151 20.7446 23.3218L27.8646 16.2018C28.0201 16.0466 28.1435 15.8623 28.2278 15.6594C28.3121 15.4566 28.3556 15.2391 28.3558 15.0194C28.3561 14.7997 28.313 14.5821 28.2292 14.3791C28.1453 14.176 28.0223 13.9915 27.8671 13.836C27.7119 13.6805 27.5276 13.557 27.3248 13.4727C27.1219 13.3885 26.9044 13.345 26.6847 13.3447C26.465 13.3445 26.2474 13.3875 26.0444 13.4714C25.8413 13.5552 25.6568 13.6783 25.5013 13.8335Z" fill="#007BFF"/>
</g>
<defs>
<clipPath id="clip0_3_4471">
<rect width="40" height="40" fill="white"/>
</clipPath>
</defs>
</svg>
