<svg width="40" height="40" viewBox="0 0 40 40" fill="none" xmlns="http://www.w3.org/2000/svg">
<g clip-path="url(#clip0_3_4465)">
<path d="M8.33333 10C8.33333 9.07833 9.08 8.33333 10 8.33333H15C15.92 8.33333 16.6667 9.07833 16.6667 10C16.6667 10.9217 15.92 11.6667 15 11.6667H10C9.08 11.6667 8.33333 10.9217 8.33333 10ZM18.3333 15H10C9.08 15 8.33333 15.745 8.33333 16.6667C8.33333 17.5883 9.08 18.3333 10 18.3333H18.3333C19.2533 18.3333 20 17.5883 20 16.6667C20 15.745 19.2533 15 18.3333 15ZM18.3333 21.6667H10C9.08 21.6667 8.33333 22.4117 8.33333 23.3333C8.33333 24.255 9.08 25 10 25H18.3333C19.2533 25 20 24.255 20 23.3333C20 22.4117 19.2533 21.6667 18.3333 21.6667ZM39.8983 7.76167C39.6583 7.10333 39.0317 6.66667 38.3333 6.66667H33.3317L31.5617 1.7C31.3183 1.04833 30.695 0.615 30 0.615C29.305 0.615 28.68 1.04833 28.4383 1.7L26.6683 6.66667H21.6667C20.9683 6.66667 20.3433 7.10333 20.1033 7.75833C19.8617 8.415 20.0567 9.15 20.59 9.60333L24.5517 12.8283L22.9833 17.855C22.7717 18.53 23.0083 19.265 23.5733 19.69C23.8683 19.9117 24.22 20.0233 24.5733 20.0233C24.8967 20.0233 25.22 19.93 25.5 19.7417L30.0133 16.7217L34.6033 19.71C35.195 20.095 35.9683 20.065 36.53 19.6333C37.0917 19.2017 37.3183 18.4617 37.095 17.79L35.4633 12.8233L39.4067 9.61167C39.9417 9.16 40.1383 8.42333 39.8983 7.765V7.76167ZM36.6667 33.3333V34.1667C36.6667 37.3833 34.05 40 30.8333 40H5.83167C2.61667 40 0 37.3833 0 34.1667V8.33333C0 3.73833 3.73833 0 8.33333 0H21.6667C22.5867 0 23.3333 0.745 23.3333 1.66667C23.3333 2.58833 22.5867 3.33333 21.6667 3.33333H8.33333C5.57667 3.33333 3.33333 5.57667 3.33333 8.33333V34.1667C3.33333 35.545 4.455 36.6667 5.83333 36.6667C7.21167 36.6667 8.33333 35.545 8.33333 34.1667V33.3333C8.33333 30.5767 10.5767 28.3333 13.3333 28.3333H28.3333V23.3333C28.3333 22.4117 29.08 21.6667 30 21.6667C30.92 21.6667 31.6667 22.4117 31.6667 23.3333V28.3333C34.4233 28.3333 36.6667 30.5767 36.6667 33.3333ZM33.3333 33.3333C33.3333 32.4133 32.585 31.6667 31.6667 31.6667H13.3333C12.415 31.6667 11.6667 32.4133 11.6667 33.3333V34.1667C11.6667 35.06 11.4633 35.9083 11.1033 36.6667H30.8333C32.2117 36.6667 33.3333 35.545 33.3333 34.1667V33.3333Z" fill="#007BFF"/>
</g>
<defs>
<clipPath id="clip0_3_4465">
<rect width="40" height="40" fill="white"/>
</clipPath>
</defs>
</svg>
