<svg width="120" height="101" viewBox="0 0 120 101" fill="none" xmlns="http://www.w3.org/2000/svg">
<path d="M62.657 11.7895C63.028 12.0072 63.3991 12.2248 63.7814 12.4491C64.2043 12.6942 64.6273 12.9394 65.0631 13.1919C65.5172 13.4608 65.9712 13.7297 66.4252 13.9987C66.9018 14.2768 67.3787 14.5544 67.8559 14.8316C68.8369 15.4023 69.8166 15.9753 70.7952 16.5501C72.5326 17.5698 74.2787 18.5743 76.0249 19.5786C77.2546 20.2859 78.4831 20.995 79.7114 21.7047C80.1166 21.9388 80.5218 22.173 80.9392 22.4142C81.7568 22.8867 82.5744 23.3592 83.392 23.8316C87.8997 26.4363 92.4105 29.0351 96.9319 31.6159C98.8893 32.7331 100.846 33.8516 102.803 34.9701C103.378 35.2991 103.378 35.2991 103.966 35.6348C104.996 36.224 106.025 36.8149 107.054 37.4064C107.502 37.6623 107.502 37.6623 107.959 37.9233C109.976 39.086 109.976 39.086 110.828 39.9383C110.926 40.8159 110.926 40.8159 110.93 41.935C110.935 42.57 110.935 42.57 110.94 43.2177C110.94 43.6843 110.939 44.1509 110.939 44.6315C110.942 45.1212 110.944 45.6109 110.947 46.1154C110.954 47.4609 110.955 48.8064 110.956 50.1519C110.957 51.2745 110.959 52.3971 110.962 53.5196C110.968 56.168 110.97 58.8164 110.97 61.4648C110.969 64.1979 110.977 66.9309 110.989 69.664C110.999 72.0093 111.003 74.3546 111.003 76.6999C111.003 78.1012 111.005 79.5023 111.013 80.9036C111.022 82.4665 111.018 84.0291 111.014 85.592C111.018 86.0571 111.022 86.5221 111.027 87.0012C111.024 87.4266 111.02 87.8521 111.017 88.2904C111.017 88.66 111.018 89.0296 111.018 89.4104C110.773 90.6677 110.287 91.1234 109.299 91.9129C108.413 92.1107 108.413 92.1107 107.448 92.1159C107.098 92.1179 106.748 92.1199 106.387 92.1219C106.024 92.116 105.661 92.1101 105.287 92.104C104.924 92.1099 104.56 92.1158 104.186 92.1219C101.551 92.1071 101.551 92.1071 100.256 91.1993C99.7452 90.3842 99.7452 90.3842 99.793 89.3811C100.127 88.4734 100.127 88.4734 100.892 87.7091C101.878 87.6537 102.821 87.6377 103.806 87.6613C104.076 87.6648 104.346 87.6682 104.624 87.6718C105.291 87.6808 105.957 87.6945 106.624 87.7091C106.825 81.8859 106.963 76.0634 107.029 70.2372C107.061 67.5308 107.113 64.8276 107.213 62.1228C108.328 50.8657 108.328 50.8657 105.235 40.6836C102.965 38.3511 100.052 37.3868 96.9618 36.5636C94.4871 35.7848 92.3959 34.4082 90.1911 33.0593C89.3056 32.5452 88.4154 32.0403 87.5249 31.5351C87.2772 31.3935 87.0295 31.2519 86.7742 31.106C85.442 30.3448 84.1091 29.585 82.7756 28.826C78.3672 26.3169 73.9656 23.7985 69.6019 21.2121C69.2606 21.0107 68.9193 20.8094 68.5677 20.6019C67.0674 19.7159 65.5728 18.8234 64.0919 17.9054C63.6117 17.6143 63.1315 17.3232 62.6513 17.0321C62.2527 16.7843 61.8542 16.5365 61.4436 16.2812C60.4272 15.7652 60.4272 15.7652 59.4954 16.0573C59.1575 16.245 58.8195 16.4327 58.4713 16.6261C58.2345 16.75 57.9977 16.8739 57.7538 17.0016C56.8636 17.4699 55.9834 17.954 55.1035 18.4414C54.769 18.626 54.4345 18.8107 54.0899 19.0009C51.1284 20.6451 48.2024 22.3478 45.2808 24.0616C42.3166 25.7994 39.3386 27.5122 36.3535 29.2137C32.8215 31.2276 29.2935 33.248 25.7723 35.2806C25.2148 35.6024 25.2148 35.6024 24.6461 35.9306C23.9037 36.3595 23.1667 36.7981 22.4359 37.2465C21.3924 37.8576 20.3445 38.2978 19.2138 38.7244C17.1365 39.5848 15.2465 40.5042 13.758 42.2313C12.4367 45.448 12.8608 49.1879 12.9653 52.5901C12.9702 53.6038 12.9724 54.6172 12.9707 55.6309C12.973 58.0179 13.0121 60.4027 13.0648 62.789C13.1231 65.508 13.1397 68.2268 13.153 70.9464C13.1814 76.5348 13.2613 82.1218 13.3758 87.7091C13.7763 87.6958 14.1768 87.6825 14.5895 87.6688C15.1164 87.658 15.6434 87.6476 16.1704 87.6374C16.4342 87.6278 16.698 87.6182 16.9698 87.6083C18.9141 87.5801 18.9141 87.5801 19.8681 88.2137C20.2548 88.8556 20.2548 88.8556 20.207 90.026C19.8726 91.1486 19.8726 91.1486 18.7261 91.9129C17.4023 92.0873 16.0713 92.0544 14.7373 92.0562C14.3725 92.0656 14.0077 92.0749 13.6318 92.0846C13.1038 92.0868 13.1038 92.0868 12.5652 92.0891C12.2443 92.0922 11.9233 92.0953 11.5927 92.0986C10.369 91.8439 9.95687 91.3444 9.17198 90.3842C8.9732 89.4158 8.9732 89.4158 8.96243 88.3033C8.95481 87.8806 8.94718 87.4579 8.93933 87.0224C8.93882 86.5604 8.93831 86.0984 8.93779 85.6224C8.93143 85.1344 8.92506 84.6465 8.91851 84.1437C8.90175 82.8061 8.89501 81.4686 8.89113 80.1308C8.88834 79.2945 8.88357 78.4582 8.87813 77.6218C8.85941 74.7022 8.84943 71.7827 8.84673 68.863C8.84395 66.1444 8.82111 63.4265 8.78909 60.7081C8.76255 58.3718 8.75077 56.0358 8.75023 53.6994C8.74963 52.3049 8.74298 50.9111 8.72119 49.5168C8.69741 47.9602 8.70429 46.4052 8.71386 44.8485C8.70252 44.3888 8.69119 43.9291 8.6795 43.4555C8.73312 40.3954 8.73312 40.3954 10.009 39.0664C10.9775 38.3775 11.9364 37.8037 12.9936 37.2631C13.4109 37.0271 13.8282 36.7911 14.2581 36.548C14.6527 36.3505 15.0473 36.1529 15.4538 35.9494C18.2363 34.5166 20.9142 32.9229 23.5987 31.3156C27.6108 28.9153 31.666 26.6121 35.7604 24.3552C38.3193 22.943 40.8577 21.5058 43.3692 20.011C46.3355 18.2465 49.3312 16.5326 52.3254 14.816C52.7304 14.5833 53.1353 14.3505 53.5525 14.1107C53.9402 13.8892 54.328 13.6677 54.7275 13.4394C55.8948 12.7458 57.0036 11.991 58.0906 11.1777C59.6758 10.5874 61.1756 11.115 62.657 11.7895Z" fill="#007BFF"/>
<path d="M100.89 0.00683594C101.297 0.00574698 101.704 0.0050282 102.124 0.00390625C103.446 0.239447 103.895 0.677004 104.713 1.72168C104.905 2.61361 104.905 2.61357 104.903 3.58594C104.904 3.93783 104.903 4.2898 104.903 4.65234C104.896 5.01705 104.889 5.38206 104.881 5.75781C104.884 6.12409 104.886 6.49079 104.889 6.86816C104.864 9.53425 104.865 9.53452 104.226 10.4336C103.567 10.8935 103.567 10.8936 102.038 10.8936C100.89 19.6968 100.89 19.6971 103.309 27.8057C105.609 29.7335 108.284 30.7978 111.085 31.8086C112.905 32.5044 114.505 33.4658 116.154 34.4922C116.659 34.7849 117.165 35.0776 117.67 35.3701C119.417 36.4715 119.417 36.4716 120 37.2627C119.952 38.433 119.952 38.4334 119.618 39.5557C118.472 40.3199 118.471 40.3199 117.607 40.2646C116.286 39.8518 115.146 39.2231 113.957 38.5293C113.695 38.3794 113.433 38.2287 113.163 38.0742C110.397 36.4854 107.649 34.8654 104.897 33.2529C102.115 31.6269 99.3129 30.0399 96.4971 28.4727C92.5932 26.2989 88.7271 24.0666 84.8721 21.8076C82.4786 20.4053 80.0777 19.015 77.6748 17.6289C77.2705 17.3957 76.8658 17.1622 76.4492 16.9219C74.184 15.6167 71.9161 14.3163 69.6455 13.0205C69.3997 12.8802 69.1536 12.7402 68.9004 12.5957C67.7047 11.9134 66.5081 11.2316 65.3115 10.5508C64.8837 10.307 64.4554 10.0627 64.0146 9.81152C63.6356 9.59584 63.2558 9.37945 62.8652 9.15723C62.1508 8.74032 61.4529 8.29478 60.7646 7.83594C58.8121 7.9109 57.145 9.07343 55.4854 10.0098C55.1509 10.1961 54.8162 10.3823 54.4717 10.5742C51.5148 12.2304 48.5882 13.9385 45.665 15.6533C42.6851 17.4009 39.6892 19.1205 36.6875 20.8301C32.9908 22.9362 29.308 25.0646 25.6367 27.2148C23.6009 28.4053 21.5604 29.5876 19.5117 30.7559C19.2862 30.8845 19.0604 31.013 18.8281 31.1455C17.6904 31.794 16.5514 32.4413 15.4121 33.0869C13.2545 34.3122 11.1128 35.5567 8.99902 36.8564C8.61596 37.0903 8.23255 37.3245 7.83789 37.5654C7.1233 38.0041 6.4116 38.4485 5.7041 38.8984C3.38505 40.3177 3.38469 40.318 1.72852 40.3311C0.764267 39.9385 0.764149 39.9382 0 38.792C0.023884 37.8605 0.0236158 37.86 0.381836 36.8809C1.65222 35.7561 2.99629 34.8986 4.4707 34.0664C4.89606 33.825 5.32152 33.5836 5.75977 33.335C6.09694 33.1452 6.09746 33.1458 6.44141 32.9521C7.4021 32.4113 8.36055 31.8665 9.31934 31.3223C9.81524 31.0409 10.3115 30.7595 10.8076 30.4785C13.2001 29.1228 15.5818 27.7484 17.9619 26.3711C21.6363 24.2471 25.3199 22.1392 29.0068 20.0371C32.1272 18.2574 35.2362 16.4591 38.3359 14.6436C41.6758 12.6875 45.0323 10.7636 48.4092 8.87207C50.179 7.87904 51.9375 6.87287 53.6768 5.82715C54.0064 5.63046 54.3362 5.43312 54.6758 5.23047C55.2923 4.86113 55.9063 4.48741 56.5176 4.10938C58.1092 3.15951 59.2537 2.47867 61.1465 2.86816C62.5083 3.48445 63.7793 4.23125 65.0635 4.99414C65.4412 5.21326 65.8189 5.43244 66.208 5.6582C67.0212 6.13034 67.8336 6.60409 68.6445 7.08008C69.9866 7.86554 71.3346 8.64259 72.6836 9.41602C74.4222 10.4137 76.1608 11.4123 77.8965 12.415C78.2506 12.6195 78.6049 12.8236 78.9697 13.0342C79.6657 13.446 80.3467 13.8844 81.0195 14.333C81.1456 13.198 81.2714 12.063 81.4014 10.8936C81.1018 10.9093 80.8018 10.9252 80.4932 10.9414C79.4905 10.8937 79.4907 10.893 78.7266 10.1289C78.5523 8.60735 78.602 7.07335 78.6064 5.54297C78.6003 5.11542 78.5942 4.68758 78.5879 4.24707C78.5876 3.8394 78.5872 3.43173 78.5869 3.01172C78.5858 2.63642 78.5852 2.26069 78.584 1.87402C78.6309 1.57154 78.6782 1.26868 78.7266 0.957031C80.0472 0.0766431 80.5604 0.0931798 82.1182 0.0820312C82.8107 0.0747168 82.8111 0.0748449 83.5176 0.0673828C84.2664 0.066107 84.2664 0.0657546 85.0303 0.0644531C85.5475 0.0619974 86.0648 0.0593213 86.582 0.0566406C87.6662 0.0520653 88.7508 0.0503286 89.835 0.0507812C91.2234 0.0508589 92.6117 0.0405043 94 0.0273438C95.0684 0.0188408 96.1367 0.0171744 97.2051 0.0175781C97.9654 0.0162393 98.7261 0.00837721 99.4863 0C100.181 0.00352736 100.181 0.00323732 100.89 0.00683594ZM85.6055 17.3896C86.0708 17.6223 86.5307 17.8668 86.9795 18.1299C87.2257 18.2777 87.4651 18.421 87.7041 18.5645C88.2625 18.8972 88.8207 19.2304 89.3789 19.5635C92.0145 21.1501 94.6864 22.5039 97.4521 23.8867V11.2754H85.6055V17.3896ZM82.9297 4.39648V6.68945H100.127V4.39648H82.9297Z" fill="#007BFF"/>
<path d="M59.468 41.778C64.5115 41.7891 69.5153 41.9549 74.5217 42.6129C75.0243 42.6777 75.0248 42.6778 75.5374 42.7438C76.4937 42.8779 77.4418 43.0368 78.3918 43.2096C78.6656 43.2506 78.9399 43.2924 79.2219 43.3346C80.834 43.6762 81.6109 44.2255 82.5549 45.5807C82.9479 46.2395 83.326 46.9074 83.6936 47.5807C83.9193 47.992 84.1456 48.404 84.3782 48.8278C85.2567 50.4509 86.1093 52.0879 86.9592 53.7262C87.3259 54.4313 87.6963 55.1344 88.0667 55.8375C88.2822 56.2519 88.4979 56.6665 88.72 57.0934C89.8277 58.9553 91.1246 60.4824 92.842 61.817C95.3746 63.9762 97.2591 67.1328 97.5491 70.4879C97.5497 70.8797 97.5504 71.2717 97.551 71.6754C97.5534 72.123 97.5554 72.5707 97.5579 73.0319C97.5555 73.7502 97.5563 73.7511 97.554 74.484C97.5547 74.9813 97.5552 75.4785 97.5559 75.9908C97.557 77.0421 97.5556 78.0938 97.552 79.1451C97.5477 80.484 97.5494 81.8229 97.554 83.1617C97.5574 84.4488 97.5558 85.736 97.554 87.0231C97.5555 87.4996 97.5563 87.9765 97.5579 88.4674C97.5231 94.983 97.5237 94.9836 95.6848 97.3824C95.5144 97.6174 95.3438 97.8523 95.1682 98.0944C92.4826 100.515 89.8208 100.563 86.3342 100.519C85.5558 100.511 84.7786 100.519 84.0002 100.529C83.5042 100.527 83.0074 100.525 82.4963 100.523C82.0478 100.521 81.5991 100.52 81.137 100.518C79.233 100.22 78.0584 99.2707 76.719 97.9313C75.4834 95.9894 75.2864 94.1932 75.2864 91.9127H44.7131C44.587 93.1737 44.4612 94.4348 44.3313 95.734C43.5534 97.9039 42.195 99.286 40.1272 100.32C38.4784 100.428 36.8279 100.44 35.176 100.454C34.6276 100.46 34.0788 100.47 33.5305 100.485C27.9714 100.633 27.9706 100.633 25.7737 98.9342C25.0496 98.2447 24.4479 97.582 23.9094 96.7369C23.7288 96.4662 23.5477 96.1956 23.3616 95.9166C22.1454 93.2486 22.4733 90.0167 22.4563 87.152C22.4532 86.6559 22.4507 86.1592 22.4475 85.6481C22.4418 84.6007 22.4377 83.5529 22.4348 82.5055C22.4306 81.1734 22.4178 79.8414 22.4026 78.5094C22.3901 77.2264 22.3883 75.9429 22.385 74.6598C22.3783 74.1864 22.3714 73.7129 22.3645 73.2252C22.3734 69.6481 23.023 66.5877 25.3186 63.7516C25.5175 63.4981 25.7162 63.2442 25.9211 62.983C26.7511 62.1038 26.7518 62.1035 27.4211 61.5826C29.9283 59.6089 31.2356 57.1785 32.6985 54.3883C33.644 52.6278 34.5929 50.869 35.5413 49.11C35.7697 48.6773 35.9983 48.2443 36.2336 47.7985C36.5699 47.1849 36.5703 47.1841 36.9133 46.5582C37.1092 46.1938 37.3052 45.8292 37.5071 45.4537C39.006 43.489 41.2422 43.1346 43.5667 42.7565C43.8212 42.7102 44.0759 42.6635 44.3381 42.6158C49.0514 41.8113 53.8456 41.7697 58.6145 41.777C59.0369 41.7773 59.0373 41.7776 59.468 41.778ZM89.6975 64.5045C87.7381 62.8477 87.7375 62.8478 83.2268 62.9254C82.6945 62.9351 82.1615 62.9399 81.6292 62.9401C80.1742 62.9344 78.7197 62.938 77.2649 62.9547C75.7201 62.9727 74.175 62.9797 72.6301 62.9821C70.0429 62.9856 67.4556 62.9969 64.8684 63.0182C61.1895 63.0496 57.5103 63.0692 53.8313 63.0797C50.9539 63.0878 48.0758 63.1 45.1985 63.1139C44.8844 63.1154 44.5795 63.1163 44.2747 63.1178C42.4822 63.1265 40.6892 63.137 38.8967 63.151C38.3519 63.1555 37.8067 63.1594 37.262 63.1637C36.7426 63.1665 36.2227 63.1696 35.7034 63.1725C34.9906 63.1792 34.9903 63.1786 34.2913 63.1852C32.315 63.2004 31.5047 63.4039 30.0715 64.7545C27.4376 67.4989 26.5347 70.1702 26.5149 73.9498C26.5226 74.4314 26.5309 74.8994 26.5383 75.3668C26.5406 76.6322 26.5407 77.8975 26.5549 79.1627C26.5724 80.478 26.5871 81.7936 26.5891 83.109C26.5902 84.1429 26.5926 85.1767 26.5989 86.2106C26.6024 86.7141 26.6062 87.2033 26.6096 87.692C26.6117 88.1774 26.6134 88.6486 26.6155 89.1198C26.6218 89.5718 26.6279 90.011 26.634 90.4498C26.6552 92.4514 26.9502 93.8791 28.2161 95.4635C29.7556 96.2931 29.7559 96.2935 32.9534 96.2692C33.6209 96.2522 33.6214 96.2516 34.2756 96.235C36.042 96.2202 38.1377 96.5378 39.7454 95.734C40.1753 94.4442 40.175 94.4436 40.1272 91.9117C38.8717 91.882 37.616 91.8492 36.3606 91.8131C35.8487 91.7978 35.3364 91.7838 34.8245 91.7692C34.3053 91.757 33.801 91.7449 33.2971 91.733C32.8024 91.7178 32.3222 91.7029 31.842 91.6881C30.3692 91.6483 29.715 91.8179 28.6624 90.7653C28.5668 89.6031 28.5668 89.6027 28.6624 88.4723C29.9189 87.8802 29.9193 87.8804 31.4182 87.9889C31.7606 87.9823 32.0937 87.9757 32.426 87.9694C33.4854 87.9445 34.5453 87.9201 35.6047 87.8981C36.3433 87.8828 37.082 87.8668 37.8206 87.8502C39.5248 87.8112 41.2295 87.7728 42.9338 87.7369C43.4088 87.7271 43.8703 87.7182 44.3313 87.7086C44.3313 86.842 44.3306 86.8414 43.4543 85.068C43.3301 84.8207 43.2097 84.5805 43.0891 84.3405C42.4339 82.9949 41.7415 81.7174 40.8918 80.4811C40.1276 79.6825 40.1267 79.6828 38.6936 79.444C36.3473 79.2781 34.0298 78.5547 32.2493 76.9449C30.5305 74.6693 29.4259 71.4162 29.6262 68.5533C29.9697 67.1994 30.5703 66.667 31.72 65.9244C33.4049 65.7961 34.5228 65.8462 36.1409 66.3453C36.6027 66.5433 37.052 66.7362 37.5002 66.9283C37.9972 67.1396 38.4946 67.3506 38.9915 67.5621C39.747 67.8911 40.5025 68.2146 41.2678 68.5201C41.7608 68.7132 42.253 68.909 42.7444 69.1061C43.0991 69.2486 43.0999 69.2486 43.4475 69.3883C45.2801 70.1176 46.3744 70.6988 47.3879 72.4215C47.6478 73.7207 47.9004 74.9818 48.1526 76.2428H71.8469C71.9768 75.2036 72.1027 74.1948 72.2288 73.1862C74.9373 69.8319 74.9381 69.8315 79.136 68.2535C79.5731 68.079 79.9978 67.9093 80.4221 67.7399C82.4806 66.8862 84.5476 65.8229 86.8127 65.7877C88.421 65.9913 89.1887 66.5664 90.1907 67.8356C90.4839 71.0614 89.5968 74.0638 87.8264 76.7448C86.0091 78.4813 84.0624 78.8669 81.6399 79.3248C80.6758 79.4815 80.6754 79.4807 79.8723 79.6823C79.1081 80.4465 79.1078 80.4472 78.4749 81.528C78.2354 81.9724 78.0032 82.4041 77.7708 82.8356C76.8989 84.4389 76.2258 85.9734 75.6682 87.7086C77.4733 87.7461 79.2792 87.7848 81.0842 87.8258C81.8188 87.8426 82.5538 87.8591 83.2883 87.8756C84.3746 87.898 85.4609 87.9199 86.5471 87.9449C87.0653 87.9571 87.0659 87.9575 87.5735 87.9694C88.703 87.9911 90.5227 87.6583 91.3372 88.4723C91.4646 89.6027 91.4645 89.603 91.3372 90.7653C90.2686 91.6039 90.2687 91.6046 89.1135 91.652C88.6744 91.6643 88.2478 91.6761 87.8215 91.6881C87.3458 91.7033 86.8838 91.7183 86.4221 91.733C85.9251 91.7452 85.4426 91.7573 84.9602 91.7692C83.5741 91.8112 82.1873 91.8529 80.801 91.8893C80.4854 91.8971 80.1787 91.9042 79.8723 91.9117C79.8461 93.3026 79.8117 94.4067 80.2542 95.734C81.1365 96.1752 81.1371 96.1751 84.4075 96.2057C85.0844 96.2087 85.0849 96.2086 85.7483 96.2115C86.2008 96.2197 86.6402 96.2271 87.0793 96.235C87.7261 96.238 87.7268 96.2379 88.3606 96.2408C89.5532 96.2518 90.3345 96.2342 91.4036 95.7018C93.3744 93.6323 93.3749 93.6325 93.3879 88.6412C93.3831 88.1596 93.378 87.6917 93.3733 87.2242C93.3714 85.9707 93.3714 84.717 93.3625 83.4635C93.3517 82.1552 93.3422 80.847 93.3401 79.5387C93.3388 78.5132 93.3359 77.487 93.3323 76.4615C93.33 75.963 93.3276 75.4786 93.3254 74.9948C93.323 74.2751 93.323 74.2746 93.3206 73.569C93.3168 73.1209 93.3135 72.6855 93.3098 72.2506C93.2881 69.0832 91.8909 66.749 89.6975 64.5045ZM45.8596 80.4469C45.8596 81.8042 45.8597 81.8048 48.4631 86.2037C49.767 87.3586 49.7674 87.3587 55.0227 87.3795C55.3509 87.3787 55.67 87.3774 55.9885 87.3766C56.6804 87.3773 57.3728 87.3783 58.0647 87.3785C59.1421 87.3761 60.2197 87.3736 61.2971 87.3756C62.0057 87.3772 62.7145 87.3778 63.4231 87.3776C63.9383 87.377 63.939 87.3771 64.4436 87.3766C66.5599 87.3817 68.6163 87.3668 70.7004 86.944C71.4647 86.1797 71.4652 86.1795 71.9309 85.4332C72.0973 85.1349 72.2586 84.8449 72.4202 84.5553C73.204 83.1693 73.6189 82.0098 74.1399 80.4469H45.8596ZM34.0129 70.1285C34.1369 71.418 34.2395 72.5091 34.8489 73.6637C36.3922 75.1537 38.1437 75.6143 40.2092 75.8512C40.4898 75.8788 40.7621 75.9064 41.0344 75.9332C42.0054 76.0412 42.9764 76.1456 43.9485 76.2438C43.9963 75.3362 43.9963 75.3357 43.9485 74.3326C43.1175 73.5017 42.3331 73.1744 41.2532 72.7438C40.9923 72.6425 40.7388 72.5442 40.4856 72.4459C38.3485 71.6034 36.2043 70.8205 34.0129 70.1285ZM85.9866 70.1285C84.1901 70.1285 84.1892 70.1291 77.3625 73.316C76.2726 74.0597 76.0256 74.6112 75.6682 75.861C78.5019 75.9123 81.5116 76.1009 84.0764 74.7145C85.5372 73.2942 85.8291 72.1364 85.9866 70.1285ZM70.7717 46.3629C63.68 45.8591 56.438 45.6982 49.344 46.2965C48.8199 46.3453 48.2953 46.3914 47.7708 46.4342C45.7887 46.5081 43.844 46.5618 41.9514 47.2086C40.2926 48.12 40.2923 48.1202 38.6194 51.8756C38.3524 52.4943 38.0933 53.0954 37.8342 53.6959C36.9248 55.5148 36.0421 57.2802 35.1594 59.0455H84.8401C83.1359 55.6371 81.4576 52.277 79.6233 48.9469C77.7658 46.9101 77.7651 46.9101 71.9944 46.444C71.5788 46.4164 71.1751 46.3897 70.7717 46.3629Z" fill="#007BFF"/>
</svg>
