<svg width="160" height="160" viewBox="0 0 160 160" fill="none" xmlns="http://www.w3.org/2000/svg">
<path d="M130 60H90V20H30V140H130V60ZM125.86 50L100 24.14V50H125.86ZM25 10H100L140 50V145C140 146.326 139.473 147.598 138.536 148.536C137.598 149.473 136.326 150 135 150H25C23.6739 150 22.4021 149.473 21.4645 148.536C20.5268 147.598 20 146.326 20 145V15C20 13.6739 20.5268 12.4021 21.4645 11.4645C22.4021 10.5268 23.6739 10 25 10ZM50 80H110V90H50V80ZM50 50H75V60H50V50ZM50 110H110V120H50V110Z" fill="white"/>
</svg>
