<svg width="160" height="160" viewBox="0 0 160 160" fill="none" xmlns="http://www.w3.org/2000/svg">
<path d="M54.2169 13.19C69.4567 7.24868 86.2807 6.75312 101.844 11.7871C117.407 16.8211 130.754 27.0757 139.627 40.8167C148.5 54.557 152.355 70.9406 150.539 87.1959C148.723 103.451 141.347 118.58 129.66 130.023M93.1769 149.057C79.3114 151.675 64.9801 150.101 52.0134 144.536C39.0466 138.971 28.0327 129.667 20.3783 117.813C12.7239 105.959 8.77635 92.0924 9.03971 77.9843C9.30308 63.8762 13.7654 50.1668 21.8569 38.6067" stroke="white" stroke-width="6" stroke-linecap="round" stroke-linejoin="round"/>
<path d="M36.4767 31.5233C41.3773 31.5233 45.3501 27.5506 45.3501 22.6499C45.3501 17.7493 41.3773 13.7766 36.4767 13.7766C31.5761 13.7766 27.6034 17.7493 27.6034 22.6499C27.6034 27.5506 31.5761 31.5233 36.4767 31.5233Z" stroke="white" stroke-width="6" stroke-linecap="round" stroke-linejoin="round"/>
<path d="M122.059 142.807C122.067 137.906 118.1 133.928 113.199 133.92C108.299 133.913 104.32 137.879 104.312 142.78C104.305 147.68 108.272 151.659 113.172 151.667C118.073 151.674 122.052 147.708 122.059 142.807Z" stroke="white" stroke-width="6" stroke-linecap="round" stroke-linejoin="round"/>
<path d="M121.293 62.95C126.194 62.95 130.167 58.9773 130.167 54.0767C130.167 49.1761 126.194 45.2034 121.293 45.2034C116.393 45.2034 112.42 49.1761 112.42 54.0767C112.42 58.9773 116.393 62.95 121.293 62.95Z" stroke="white" stroke-width="6" stroke-linecap="round" stroke-linejoin="round"/>
<path d="M129.729 71.4199C131.578 82.9678 129.377 94.7997 123.5 104.911C117.623 115.022 108.432 122.79 97.4825 126.9C89.3055 129.97 80.4741 130.876 71.8441 129.529C63.2142 128.183 55.0785 124.629 48.2257 119.214C41.3729 113.798 36.0353 106.704 32.7304 98.6191C29.4255 90.5341 28.2654 81.7325 29.3625 73.0673C30.4595 64.4021 33.7766 56.1673 38.9921 49.161C44.2077 42.1548 51.1447 36.6147 59.131 33.0779C67.1172 29.5411 75.8818 28.1275 84.575 28.9741C93.2683 29.8206 101.595 32.8987 108.749 37.9099" stroke="white" stroke-width="6" stroke-linecap="round" stroke-linejoin="round"/>
<path d="M80.2964 77.6132C84.9171 77.6132 88.663 73.8673 88.663 69.2466C88.663 64.6258 84.9171 60.8799 80.2964 60.8799C75.6756 60.8799 71.9297 64.6258 71.9297 69.2466C71.9297 73.8673 75.6756 77.6132 80.2964 77.6132Z" stroke="white" stroke-width="6" stroke-linecap="round" stroke-linejoin="round"/>
<path d="M61.3666 101.287C58.0266 101.443 57.6666 99.9767 57.5566 98.3734V91.7634C66.9033 80.8001 94.43 82.1834 101.777 91.9867V97.4767C101.477 98.7534 101.607 100.29 99.9033 100.727L61.3666 101.287Z" stroke="white" stroke-width="6" stroke-linecap="round" stroke-linejoin="round"/>
</svg>
