<svg width="120" height="120" viewBox="0 0 120 120" fill="none" xmlns="http://www.w3.org/2000/svg">
<path fill-rule="evenodd" clip-rule="evenodd" d="M33.6831 32.0955L28.1539 53.7739C26.068 54.1986 24.1931 55.3311 22.8465 56.9797C21.4999 58.6282 20.7644 60.6915 20.7646 62.8201V76.1539C20.7646 78.6021 21.7372 80.95 23.4683 82.6811C25.1994 84.4122 27.5473 85.3847 29.9954 85.3847H89.9954C92.4436 85.3847 94.7915 84.4122 96.5226 82.6811C98.2537 80.95 99.2262 78.6021 99.2262 76.1539V62.8201C99.2264 60.6915 98.4909 58.6282 97.1443 56.9797C95.7978 55.3311 93.9228 54.1986 91.837 53.7739L86.3123 32.0955C85.8967 30.4638 85.0428 28.9768 83.8428 27.7956C82.6429 26.6144 81.1427 25.7839 79.5047 25.3939C73.1161 23.8616 66.5698 23.0839 60 23.077C53.4893 23.077 46.9846 23.8493 40.4862 25.3939C38.8482 25.7839 37.348 26.6144 36.148 27.7956C34.9481 28.9768 34.0987 30.4638 33.6831 32.0955ZM30 58.2047C30.5129 58.2054 31.0115 58.0351 31.4168 57.7208C31.8222 57.4066 32.1113 56.9662 32.2385 56.4693L38.1554 33.2309C38.3634 32.4147 38.7907 31.6711 39.3911 31.0804C39.9916 30.4898 40.7421 30.0747 41.5616 29.8801C47.601 28.4321 53.7895 27.6979 60 27.6924C66.1385 27.6924 72.2847 28.4232 78.4385 29.8847C79.2571 30.08 80.0067 30.4955 80.6062 31.0861C81.2058 31.6766 81.6324 32.4199 81.84 33.2355L87.757 56.4693C87.8842 56.9662 88.1733 57.4066 88.5786 57.7208C88.984 58.0351 89.4825 58.2054 89.9954 58.2047C91.2195 58.2047 92.3934 58.691 93.259 59.5565C94.1245 60.4221 94.6108 61.596 94.6108 62.8201V76.1539C94.6108 77.378 94.1245 78.552 93.259 79.4175C92.3934 80.2831 91.2195 80.7693 89.9954 80.7693H29.9954C28.7713 80.7693 27.5974 80.2831 26.7318 79.4175C25.8663 78.552 25.38 77.378 25.38 76.1539V62.8201C25.38 61.596 25.8663 60.4221 26.7318 59.5565C27.5974 58.691 28.776 58.2047 30 58.2047Z" fill="#007BFF"/>
<path fill-rule="evenodd" clip-rule="evenodd" d="M39.2308 87.6924C39.2308 85.8563 38.5014 84.0954 37.2031 82.7971C35.9047 81.4987 34.1438 80.7693 32.3077 80.7693C30.4716 80.7693 28.7107 81.4987 27.4124 82.7971C26.114 84.0954 25.3846 85.8563 25.3846 87.6924V92.3078C25.3846 94.1439 26.114 95.9048 27.4124 97.2031C28.7107 98.5015 30.4716 99.2309 32.3077 99.2309C34.1438 99.2309 35.9047 98.5015 37.2031 97.2031C38.5014 95.9048 39.2308 94.1439 39.2308 92.3078V87.6924ZM30 87.6924C30 87.0804 30.2432 86.4934 30.6759 86.0606C31.1087 85.6278 31.6957 85.3847 32.3077 85.3847C32.9198 85.3847 33.5067 85.6278 33.9395 86.0606C34.3723 86.4934 34.6154 87.0804 34.6154 87.6924V92.3078C34.6154 92.9198 34.3723 93.5068 33.9395 93.9396C33.5067 94.3723 32.9198 94.6155 32.3077 94.6155C31.6957 94.6155 31.1087 94.3723 30.6759 93.9396C30.2432 93.5068 30 92.9198 30 92.3078V87.6924ZM94.6154 87.6924C94.6154 85.8563 93.886 84.0954 92.5877 82.7971C91.2894 81.4987 89.5285 80.7693 87.6923 80.7693C85.8562 80.7693 84.0953 81.4987 82.797 82.7971C81.4987 84.0954 80.7693 85.8563 80.7693 87.6924V92.3078C80.7693 94.1439 81.4987 95.9048 82.797 97.2031C84.0953 98.5015 85.8562 99.2309 87.6923 99.2309C89.5285 99.2309 91.2894 98.5015 92.5877 97.2031C93.886 95.9048 94.6154 94.1439 94.6154 92.3078V87.6924ZM85.3846 87.6924C85.3846 87.0804 85.6278 86.4934 86.0605 86.0606C86.4933 85.6278 87.0803 85.3847 87.6923 85.3847C88.3044 85.3847 88.8913 85.6278 89.3241 86.0606C89.7569 86.4934 90 87.0804 90 87.6924V92.3078C90 92.9198 89.7569 93.5068 89.3241 93.9396C88.8913 94.3723 88.3044 94.6155 87.6923 94.6155C87.0803 94.6155 86.4933 94.3723 86.0605 93.9396C85.6278 93.5068 85.3846 92.9198 85.3846 92.3078V87.6924ZM72.2216 34.6155H47.7785C46.2289 34.6154 44.7241 35.1351 43.5049 36.0916C42.2857 37.048 41.4227 38.3858 41.0539 39.8909L38.7923 49.1216C38.5426 50.1409 38.5278 51.2036 38.7491 52.2293C38.9704 53.2551 39.422 54.2172 40.0698 55.0428C40.7176 55.8684 41.5445 56.5359 42.4882 56.995C43.4319 57.454 44.4676 57.6925 45.517 57.6924H74.4831C75.5325 57.6925 76.5682 57.454 77.5118 56.995C78.4555 56.5359 79.2825 55.8684 79.9303 55.0428C80.578 54.2172 81.0296 53.2551 81.2509 52.2293C81.4723 51.2036 81.4575 50.1409 81.2077 49.1216L78.9462 39.8909C78.5772 38.385 77.7135 37.0467 76.4933 36.0901C75.2732 35.1336 73.7719 34.6143 72.2216 34.6155ZM45.5354 40.9893C45.6584 40.4874 45.9463 40.0413 46.353 39.7224C46.7597 39.4036 47.2617 39.2305 47.7785 39.2309H72.2216C72.7376 39.2315 73.2385 39.4051 73.6442 39.7238C74.05 40.0426 74.3372 40.4882 74.46 40.9893L76.7216 50.2201C76.8048 50.5596 76.8097 50.9135 76.7361 51.2552C76.6625 51.5969 76.5123 51.9175 76.2967 52.1926C76.0811 52.4677 75.8059 52.6903 75.4917 52.8435C75.1775 52.9967 74.8326 53.0766 74.4831 53.077H45.517C45.167 53.0773 44.8216 52.9979 44.5069 52.845C44.1921 52.6921 43.9163 52.4697 43.7002 52.1944C43.4841 51.9192 43.3334 51.5984 43.2595 51.2564C43.1857 50.9143 43.1906 50.56 43.2739 50.2201L45.5354 40.9893Z" fill="#007BFF"/>
<path fill-rule="evenodd" clip-rule="evenodd" d="M60 113.077C89.3124 113.077 113.077 89.3124 113.077 60C113.077 30.6877 89.3124 6.92312 60 6.92312C30.6877 6.92312 6.92312 30.6877 6.92312 60C6.92312 89.3124 30.6877 113.077 60 113.077ZM60 117.692C91.8647 117.692 117.692 91.8647 117.692 60C117.692 28.1354 91.8647 2.30774 60 2.30774C28.1354 2.30774 2.30774 28.1354 2.30774 60C2.30774 91.8647 28.1354 117.692 60 117.692Z" fill="#007BFF"/>
<circle cx="36.5" cy="69.5" r="7.5" fill="#007BFF"/>
<circle cx="82.5" cy="69.5" r="7.5" fill="#007BFF"/>
</svg>
