<svg width="120" height="120" viewBox="0 0 120 120" fill="none" xmlns="http://www.w3.org/2000/svg">
<path d="M62.982 100.818L91.518 72H85.5C84.764 72 84.044 71.912 83.34 71.736L60.15 95.148L36.972 71.736C36.268 71.912 35.544 72 34.8 72H28.794L57.324 100.818C58.884 102.396 61.422 102.396 62.982 100.818ZM100.338 25.878C103.929 29.5136 106.393 34.1091 107.434 39.112C108.475 44.1148 108.049 49.3119 106.206 54.078C105.806 54.0318 105.403 54.0058 105 54H99.666C101.68 50.1499 102.417 45.7594 101.772 41.4626C101.127 37.1659 99.1332 33.1853 96.078 30.096C94.2385 28.2138 92.0427 26.7164 89.6187 25.6912C87.1948 24.666 84.591 24.1334 81.9591 24.1244C79.3272 24.1155 76.7199 24.6304 74.289 25.6391C71.8581 26.6479 69.6523 28.1303 67.8 30L62.094 35.778C61.815 36.0601 61.4828 36.2841 61.1167 36.4369C60.7506 36.5898 60.3577 36.6685 59.961 36.6685C59.5642 36.6685 59.1714 36.5898 58.8053 36.4369C58.4392 36.2841 58.107 36.0601 57.828 35.778L52.068 29.958C50.2317 28.0778 48.0393 26.5819 45.6189 25.5577C43.1985 24.5335 40.5983 24.0014 37.9701 23.9924C35.3419 23.9835 32.7382 24.4979 30.3109 25.5056C27.8835 26.5134 25.6811 27.9943 23.832 29.862C17.394 36.366 16.278 46.266 20.52 54H15C14.64 54 14.28 54.02 13.92 54.06C11.9884 49.2888 11.4937 44.0571 12.4969 39.0084C13.5 33.9597 15.9572 29.3144 19.566 25.644C21.973 23.213 24.8394 21.285 27.9984 19.9721C31.1575 18.6592 34.5461 17.9877 37.9671 17.9967C41.3881 18.0056 44.7731 18.6948 47.9253 20.0242C51.0775 21.3535 53.9338 23.2965 56.328 25.74L59.958 29.4L63.534 25.782L64.188 25.146C69.1112 20.5122 75.6546 17.9929 82.4142 18.1286C89.1738 18.2643 95.6108 21.0443 100.344 25.872M47.772 37.842C47.5456 37.2963 47.1631 36.8295 46.6724 36.5003C46.1818 36.1711 45.6048 35.9941 45.014 35.9916C44.4231 35.989 43.8447 36.161 43.3512 36.4859C42.8577 36.8108 42.4711 37.2743 42.24 37.818L32.82 60H15C14.2043 60 13.4413 60.3161 12.8787 60.8787C12.3161 61.4413 12 62.2044 12 63C12 63.7957 12.3161 64.5588 12.8787 65.1214C13.4413 65.684 14.2043 66 15 66H34.8C35.3882 66.0001 35.9634 65.8272 36.4541 65.5029C36.9449 65.1786 37.3294 64.7172 37.56 64.176L44.97 46.734L57.228 76.152C57.4392 76.661 57.7866 77.1019 58.2319 77.4264C58.6772 77.751 59.2033 77.9466 59.7525 77.9918C60.3016 78.0371 60.8526 77.9302 61.3451 77.6829C61.8375 77.4357 62.2523 77.0575 62.544 76.59L75.402 56.016L83.244 64.974C83.5252 65.2959 83.872 65.5539 84.2611 65.7309C84.6502 65.9078 85.0726 65.9996 85.5 66H105C105.796 66 106.559 65.684 107.121 65.1214C107.684 64.5588 108 63.7957 108 63C108 62.2044 107.684 61.4413 107.121 60.8787C106.559 60.3161 105.796 60 105 60H86.862L77.262 49.02C76.9534 48.6671 76.5664 48.3914 76.1321 48.215C75.6977 48.0386 75.228 47.9665 74.7608 48.0044C74.2935 48.0423 73.8416 48.1892 73.4413 48.4333C73.0411 48.6774 72.7036 49.012 72.456 49.41L60.534 68.484L47.772 37.842Z" fill="#007BFF"/>
</svg>
