<svg width="160" height="150" viewBox="0 0 160 150" fill="none" xmlns="http://www.w3.org/2000/svg">
<path d="M111.656 0.0060711C112.479 0.0111768 113.302 0.00609158 114.126 3.48875e-05C119.013 -0.00607034 123.506 0.78675 127.199 4.25077C131.607 9.42988 131.727 14.464 131.647 20.9709C131.626 22.852 131.625 24.7332 131.62 26.6145C131.612 28.9985 131.599 31.3821 131.567 33.7659C131.541 35.7024 131.533 37.6382 131.538 39.5749C131.536 40.309 131.528 41.0432 131.513 41.7771C131.263 45.8735 131.263 45.8735 132.779 49.514C133.677 50.4194 134.686 51.1087 135.758 51.7975C136.24 52.199 136.717 52.6068 137.184 53.0258C137.38 53.1995 137.577 53.3731 137.779 53.5521C139.478 55.084 139.478 55.084 139.68 56.3368C139.767 58.1412 139.542 59.2863 138.294 60.6729C137.344 61.2586 136.59 61.4085 135.48 61.4258C135.22 61.4347 134.959 61.4437 134.691 61.453C132.891 61.1379 131.601 59.7662 130.31 58.5531C129.15 57.4809 127.975 56.4519 126.744 55.4626C125.306 54.303 123.948 53.0821 122.597 51.8249C121.572 50.8769 120.522 49.9788 119.433 49.1032C118.001 47.951 116.651 46.7363 115.307 45.4852C114.282 44.5373 113.231 43.6392 112.143 42.7636C110.711 41.6112 109.36 40.3963 108.015 39.1449C106.997 38.2032 105.954 37.3117 104.872 36.4439C103.358 35.2258 101.939 33.93 100.522 32.6025C99.1867 31.3591 97.7952 30.2052 96.372 29.063C95.4182 28.2719 94.5065 27.4417 93.5997 26.5977C92.1445 25.2435 90.6388 23.9782 89.089 22.7321C88.1513 21.9518 87.2588 21.1309 86.3686 20.2978C81.4302 15.7247 76.6232 12.2743 69.6022 12.4142C64.4706 12.7977 60.776 15.3046 57.0824 18.6399C56.1487 19.4748 55.1902 20.2802 54.235 21.0902C52.8922 22.2363 51.5728 23.4021 50.2727 24.5968C49.1649 25.614 48.0363 26.5853 46.8652 27.5289C45.4275 28.6884 44.0696 29.9094 42.7186 31.1666C41.423 32.3651 40.0683 33.4752 38.6931 34.5816C37.7354 35.378 36.8211 36.2098 35.9096 37.058C34.4555 38.4113 32.9508 39.6755 31.4026 40.9212C30.4449 41.7175 29.5306 42.5494 28.6191 43.3976C27.4358 44.4988 26.2343 45.5533 24.9739 46.5674C24.7093 46.7889 24.4448 47.0104 24.1722 47.2386C23.2305 47.9938 23.2305 47.9938 22.2444 48.6333C20.5564 49.8644 19.4213 50.8993 19.0777 53.0272C18.8955 54.9989 18.935 56.9695 18.9658 58.9471C18.9638 59.7065 18.9601 60.4659 18.9548 61.2253C18.9462 63.0669 18.955 64.9078 18.9716 66.7494C18.99 68.8937 18.9867 71.0379 18.9822 73.1823C18.9748 77.0058 18.9842 80.8291 19.0044 84.6526C19.0239 88.3647 19.0355 92.0767 19.0363 95.7889C19.0363 96.1326 19.0363 96.1326 19.0364 96.4833C19.0366 97.6331 19.0367 98.7828 19.0367 99.9325C19.0367 109.457 19.0673 118.982 19.1098 128.506C26.1182 128.506 33.1266 128.506 40.3473 128.506C40.3363 125.801 40.3253 123.096 40.3139 120.308C40.3084 118.372 40.3036 116.436 40.2996 114.5C40.2943 111.994 40.2876 109.489 40.2756 106.983C40.2661 104.999 40.26 103.015 40.2579 101.03C40.2566 99.9808 40.2533 98.9314 40.2468 97.8819C40.2399 96.7067 40.2389 95.5317 40.2394 94.3565C40.236 94.0133 40.2326 93.6702 40.229 93.3166C40.2471 88.8352 41.5688 85.2894 44.6327 82.0355C48.3402 78.4566 52.2318 77.5739 57.2859 77.6511C57.7133 77.6493 58.1407 77.647 58.568 77.6443C62.0125 77.6668 62.0125 77.6668 63.4868 78.7407C64.5402 79.9394 64.6352 81.1571 64.5937 82.6992C64.3343 84.0232 63.576 84.8866 62.5358 85.7142C61.6023 86.0254 60.9715 86.0747 59.9975 86.0869C59.6845 86.0945 59.3715 86.1021 59.0491 86.1098C58.3962 86.1233 57.7432 86.1333 57.0902 86.1395C54.8285 86.2025 52.6739 86.4923 50.9388 88.0746C49.7525 89.4384 49.1459 90.5703 49.1345 92.3704C49.1309 92.6895 49.1274 93.0086 49.1237 93.3374C49.1227 93.8597 49.1227 93.8597 49.1217 94.3924C49.1185 94.7605 49.1153 95.1286 49.112 95.5079C49.1022 96.7256 49.0968 97.9433 49.0915 99.161C49.0856 100.005 49.0794 100.849 49.0729 101.693C49.0581 103.688 49.0464 105.682 49.0359 107.677C49.0238 109.949 49.0081 112.22 48.9922 114.491C48.9594 119.163 48.9311 123.835 48.9058 128.506C49.2956 128.492 49.6854 128.477 50.087 128.462C50.6046 128.45 51.1221 128.438 51.6397 128.427C51.8959 128.416 52.1521 128.406 52.416 128.395C54.1577 128.367 55.1321 128.61 56.5132 129.774C57.4313 131.106 57.426 132.658 57.1472 134.212C56.4282 135.473 55.678 136.287 54.2944 136.748C53.6106 136.779 52.9258 136.791 52.2412 136.792C51.9272 136.794 51.9272 136.794 51.6067 136.795C50.9037 136.798 50.2008 136.798 49.4978 136.799C48.9943 136.8 48.4908 136.802 47.9873 136.804C46.6186 136.808 45.2498 136.81 43.881 136.811C43.0261 136.812 42.1711 136.813 41.3162 136.815C38.642 136.819 35.9677 136.822 33.2934 136.823C30.2052 136.825 27.1169 136.83 24.0287 136.84C21.6422 136.846 19.2558 136.85 16.8693 136.85C15.4436 136.85 14.018 136.852 12.5923 136.858C11.2513 136.863 9.91047 136.864 8.56952 136.861C8.07744 136.861 7.58535 136.862 7.09328 136.865C6.42128 136.869 5.74954 136.868 5.07754 136.864C4.51357 136.865 4.51357 136.865 3.93821 136.866C2.45051 136.689 1.36248 135.991 0.408058 134.846C-0.118935 133.265 -0.172908 131.681 0.467492 130.131C1.04202 129.457 1.04202 129.457 2.62691 128.506C5.34658 128.506 8.06626 128.506 10.8683 128.506C10.7114 94.1443 10.7114 94.1443 10.5514 59.088C9.60994 59.8203 8.66852 60.5525 7.69856 61.3069C6.31891 61.7351 5.69015 61.6881 4.31086 61.2673C2.99334 60.5215 2.23333 59.9184 1.80227 58.4293C1.52952 56.857 1.67067 55.9799 2.53126 54.575C3.24082 53.6144 4.1177 52.8988 5.04387 52.1541C5.44327 51.8231 5.84238 51.4916 6.2412 51.1599C6.43606 50.9991 6.63091 50.8384 6.83167 50.6728C7.58226 50.0447 8.30448 49.388 9.02591 48.7268C10.0762 47.7725 11.1503 46.8636 12.2551 45.9731C13.6988 44.8059 15.0643 43.5786 16.4222 42.3149C17.4401 41.3731 18.4841 40.4816 19.5654 39.6137C20.892 38.5467 22.1474 37.4283 23.389 36.2656C24.8981 34.8523 26.4525 33.5275 28.0657 32.2328C29.0195 31.4417 29.9312 30.6114 30.838 29.7675C32.2922 28.4143 33.7968 27.1501 35.345 25.9044C36.3028 25.108 37.217 24.2762 38.1285 23.428C39.5827 22.0747 41.0873 20.8105 42.6355 19.5648C43.5933 18.7685 44.5075 17.9366 45.419 17.0884C46.881 15.728 48.3918 14.4536 49.9508 13.2042C50.8332 12.471 51.6595 11.6969 52.4916 10.9073C55.423 8.22226 58.76 6.16341 62.5358 4.88472C62.8206 4.7838 63.1054 4.68287 63.3989 4.57889C70.1575 2.60497 77.4568 3.78489 83.5456 7.06271C86.4266 8.67815 88.8263 10.7684 91.2125 13.0246C92.0043 13.7882 92.0043 13.7882 92.9658 14.3941C93.0389 14.0611 93.112 13.7281 93.1874 13.3849C94.2002 8.94746 95.7659 5.43879 99.5678 2.63987C103.425 0.241998 107.233 -0.0265412 111.656 0.0060711ZM103.169 10.8083C101.599 13.1842 101.344 15.5962 101.326 18.3959C101.312 18.7122 101.297 19.0285 101.283 19.3543C101.264 21.1102 101.264 21.1102 101.974 22.6733C102.535 23.2433 103.109 23.735 103.743 24.2204C104.022 24.4574 104.301 24.6944 104.589 24.9386C104.852 25.1461 105.116 25.3537 105.387 25.5676C106.681 26.6083 107.918 27.6857 109.132 28.8166C110.307 29.9107 111.504 30.961 112.757 31.9666C114.084 33.0335 115.339 34.152 116.581 35.3147C118.636 37.2377 120.732 39.1391 123.079 40.7033C123.108 37.2342 123.131 33.765 123.144 30.2958C123.151 28.6848 123.16 27.0738 123.174 25.4628C123.188 23.9069 123.196 22.3512 123.199 20.7953C123.201 20.2028 123.206 19.6104 123.213 19.018C123.222 18.1857 123.223 17.3537 123.223 16.5213C123.227 16.2785 123.232 16.0357 123.236 15.7855C123.221 13.6994 122.559 12.0618 121.166 10.5024C120.954 10.3288 120.742 10.1551 120.523 9.97619C120.31 9.79681 120.097 9.61743 119.878 9.43262C118.6 8.52713 117.256 8.62736 115.755 8.61293C115.502 8.61038 115.249 8.60782 114.988 8.60518C114.452 8.6008 113.917 8.5974 113.381 8.5949C112.836 8.59126 112.291 8.58479 111.746 8.5754C110.956 8.5618 110.166 8.55674 109.376 8.5535C109.135 8.54795 108.895 8.5424 108.647 8.53668C106.413 8.54563 104.782 9.26679 103.169 10.8083Z" fill="white"/>
<path d="M100.466 72.6721C100.787 72.671 101.109 72.6699 101.44 72.6688C102.494 72.6659 103.548 72.6652 104.601 72.6649C105.34 72.6639 106.079 72.6628 106.818 72.6617C108.364 72.6598 109.909 72.6592 111.455 72.6594C113.427 72.6594 115.398 72.6551 117.37 72.6496C118.895 72.6461 120.42 72.6455 121.946 72.6456C122.672 72.6453 123.399 72.6439 124.125 72.6414C136.091 72.6046 136.091 72.6046 140.79 76.819C141.859 78.0149 142.588 79.2772 143.279 80.7132C143.387 80.9334 143.495 81.1536 143.606 81.3805C143.951 82.0845 144.292 82.7899 144.634 83.4954C144.86 83.9598 145.087 84.4241 145.313 84.8883C145.988 86.2716 146.658 87.6569 147.328 89.0425C147.561 89.5234 147.793 90.0042 148.026 90.485C148.586 91.6417 149.146 92.7986 149.705 93.9557C149.941 93.7978 150.176 93.6399 150.419 93.4773C150.886 93.171 150.886 93.171 151.362 92.8586C151.67 92.655 151.977 92.4514 152.294 92.2415C153.593 91.5117 154.269 91.4852 155.728 91.7368C157.033 92.3003 157.872 93.0397 158.581 94.2726C158.828 95.7682 158.763 97.0165 158.165 98.4132C156.857 99.8419 155.353 101.012 153.826 102.197C154.094 102.504 154.362 102.812 154.638 103.128C155.001 103.557 155.365 103.987 155.728 104.416C155.914 104.626 156.101 104.837 156.292 105.054C158.466 107.632 159.869 110.942 159.905 114.336C159.909 114.672 159.913 115.008 159.917 115.353C159.921 115.896 159.921 115.896 159.924 116.45C159.927 116.825 159.929 117.201 159.932 117.588C159.936 118.383 159.94 119.179 159.942 119.975C159.946 120.784 159.952 121.593 159.962 122.401C159.975 123.574 159.98 124.747 159.984 125.92C159.989 126.276 159.995 126.632 160 126.999C159.99 130.813 159.004 134.037 156.679 137.065C156.496 137.339 156.313 137.614 156.124 137.897C153.89 140.255 150.452 142.333 147.125 142.484C146.904 142.481 146.684 142.477 146.456 142.473C145.868 142.463 145.868 142.463 145.268 142.453C145.29 142.771 145.312 143.088 145.334 143.415C145.521 147.252 145.521 147.252 144.376 148.595C143.239 149.689 142.097 149.856 140.533 149.833C139.441 149.684 138.798 149.182 137.977 148.476C137.026 146.891 137.026 146.891 137.026 142.453C121.754 142.453 106.482 142.453 90.7473 142.453C90.7473 143.709 90.7473 144.964 90.7473 146.257C90.194 147.811 89.9172 148.475 88.6077 149.427C86.8704 149.961 85.6444 150.04 83.9917 149.229C82.9791 148.334 82.5983 147.87 82.1889 146.574C82.115 145.197 82.1337 143.831 82.1889 142.453C81.8424 142.48 81.4959 142.506 81.1389 142.533C77.7434 142.521 74.2412 140.521 71.8078 138.253C68.3989 134.603 67.5656 130.39 67.5435 125.573C67.5417 125.263 67.5399 124.953 67.538 124.634C67.535 123.979 67.5329 123.325 67.5317 122.67C67.5286 121.682 67.5188 120.695 67.5088 119.707C67.4738 113.178 68.3522 108.001 73.0039 103.143C73.3141 102.832 73.3141 102.832 73.6304 102.514C72.8485 101.493 72.0703 100.633 71.0748 99.8198C69.0049 98.0274 69.0049 98.0274 68.7891 96.52C68.7044 94.7763 69.1644 93.7775 70.3022 92.45C71.3219 91.6002 72.5458 91.5956 73.8149 91.6019C75.1959 91.845 76.0886 92.7404 77.1172 93.6387C77.5879 93.9525 77.5879 93.9525 78.0681 94.2726C78.1547 93.9976 78.2413 93.7226 78.3305 93.4392C78.6871 92.4138 79.1034 91.4677 79.5763 90.4912C79.7472 90.1369 79.9181 89.7826 80.0942 89.4175C80.2755 89.0453 80.4568 88.6731 80.6436 88.2897C80.8315 87.9034 81.0193 87.5172 81.2072 87.1309C81.5774 86.3701 81.9484 85.6096 82.3197 84.8494C82.7431 83.9767 83.1589 83.1013 83.5695 82.2225C85.5695 77.9844 87.9851 75.0723 92.4907 73.4115C95.0821 72.6594 97.7869 72.6708 100.466 72.6721ZM92.5599 83.2754C91.9221 84.2753 91.3982 85.3035 90.907 86.3804C90.807 86.595 90.707 86.8096 90.604 87.0308C90.2865 87.7136 89.9721 88.3978 89.6577 89.0821C89.448 89.5342 89.2381 89.9861 89.028 90.438C88.5266 91.5179 88.0292 92.5997 87.5329 93.6821C87.2773 94.2363 87.0176 94.7887 86.7577 95.3409C86.5402 95.8063 86.5402 95.8063 86.3183 96.281C86.1928 96.5468 86.0673 96.8125 85.938 97.0863C85.6181 97.7867 85.6181 97.7867 85.6756 98.7103C104.4 98.7103 123.123 98.7103 142.415 98.7103C139.967 93.2489 139.967 93.2489 137.462 87.8142C137.214 87.2687 137.214 87.2687 136.962 86.7122C135.877 84.4149 134.86 82.6546 132.49 81.5777C131.631 81.2741 131.01 81.1955 130.104 81.1918C129.804 81.1891 129.504 81.1864 129.195 81.1836C128.87 81.1839 128.545 81.1841 128.21 81.1844C127.864 81.1823 127.519 81.1802 127.163 81.178C126.021 81.172 124.879 81.1707 123.737 81.17C122.942 81.168 122.147 81.1659 121.352 81.1637C119.686 81.1599 118.02 81.1587 116.354 81.1591C114.432 81.1594 112.511 81.1528 110.59 81.1427C108.737 81.1334 106.884 81.1312 105.031 81.1316C104.244 81.1308 103.458 81.128 102.672 81.1231C101.571 81.1169 100.471 81.1187 99.3697 81.1225C98.8847 81.1172 98.8847 81.1172 98.3899 81.1117C96.0393 81.1324 94.246 81.5711 92.5599 83.2754ZM77.9691 110.221C76.1411 112.3 76.021 114.785 76.0288 117.412C76.0272 117.74 76.0255 118.068 76.0238 118.406C76.0218 119.097 76.0222 119.787 76.0249 120.478C76.0276 121.53 76.0185 122.581 76.0084 123.633C76.0079 124.306 76.0081 124.98 76.009 125.654C76.0055 125.965 76.0019 126.277 75.9982 126.598C76.0211 128.872 76.4941 130.564 77.9765 132.317C78.1506 132.459 78.3247 132.6 78.504 132.746C78.6764 132.892 78.8489 133.038 79.0265 133.189C80.6669 134.207 82.3267 134.304 84.2094 134.295C84.472 134.296 84.7346 134.297 85.0052 134.298C85.8826 134.302 86.76 134.3 87.6374 134.299C88.2675 134.3 88.8976 134.302 89.5277 134.304C91.2377 134.308 92.9477 134.308 94.6577 134.308C96.0858 134.307 97.514 134.309 98.9421 134.31C102.312 134.314 105.681 134.314 109.051 134.312C112.526 134.31 116 134.314 119.475 134.321C122.46 134.326 125.444 134.328 128.429 134.327C130.211 134.327 131.993 134.327 133.775 134.332C135.451 134.336 137.127 134.335 138.803 134.331C139.417 134.33 140.032 134.331 140.646 134.334C141.486 134.337 142.326 134.335 143.167 134.331C143.529 134.334 143.529 134.334 143.899 134.338C146.025 134.316 148.098 133.83 149.646 132.27C149.904 132.024 149.904 132.024 150.167 131.773C151.527 129.741 151.751 127.495 151.733 125.11C151.734 124.826 151.735 124.542 151.736 124.25C151.737 123.653 151.735 123.057 151.731 122.46C151.726 121.556 151.731 120.652 151.737 119.748C151.737 119.165 151.735 118.581 151.733 117.998C151.736 117.599 151.736 117.599 151.739 117.192C151.704 114.133 150.938 111.389 148.754 109.171C145.566 106.527 141.583 106.86 137.675 106.87C137.098 106.869 136.522 106.868 135.945 106.866C134.385 106.864 132.825 106.865 131.265 106.867C129.629 106.868 127.993 106.867 126.358 106.866C123.611 106.865 120.864 106.866 118.118 106.869C114.946 106.873 111.775 106.871 108.604 106.868C105.876 106.865 103.149 106.865 100.422 106.866C98.7948 106.867 97.1679 106.867 95.5409 106.865C94.0111 106.864 92.4813 106.865 90.9514 106.868C90.3914 106.869 89.8313 106.869 89.2713 106.868C84.9632 106.858 81.0911 106.853 77.9691 110.221Z" fill="white"/>
<path d="M109.726 116.293C110.056 116.292 110.387 116.29 110.727 116.289C111.424 116.288 112.121 116.291 112.818 116.296C113.882 116.303 114.946 116.296 116.011 116.288C116.689 116.289 117.368 116.29 118.046 116.293C118.363 116.29 118.68 116.288 119.007 116.285C120.885 116.31 121.965 116.479 123.395 117.729C124.377 119.091 124.478 120.179 124.236 121.79C123.893 122.939 123.298 123.552 122.444 124.386C121.673 124.771 121.17 124.747 120.309 124.754C119.997 124.757 119.684 124.76 119.363 124.763C119.024 124.764 118.686 124.766 118.337 124.767C117.99 124.769 117.643 124.771 117.285 124.772C116.55 124.775 115.814 124.778 115.078 124.779C113.953 124.782 112.829 124.792 111.704 124.802C110.989 124.804 110.275 124.805 109.561 124.807C109.224 124.811 108.888 124.814 108.541 124.818C105.626 124.81 105.626 124.81 104.377 123.752C103.366 122.567 103.277 121.496 103.336 119.994C103.518 118.611 104.119 117.951 105.149 117.062C106.564 116.149 108.093 116.28 109.726 116.293Z" fill="white"/>
<path d="M140.906 115.401C142.14 116.344 142.879 117.54 143.365 118.997C143.6 121.168 143.384 122.904 142.097 124.703C140.268 126.44 138.834 126.735 136.362 126.681C134.579 126.533 133.646 125.833 132.489 124.544C131.208 123.011 131.212 121.575 131.231 119.636C131.393 117.897 132.092 116.932 133.36 115.728C135.722 114.173 138.407 113.985 140.906 115.401Z" fill="white"/>
<path d="M93.9937 115.401C95.2274 116.344 95.9669 117.54 96.4527 118.997C96.6879 121.168 96.4715 122.904 95.1848 124.703C93.3556 126.44 91.9223 126.735 89.4495 126.681C87.6666 126.533 86.7343 125.833 85.5764 124.544C84.2955 123.011 84.2997 121.575 84.3184 119.636C84.4806 117.897 85.1797 116.932 86.4481 115.728C88.8103 114.173 91.4946 113.985 93.9937 115.401Z" fill="white"/>
</svg>
