<svg width="116" height="133" viewBox="0 0 116 133" fill="none" xmlns="http://www.w3.org/2000/svg">
<path d="M16.9947 16.6474C27.9134 5.91721 42.6286 -0.0658259 57.9371 0.000546378C73.2456 0.0669187 87.9083 6.17733 98.7336 17.0018C109.559 27.8262 115.671 42.4884 115.738 57.7969C115.806 73.1055 109.824 87.8211 99.0947 98.7407L91.1747 106.567C85.3436 112.292 77.7747 119.654 68.468 128.654C65.67 131.358 61.9309 132.868 58.04 132.867C54.1491 132.866 50.411 131.353 47.6147 128.647L24.3413 106.007C21.4169 103.136 18.968 100.714 16.9947 98.7407C6.1128 87.8521 0 73.0881 0 57.694C0 42.3 6.1128 27.5359 16.9947 16.6474ZM92.0147 23.7274C87.5643 19.2159 82.2654 15.6293 76.4231 13.1743C70.5808 10.7192 64.3106 9.44418 57.9735 9.42256C51.6363 9.40095 45.3575 10.6332 39.4986 13.0483C33.6397 15.4635 28.3165 19.0138 23.8355 23.4948C19.3544 27.9759 15.8041 33.2991 13.389 39.158C10.9738 45.0169 9.74158 51.2957 9.76319 57.6328C9.78481 63.9699 11.0599 70.2402 13.5149 76.0825C15.9699 81.9248 19.5565 87.2237 24.068 91.674L33.9813 101.454C40.8244 108.14 47.6866 114.807 54.568 121.454C55.5005 122.356 56.7472 122.861 58.0447 122.861C59.3422 122.861 60.5888 122.356 61.5213 121.454L84.148 99.454C87.2813 96.3874 89.9036 93.794 92.0147 91.674C101.025 82.6636 106.086 70.4431 106.086 57.7007C106.086 44.9583 101.025 32.7378 92.0147 23.7274ZM58.048 36.194C61.1126 36.1949 64.147 36.7994 66.9781 37.973C69.8091 39.1466 72.3812 40.8663 74.5476 43.0339C76.714 45.2015 78.4322 47.7746 79.6042 50.6063C80.7761 53.438 81.3789 56.4728 81.378 59.5374C81.3771 62.602 80.7726 65.6364 79.5991 68.4674C78.4255 71.2984 76.7058 73.8705 74.5381 76.0369C72.3705 78.2033 69.7974 79.9216 66.9657 81.0935C64.1341 82.2655 61.0993 82.8682 58.0347 82.8674C51.8454 82.8656 45.9103 80.4052 41.5351 76.0275C37.1599 71.6498 34.7029 65.7133 34.7047 59.524C34.7064 53.3348 37.1668 47.3997 41.5445 43.0245C45.9223 38.6493 51.8587 36.1923 58.048 36.194ZM58.0413 46.194C54.5051 46.194 51.1137 47.5988 48.6132 50.0993C46.1128 52.5998 44.708 55.9911 44.708 59.5274C44.708 63.0636 46.1128 66.455 48.6132 68.9555C51.1137 71.4559 54.5051 72.8607 58.0413 72.8607C61.5776 72.8607 64.9689 71.4559 67.4694 68.9555C69.9699 66.455 71.3747 63.0636 71.3747 59.5274C71.3747 55.9911 69.9699 52.5998 67.4694 50.0993C64.9689 47.5988 61.5776 46.194 58.0413 46.194Z" fill="white"/>
</svg>
