<svg width="120" height="120" viewBox="0 0 120 120" fill="none" xmlns="http://www.w3.org/2000/svg">
<path d="M27.0536 112.811H93C100.131 112.811 104.299 108.791 104.299 101.711V55.8557L110.777 61.7829C111.834 62.7879 112.989 63.4907 114.394 63.4907C116.754 63.4907 118.663 62.0336 118.663 59.6229C118.663 58.1165 118.11 57.1629 117.156 56.3079L99.7286 40.3865V10.8086C99.7286 8.59932 98.3229 7.1936 96.1136 7.1936H89.535C87.375 7.1936 85.8664 8.59932 85.8664 10.8086V27.7843L66.03 9.70289C64.2729 8.09575 62.1621 7.1936 60.0021 7.1936C57.8421 7.1936 55.7336 8.09575 53.9764 9.70289L2.84786 56.31C1.94357 57.165 1.34143 58.1186 1.34143 59.625C1.34143 62.0357 3.24857 63.4929 5.61 63.4929C7.06714 63.4929 8.22215 62.79 9.22715 61.785L15.705 55.9093V101.713C15.705 108.793 19.875 112.813 27.0557 112.813M74.4643 71.3765C74.4643 69.0665 72.9579 67.6093 70.6479 67.6093H49.35C47.04 67.6093 45.4843 69.0665 45.4843 71.3765V104.721H28.7593C25.545 104.721 23.7879 102.964 23.7879 99.6986V48.525L58.2429 17.1343C58.7443 16.6329 59.3464 16.3307 60 16.3307C60.6536 16.3307 61.2557 16.5815 61.8086 17.1343L96.21 48.525V99.7007C96.21 102.966 94.4529 104.724 91.29 104.724H74.4643V71.3765Z" fill="#007BFF"/>
</svg>
