<svg width="160" height="160" viewBox="0 0 160 160" fill="none" xmlns="http://www.w3.org/2000/svg">
<g clip-path="url(#clip0_2_3057)">
<path fill-rule="evenodd" clip-rule="evenodd" d="M120 45.7C120.109 44.9087 120.027 44.1029 119.76 43.35L119.63 42.72C119.262 41.1877 118.654 39.7231 117.83 38.38C116.91 36.88 115.61 35.58 113.01 32.98L87.1101 7.06996C84.5201 4.46996 83.2201 3.16996 81.7101 2.23996C80.185 1.30611 78.5052 0.652491 76.7501 0.309962C75.9972 0.0434133 75.1913 -0.0388833 74.4001 0.0699619C73.2901 0.0399619 71.9401 0.0399619 70.1501 0.0399619H48.0501C31.2501 0.0399619 22.8501 0.0399618 16.4501 3.30996C10.8188 6.19634 6.23646 10.7787 3.35008 16.41C0.0800784 22.83 0.0800781 31.2 0.0800781 48V112C0.0800781 128.8 0.0800784 137.2 3.35008 143.6C6.23646 149.231 10.8188 153.814 16.4501 156.7C22.8701 159.97 31.2501 159.97 48.0501 159.97H72.2801C76.2901 159.97 78.3001 154.74 75.7501 151.65C75.3344 151.133 74.8096 150.714 74.2131 150.424C73.6167 150.133 72.9634 149.978 72.3001 149.97H48.0001C39.4301 149.97 33.6001 149.96 29.1001 149.59C24.7201 149.23 22.4701 148.59 20.9101 147.79C17.147 145.873 14.0875 142.813 12.1701 139.05C11.3701 137.49 10.7201 135.25 10.3701 130.86C10.0101 126.36 10.0001 120.56 10.0001 111.96V47.96C10.0001 39.39 10.0001 33.56 10.3701 29.06C10.7301 24.68 11.3801 22.43 12.1701 20.87C14.0901 17.11 17.1501 14.05 20.9101 12.13C22.4701 11.33 24.7201 10.68 29.1101 10.33C33.6001 9.96996 39.4001 9.96996 48.0001 9.96996H70.0001V44.97C70.0001 46.296 70.5269 47.5678 71.4645 48.5055C72.4022 49.4432 73.674 49.97 75.0001 49.97H110V55.44C110 57.94 112.07 59.94 114.56 60.17C117.41 60.42 119.99 58.29 119.99 55.43V49.9C119.99 48.12 119.99 46.77 119.94 45.65L120 45.7ZM80.0001 14.1L105.9 40H80.0001V14.1Z" fill="white"/>
<path fill-rule="evenodd" clip-rule="evenodd" d="M110 150C118.34 150 126.1 147.45 132.5 143.09L147.2 157.79C148.605 159.196 150.512 159.985 152.5 159.985C154.488 159.985 156.394 159.196 157.8 157.79C159.205 156.384 159.995 154.478 159.995 152.49C159.995 150.502 159.205 148.596 157.8 147.19L143.1 132.49C147.46 126.08 150.01 118.39 150.01 109.99C150.01 87.89 132.11 69.99 110.01 69.99C87.9098 69.99 70.0098 87.89 70.0098 109.99C70.0098 132.09 87.9098 149.99 110.01 149.99L110 150ZM110 140C126.6 140 140 126.6 140 110C140 93.4 126.6 80 110 80C93.3998 80 79.9998 93.4 79.9998 110C79.9998 126.6 93.3998 140 110 140Z" fill="white"/>
</g>
<defs>
<clipPath id="clip0_2_3057">
<rect width="160" height="160" fill="white"/>
</clipPath>
</defs>
</svg>
