<svg width="130" height="130" viewBox="0 0 130 130" fill="none" xmlns="http://www.w3.org/2000/svg">
<path d="M44.0515 10.7168C56.4338 5.88948 70.1033 5.48684 82.7483 9.57697C95.3933 13.6671 106.238 21.999 113.447 33.1635C120.657 44.3275 123.789 57.6392 122.313 70.8466C120.837 84.054 114.845 96.3463 105.349 105.644M75.7065 121.108C64.4407 123.236 52.7966 121.957 42.2611 117.435C31.7256 112.913 22.7768 105.354 16.5576 95.7229C10.3384 86.0915 7.13103 74.825 7.34501 63.3622C7.55899 51.8993 11.1847 40.7604 17.759 31.3678" stroke="white" stroke-width="6" stroke-linecap="round" stroke-linejoin="round"/>
<path d="M29.6373 25.6125C33.6191 25.6125 36.8469 22.3847 36.8469 18.4029C36.8469 14.4212 33.6191 11.1934 29.6373 11.1934C25.6556 11.1934 22.4277 14.4212 22.4277 18.4029C22.4277 22.3847 25.6556 25.6125 29.6373 25.6125Z" stroke="white" stroke-width="6" stroke-linecap="round" stroke-linejoin="round"/>
<path d="M99.1734 116.031C99.1795 112.049 95.9566 108.816 91.9749 108.81C87.9932 108.804 84.7604 112.027 84.7542 116.009C84.7481 119.99 87.971 123.223 91.9527 123.229C95.9345 123.235 99.1673 120.013 99.1734 116.031Z" stroke="white" stroke-width="6" stroke-linecap="round" stroke-linejoin="round"/>
<path d="M98.5504 51.1467C102.532 51.1467 105.76 47.9189 105.76 43.9371C105.76 39.9554 102.532 36.7275 98.5504 36.7275C94.5687 36.7275 91.3408 39.9554 91.3408 43.9371C91.3408 47.9189 94.5687 51.1467 98.5504 51.1467Z" stroke="white" stroke-width="6" stroke-linecap="round" stroke-linejoin="round"/>
<path d="M105.405 58.0289C106.907 67.4115 105.119 77.0249 100.344 85.2402C95.5694 93.4554 88.1012 99.7673 79.205 103.106C72.5612 105.601 65.3857 106.337 58.3739 105.243C51.362 104.148 44.7518 101.261 39.1839 96.8613C33.6159 92.4612 29.2792 86.6973 26.594 80.1282C23.9087 73.5592 22.9661 66.4078 23.8575 59.3673C24.7489 52.3269 27.444 45.6361 31.6816 39.9435C35.9192 34.2509 41.5556 29.7497 48.0444 26.876C54.5333 24.0024 61.6544 22.8538 68.7177 23.5416C75.7809 24.2295 82.5467 26.7304 88.3592 30.802" stroke="white" stroke-width="6" stroke-linecap="round" stroke-linejoin="round"/>
<path d="M65.2413 63.0607C68.9957 63.0607 72.0392 60.0171 72.0392 56.2628C72.0392 52.5084 68.9957 49.4648 65.2413 49.4648C61.4869 49.4648 58.4434 52.5084 58.4434 56.2628C58.4434 60.0171 61.4869 63.0607 65.2413 63.0607Z" stroke="white" stroke-width="6" stroke-linecap="round" stroke-linejoin="round"/>
<path d="M49.8603 82.2953C47.1465 82.4226 46.854 81.2309 46.7646 79.9282V74.5576C54.3588 65.6499 76.7242 66.7738 82.6934 74.739V79.1997C82.4497 80.237 82.5553 81.4855 81.1713 81.8403L49.8603 82.2953Z" stroke="white" stroke-width="6" stroke-linecap="round" stroke-linejoin="round"/>
</svg>
