<svg width="140" height="140" viewBox="0 0 140 140" fill="none" xmlns="http://www.w3.org/2000/svg">
<path d="M70 75C108.5 75 140 100 140 120C140 125.304 137.893 130.391 134.142 134.142C130.391 137.893 125.304 140 120 140H20C14.6957 140 9.60859 137.893 5.85786 134.142C2.10714 130.391 0 125.304 0 120C0 100 31.5 75 70 75ZM70 90C53.9 90 39.36 95.26 29.08 102.34C17.98 110.01 15 117.33 15 120C15 121.326 15.5268 122.598 16.4645 123.536C17.4021 124.473 18.6739 125 20 125H120C121.326 125 122.598 124.473 123.536 123.536C124.473 122.598 125 121.326 125 120C125 117.33 122.03 110 110.92 102.34C100.64 95.26 86.09 90 70 90ZM70 0C79.2826 0 88.185 3.68749 94.7487 10.2513C101.313 16.815 105 25.7174 105 35C105 44.2826 101.313 53.185 94.7487 59.7487C88.185 66.3125 79.2826 70 70 70C60.7174 70 51.815 66.3125 45.2513 59.7487C38.6875 53.185 35 44.2826 35 35C35 25.7174 38.6875 16.815 45.2513 10.2513C51.815 3.68749 60.7174 0 70 0ZM70 15C64.6957 15 59.6086 17.1071 55.8579 20.8579C52.1071 24.6086 50 29.6957 50 35C50 40.3043 52.1071 45.3914 55.8579 49.1421C59.6086 52.8929 64.6957 55 70 55C75.3043 55 80.3914 52.8929 84.1421 49.1421C87.8929 45.3914 90 40.3043 90 35C90 29.6957 87.8929 24.6086 84.1421 20.8579C80.3914 17.1071 75.3043 15 70 15Z" fill="white"/>
</svg>
