<svg width="299" height="88" viewBox="0 0 299 88" fill="none" xmlns="http://www.w3.org/2000/svg">
<path d="M0 38.7204C0 33.8367 1.08862 29.4558 3.26585 25.5776C5.44308 21.6515 8.40128 18.5872 12.1404 16.3847C15.9269 14.1823 20.1157 13.0811 24.7069 13.0811C30.1026 13.0811 34.8121 14.3977 38.8352 17.0311C42.8584 19.6645 45.7929 23.3991 47.6388 28.2349H39.9002C38.5276 25.2185 36.5397 22.8963 33.9365 21.2684C31.3806 19.6405 28.304 18.8266 24.7069 18.8266C21.2517 18.8266 18.1515 19.6405 15.4063 21.2684C12.6611 22.8963 10.5075 25.2185 8.94559 28.2349C7.38366 31.2034 6.6027 34.6986 6.6027 38.7204C6.6027 42.6944 7.38366 46.1896 8.94559 49.206C10.5075 52.1745 12.6611 54.4727 15.4063 56.1006C18.1515 57.7285 21.2517 58.5425 24.7069 58.5425C28.304 58.5425 31.3806 57.7525 33.9365 56.1725C36.5397 54.5446 38.5276 52.2224 39.9002 49.206H47.6388C45.7929 53.9939 42.8584 57.7046 38.8352 60.338C34.8121 62.9235 30.1026 64.2162 24.7069 64.2162C20.1157 64.2162 15.9269 63.1389 12.1404 60.9843C8.40128 58.7819 5.44308 55.7415 3.26585 51.8633C1.08862 47.9851 0 43.6041 0 38.7204Z" fill="#0057FF"/>
<path d="M84.8739 13.7274V19.042H71.3845V63.7853H64.9238V19.042H51.3634V13.7274H84.8739Z" fill="#0057FF"/>
<path d="M127.473 28.2349C126.1 25.3142 124.112 23.0639 121.509 21.4839C118.906 19.856 115.877 19.042 112.422 19.042C108.967 19.042 105.843 19.856 103.05 21.4839C100.305 23.0639 98.1277 25.3621 96.5184 28.3785C94.9565 31.347 94.1755 34.7943 94.1755 38.7204C94.1755 42.6465 94.9565 46.0939 96.5184 49.0624C98.1277 52.0309 100.305 54.3291 103.05 55.957C105.843 57.537 108.967 58.327 112.422 58.327C117.249 58.327 121.225 56.8667 124.349 53.9461C127.473 51.0254 129.295 47.0754 129.816 42.0959H110.079V36.7813H136.703V41.8087C136.324 45.9263 135.046 49.7087 132.869 53.1561C130.692 56.5555 127.828 59.2607 124.278 61.2716C120.728 63.2347 116.776 64.2162 112.422 64.2162C107.831 64.2162 103.642 63.1389 99.8553 60.9843C96.0688 58.7819 93.0632 55.7415 90.8387 51.8633C88.6614 47.9851 87.5728 43.6041 87.5728 38.7204C87.5728 33.8367 88.6614 29.4558 90.8387 25.5776C93.0632 21.6515 96.0688 18.6111 99.8553 16.4565C103.642 14.2541 107.831 13.1529 112.422 13.1529C117.675 13.1529 122.314 14.4696 126.337 17.1029C130.408 19.7363 133.366 23.4469 135.212 28.2349H127.473Z" fill="#0057FF"/>
<path d="M170.713 28.9064C170.894 28.9064 171.075 28.9369 171.256 28.9979C171.436 29.0589 171.647 29.1504 171.889 29.2724C172.491 29.6383 172.823 30.1566 172.883 30.8274C172.944 31.5593 172.612 32.9314 171.889 34.9439C171.467 35.9806 170.924 37.2918 170.261 38.8773C169.658 40.4019 168.874 42.262 167.91 44.4574C167.307 45.799 166.825 46.9882 166.463 48.0249C166.041 49.0007 165.86 49.5191 165.92 49.58C165.92 49.641 166.252 49.4581 166.915 49.0312C167.578 48.6043 168.332 48.0859 169.176 47.4761C174.059 44 177.857 41.3777 180.57 39.6091C183.222 37.9016 184.79 37.0478 185.272 37.0478C185.815 37.1088 186.327 37.4137 186.809 37.9626C187.292 38.5114 187.533 39.0603 187.533 39.6091C187.473 40.097 186.689 40.9203 185.182 42.079C183.675 43.2987 181.143 45.1282 177.586 47.5676C174.089 49.885 171.316 51.8669 169.266 53.5135C167.277 55.2211 165.86 56.6542 165.016 57.8129C164.172 59.0936 163.509 60.6791 163.027 62.5696C162.484 64.4602 161.972 67.2349 161.489 70.894C161.067 74.3091 160.675 76.7789 160.314 78.3035C159.952 79.8891 159.47 81.3527 158.867 82.6944C158.143 84.28 157.149 85.5911 155.883 86.6279C154.677 87.5426 153.562 88 152.537 88C152.477 88 152.386 88 152.266 88C152.024 88 151.693 87.878 151.271 87.6341C150.849 87.3902 150.457 87.1157 150.095 86.8108C149.131 85.8351 148.648 84.28 148.648 82.1455C148.648 80.499 148.95 78.5475 149.553 76.2911C150.879 70.9245 153.803 63.4539 158.324 53.8794C158.987 52.4768 159.56 51.2266 160.042 50.1289C160.525 49.0312 160.766 48.4213 160.766 48.2994C160.766 48.1164 160.585 48.1469 160.223 48.3909C159.922 48.5738 159.53 48.8787 159.048 49.3056C156.998 51.0132 155.099 51.9279 153.351 52.0499C151.663 52.1109 150.487 51.3486 149.824 49.763C149.04 47.9335 149.251 45.5246 150.457 42.5364C151.723 39.5482 153.622 36.8649 156.154 34.4865C157.842 32.9619 159.44 32.0166 160.947 31.6507C162.514 31.2848 163.78 31.5593 164.745 32.474C165.046 32.7179 165.317 32.9314 165.559 33.1143C165.739 33.2363 165.86 33.3278 165.92 33.3888C165.981 33.3888 166.192 33.1753 166.553 32.7484C166.855 32.3216 167.186 31.8337 167.548 31.2848C168.091 30.431 168.603 29.8212 169.085 29.4553C169.568 29.0894 170.05 28.9064 170.532 28.9064C170.592 28.9064 170.623 28.9064 170.623 28.9064C170.683 28.9064 170.713 28.9064 170.713 28.9064ZM156.154 42.079C155.431 43.3597 154.918 44.3964 154.617 45.1892C154.255 46.043 154.225 46.5003 154.526 46.5613C154.587 46.5613 154.888 46.3479 155.431 45.921C155.913 45.4941 156.486 45.0062 157.149 44.4574C158.837 42.8718 159.982 41.6826 160.585 40.8898C161.128 40.097 161.429 39.2128 161.489 38.237C161.489 37.8101 161.489 37.4442 161.489 37.1393C161.429 36.7734 161.339 36.5904 161.218 36.5904C160.917 36.5904 160.163 37.2308 158.957 38.5114C157.691 39.7921 156.757 40.9813 156.154 42.079ZM153.803 80.1331C153.743 80.5599 153.712 81.1393 153.712 81.8711C153.893 81.5662 154.165 81.0783 154.526 80.4075C154.767 79.9806 155.009 79.3098 155.25 78.395C155.551 77.4802 155.792 76.596 155.973 75.7422C156.335 74.0956 156.576 72.876 156.697 72.0832C156.757 71.2294 156.727 70.8025 156.606 70.8025C156.305 71.1074 155.762 72.51 154.978 75.0104C154.195 77.5107 153.803 79.2183 153.803 80.1331Z" fill="#1C1C1C"/>
<path d="M193.053 58.9106C192.45 58.6667 191.877 58.1483 191.334 57.3555C190.792 56.5627 190.43 55.7699 190.249 54.9771C190.189 54.6112 190.189 54.0319 190.249 53.2391C190.249 52.3853 190.31 51.623 190.43 50.9522C190.551 50.2204 190.641 49.58 190.701 49.0312C190.762 48.4823 190.762 48.1774 190.701 48.1164C190.701 48.1164 190.46 48.2689 189.978 48.5738C189.496 48.9397 188.953 49.3666 188.35 49.8545C187.205 50.7692 186.09 51.4705 185.004 51.9584C183.859 52.3853 182.894 52.4768 182.111 52.2328C181.809 52.1719 181.478 52.0194 181.116 51.7755C180.694 51.4705 180.332 51.1656 180.031 50.8607C179.488 50.2509 179.096 49.4276 178.855 48.3909C178.735 47.781 178.674 47.1102 178.674 46.3784C178.674 45.8295 178.705 45.2807 178.765 44.7318C178.825 44.122 179.036 42.9328 179.398 41.1642C179.82 39.3347 180.121 38.0845 180.302 37.4137C180.543 36.5599 180.754 35.8281 180.935 35.2183C181.176 34.6694 181.448 34.2425 181.749 33.9376C182.05 33.6937 182.382 33.5412 182.744 33.4803C183.045 33.4193 183.467 33.4498 184.01 33.5717C184.371 33.6937 184.673 33.8462 184.914 34.0291C185.155 34.273 185.306 34.578 185.366 34.9439C185.426 35.3098 185.426 35.7672 185.366 36.316C185.306 36.8649 185.155 37.5662 184.914 38.42C184.793 38.9078 184.552 39.9446 184.191 41.5301C183.829 43.1157 183.618 44.0915 183.558 44.4574C183.437 45.1892 183.407 45.799 183.467 46.2869C183.527 46.7138 183.648 46.9882 183.829 47.1102C184.191 47.3541 185.336 46.3479 187.265 44.0915C189.194 41.896 190.852 39.6396 192.239 37.3222C193.686 34.9439 194.771 33.4803 195.494 32.9314C195.796 32.6875 196.127 32.5655 196.489 32.5655C196.911 32.5655 197.363 32.7179 197.845 33.0229C198.086 33.2058 198.328 33.4498 198.569 33.7547C198.81 34.0596 198.961 34.334 199.021 34.578C199.081 34.8219 198.961 35.6757 198.659 37.1393C198.358 38.5419 197.966 40.1275 197.484 41.896C196.941 43.6646 196.489 45.4331 196.127 47.2017C195.705 48.9702 195.464 50.1899 195.404 50.8607C195.343 51.4705 195.283 52.3548 195.223 53.5135C195.524 53.1476 196.007 52.5988 196.67 51.8669C197.092 51.4401 197.785 50.5253 198.75 49.1227C199.714 47.781 200.679 46.3784 201.643 44.9148C202.548 43.3902 203.422 42.0485 204.266 40.8898C205.049 39.6701 205.532 38.9688 205.713 38.7859C206.376 38.0541 207.159 37.9016 208.064 38.3285C209.028 38.7554 209.511 39.5177 209.511 40.6154C209.511 40.9203 209.089 41.7741 208.245 43.1767C207.461 44.6403 206.557 46.1954 205.532 47.842C204.989 48.7568 204.447 49.6105 203.904 50.4033C203.301 51.2571 202.759 51.9889 202.276 52.5988C200.407 55.0991 198.689 56.8981 197.122 57.9958C196.037 58.7277 195.042 59.0936 194.138 59.0936C193.776 59.0936 193.414 59.0326 193.053 58.9106Z" fill="#1C1C1C"/>
<path d="M214.94 41.6216C214.699 42.4144 214.578 42.9328 214.578 43.1767C214.639 43.4207 214.789 43.5731 215.03 43.6341C215.513 43.7561 216.658 43.4511 218.467 42.7193C220.275 41.9875 221.903 41.0728 223.35 39.9751C224.797 38.8164 225.972 38.1455 226.877 37.9626C227.721 37.7186 228.354 37.9626 228.776 38.6944C229.017 39.0603 229.137 39.3652 229.137 39.6091C229.137 39.9141 229.047 40.28 228.866 40.7069C228.685 41.1338 228.323 41.5911 227.781 42.079C227.238 42.6279 226.575 43.2072 225.791 43.817C224.345 44.8538 222.626 45.86 220.637 46.8358C218.708 47.7505 216.899 48.3299 215.211 48.5738C214.488 48.6348 213.403 48.7568 211.956 48.9397C211.654 49.3666 211.142 49.9764 210.419 50.7692C208.972 52.5988 207.615 53.8184 206.349 54.4283C205.626 54.7332 204.933 54.8857 204.269 54.8857C203.667 54.8857 203.064 54.7637 202.461 54.5198C200.893 53.7879 199.959 52.1414 199.658 49.58C199.658 49.0922 199.658 48.6043 199.658 48.1164C199.658 45.799 200.14 43.0547 201.104 39.8836C201.406 38.9078 201.707 38.0236 202.009 37.2308C202.37 36.499 202.672 36.0416 202.913 35.8586C203.094 35.7367 203.425 35.4012 203.908 34.8524C204.39 34.3035 204.842 33.7242 205.264 33.1143C205.746 32.4435 206.259 31.8642 206.801 31.3763C207.344 30.8884 207.796 30.5835 208.158 30.4615C208.399 30.3396 208.64 30.2481 208.881 30.1871C209.122 30.1261 209.364 30.0956 209.605 30.0956C209.846 30.0347 210.057 30.0042 210.238 30.0042C212.167 30.0042 213.644 31.0409 214.669 33.1143C215.814 35.4317 215.905 38.2675 214.94 41.6216ZM208.248 39.6091C208.489 41.1947 208.821 42.018 209.243 42.079C209.665 42.14 210.027 41.4387 210.328 39.9751C210.63 38.7554 210.72 37.6577 210.599 36.6819C210.479 35.6452 210.208 35.1573 209.786 35.2183C209.364 35.2793 208.972 35.8281 208.61 36.8649C208.248 37.8406 208.128 38.7554 208.248 39.6091ZM204.45 48.2079C204.39 49.1227 204.511 49.6105 204.812 49.6715C205.053 49.6715 205.505 49.2751 206.168 48.4823C206.651 47.9335 206.892 47.5676 206.892 47.3846C206.892 47.2017 206.711 46.8663 206.349 46.3784C206.048 46.0125 205.777 45.738 205.535 45.5551C205.294 45.3112 205.113 45.2197 204.993 45.2807C204.812 45.3417 204.691 45.6161 204.631 46.104C204.511 46.5918 204.45 47.2931 204.45 48.2079Z" fill="#1C1C1C"/>
<path d="M223.896 65.4969C223.595 65.4359 223.203 65.2529 222.72 64.948C222.238 64.7041 221.816 64.3687 221.454 63.9418C220.671 63.149 220.098 62.0208 219.736 60.5572C219.495 59.5814 219.375 58.5447 219.375 57.447C219.375 56.8371 219.405 56.2273 219.465 55.6175C219.586 54.5198 219.857 53.0866 220.279 51.3181C220.641 49.5495 221.123 47.5981 221.726 45.4636C222.811 41.5606 224.137 37.2918 225.705 32.657C227.272 28.0832 228.839 23.9972 230.407 20.3992C230.949 19.1185 231.371 18.0208 231.673 17.106C231.974 16.1913 232.095 15.7034 232.035 15.6424C231.974 15.5814 231.673 15.5814 231.13 15.6424C230.588 15.7034 229.925 15.7949 229.141 15.9168C228.417 16.0388 227.604 16.1608 226.699 16.2827C225.795 16.4657 225.041 16.5877 224.439 16.6486C223.534 16.7096 222.931 16.7096 222.63 16.6486C222.389 16.5267 222.087 16.2218 221.726 15.7339C221.424 15.246 221.274 14.8801 221.274 14.6362C221.213 14.3922 221.334 14.0568 221.635 13.6299C221.997 12.9591 222.66 12.4407 223.625 12.0748C224.589 11.7699 226.398 11.404 229.05 10.9771C230.196 10.7942 231.251 10.6112 232.215 10.4283C233.18 10.2453 233.783 10.1538 234.024 10.1538C234.326 10.0929 234.717 9.66597 235.2 8.87318C235.682 8.08039 236.345 6.79972 237.189 5.03119C238.274 2.77477 238.998 1.37214 239.359 0.823285C239.721 0.335412 240.203 0.0609841 240.806 0C240.927 0 241.017 0 241.078 0C241.68 0 242.193 0.182952 242.615 0.548857C243.097 0.914761 243.338 1.46362 243.338 2.19543C243.338 2.43936 243.218 2.89674 242.977 3.56757C242.735 4.17741 242.464 4.81774 242.163 5.48857C241.861 6.09841 241.56 6.70825 241.258 7.31809C241.017 7.92793 240.836 8.38531 240.716 8.69023C240.656 8.87318 240.565 9.14761 240.445 9.51351C241.59 9.51351 243.308 9.51351 245.599 9.51351C248.372 9.51351 250.12 9.66597 250.844 9.97089C251.628 10.2758 252.019 10.9771 252.019 12.0748C252.019 12.9896 251.597 13.5994 250.753 13.9044C249.97 14.2093 248.342 14.3617 245.87 14.3617C244.665 14.3617 243.459 14.3922 242.253 14.4532C241.047 14.5142 240.203 14.5752 239.721 14.6362C239.359 14.6972 238.787 14.7886 238.003 14.9106C237.521 16.0083 236.827 17.6244 235.923 19.7588C235.501 20.6736 234.989 21.9238 234.386 23.5094C233.783 25.0949 233.12 26.833 232.396 28.7235C231.13 32.1996 229.834 35.7976 228.508 39.5177C227.182 43.2377 226.277 46.0735 225.795 48.0249C225.494 49.2446 225.222 50.5863 224.981 52.0499C224.74 53.4525 224.589 54.7942 224.529 56.0748C224.469 57.9044 224.439 59.0631 224.439 59.5509C224.499 60.0388 224.71 60.3437 225.072 60.4657C226.157 60.8926 228.628 59.3985 232.487 55.9834C236.285 52.5683 240.234 48.2689 244.333 43.0852C246.142 40.8898 247.377 39.4567 248.041 38.7859C248.643 38.115 249.186 37.7796 249.668 37.7796C250.331 37.7796 250.904 38.0236 251.386 38.5114C251.869 38.9993 252.11 39.5482 252.11 40.158C252.11 40.4019 251.869 40.8898 251.386 41.6216C250.964 42.3534 250.362 43.2377 249.578 44.2744C248.131 46.1649 246.322 48.3604 244.152 50.8607C241.922 53.3611 239.781 55.6175 237.732 57.6299C234.657 60.7401 232.065 62.8746 229.955 64.0333C228.206 65.009 226.518 65.4969 224.891 65.4969C224.529 65.4969 224.197 65.4969 223.896 65.4969Z" fill="#1C1C1C"/>
<path d="M256.906 31.4678C257.871 31.8337 258.594 32.3825 259.076 33.1143C259.559 33.8462 259.8 34.8219 259.8 36.0416C259.8 38.298 258.956 40.4324 257.268 42.4449C255.64 44.5184 253.289 46.3174 250.214 47.842C249.431 48.2689 248.225 48.8787 246.597 49.6715C246.356 50.4643 246.326 51.1656 246.507 51.7755C246.688 52.4463 246.959 52.9952 247.321 53.422C247.562 53.7879 247.954 54.0014 248.496 54.0624C248.979 54.1843 249.672 54.2148 250.576 54.1538C252.746 53.9709 255.369 52.9037 258.443 50.9522C261.518 49.0007 264.954 46.1954 268.752 42.5364C269.837 41.4387 270.832 40.4934 271.736 39.7006C272.641 38.9078 273.183 38.4809 273.364 38.42C273.967 38.237 274.57 38.3895 275.173 38.8773C275.715 39.4262 275.987 40.0665 275.987 40.7983C275.987 41.3472 275.746 41.9265 275.263 42.5364C274.781 43.1462 273.666 44.3049 271.917 46.0125C267.215 50.7692 262.694 54.3063 258.353 56.6237C254.977 58.4532 252.083 59.368 249.672 59.368C249.009 59.368 248.346 59.2765 247.682 59.0936C245.392 58.4837 243.734 57.1421 242.709 55.0686C242.046 53.727 241.714 52.2024 241.714 50.4948C241.714 49.5191 241.805 48.4823 241.985 47.3846C242.829 43.2377 244.638 39.5482 247.411 36.316C250.184 33.0229 252.837 31.3458 255.369 31.2848C255.429 31.2848 255.459 31.2848 255.459 31.2848C255.7 31.2848 255.942 31.2848 256.183 31.2848C256.424 31.3458 256.665 31.4068 256.906 31.4678ZM249.672 41.1642C249.069 42.201 248.768 42.8108 248.768 42.9938C248.828 43.1767 249.25 43.0547 250.034 42.6279C251.36 41.957 252.656 40.7374 253.922 38.9688C255.248 37.2003 255.489 36.316 254.645 36.316C254.344 36.316 253.56 36.9258 252.294 38.1455C251.089 39.3652 250.214 40.3714 249.672 41.1642Z" fill="#1C1C1C"/>
<path d="M282.953 28.2661C283.375 28.9979 283.405 29.6687 283.044 30.2786C282.622 30.8884 281.356 32.1081 279.246 33.9376C276.473 36.316 274.694 38.42 273.91 40.2495C273.127 42.14 273.217 43.9695 274.182 45.738C274.483 46.2259 274.815 46.6833 275.176 47.1102C275.538 47.5981 275.84 47.903 276.081 48.0249C276.623 48.3299 277.106 48.3604 277.528 48.1164C278.01 47.9335 279.939 46.7443 283.315 44.5489C286.45 42.5364 289.163 40.9508 291.454 39.7921C293.744 38.6334 295.282 38.0845 296.065 38.1455C296.789 38.2675 297.362 38.6334 297.784 39.2432C298.025 39.6701 298.145 40.0665 298.145 40.4324C298.145 40.6764 298.085 40.9203 297.964 41.1642C297.844 41.4082 297.392 41.8046 296.608 42.3534C295.824 42.9023 294.92 43.4207 293.895 43.9085C292.388 44.7013 290.519 45.799 288.289 47.2017C286.118 48.5433 283.616 50.1289 280.783 51.9584C280.421 52.2024 280.24 52.4768 280.24 52.7817C280.18 53.0866 280.331 53.666 280.693 54.5198C281.054 55.5565 281.115 56.8676 280.873 58.4532C280.693 60.0388 280.271 61.289 279.607 62.2037C279.005 63.1185 278.161 64.0028 277.075 64.8566C275.93 65.7713 274.905 66.4116 274.001 66.7775C273.338 67.0215 272.644 67.1435 271.921 67.1435C271.559 67.1435 271.198 67.113 270.836 67.052C269.69 66.869 268.846 66.5031 268.304 65.9543C267.339 65.0395 266.857 63.9113 266.857 62.5696C266.857 62.0818 266.947 61.5329 267.128 60.9231C267.611 58.8496 268.937 56.5932 271.107 54.1538C271.529 53.666 271.891 53.2086 272.192 52.7817C272.494 52.4158 272.644 52.2024 272.644 52.1414C272.705 52.0804 272.584 51.806 272.283 51.3181C271.981 50.8912 271.62 50.4033 271.198 49.8545C270.052 48.3299 269.299 46.9577 268.937 45.738C268.515 44.4574 268.394 43.1157 268.575 41.7131C268.816 39.7006 269.69 37.6272 271.198 35.4927C272.705 33.3583 274.905 31.1629 277.799 28.9064C278.643 28.2356 279.366 27.7173 279.969 27.3514C280.451 27.0464 280.904 26.894 281.326 26.894C281.326 26.894 281.356 26.894 281.416 26.894C281.717 26.955 281.989 27.1074 282.23 27.3514C282.471 27.5343 282.712 27.8392 282.953 28.2661ZM272.011 61.4719C272.011 61.8378 272.042 62.0818 272.102 62.2037C272.162 62.2647 272.343 62.2342 272.644 62.1123C272.886 62.0513 273.157 61.8988 273.458 61.6549C273.82 61.4109 274.121 61.167 274.363 60.9231C275.207 60.2523 275.779 59.3375 276.081 58.1788C276.442 57.0201 276.352 56.4103 275.809 56.3493C275.508 56.3493 274.815 57.0811 273.73 58.5447C272.644 60.0083 272.072 60.9841 272.011 61.4719Z" fill="#1C1C1C"/>
</svg>
