<svg width="28" height="28" viewBox="0 0 28 28" fill="none" xmlns="http://www.w3.org/2000/svg">
<g clip-path="url(#clip0_3_4165)">
<path d="M4.10198 23.898C2.76483 22.6066 1.69828 21.0617 0.964557 19.3537C0.230831 17.6456 -0.155376 15.8085 -0.17153 13.9496C-0.187683 12.0907 0.166541 10.2472 0.870473 8.52665C1.57441 6.8061 2.61395 5.24298 3.92845 3.92848C5.24294 2.61398 6.80607 1.57444 8.52662 0.870504C10.2472 0.166571 12.0907 -0.187652 13.9496 -0.171499C15.8085 -0.155346 17.6456 0.230862 19.3536 0.964588C21.0617 1.69831 22.6065 2.76486 23.898 4.10201C26.4482 6.74244 27.8593 10.2789 27.8274 13.9496C27.7955 17.6204 26.3232 21.1318 23.7274 23.7275C21.1317 26.3232 17.6203 27.7955 13.9496 27.8274C10.2788 27.8593 6.74241 26.4482 4.10198 23.898ZM15.96 14L19.922 10.038L17.948 8.06401L14 12.026L10.038 8.06401L8.06398 10.038L12.026 14L8.06398 17.962L10.038 19.936L14 15.974L17.962 19.936L19.936 17.962L15.974 14H15.96Z" fill="white"/>
</g>
<defs>
<clipPath id="clip0_3_4165">
<rect width="28" height="28" fill="white"/>
</clipPath>
</defs>
</svg>
