<svg width="280" height="37" viewBox="0 0 280 37" fill="none" xmlns="http://www.w3.org/2000/svg">
<g clip-path="url(#clip0_3_3960)">
<path fill-rule="evenodd" clip-rule="evenodd" d="M142.505 3.86265C141.483 2.29956 139.629 1.748 138.146 1.748H123.406L108.106 33.9374H115.801L121.643 21.3363H125.724C125.724 21.3363 126.928 21.4295 127.486 22.2561C127.949 23.0858 127.855 24.3738 127.114 25.9355C125.891 28.5869 124.778 31.287 123.777 34.0288H131.566C131.566 34.0288 131.843 32.4675 132.493 30.9012C133.049 29.5215 134.903 25.014 134.903 25.014C136.387 21.3346 134.532 19.8648 133.328 19.1267C136.294 18.8517 138.429 17.472 139.634 14.9891C140.561 13.0578 142.135 9.83837 142.135 9.74671C143.615 6.71381 143.151 4.87414 142.505 3.86265ZM134.715 9.38161L133.325 12.1411L132.582 13.8891C131.934 15.1772 130.914 15.9121 129.616 15.9121H124.239L128.319 7.08364H134.159C134.159 7.08364 134.717 7.1753 134.902 7.54356C135.179 7.91021 135.085 8.55346 134.715 9.38161ZM60.5436 3.86265C59.5225 2.29956 57.6696 1.748 56.1865 1.748H41.4449L26.1471 33.9374H33.8422L39.6843 21.3363H43.7644C43.7644 21.3363 44.9688 21.4295 45.5248 22.2561C45.9885 23.0858 45.896 24.3738 45.1536 25.9355C43.9303 28.5869 42.8167 31.287 41.8161 34.0288H49.605C49.605 34.0288 49.8839 32.4675 50.5322 30.9012C51.0883 29.5215 52.9427 25.014 52.9427 25.014C54.4275 21.3346 52.5732 19.8648 51.3671 19.1267C54.3336 18.8517 56.4669 17.472 57.6728 14.9891C58.6 13.0578 60.1756 9.83837 60.1756 9.74671C61.6558 6.71381 61.1921 4.87414 60.5436 3.86265ZM52.7548 9.38161L51.3639 12.1411L50.6229 13.8891C49.9747 15.1772 48.955 15.9121 47.6566 15.9121H42.2796L46.4522 7.08364H52.2003C52.2003 7.08364 52.7562 7.1753 52.9412 7.54356C53.2182 7.91021 53.126 8.55346 52.7548 9.38161ZM78.9002 27.6833C80.4758 24.5557 82.6091 20.0498 84.8349 15.2673L87.4302 9.74988C90.1195 4.04755 87.0605 1.56307 83.2593 1.56307H73.8945C70.0008 1.56307 67.2191 3.40273 65.457 7.17373C64.5298 9.19828 62.8617 12.5078 61.0998 16.372L57.1136 24.464C53.2199 32.6507 59.0605 34.0305 61.9345 34.0305H67.869C73.7098 34.1222 76.6761 32.4673 78.9002 27.6833ZM68.516 28.0532H65.0858C64.5283 28.0532 63.3254 27.8684 64.2511 25.9355C65.5495 23.0858 71.0188 11.4046 72.1324 9.0118C72.8732 7.35706 73.7081 7.08048 74.7278 7.08048H78.9002C79.7334 6.98723 80.4758 7.44713 79.8276 8.82688L72.0385 25.3805C70.928 27.6833 70.1856 28.0532 68.516 28.0532ZM109.961 1.56307H102.081C98.0008 1.56307 94.6631 3.58766 92.995 7.17373C91.6041 10.2098 84.7424 24.464 84.7424 24.464C82.2396 29.7079 83.6305 34.0305 90.4907 34.0305H96.61C101.523 34.0305 103.934 33.2956 106.159 28.5116L111.815 16.097H100.226L97.7236 21.431H101.71L99.484 26.3052C98.8355 27.7782 98.3721 28.0547 96.7947 28.0547H92.8088C91.6041 28.0547 91.1406 27.41 91.8814 25.937C92.8087 24.0073 100.042 9.01338 100.042 9.01338C100.875 7.35863 101.339 7.08205 102.544 7.08205H106.715C107.737 7.08205 108.293 7.54197 107.643 8.82845C107.458 9.19671 105.788 12.7828 105.788 12.7828H113.112L114.782 9.28837C117.192 4.04599 115.059 1.65632 109.961 1.56307ZM203.231 33.9374L218.621 1.65632H210.646L195.35 33.9374H203.231ZM238.185 1.65632L220.29 30.0763L229.375 1.65632H221.124L213.521 33.9374H224.185L246.527 1.65632H238.185ZM177.084 22.7159L176.438 10.7614C176.343 9.38161 176.715 7.35863 179.31 7.35863H184.69L187.379 1.65632H178.293C171.153 1.65632 168.65 5.97888 168.927 11.1296C169.114 14.2573 169.577 24.464 169.577 24.464C169.671 26.9484 168.744 28.0532 166.424 28.0532H160.303L157.614 33.9374H167.258C173.748 33.9374 177.454 29.8012 177.084 22.7159ZM195.256 22.7159L194.609 10.7614C194.515 9.38161 194.886 7.35863 197.482 7.35863H202.862L205.551 1.65632H196.465C190.531 1.65632 186.729 4.87573 187.099 11.1296C187.285 14.2573 187.749 24.464 187.749 24.464C187.843 26.9484 186.916 28.0532 184.596 28.0532H178.661L175.88 33.9374H185.429C192.478 33.9374 195.63 28.8813 195.256 22.7159ZM150.754 1.65632L135.55 33.9374H154.742L157.522 28.0532H145.841L150.013 19.4997H159.84L162.438 14.0724H152.514L155.67 7.35863H165.867L168.554 1.65632H150.754ZM249.126 1.65632L233.919 33.9374H253.111L255.895 28.0532H244.209L248.381 19.4997H258.211L260.807 14.0709H250.886L254.038 7.35704H264.235C264.331 7.35704 266.925 1.65474 266.925 1.65474L249.126 1.65632ZM15.8553 17.1085L20.4914 6.99037H25.4972C26.5183 6.99037 27.3515 7.54197 26.3319 9.6582C25.4989 11.4824 24.633 13.2918 23.7351 15.0855C23.0866 16.4653 22.1595 17.1101 20.7686 17.1101L15.8553 17.1085ZM13.2584 22.7159H20.861C25.7744 22.7159 28.3695 21.2461 30.4105 17.1069C31.0588 15.8188 32.2649 13.0594 33.7483 9.93162C36.3434 4.32098 33.1921 1.74642 29.8544 1.74642H15.2052L0 34.0288H7.97383L13.2584 22.7159ZM271.931 3.95431C271.931 1.74799 273.694 0 275.921 0C278.146 0 280 1.74799 280 3.95431C280 6.16222 278.146 8.00188 275.921 8.00188C273.694 8.00188 271.931 6.16222 271.931 3.95431ZM279.535 3.95431C279.535 2.02299 277.866 0.459915 275.921 0.459915C275.456 0.459291 274.998 0.549225 274.57 0.724575C274.143 0.899926 273.753 1.15725 273.426 1.48182C273.1 1.80638 272.839 2.19182 272.663 2.61609C272.485 3.04035 272.393 3.49509 272.393 3.95431C272.393 5.97731 273.971 7.54197 275.921 7.54197C277.866 7.54197 279.535 5.97888 279.535 3.95431ZM277.957 6.25389H277.308L276.01 4.13923H274.992V6.25389H274.436V1.748H276.383C276.752 1.748 277.217 1.74799 277.495 1.93133C277.864 2.11624 278.051 2.57458 278.051 2.94282C278.051 3.7694 277.401 4.13764 276.566 4.13764L277.957 6.25389ZM275.825 3.67932C276.472 3.67932 277.495 3.86265 277.495 2.94282C277.495 2.20632 276.848 2.11623 276.29 2.11623H274.992V3.67932H275.825Z" fill="#2D95E5"/>
</g>
<defs>
<clipPath id="clip0_3_3960">
<rect width="280" height="36.0769" fill="white"/>
</clipPath>
</defs>
</svg>
