<svg width="280" height="64" viewBox="0 0 280 64" fill="none" xmlns="http://www.w3.org/2000/svg">
<g clip-path="url(#clip0_3_3969)">
<path d="M276.814 52.8928C274.939 52.8928 273.628 51.5776 273.628 49.6375C273.628 47.6971 274.939 46.3827 276.814 46.3827C278.689 46.3827 280 47.6971 280 49.6375C280 51.5776 278.689 52.8928 276.814 52.8928ZM276.814 46.7582C275.314 46.7582 274.128 47.7598 274.128 49.6375C274.128 51.453 275.314 52.5167 276.814 52.5167C278.314 52.5167 279.563 51.5157 279.563 49.6375C279.563 47.8223 278.375 46.7582 276.814 46.7582ZM277.751 51.3903L276.689 49.8253H276.313V51.3278H275.69V47.7598H276.75C277.501 47.7598 278.002 48.1353 278.002 48.8239C278.002 49.3246 277.751 49.7001 277.251 49.8253L278.314 51.2651L277.751 51.3903ZM276.814 48.323H276.313V49.3871H276.75C277.126 49.3871 277.376 49.1994 277.376 48.8864C277.44 48.4482 277.251 48.323 276.814 48.323ZM109.389 13.583L85.0247 52.8928H93.3331C93.3331 52.8928 99.3306 43.1277 99.5805 42.7522H113.574V52.8928H121.446V13.583H109.389ZM113.512 35.8042H103.891C104.516 34.8653 113.512 20.1555 113.512 20.1555V35.8042ZM126.944 13.583H134.565V52.8928H126.944V13.583ZM140.188 13.583H147.809V52.8928H140.188V13.583ZM164.676 34.3019C160.491 33.2378 159.616 32.6118 159.741 30.8591C159.804 29.2943 161.116 28.3554 163.239 28.3554C165.864 28.3554 169.112 29.2943 171.861 30.8591L172.298 31.1095L173.36 24.5372L173.11 24.4119C170.237 23.0974 166.863 22.409 163.239 22.409C159.741 22.409 156.805 23.4731 154.868 25.4761C153.369 27.0409 152.557 29.0438 152.62 31.2973C152.744 37.369 155.618 39.059 162.427 40.8117C166.926 41.9384 167.863 42.5643 167.8 44.7552C167.8 46.6957 166.613 47.4468 163.552 47.4468C160.366 47.4468 156.743 46.2575 153.556 44.1918L153.119 43.8788L152.057 50.4514L152.307 50.5764C154.743 51.9535 158.929 53.3306 163.302 53.3306C167.55 53.3306 170.736 52.3287 172.673 50.326C174.172 48.7612 174.921 46.6957 174.921 44.0666C174.859 37.6819 171.611 36.1171 164.676 34.3019ZM193.539 46.2575L193.163 46.3827C192.664 46.5077 191.977 46.5705 191.04 46.5705C188.791 46.5705 187.729 45.5689 187.729 43.3154V29.4195H193.351L193.476 23.0349H187.791V13.583H180.295V23.0349H176.359V29.4195H180.295V44.5047C180.295 50.4514 183.418 53.3933 189.79 53.3933C191.852 53.3933 193.101 53.1426 194.226 52.8928L194.538 52.8301L193.539 46.2575ZM209.782 22.409C205.034 22.409 201.41 23.5981 198.599 24.6624L198.349 24.7874L199.349 31.1095L199.786 30.9218C203.222 29.4195 206.095 28.6684 208.969 28.6684C211.968 28.6684 213.405 29.9202 213.405 32.6118V33.363C202.097 34.5523 196.6 38.3706 196.6 45.1934C196.6 50.201 199.848 53.456 204.846 53.456C208.345 53.456 211.218 52.2042 213.905 49.575C214.028 50.4514 214.467 52.8301 214.467 52.8301H221.09V32.4241C220.965 25.6011 217.403 22.409 209.782 22.409ZM207.157 47.5093C205.283 47.5093 204.096 46.3827 204.096 44.5047C204.096 41.1874 207.283 39.059 213.279 38.2453V44.6927C211.468 46.5077 209.344 47.5093 207.157 47.5093ZM240.579 46.2575L240.206 46.3827C239.705 46.5077 239.018 46.5705 238.144 46.5705C235.894 46.5705 234.833 45.5689 234.833 43.3154V29.4195H240.454L240.579 23.0349H234.833V13.583H227.273V23.0349H223.338V29.4195H227.273V44.5047C227.273 50.4514 230.398 53.3933 236.831 53.3933C238.893 53.3933 240.206 53.1426 241.267 52.8928L241.581 52.8301L240.579 46.2575ZM266.819 43.9413C263.382 46.32 260.572 47.3216 257.447 47.3216C253.324 47.3216 250.763 44.5675 250.326 39.6849H268.13L268.193 37.6194C268.193 27.479 264.006 22.3462 255.697 22.3462C252.074 22.3462 249.077 23.4731 246.826 25.7265C244.079 28.4806 242.641 32.6743 242.641 37.9324C242.641 47.4466 248.014 53.3306 256.635 53.3306C260.822 53.3306 264.632 52.1417 268.005 49.888L268.193 49.7628L267.256 43.5034L266.819 43.9413ZM250.452 34.6773C250.763 30.4209 252.636 27.9172 255.574 27.9172C259.509 27.9172 260.572 31.4852 260.758 34.6773H250.452ZM40.2945 0C18.0545 0 0 13.7708 0 30.6089C0 47.5093 18.0545 62.3445 40.2945 62.3445C62.5346 62.3445 80.5889 47.5093 80.5889 30.6089C80.5889 13.7708 62.472 0 40.2945 0ZM40.2945 60.2784C21.0531 60.2784 5.43508 46.4452 5.43508 30.6714C5.43508 14.8975 21.0531 2.06561 40.2945 2.06561C59.5358 2.06561 75.1541 14.8975 75.1541 30.6714C75.1541 46.4452 59.5358 60.2784 40.2945 60.2784Z" fill="#0033A0"/>
<path d="M32.4291 43.5319L33.1092 44.209L34.4695 44.9476L35.7679 45.6859L35.9535 45.7476L36.9428 46.3014L38.5503 47.163H38.8596L40.9619 47.0399C42.1366 47.0399 43.5587 47.0399 44.4863 47.4709C45.5374 48.0247 45.1664 48.948 45.1664 48.948C45.1664 48.948 46.2176 48.2094 46.032 47.2861C45.9084 46.5478 44.981 45.5014 41.9512 45.3166C41.0236 45.2552 39.5396 45.3783 39.5396 45.3783H39.416L38.0556 44.4552L37.4992 44.1474C37.4373 44.0857 35.6442 43.1626 35.6442 43.1626L34.4695 42.7319C34.4695 42.6702 33.4184 41.2548 33.4184 41.2548L33.0474 40.7007L31.9344 39.1622L31.5015 38.6082C31.5015 38.5467 30.8832 37.6234 30.8832 37.6234C30.9451 37.6234 31.5015 36.7618 31.4398 35.8387C31.3778 35.9618 31.3161 36.0232 30.8832 36.331C30.4504 36.7003 29.1518 37.2543 28.2864 37.5005L27.9154 37.6234L30.9451 41.6241L32.4291 43.5319ZM37.4373 41.3162L37.6229 41.5624C37.6846 41.6241 38.9832 42.1779 38.9832 42.1779C39.8489 42.5471 41.0236 43.0395 41.5802 43.4088L43.0642 44.2705C43.1879 44.3319 44.6717 44.209 45.661 44.2705C46.8977 44.3935 47.887 44.8243 48.3817 45.5628C49.0617 46.4861 48.258 47.5323 48.258 47.5323C48.4434 47.4709 49.8037 46.5478 49.742 45.1321C49.6184 43.7781 48.4434 42.4855 44.1153 42.5471L42.9404 41.8702L42.5694 41.6855L40.6526 40.7007C40.6526 40.7007 39.1069 40.1469 39.045 40.1469C39.045 40.0853 38.6742 39.4698 38.6742 39.4698C38.1793 38.5467 37.4373 37.6234 36.8192 36.8234L36.6336 36.5772C36.6336 36.5772 35.5825 35.1001 35.4588 34.9156C35.8298 34.177 35.5206 33.1306 35.5206 33.1306C35.5206 33.1306 35.3352 33.4999 35.0259 33.8692C34.7168 34.2384 33.9129 34.8539 33.3565 35.1618L33.0474 35.3463L37.0046 40.7007L37.4373 41.3162ZM39.2306 31.6535C39.4779 30.792 38.9832 29.9302 38.9832 29.9302L38.7359 30.4842C38.5503 30.9766 37.9939 31.5304 37.1902 32.0228L36.9428 32.1459L40.158 36.7003L40.3436 37.0082L40.9619 37.8082C41.0236 37.8696 42.3222 38.6082 42.3222 38.6082L42.8169 38.8543L44.239 39.716L45.5374 40.5777H45.661L47.6397 40.7007C48.8144 40.8238 49.4947 41.2548 49.8657 41.501C51.1024 42.3626 50.4221 43.7166 50.4221 43.7166C50.4221 43.7166 52.0917 42.1779 50.9787 40.4546C50.5457 39.9007 49.9894 39.2853 48.32 39.1005L46.2794 38.7929L45.1664 38.0543L43.7443 37.1927L43.4352 37.0696L42.2603 36.5772L39.2306 31.6535ZM25.9367 4.6965L26.3694 5.12726L27.9771 6.6044L28.9045 7.46603C29.5848 8.14307 29.7702 8.45078 29.7084 8.57383C29.7084 8.69697 29.5848 8.75849 29.4611 8.82002C29.3374 8.88156 29.1518 8.94315 29.1518 8.94315L29.0901 9.5586H29.4611C31.5634 9.49707 33.6038 10.9126 34.9022 12.1435C37.1282 14.2976 38.8596 17.7442 39.2306 20.9446L40.9 29.9918L41.5802 31.4073L41.7039 31.7151L42.013 32.3306C42.2603 32.9461 42.6313 33.4384 42.6932 33.4999C42.755 33.5615 43.6206 34.2384 43.6206 34.2384L44.919 35.5308L45.29 35.9618L45.9084 36.5772C45.9703 36.6387 47.7634 36.8234 47.7634 36.8234C50.855 37.3158 50.7314 39.0391 50.7314 39.0391C50.7314 39.0391 52.5861 36.2079 48.1344 35.2232L46.7123 34.977C46.7123 34.9156 46.2176 34.3001 46.2176 34.3001L46.032 34.1154C46.032 34.0539 44.6717 32.7613 44.6717 32.7613L44.0534 32.2075L43.497 30.7304L42.6932 28.8223C42.5076 28.2685 42.384 27.2838 42.1984 26.0528C42.1984 25.9914 42.0749 25.1298 42.0749 25.1298L41.5183 21.3138C41.5183 21.2523 41.642 20.5753 41.642 20.5753C41.8893 19.1597 42.4459 17.5596 43.2496 15.8978C44.239 13.8668 46.2176 12.5128 46.2794 12.5128C47.7634 11.5896 49.9894 11.0973 51.1641 10.8511C51.597 10.7895 51.7824 10.5433 51.8444 10.2972L51.9061 10.174H51.7824C51.1024 10.051 50.3604 9.80478 50.2984 9.74326V9.62012C50.2984 9.49707 50.3604 9.31241 50.5457 9.0662L51.4734 8.14307L52.0297 7.58915C52.0297 7.58915 54.3794 5.31192 54.6885 5.06573L52.5244 4.32717C52.2154 4.63495 50.113 6.78906 50.113 6.78906C48.5054 8.5123 46.7121 10.4202 45.9084 10.7279C43.868 11.528 41.8276 13.4975 41.0236 15.4054C41.0236 15.4054 40.6526 16.3286 40.4672 16.821C39.8489 15.0977 39.1069 13.6206 38.0556 12.3281C36.9428 10.9741 35.5206 9.92783 33.7894 9.25086C32.8618 8.38925 29.7702 5.55811 28.1008 4.2041L25.9367 4.6965ZM34.1602 50.5482C31.3161 51.9639 29.7702 50.7327 30.4504 49.1942C31.3778 49.8711 32.8001 50.302 34.1602 50.5482ZM29.2755 48.394C27.3588 48.948 26.6168 47.594 27.1114 46.4861C27.4824 46.9169 28.8428 48.0863 29.2755 48.394ZM11.9008 13.9283C12.0244 14.0515 12.4573 14.2976 12.4573 14.2976C12.5191 14.3592 14.9305 16.3286 15.2397 16.6364C15.1779 16.7595 14.1886 19.529 14.1886 19.529C13.2611 21.8062 12.3954 24.0834 12.3336 25.8683V26.1759C12.3336 26.2374 13.1374 30.238 13.1374 30.238L13.1993 30.5457C13.6321 32.6382 14.1267 35.1001 14.3122 36.8234C14.3741 37.3158 14.4977 37.6234 14.6832 37.7467C15.858 38.9774 17.7748 41.4393 20.1244 46.2399C20.1862 46.363 20.2481 46.4245 20.2481 46.4861C20.4954 47.163 20.7427 47.594 21.1137 47.7785C21.5467 48.0247 22.3504 48.0863 22.9068 47.7785C24.0817 46.9785 24.9474 45.9321 25.442 44.5781C25.6274 44.8243 26.1221 45.4397 26.184 45.5628C24.1434 49.0094 27.7298 50.302 29.0282 49.8097C28.2864 51.9018 31.0068 53.6253 33.5419 52.4558C33.8512 53.8097 34.9642 54.2406 36.0152 54.4258C37.0663 54.6101 38.4266 54.7334 40.7146 54.5489C44.1772 54.2406 47.2687 53.1944 48.5671 52.5791C51.226 51.2253 52.6481 49.5018 53.5137 48.3325C53.5137 48.3325 53.6991 48.1478 53.7611 47.9632C54.0701 48.4556 54.3175 48.948 54.6885 49.2556C55.5541 50.0558 56.3581 50.4251 56.9764 50.302C57.4091 50.2404 57.7801 49.9327 58.0275 49.3787C59.2022 46.5478 61.7992 43.0395 63.7779 40.7624L63.9633 40.3931C64.3962 38.7313 65.9419 34.6077 66.8076 32.392L67.4259 30.792L67.5496 30.4226C67.6115 29.8071 67.6115 29.1302 67.6115 28.5147C67.6115 25.6836 67.1786 22.9141 66.4366 20.6368C66.0656 19.4675 65.6329 18.7905 65.3236 18.0519L64.8909 17.2518C65.4473 16.3902 67.1169 15.2823 68.477 14.3592C68.477 14.3592 68.5389 14.2976 68.6009 14.2976L66.9313 12.5128C66.8076 12.5743 65.7565 13.3129 65.7565 13.3129C64.5818 14.113 63.3449 14.4822 62.6031 14.1745C62.4795 14.113 61.4901 13.5591 61.4901 13.5591C61.4282 13.4975 61.2428 13.436 61.2428 13.436C61.1809 13.436 60.9335 13.3744 60.9335 13.3744C60.8718 13.3744 60.5625 13.436 60.5625 13.436L60.3152 13.4975L60.6245 13.8668C61.3045 14.6669 61.6755 15.4054 62.1702 16.3902L62.4795 16.9441L62.7885 17.6211L62.8505 17.7442L63.2215 18.7289L63.2832 18.9136L63.4688 19.4675L64.2725 22.2372C64.9526 25.0681 65.2619 27.4069 65.3236 29.3764L65.2619 29.6226L64.3343 32.269C63.3449 34.977 62.1702 38.362 61.9229 39.716L61.8611 39.9007C59.2641 42.5471 57.4711 45.7476 56.6671 47.594C56.5435 47.8402 56.4818 47.9016 56.4198 47.9016C56.2961 47.9016 55.9871 47.6554 55.8634 47.5323C55.2451 46.9785 54.8121 45.7476 54.8741 44.4552C54.9358 42.9164 55.6161 41.501 56.7291 40.6393C56.9145 40.5162 56.8528 40.27 56.7908 40.0853C56.4818 38.3005 56.9764 35.5925 58.0894 34.7925L58.3985 34.6077L58.1511 34.4232C54.9977 31.9613 53.452 27.4685 53.3281 24.145V23.7141L52.8337 23.8988C52.7718 23.9603 52.5861 24.2064 52.5861 24.2064C52.4627 24.8836 52.4007 25.499 52.4007 26.1759C52.4007 27.8993 52.71 29.4378 52.8954 29.9302C53.3281 31.7766 54.2557 33.4999 55.6161 35.0384C55.6161 35.0384 55.6161 35.1001 55.6778 35.1001C55.1214 35.8387 54.8121 37.6234 54.8121 38.9774C54.8121 39.4084 54.8121 39.7777 54.8741 40.0853C53.3901 41.3779 53.0191 42.9781 52.8954 44.0857L52.9571 45.3166L52.2154 46.2399L52.0917 46.5476C50.6694 48.4556 49.6801 49.8097 47.3924 50.9789C44.8573 52.2715 39.9106 53.1944 36.6953 52.8868C35.5206 52.7637 35.6442 51.7175 35.6442 51.6563C35.6442 51.533 35.7062 51.3486 35.8298 51.2253L36.1389 50.9177C39.1686 51.2866 42.0749 50.9177 43.2496 50.2404C43.3114 50.1789 43.6824 49.6249 43.6824 49.6249L43.8062 49.3787L43.497 49.4404C40.9 50.0558 35.7679 49.2556 33.0474 48.0863C30.0175 46.7938 29.0901 45.5628 26.6168 42.3626L25.9367 41.4393C25.9367 40.5162 25.6894 39.5929 25.2564 38.8543C24.8237 38.1158 24.2671 37.6851 24.1434 37.562C24.329 37.0079 24.4527 36.2694 24.4527 35.4694C24.4527 34.3615 24.2671 33.2537 23.8961 32.6999C25.7511 31.2842 26.6785 29.8071 26.6168 28.1454C26.6168 27.3454 26.184 26.1145 26.184 26.1145L25.5038 25.8067L25.5657 26.299C25.8748 29.1302 23.1541 30.9766 21.423 32.2075L20.9282 32.5768L21.2374 32.7613C22.5977 33.623 22.6597 36.5156 22.3504 38.1158V38.2389L22.4123 38.362L22.474 38.4236L23.1541 38.9774C24.5764 40.8238 24.4527 43.7166 22.9068 45.4397C22.5977 45.7476 22.4123 45.809 22.3504 45.809C22.103 45.7476 21.9177 45.2552 21.9177 45.0705L21.4847 44.1474C20.2481 41.6241 19.2588 39.5315 16.9092 36.7618L16.8473 36.5156C16.4145 32.8844 15.7962 30.1764 15.2397 27.53L14.9305 26.1145L14.8687 25.7452C15.0542 22.9755 15.9198 20.8215 16.9092 18.2981L17.5275 16.6979L18.0221 15.467L18.084 15.2823C18.7023 14.4207 19.4442 13.6206 20.4335 12.882L20.8664 12.5743L20.3099 12.3281C20.3099 12.3281 19.1969 12.4512 18.1458 13.0052L17.9603 13.1282C17.1565 13.4975 16.229 13.8053 15.5489 13.4975C15.5489 13.4975 13.6939 12.3897 13.6321 12.3281L11.9008 13.9283Z" fill="#0033A0"/>
</g>
<defs>
<clipPath id="clip0_3_3969">
<rect width="280" height="64" fill="white"/>
</clipPath>
</defs>
</svg>
