<svg width="280" height="71" viewBox="0 0 280 71" fill="none" xmlns="http://www.w3.org/2000/svg">
<mask id="mask0_3_3972" style="mask-type:luminance" maskUnits="userSpaceOnUse" x="1" y="0" width="279" height="71">
<path d="M279.602 0H1.34113V71H279.602V0Z" fill="white"/>
</mask>
<g mask="url(#mask0_3_3972)">
<mask id="mask1_3_3972" style="mask-type:luminance" maskUnits="userSpaceOnUse" x="1" y="0" width="279" height="71">
<path d="M279.602 0H1.34113V71H279.602V0Z" fill="white"/>
</mask>
<g mask="url(#mask1_3_3972)">
<mask id="mask2_3_3972" style="mask-type:luminance" maskUnits="userSpaceOnUse" x="1" y="0" width="279" height="71">
<path d="M279.601 0H1.34113V71H279.601V0Z" fill="white"/>
</mask>
<g mask="url(#mask2_3_3972)">
<path d="M80.808 22.2189C80.808 21.906 80.7461 21.5964 80.6263 21.3074C80.5058 21.0185 80.3295 20.7561 80.1078 20.5354C79.8858 20.3144 79.623 20.1396 79.3332 20.0207C79.0433 19.9016 78.7326 19.841 78.4196 19.8418C77.7826 19.8379 77.17 20.0853 76.7152 20.5307C76.2605 20.9761 76.0006 21.583 75.9925 22.2189C75.9986 22.8596 76.2562 23.4726 76.7101 23.9257C77.1639 24.3787 77.7777 24.6361 78.4196 24.6422C79.0572 24.634 79.6655 24.3749 80.1131 23.9211C80.5606 23.4673 80.8103 22.8555 80.808 22.2189Z" fill="#1A1446"/>
<path d="M166.049 42.2681V42.8932H173.824V42.2681C171.404 42.0906 170.926 40.4005 171.296 37.9079L173.167 25.3054H173.237L180.132 42.8932H180.905L187.861 25.3054H187.938L189.701 37.5529C190.102 40.331 189.701 41.6893 187.382 42.2681V42.8932H197.987V42.2681C195.892 41.8745 194.972 40.8018 194.717 38.9419L192.769 25.5678C192.476 23.592 192.994 22.4807 195.197 22.0794V21.4697H187.93L182.21 35.608L176.6 21.4697H168.87V22.0794C170.047 22.1707 171.15 22.6961 171.961 23.5534L169.844 37.5529C169.35 40.8405 168.353 42.1679 166.049 42.2681Z" fill="#1A1446"/>
<path d="M279.478 40.478C279.467 40.0045 279.314 39.5452 279.043 39.1575C278.77 38.7697 278.39 38.4707 277.948 38.298C277.507 38.125 277.024 38.0861 276.56 38.1858C276.096 38.2857 275.671 38.5197 275.341 38.8589C275.01 39.1979 274.787 39.6268 274.698 40.0922C274.61 40.5575 274.662 41.0384 274.846 41.4748C275.03 41.9113 275.339 42.2836 275.733 42.5455C276.129 42.8076 276.593 42.9473 277.067 42.9474C277.39 42.9476 277.708 42.8834 278.004 42.7585C278.301 42.6337 278.569 42.4507 278.794 42.2206C279.019 41.9904 279.195 41.7176 279.312 41.4184C279.431 41.119 279.487 40.7992 279.478 40.478ZM275.235 40.478C275.255 40.121 275.379 39.7779 275.591 39.4906C275.804 39.2032 276.096 38.9846 276.432 38.8612C276.769 38.7382 277.133 38.716 277.481 38.7975C277.831 38.879 278.148 39.0606 278.394 39.3199C278.64 39.5792 278.804 39.9049 278.868 40.2567C278.93 40.6086 278.889 40.971 278.747 41.2995C278.607 41.6279 278.372 41.9077 278.074 42.1047C277.775 42.3015 277.425 42.4068 277.067 42.4072C276.818 42.4066 276.572 42.3555 276.344 42.2568C276.114 42.1584 275.908 42.0147 275.738 41.8342C275.566 41.6539 275.432 41.4406 275.347 41.2075C275.261 40.9744 275.222 40.7262 275.235 40.478Z" fill="#1A1446"/>
<path d="M140.804 50.4648H56.9319V51.337H140.804V50.4648Z" fill="#1A1446"/>
<path d="M138.509 23.6084C136.846 25.8306 134.84 27.7739 132.565 29.3656V30.0601H135.061V38.9274C135.061 42.0761 137.156 43.3186 139.761 43.3186C140.659 43.3838 141.557 43.1865 142.345 42.7507C143.133 42.315 143.776 41.6596 144.198 40.8645L143.757 40.4632C143.529 40.7898 143.228 41.0587 142.878 41.2491C142.528 41.4393 142.138 41.5454 141.74 41.559C139.8 41.559 139.212 40.2471 139.212 38.009V30.0601H142.922C144.94 30.0601 145.527 30.7933 146.408 32.6609L151.471 43.3186C149.787 47.8564 148.317 49.6932 145.751 49.6932C145.11 49.6999 144.474 49.59 143.873 49.369L143.03 53.5441C143.42 53.5976 143.813 53.6208 144.205 53.6136C147.073 53.6136 148.65 52.402 150.111 49.0372L157.067 33.1316C158.203 30.5772 158.613 30.0447 160.406 29.5816V28.9565H154.647V29.5816C156.41 29.9521 156.812 31.0479 155.567 33.9806L153.658 38.4103L150.721 32.3676C149.871 30.6081 149.871 29.7977 151.495 29.5816V28.9565H139.235V23.6084H138.509Z" fill="#1A1446"/>
<path d="M118.003 34.6358C117.492 30.8312 114.671 28.4079 110.745 28.4079C109.735 28.3767 108.73 28.5493 107.79 28.9154C106.849 29.2815 105.992 29.8335 105.27 30.5383C104.549 31.2432 103.977 32.0863 103.589 33.0171C103.201 33.9481 103.007 34.9474 103.015 35.9555C103.002 36.9418 103.19 37.9204 103.567 38.8319C103.945 39.7435 104.505 40.5687 105.211 41.2574C105.918 41.9463 106.759 42.4841 107.681 42.8382C108.603 43.1925 109.588 43.3558 110.575 43.3179C112.149 43.3553 113.699 42.917 115.02 42.0606C116.341 41.204 117.373 39.9692 117.979 38.5177H117.361C116.039 40.5319 114.424 41.5275 112.406 41.5275C109.84 41.5275 107.274 39.2123 107.491 34.6358H118.003ZM110.451 29.3957C112.136 29.3957 113.388 31.2325 113.543 33.7946H107.529C107.622 31.1553 108.781 29.3957 110.451 29.3957Z" fill="#1A1446"/>
<path d="M124.464 28.4082L118.412 28.9561V29.5812C120.174 29.7278 120.939 30.5304 120.939 32.29V39.5829C120.939 41.1264 120.468 41.7052 118.621 42.1451V42.7702H127.425V42.1451C125.415 41.7438 125.106 41.2345 125.106 39.5829V33.9415C126.165 32.4752 126.938 31.9659 128.197 31.9659C129.156 31.9659 130.107 32.591 131.289 33.7563L132.201 29.5812C131.903 29.2194 131.53 28.9269 131.106 28.7243C130.683 28.5217 130.22 28.4138 129.751 28.4082C128.02 28.4082 126.52 29.7973 125.16 32.8071H125.09V28.4082H124.464Z" fill="#1A1446"/>
<path d="M88.8779 19.8418L83.2586 20.2431V20.8682C84.5494 21.0843 85.3533 21.748 85.3533 22.921V42.7702C87.5816 43.1728 89.8448 43.3564 92.1088 43.3181C98.8567 43.3181 101.384 39.8067 101.384 35.5544C101.384 31.5259 98.5242 28.4081 94.7832 28.4081C93.7668 28.4242 92.7659 28.6585 91.8482 29.0953C90.93 29.5321 90.1177 30.1611 89.4653 30.9394V19.8418H88.8779ZM92.7426 30.2757C95.1928 30.2757 96.8469 32.5909 96.8469 35.9943C96.8469 40.5013 94.7909 42.3303 91.7146 42.3303C90.0527 42.3303 89.5116 41.5971 89.5116 40.0151V31.9272C90.8952 30.6461 91.6296 30.2757 92.7349 30.2757H92.7426Z" fill="#1A1446"/>
<path d="M37.9251 33.2857C36.8701 32.5117 35.7621 31.8129 34.6091 31.1943L33.8362 33.1236C34.9088 33.5495 35.9431 34.0658 36.9279 34.6671L37.9251 33.2857Z" fill="#1A1446"/>
<path d="M32.8314 32.8147L33.187 30.7618C32.4455 30.4202 31.6384 30.2438 30.8218 30.2448C30.0431 30.2283 29.2762 30.4344 28.6111 30.839L29.2449 32.6526C30.1107 32.4519 32.2054 32.3748 32.8314 32.8147Z" fill="#1A1446"/>
<path d="M29.755 38.8725L30.3811 38.7182L30.1106 38.286C30.3855 38.17 30.6783 38.1023 30.9763 38.0853C31.4343 38.0351 31.8958 38.1441 32.2826 38.394L33.643 38.0776L33.8208 37.7921C32.87 37.0203 31.5018 36.3335 30.3347 36.5882C29.7486 36.7376 29.1846 36.9633 28.6575 37.2596V37.9696C29.0972 38.1678 29.4761 38.4795 29.755 38.8725Z" fill="#1A1446"/>
<path d="M26.6016 34.1501C27.1173 33.6671 27.685 33.2424 28.2943 32.8843L27.6296 31.3408C27.1967 31.7884 26.246 32.9615 26.6016 34.1501Z" fill="#1A1446"/>
<path d="M56.5531 42.1452V42.7703H72.955L73.5734 37.2061H72.955C71.2313 40.7561 70.0178 41.5587 67.3744 41.5587C64.7309 41.5587 63.9967 41.0107 63.9967 39.2435V24.8197C63.9967 22.952 64.5841 22.5044 66.7174 21.9642V21.3391H56.5531V21.9642C58.7947 22.5122 59.266 23.0601 59.266 24.9663V38.6647C59.266 40.9722 59.0112 41.5278 56.5531 42.1452Z" fill="#1A1446"/>
<path d="M73.8286 29.5818C75.8537 29.9831 76.3252 30.4616 76.3252 32.1517V39.5141C76.3252 41.2659 75.8846 41.783 74.0063 42.1457V42.7708H82.702V42.1457C81.1561 41.9605 80.4683 41.1965 80.4683 39.8305V28.4473H79.842L73.8209 28.9567L73.8286 29.5818Z" fill="#1A1446"/>
<path d="M3.77615 17.9511C3.64895 18.1112 3.56919 18.304 3.54597 18.5072C3.52274 18.7105 3.55695 18.9161 3.64471 19.101C3.72856 19.253 3.85532 19.3773 4.0092 19.4582C4.16308 19.5391 4.33732 19.5733 4.5104 19.5562C4.36034 19.7249 4.26116 19.9325 4.22422 20.1552C4.1873 20.3778 4.21418 20.6062 4.30175 20.8141C4.51043 21.3389 5.07467 22.0952 5.63892 22.0952C5.67003 22.7416 5.76848 23.3831 5.93265 24.0091C5.68292 24.3706 5.56304 24.8058 5.59255 25.2439C5.58862 25.5352 5.68127 25.8193 5.85603 26.0524C6.03079 26.2856 6.27784 26.4545 6.55873 26.5327C6.65385 26.8425 6.7945 27.1364 6.9761 27.4049C7.19033 27.6911 7.45173 27.939 7.7491 28.1379C8.14727 28.4289 8.62412 28.5929 9.11727 28.6087C9.52763 28.6369 9.93984 28.6188 10.3462 28.5548C10.3462 28.709 10.4081 30.0981 10.4699 31.6416C9.0933 35.6669 8.42129 39.8986 8.48336 44.1515C8.48336 52.3398 10.8022 59.6403 15.2931 64.3402C15.5795 64.6423 15.9073 64.902 16.267 65.1119C16.3521 64.9653 16.7384 64.3402 17.3412 63.4141L17.5267 63.1286C18.1143 62.2642 18.8795 61.1838 19.7684 60.0416C20.3289 59.3338 20.9414 58.6684 21.6004 58.0505C22.6515 57.1399 23.6641 56.3297 24.6921 55.6118C27.3778 53.7754 30.3892 52.4658 33.5654 51.7531C30.1953 53.4897 28.2786 54.4156 25.1094 57.1553C22.1095 59.6357 19.6029 62.6568 17.7201 66.0612C18.235 66.4787 18.8558 66.7458 19.5134 66.8329C19.9771 66.285 22.35 61.9401 25.9983 58.4364C33.3801 51.5372 42.0756 49.9474 46.6284 50.0323C46.8885 48.0957 47.0177 46.144 47.0147 44.1901C47.0338 41.0605 46.6863 37.9396 45.979 34.8906L51.3897 28.8479C51.3897 28.8479 51.7607 28.4699 51.5983 28.2614C51.4361 28.053 51.0341 28.2151 51.0341 28.2151L44.5876 30.5999C44.1026 29.4136 43.5236 28.2677 42.8564 27.1734L44.9433 21.4855C44.9433 21.4855 45.1983 20.9223 44.9433 20.7834C44.6882 20.6443 44.3094 21.0149 44.3094 21.0149L40.5143 24.1017C39.0447 22.513 37.2704 21.235 35.2969 20.3435C34.5452 20.0078 33.7703 19.7268 32.9781 19.5023L31.8032 15.0029C31.8032 15.0029 31.7027 14.5554 31.3935 14.5554C31.0844 14.5554 31.0147 14.9799 31.0147 14.9799L30.2418 18.9542C29.3956 18.8486 28.5438 18.7945 27.6912 18.7923C25.095 18.7643 22.523 19.2906 20.1472 20.3356C19.214 20.7652 18.3238 21.2821 17.4882 21.8791L17.0863 22.1878C16.3134 20.1737 15.6872 18.5299 15.5404 18.036C16.2564 17.2273 16.7842 16.2707 17.0863 15.2344C17.379 14.2436 17.3411 13.1844 16.9781 12.217C16.6743 11.6063 16.4458 10.9611 16.2978 10.2954C16.3218 10.0012 16.4541 9.72636 16.669 9.52362C16.6485 9.32583 16.5607 9.14114 16.4199 9.00053C16.279 8.86001 16.094 8.77217 15.8959 8.75188C15.5801 8.74641 15.2645 8.76963 14.9529 8.82134C14.8679 8.68242 14.7132 8.70558 14.8292 8.18851C15.0147 7.41677 16.5064 7.04634 17.7278 6.57558C18.4633 6.34037 19.1017 5.87141 19.5455 5.24022C19.9892 4.60903 20.2141 3.85026 20.1858 3.0796C20.2146 2.52416 20.0789 1.97255 19.7958 1.49359C19.5125 1.01462 19.0944 0.629487 18.5934 0.386236C18.2725 1.03527 17.7635 1.57301 17.1327 1.92971C16.5995 2.21926 15.9829 2.31731 15.3858 2.20753C15.4567 1.79419 15.3955 1.36908 15.211 0.992359C15.0266 0.61564 14.728 0.306395 14.3578 0.108398C14.0789 0.443549 13.721 0.704318 13.3162 0.8673C12.9115 1.03028 12.4726 1.09038 12.0389 1.0422C10.779 1.00361 10.694 0.702636 8.94711 0.710354C6.4273 0.710354 4.30944 2.25383 4.07756 4.46872C3.96033 5.62767 4.24701 6.79156 4.88919 7.76405C4.45985 8.11242 4.06393 8.49998 3.70656 8.92166C3.54199 8.7484 3.31892 8.64222 3.08048 8.6237C2.84203 8.60518 2.60519 8.67556 2.41575 8.82134C2.5507 9.16337 2.5697 9.54022 2.46987 9.89405C1.93661 11.0379 1.55714 12.2472 1.34134 13.4904C1.24989 14.3922 1.43342 15.3007 1.86788 16.0966C2.30234 16.8926 2.96748 17.539 3.77615 17.9511ZM6.96068 19.9962C6.66375 20.285 6.4433 20.643 6.31913 21.0379C5.94658 20.7008 5.67839 20.2643 5.54618 19.78C5.8207 19.3225 6.23529 18.9653 6.72876 18.7613C6.27128 18.7406 5.8129 18.7664 5.36068 18.8386C5.19962 18.4504 5.15658 18.0237 5.23698 17.6114H5.75489L5.4689 16.9014C6.22493 16.3567 7.0987 15.9971 8.01962 15.8518C8.08016 16.1045 8.0984 16.3651 8.07367 16.6237C8.06581 16.6998 8.04003 16.7732 7.99839 16.8375C7.95674 16.9019 7.90046 16.9556 7.83412 16.994L7.58673 17.1175L7.43216 17.1948L7.14618 17.3413C7.56839 17.3175 7.99162 17.3175 8.41382 17.3413C8.6457 17.3413 8.75388 17.4186 8.75388 17.6577C8.75757 17.8909 8.69018 18.1197 8.56064 18.3137C8.42924 18.4989 8.04282 18.468 7.83412 18.4912C7.92502 18.6732 7.97007 18.8745 7.96545 19.0777C7.97446 19.1736 7.9513 19.2696 7.8995 19.3505C7.8477 19.4317 7.77022 19.4932 7.67947 19.5253C7.42578 19.6598 7.18519 19.8173 6.96068 19.9962ZM6.96068 13.745C7.60101 13.2713 8.38243 13.0267 9.17902 13.0505C10.0852 12.9933 10.9839 13.2435 11.7297 13.7605C11.9664 13.9467 12.1477 14.1939 12.254 14.4754C12.3602 14.7569 12.3874 15.0621 12.3327 15.3579C11.9257 14.9625 11.4404 14.6567 10.9079 14.46C10.3754 14.2633 9.80751 14.1801 9.24086 14.2158C7.7645 14.2158 6.62831 14.8024 6.47372 15.2962C6.39101 15.0207 6.39085 14.727 6.47325 14.4514C6.55566 14.1757 6.71701 13.9303 6.93747 13.745H6.96068ZM11.1887 25.4831C10.6189 25.1472 9.97825 24.949 9.31807 24.9043C8.66024 24.9095 8.01621 25.0935 7.45533 25.4368C7.33179 25.3393 7.24745 25.2007 7.21765 25.0463C7.18787 24.892 7.21462 24.732 7.29305 24.5956C7.44763 24.2252 7.66409 24.1712 7.66409 24.1712L7.46307 20.7292C7.85332 20.4424 8.2641 20.1844 8.69207 19.9575C8.81037 19.9254 8.91372 19.8533 8.98428 19.7531C9.05486 19.6531 9.08821 19.5315 9.07855 19.4097C9.6108 19.8133 10.0819 20.2917 10.4775 20.8297C10.7968 21.266 10.9797 21.7868 11.0032 22.3267C11.0404 22.958 11.0145 23.5914 10.9259 24.2175C11.1423 24.4027 11.3433 24.5572 11.3665 24.8503C11.3715 25.0777 11.3008 25.3003 11.1655 25.4831H11.1887ZM18.7327 57.6724C18.1375 58.6835 16.4679 60.7593 15.8881 61.4849C16.5143 60.2268 17.0089 57.1862 16.9703 54.8248C16.9703 53.2812 16.4756 49.9011 16.8775 47.6552C17.1098 45.6288 18.0845 43.7597 19.6138 42.4074C20.2719 41.8196 21.0718 41.4124 21.9349 41.2257C22.7978 41.0391 23.6947 41.0793 24.5375 41.3424L26.4852 45.0004C25.9115 44.8874 25.3208 44.8893 24.7476 45.0059C24.1744 45.1225 23.63 45.3514 23.1461 45.6797C21.4147 47.0069 20.8273 48.7665 20.5491 51.3981C20.3731 53.5933 19.747 55.729 18.7094 57.6724H18.7327ZM23.8341 37.1827L21.7085 35.7241C21.6918 35.1434 21.6454 34.5637 21.5694 33.9877C21.5694 33.9877 21.5694 33.8642 21.5694 33.8102L24.2284 35.0913C24.0147 35.3997 23.8771 35.754 23.8264 36.1254C23.7538 36.4736 23.7485 36.8325 23.8109 37.1827H23.8341ZM20.7423 56.3681C21.2964 54.7005 21.7201 52.9924 22.01 51.2592C22.2341 49.955 22.4429 48.0565 23.9965 46.7754C24.3555 46.5145 24.7644 46.3298 25.1978 46.2329C25.6312 46.136 26.0799 46.1289 26.5162 46.2122L28.7115 50.6881C28.8452 50.9013 29.0368 51.0724 29.2638 51.1816C29.4907 51.2909 29.7441 51.3338 29.9944 51.3055C27.9075 51.9692 22.7055 54.4235 20.719 56.3681H20.7423ZM41.8361 48.1877C41.4429 47.5174 41.1067 46.8151 40.8312 46.0886C40.8312 46.0886 39.6641 43.9431 39.4476 43.5264C39.3113 43.3075 39.2392 43.0549 39.2392 42.7972C39.2392 42.5394 39.3113 42.2867 39.4476 42.0678C39.9251 41.4276 40.5143 40.8786 41.1867 40.4473L41.3104 43.1405C41.3104 43.1405 41.9829 44.3986 42.6709 45.7644L42.8408 46.1117C43.2195 46.8836 43.6138 47.6089 43.8457 48.1877C43.1269 48.1724 42.4467 48.1877 41.8128 48.1877H41.8361ZM49.4805 29.6661L42.5858 36.164C42.3972 35.1137 41.9541 34.1254 41.2949 33.2854L49.4805 29.6661ZM43.6989 22.5891L39.5172 31.4874C38.6484 30.7266 37.6999 30.0616 36.6882 29.5039L43.6989 22.5891ZM31.5559 16.8474L33.55 28.1225C32.4329 27.7659 31.2525 27.6501 30.0872 27.7829L31.5559 16.8474ZM30.9607 28.9405C33.0167 28.9405 35.5211 30.1986 37.2215 31.495C39.409 33.1465 40.6844 34.6747 40.7848 35.1839C40.8418 35.4172 40.8418 35.6607 40.7848 35.8939C40.5529 35.5699 38.8525 33.9568 38.8525 33.9568L37.7858 35.3074L39.8032 37.0748C39.2916 37.4145 38.6716 37.5521 38.0641 37.4605C37.1288 37.3525 35.0649 36.0484 35.0263 35.0297C33.6491 34.4633 32.1792 34.1546 30.6901 34.1189C29.8343 34.1422 28.9848 34.2744 28.1626 34.5125C27.807 34.6284 27.5442 34.4044 27.2737 34.2887L27.15 34.366L27.923 35.5699C28.1549 35.6934 28.5953 35.4154 29.2214 35.3074C30.4491 35.0998 31.711 35.306 32.8081 35.8939C33.9641 36.6777 35.0596 37.5471 36.0852 38.4948C36.2565 38.6941 36.4906 38.8295 36.7491 38.8786C37.0075 38.9277 37.275 38.8876 37.5075 38.7649C37.8167 38.4948 38.2805 38.4948 38.2264 38.8498C38.1722 39.2048 38.01 39.6214 38.3732 39.7449C38.7365 39.8685 38.8833 39.5905 39.1461 39.4362C39.2527 39.3454 39.3863 39.2925 39.5261 39.2854C39.6658 39.2784 39.8041 39.3179 39.9192 39.3976C39.6189 39.9171 39.2321 40.3817 38.7752 40.7713C38.5729 40.9675 38.3287 41.1152 38.0609 41.2036C37.7931 41.2919 37.5088 41.318 37.2292 41.2806L36.9509 41.9522L38.922 46.4823C39.4399 47.524 39.5094 47.8018 39.9346 48.5041C36.9882 49.0051 34.1007 49.8042 31.3162 50.8888L30.5433 48.1877L32.3519 45.6641C31.5531 45.9604 30.7343 46.2003 29.9017 46.3818C29.7758 46.4181 29.6441 46.4287 29.514 46.4132C29.3839 46.3976 29.2583 46.3564 29.1445 46.2916C29.0307 46.2268 28.9309 46.1401 28.8512 46.0363C28.7715 45.9324 28.7135 45.8138 28.6805 45.6874C28.6066 45.414 28.555 45.1353 28.5258 44.8538C28.5258 44.63 28.7192 44.3523 28.9201 44.3986C29.0122 44.423 29.1081 44.4287 29.2024 44.4154C29.2967 44.4023 29.3873 44.3703 29.469 44.3213L29.8476 43.8119C29.5384 43.7735 29.1675 43.6809 29.0128 43.6809C28.7679 43.734 28.5276 43.8063 28.294 43.8968C28.1395 43.7812 27.8921 43.5727 27.9771 43.2949H30.0641L30.1027 43.0556C29.6254 42.8343 29.1251 42.6662 28.6109 42.554C28.5011 42.5426 28.3901 42.557 28.2869 42.5957C28.1836 42.6346 28.0907 42.6969 28.0158 42.7778V42.3842L29.1983 41.3964L27.9771 40.8949L27.3047 41.0105L27.7375 38.2554L27.5055 37.7769L26.3153 38.4948V36.9512C26.3153 36.6579 26.9104 36.11 27.3587 35.8476L27.2815 34.9062C26.786 35.1109 26.3365 35.4126 25.9598 35.7936C25.6125 36.2201 25.4048 36.7427 25.3645 37.2909C25.2095 37.1181 25.0974 36.9116 25.0369 36.6878C24.9767 36.4639 24.9697 36.229 25.0167 36.0019C25.1164 35.4453 25.4263 34.9482 25.8824 34.6128C25.7063 33.9571 25.6931 33.2684 25.8436 32.6063C26.0756 31.3715 27.467 28.9561 30.9375 28.9561L30.9607 28.9405ZM27.0959 28.9405C26.2389 29.4671 25.5602 30.2388 25.1481 31.1554L20.1703 22.6663L27.0959 28.9405ZM16.5684 25.7224L16.9162 26.6023C18.1684 29.8436 19.3587 32.9074 19.722 33.8256L19.7839 33.9724C19.799 34.0172 19.8172 34.061 19.838 34.1036C19.9461 34.2887 20.3094 37.0438 20.3325 37.2523C20.6524 38.1547 21.0399 39.0318 21.4921 39.8761C20.2223 39.9545 19.0282 40.5054 18.1452 41.4197C17.0285 42.7281 16.2343 44.2796 15.8264 45.9498C15.8264 45.6874 15.1307 43.5804 14.4042 41.3192L14.2341 40.8023C13.4225 38.294 12.5877 35.786 12.5182 35.6701C12.4486 35.5543 12.2631 32.1973 12.0853 28.8711V28.2691C11.9307 25.2593 11.7993 22.4272 11.7839 22.2187L12.4718 21.7249V21.5937C12.2386 21.6007 12.0063 21.5599 11.7895 21.4737C11.5728 21.3873 11.3762 21.2574 11.2119 21.0919L11.0264 17.1869C10.4354 17.1709 9.8613 16.9862 9.37227 16.6544C9.16357 16.4834 9.02588 16.2411 8.9859 15.9744C8.94591 15.7079 9.00643 15.4359 9.15584 15.2113C9.83936 15.5631 10.5975 15.7456 11.3665 15.7438C11.552 15.7438 11.9307 16.1528 12.1394 16.2377C12.3481 16.3226 12.8119 16.5697 13.0128 16.6623C13.2138 16.7549 13.2988 17.1561 13.3529 17.3104V17.349C13.4766 17.8199 14.9993 21.7635 16.522 25.7148L16.5684 25.7224ZM8.97033 2.28471C9.84376 2.2384 10.98 2.47764 11.552 2.47764C12.3715 2.48959 13.1864 2.35093 13.9558 2.06862C14.0386 2.26964 14.0714 2.48771 14.0512 2.70414C14.031 2.92056 13.9586 3.12884 13.8399 3.31111C14.5532 3.58657 15.3092 3.73545 16.0738 3.75101C17.0362 3.70906 17.9426 3.28711 18.5934 2.57797C18.6855 2.90512 18.6913 3.25048 18.6101 3.58048C18.5288 3.91046 18.3633 4.21384 18.1297 4.46103C17.1017 5.37938 14.6824 5.88101 13.9713 6.40579C13.5514 6.65382 13.213 7.01852 12.9973 7.45538C12.7654 7.21612 12.6263 7.02319 12.2244 7.06951C11.8224 7.1158 11.5365 7.5634 11.0882 7.53253C10.5085 7.49394 10.0602 6.53699 9.38 6.50612C8.3288 6.50612 7.91138 7.32416 7.46307 7.34731C7.14616 7.34731 6.69012 6.90742 6.54326 6.66818C6.1928 6.1314 6.0323 5.49298 6.08725 4.85459C6.1511 4.14839 6.47791 3.49182 7.00314 3.01458C7.52837 2.53732 8.21382 2.27411 8.924 2.27698L8.97033 2.28471ZM3.7993 11.2909C3.87412 11.0676 3.9031 10.8316 3.88452 10.5969C3.86591 10.3622 3.80012 10.1337 3.69108 9.92492C3.92296 9.8709 4.40996 10.1642 4.74233 10.0793C4.90248 10.0562 5.05305 9.98906 5.17725 9.88548C5.30145 9.78191 5.39437 9.64593 5.44569 9.49275C5.608 9.15318 5.8167 8.86764 6.21864 8.84449C6.62056 8.82134 7.20033 9.15318 7.76458 9.02971C8.47569 8.86764 8.76168 8.16536 9.3105 8.16536C9.8593 8.16536 10.3616 8.9371 10.9104 8.99884C11.4592 9.06058 12.3327 8.42003 12.8814 8.63612C13.4302 8.85221 13.1442 9.68568 13.5693 10.0253C13.9944 10.3648 14.8833 9.97123 15.1152 9.92492C15.0101 10.2544 14.9553 10.5978 14.9529 10.9436C14.9529 11.3372 15.6177 12.5257 15.6331 12.9424C15.7063 13.4282 15.6559 13.9245 15.4863 14.3856C15.4245 12.8421 13.5539 10.8973 9.39545 10.8124C5.77037 10.7507 3.28145 12.2093 3.38194 14.4396C3.16695 14.028 3.06052 13.5685 3.07273 13.1045C3.20729 12.467 3.43656 11.853 3.75293 11.2832L3.7993 11.2909Z" fill="#1A1446"/>
<path d="M253.477 35.4845C250.648 36.2563 247.865 37.1592 247.865 39.814C247.865 41.8359 249.735 43.4412 252.008 43.4412C252.809 43.4738 253.609 43.345 254.359 43.0626C255.11 42.7802 255.794 42.3499 256.375 41.7975L256.699 41.5041C256.975 42.1422 257.448 42.675 258.049 43.024C258.65 43.3728 259.348 43.5191 260.039 43.4412C262.056 43.4412 263.27 42.4919 263.416 40.7709H262.83C262.683 41.6121 262.311 42.052 261.732 42.052C261.153 42.052 260.882 41.5041 260.882 40.223V33.7018C260.882 29.8894 257.79 28.5312 254.799 28.5312C251.568 28.5312 249.326 30.26 248.615 33.2233H249.172C249.572 32.4859 250.173 31.877 250.907 31.4671C251.642 31.0574 252.474 30.8636 253.314 30.9081C255.81 30.9081 256.769 32.0813 256.769 34.5353C255.997 34.8285 255.039 35.0755 254.102 35.307L253.477 35.4845ZM256.699 40.5085C255.75 41.4655 254.945 41.9363 254.102 41.9363C252.959 41.9363 252.185 40.9484 252.185 39.4513C252.185 37.5838 253.252 36.7425 256.699 35.2684V40.5085Z" fill="#1A1446"/>
<path d="M168.113 62.2028C168.113 60.1654 166.659 58.6914 164.187 58.6914H159.317V70.3369H161.511V66.0538H163.606L165.871 70.3369H168.406L165.802 65.6448C166.525 65.4241 167.15 64.9614 167.571 64.3343C167.991 63.7073 168.182 62.9544 168.113 62.2028ZM163.899 64.1167H161.511V60.5976H163.575C165.122 60.5976 165.816 61.2844 165.816 62.3494C165.825 62.5964 165.779 62.8424 165.685 63.0705C165.588 63.2986 165.445 63.5033 165.264 63.671C165.082 63.8388 164.865 63.9654 164.631 64.0423C164.396 64.1192 164.145 64.1445 163.899 64.1167Z" fill="#1A1446"/>
<path d="M194.918 66.9799L190.025 58.6914H188.009V70.3369H190.01V62.0407H190.041L194.942 70.3369H196.951V58.6914H194.957V66.9799H194.918Z" fill="#1A1446"/>
<path d="M120.808 66.9799L115.908 58.6914H113.89V70.3369H115.892V62.0407H115.923L120.824 70.3369H122.841V58.6914H120.839V66.9799H120.808Z" fill="#1A1446"/>
<path d="M172.704 70.3369H175.022L175.695 68.0757H180.116L180.788 70.3369H183.108L179.243 58.6914H176.684L172.704 70.3369ZM177.898 60.8137L179.505 66.1464H176.259L177.867 60.8137H177.898Z" fill="#1A1446"/>
<path d="M107.421 58.6914H105.226V70.3369H107.421V58.6914Z" fill="#1A1446"/>
<path d="M153.04 66.7715V58.6914H150.845V66.1773C150.845 67.605 150.234 68.4925 148.341 68.4925C146.447 68.4925 145.828 67.5973 145.828 66.1773V58.6914H143.633V66.7715C143.633 69.1407 145.519 70.6302 148.341 70.6302C151.162 70.6302 153.04 69.1253 153.04 66.7715Z" fill="#1A1446"/>
<path d="M137.96 66.7709C137.96 64.5638 136.321 63.8615 134.59 63.4833L133.16 63.1746C131.854 62.8814 130.756 62.6499 130.756 61.6852C130.756 60.8671 131.707 60.3964 132.967 60.3964C133.59 60.351 134.212 60.4856 134.76 60.784C135.309 61.0823 135.759 61.5318 136.058 62.0788L137.875 60.7051C137.315 59.9522 136.579 59.3476 135.732 58.944C134.884 58.5404 133.951 58.3501 133.013 58.3899C130.833 58.3899 128.491 59.5629 128.491 62.017C128.491 64.1625 130.13 64.8493 132.001 65.2738L133.291 65.567C134.837 65.9297 135.703 66.1921 135.703 67.1105C135.703 68.245 134.288 68.6 133.229 68.6C132.54 68.6274 131.855 68.4798 131.238 68.1706C130.622 67.8615 130.094 67.4012 129.705 66.8327L127.834 68.1755C128.419 68.9564 129.182 69.5865 130.06 70.0134C130.938 70.4403 131.905 70.6515 132.882 70.6296C135.278 70.6296 137.96 69.6495 137.96 66.7709Z" fill="#1A1446"/>
<path d="M222.799 23.7314C221.141 25.9549 219.136 27.8986 216.862 29.4887V30.1831H219.359V39.0427C219.359 42.1991 221.446 43.4416 224.05 43.4416C224.948 43.5069 225.847 43.3095 226.634 42.8738C227.422 42.438 228.065 41.7826 228.487 40.9876L228.055 40.5863C227.824 40.9109 227.523 41.179 227.173 41.3701C226.824 41.5613 226.436 41.6706 226.037 41.6897C224.089 41.6897 223.502 40.3701 223.502 38.132V30.1831H228.055V29.0795H223.502V23.7314H222.799Z" fill="#1A1446"/>
<path d="M234.246 28.5312L228.565 29.0791V29.7275C230.212 30.0129 230.729 30.5608 230.729 32.1043V39.2429C230.729 41.89 232.453 43.4566 235.313 43.4566C237.554 43.4566 239.279 42.4302 240.816 40.0918H240.893V43.4566L247.239 42.9088V42.2835C245.407 41.8128 245.037 41.3652 245.037 39.5363V28.5312H244.41L238.729 29.0791V29.7275C240.159 29.982 240.893 30.638 240.893 31.7725V38.6564C239.68 40.5626 238.837 41.1491 237.439 41.1491C236.039 41.1491 234.88 40.3775 234.88 38.7335V28.5466L234.246 28.5312Z" fill="#1A1446"/>
<path d="M225.96 60.7133V58.6914H217.705V70.3369H226.385V68.3073H219.892V65.2975H225.465V63.3681H219.892V60.7133H225.96Z" fill="#1A1446"/>
<path d="M278.219 41.8596L277.492 40.6865C277.585 40.6868 277.677 40.6679 277.763 40.6308C277.848 40.5938 277.925 40.5393 277.988 40.4713C278.05 40.403 278.099 40.3225 278.13 40.2348C278.16 40.1469 278.172 40.0537 278.165 39.9611C278.165 39.3977 277.816 39.1895 277.153 39.1895H276.132V41.875H276.634V40.7174H276.997L277.677 41.875L278.219 41.8596ZM276.673 40.3161V39.5445H277.144C277.408 39.5445 277.708 39.5908 277.708 39.9071C277.708 40.2235 277.446 40.3084 277.136 40.3084L276.673 40.3161Z" fill="#1A1446"/>
<path d="M273.242 50.4648H152.259V51.337H273.242V50.4648Z" fill="#1A1446"/>
<path d="M203.173 28.5312L197.484 29.0791V29.7275C199.139 30.0129 199.649 30.5608 199.649 32.1043V39.2429C199.649 41.89 201.372 43.4566 204.24 43.4566C206.474 43.4566 208.206 42.4302 209.744 40.0918H209.813V43.4566L216.166 42.9088V42.2835C214.335 41.8128 213.963 41.3652 213.963 39.5363V28.5312H213.338L207.649 29.0791V29.7275C209.078 29.982 209.813 30.638 209.813 31.7725V38.6564C208.607 40.5626 207.764 41.1491 206.373 41.1491C204.828 41.1491 203.8 40.3775 203.8 38.7335V28.5466L203.173 28.5312Z" fill="#1A1446"/>
<path d="M263.673 42.269V42.8941H272.877V42.269C270.83 41.7982 270.428 41.3583 270.428 39.5216V19.958H269.794L263.673 20.367V20.9921C265.658 21.1002 266.285 21.7639 266.285 23.7318V39.5216C266.285 41.3043 265.689 41.9371 263.673 42.269Z" fill="#1A1446"/>
<path d="M212.966 67.1648L210.964 66.2464C210.539 67.6047 209.674 68.6002 208.144 68.6002C205.824 68.6002 204.85 66.5397 204.85 64.51C204.85 62.4803 205.816 60.4275 208.144 60.4275C208.766 60.4065 209.372 60.6167 209.849 61.0174C210.324 61.418 210.633 61.9805 210.717 62.5961L212.827 62.0559C212.633 60.9785 212.047 60.0102 211.184 59.3357C210.32 58.6611 209.237 58.3274 208.144 58.3978C204.658 58.3978 202.563 61.2224 202.563 64.51C202.563 67.7976 204.41 70.6299 208.144 70.6299C210.47 70.6299 212.031 69.5031 212.966 67.1648Z" fill="#1A1446"/>
<path d="M42.6787 45.7648C41.9909 44.3988 41.3184 43.1409 41.3184 43.1409L41.1947 40.4475C40.5221 40.8788 39.9329 41.4279 39.4556 42.0681C39.3193 42.2871 39.247 42.5396 39.247 42.7975C39.247 43.0551 39.3193 43.3078 39.4556 43.5267C39.672 43.9435 40.8392 46.0889 40.8392 46.0889C41.1147 46.8155 41.4509 47.5176 41.8439 48.188C42.4778 48.188 43.158 48.188 43.8845 48.188C43.6217 47.6092 43.2584 46.8606 42.8798 46.112L42.6787 45.7648Z" fill="white"/>
<path d="M42.5626 36.195L49.4573 29.697L41.2718 33.3164C41.9309 34.1564 42.3742 35.1446 42.5626 36.195Z" fill="white"/>
<path d="M28.6881 50.688L26.493 46.2119C26.0567 46.1286 25.6081 46.1357 25.1746 46.2326C24.7411 46.3295 24.3322 46.5142 23.9731 46.7753C22.4272 48.0563 22.2109 49.9548 21.9868 51.2591C21.6968 52.9921 21.273 54.7002 20.7191 56.368C22.7054 54.4386 27.9074 51.9691 29.9943 51.3054C29.7402 51.3383 29.4822 51.2974 29.2506 51.1881C29.0191 51.0787 28.8238 50.905 28.6881 50.688Z" fill="white"/>
<path d="M23.1233 45.6796C23.6072 45.3515 24.1515 45.1226 24.7246 45.006C25.2978 44.8895 25.8883 44.8875 26.4623 45.0005L24.5144 41.3426C23.6716 41.0793 22.7749 41.0392 21.9118 41.2259C21.0488 41.4125 20.2489 41.8196 19.5909 42.4076C18.0615 43.7597 17.0869 45.6289 16.8546 47.6553C16.4526 49.901 16.9163 53.2891 16.9473 54.8247C16.9473 57.1864 16.4913 60.2269 15.8652 61.4848C16.4449 60.7131 18.1144 58.6834 18.7097 57.6726C19.7392 55.7275 20.3574 53.5918 20.526 51.3982C20.812 48.7897 21.3919 47.007 23.1233 45.6796Z" fill="white"/>
<path d="M7.98115 19.1322C7.98578 18.9289 7.94074 18.7276 7.84981 18.5457C8.0585 18.5457 8.44495 18.5457 8.57634 18.3682C8.70588 18.1741 8.77327 17.9453 8.76958 17.7122C8.76958 17.4728 8.6614 17.4265 8.42952 17.3958C8.00732 17.3718 7.58409 17.3718 7.16188 17.3958L7.44786 17.249L7.60243 17.172L7.84981 17.0485C7.91616 17.01 7.97244 16.9563 8.01409 16.892C8.05572 16.8275 8.08149 16.7543 8.08938 16.6781C8.1141 16.4195 8.09585 16.1587 8.03532 15.9062C7.1144 16.0515 6.24058 16.4111 5.48456 16.9559L5.77053 17.6659H5.25268C5.17226 18.0781 5.21527 18.5048 5.37632 18.8928C5.82856 18.8208 6.28698 18.7949 6.74446 18.8158C6.25099 19.0197 5.83638 19.377 5.56186 19.8345C5.69409 20.3188 5.96228 20.7553 6.33481 21.0924C6.459 20.6974 6.6794 20.3395 6.97634 20.0506C7.22021 19.8876 7.47905 19.7479 7.74933 19.6337C7.84055 19.5903 7.91361 19.5165 7.95595 19.4247C7.99831 19.3332 8.00724 19.2296 7.98115 19.1322Z" fill="white"/>
<path d="M10.903 24.2259C10.9917 23.5997 11.0176 22.9663 10.9802 22.335C10.9568 21.7951 10.774 21.2743 10.4547 20.838C10.0591 20.3 9.58793 19.8216 9.05564 19.418C9.06531 19.54 9.03205 19.6614 8.96147 19.7616C8.89091 19.8616 8.78747 19.9339 8.66916 19.9659C8.24119 20.1929 7.83046 20.4507 7.44021 20.7375L7.64118 24.1796C7.64118 24.1796 7.42473 24.2335 7.27014 24.6041C7.19172 24.7405 7.165 24.9004 7.19479 25.0548C7.22458 25.2092 7.30892 25.3478 7.43246 25.4453C7.99335 25.1018 8.63741 24.9178 9.29529 24.9128C9.95546 24.9574 10.596 25.1557 11.1657 25.4916C11.2913 25.3079 11.3536 25.0885 11.3435 24.8665C11.3203 24.5655 11.1194 24.411 10.903 24.2259Z" fill="white"/>
<path d="M24.1744 35.13L21.5154 33.8489C21.5154 33.9029 21.5154 33.9878 21.5154 34.0264C21.5914 34.6024 21.638 35.1819 21.6547 35.7628L23.7802 37.2214C23.7128 36.8721 23.7128 36.5133 23.7802 36.1641C23.8286 35.7932 23.9637 35.439 24.1744 35.13Z" fill="white"/>
<path d="M9.25659 14.2163C9.82324 14.1806 10.3911 14.2638 10.9236 14.4605C11.4562 14.6572 11.9415 14.9632 12.3484 15.3584C12.4032 15.0627 12.376 14.7575 12.2697 14.4759C12.1634 14.1944 11.9822 13.9472 11.7455 13.761C10.9997 13.244 10.1009 12.9938 9.19484 13.051C8.3982 13.0272 7.61674 13.2719 6.9764 13.7455C6.7601 13.9319 6.60265 14.177 6.52308 14.4509C6.44351 14.7249 6.44526 15.016 6.52813 15.289C6.64407 14.8028 7.78028 14.2086 9.25659 14.2163Z" fill="white"/>
<path d="M7.43231 7.34802C7.8806 7.34802 8.29798 6.46824 9.34921 6.50684C10.0294 6.50684 10.4776 7.49465 11.0573 7.53323C11.5057 7.53323 11.7376 7.11652 12.1937 7.07022C12.6497 7.02391 12.7193 7.21685 12.9666 7.45609C13.1823 7.01923 13.5207 6.65453 13.9405 6.4065C14.6516 5.88172 17.0323 5.3801 18.099 4.46172C18.3326 4.21456 18.4979 3.91118 18.5793 3.58118C18.6604 3.25119 18.6548 2.90583 18.5627 2.57869C17.9118 3.28783 17.0053 3.70978 16.043 3.75173C15.2784 3.73616 14.5224 3.58729 13.8091 3.31182C13.9277 3.12956 14.0002 2.92128 14.0204 2.70485C14.0405 2.48843 14.0079 2.27034 13.925 2.06934C13.1557 2.35165 12.3408 2.49031 11.5212 2.47836C10.9492 2.47836 9.8129 2.23911 8.93951 2.28541C8.22525 2.27459 7.53322 2.5332 7.00162 3.00961C6.47002 3.48602 6.138 4.14514 6.07191 4.8553C6.01694 5.4937 6.17751 6.13212 6.52797 6.66889C6.69029 6.90041 7.11539 7.34802 7.43231 7.34802Z" fill="white"/>
<path d="M43.6759 22.6201L36.6652 29.5658C37.6769 30.1235 38.6254 30.7884 39.4943 31.5491L43.6759 22.6201Z" fill="white"/>
<path d="M9.36466 10.8043C13.5231 10.8892 15.3937 12.8031 15.4554 14.3774C15.6251 13.9163 15.6754 13.42 15.6024 12.9343C15.6024 12.5176 14.9531 11.3291 14.9221 10.9355C14.9246 10.5897 14.9793 10.2463 15.0845 9.9168C14.8217 9.9631 13.9019 10.3335 13.5386 10.0171C13.1753 9.70071 13.4072 8.83636 12.8507 8.62799C12.2941 8.41962 11.4362 9.0756 10.8796 8.99071C10.3231 8.90582 9.85162 8.15723 9.27964 8.15723C8.70768 8.15723 8.40623 8.85951 7.73376 9.02158C7.18497 9.14506 6.52797 8.81321 6.18788 8.83636C5.84777 8.85951 5.61589 9.14506 5.41493 9.48462C5.36361 9.63781 5.27063 9.77379 5.14644 9.87736C5.02225 9.98092 4.87167 10.048 4.71152 10.0711C4.37915 10.156 3.8922 9.86278 3.66032 9.9168C3.76936 10.1256 3.83515 10.3541 3.85374 10.5888C3.87234 10.8235 3.84336 11.0595 3.76854 11.2828C3.44213 11.8485 3.2024 12.4598 3.0574 13.0964C3.04518 13.5604 3.15161 14.0199 3.3666 14.4315C3.25066 12.2011 5.73955 10.7426 9.36466 10.8043Z" fill="white"/>
<path d="M13.299 17.3803C13.2449 17.2261 13.1368 16.8092 12.959 16.7322C12.7813 16.655 12.3407 16.4079 12.0856 16.3076C11.8305 16.2074 11.4827 15.8138 11.3127 15.8138C10.5437 15.8157 9.78555 15.633 9.10203 15.2812C8.95262 15.5058 8.89201 15.7778 8.932 16.0445C8.97197 16.311 9.10969 16.5533 9.31838 16.7245C9.80742 17.0563 10.3815 17.241 10.9725 17.257L11.158 21.162C11.3222 21.3273 11.519 21.4572 11.7357 21.5436C11.9525 21.6298 12.1846 21.6707 12.4179 21.6636V21.7948L11.73 22.2887C11.73 22.4971 11.8768 25.3292 12.0314 28.339V28.9411C12.2092 32.2673 12.3948 35.6165 12.4644 35.74C12.5339 35.8636 13.3686 38.3639 14.1802 40.8722L14.3503 41.3891C15.0769 43.6349 15.7416 45.7417 15.7726 46.0197C16.1806 44.3495 16.9747 42.798 18.0914 41.4896C18.9744 40.5753 20.1686 40.0245 21.4382 39.9461C20.9862 39.1017 20.5985 38.2246 20.2788 37.3222C20.2788 37.1137 19.8923 34.3587 19.7841 34.1735C19.7634 34.1309 19.7453 34.0871 19.7301 34.0423L19.6681 33.8957C19.3049 32.9773 18.1222 29.9135 16.8624 26.6722L16.5145 25.7924C14.9686 21.8411 13.4691 17.8975 13.3068 17.4575L13.299 17.3803Z" fill="white"/>
<path d="M27.0498 28.9559L20.0934 22.6895L25.0712 31.1785C25.4901 30.2548 26.1802 29.4797 27.0498 28.9559Z" fill="white"/>
<path d="M33.5272 28.1843L31.5331 16.9092L30.0645 27.8448C31.2298 27.712 32.4101 27.8276 33.5272 28.1843Z" fill="white"/>
<path d="M25.7744 32.6137C25.6237 33.2756 25.637 33.9644 25.813 34.6202C25.3569 34.9555 25.0471 35.4526 24.9474 36.0092C24.9003 36.2363 24.9072 36.4712 24.9677 36.695C25.0281 36.9189 25.1403 37.1254 25.2951 37.2982C25.3355 36.75 25.5433 36.2274 25.8904 35.801C26.2673 35.4199 26.7166 35.1182 27.212 34.9135L27.2893 35.855C26.841 36.1174 26.2846 36.6653 26.2459 36.9586V38.5021L27.4363 37.7842L27.6681 38.2628L27.2352 41.0179L27.9077 40.9022L29.129 41.4038L27.9464 42.3916V42.847C28.0215 42.7661 28.1142 42.7038 28.2175 42.6649C28.3207 42.626 28.4317 42.6117 28.5415 42.6232C29.0557 42.7352 29.556 42.9033 30.0333 43.1248L29.9947 43.364H27.9077C27.8227 43.6417 28.0701 43.8502 28.2247 43.966C28.4582 43.8753 28.6987 43.8031 28.9434 43.7499C29.0981 43.7499 29.4692 43.8425 29.7784 43.8811L29.3995 44.3904C29.3179 44.4393 29.2272 44.4713 29.133 44.4846C29.0388 44.4979 28.9427 44.492 28.8507 44.4676C28.6498 44.4213 28.4564 44.6991 28.4564 44.9229C28.4856 45.2045 28.5373 45.4832 28.6111 45.7564C28.6441 45.8828 28.7022 46.0016 28.7819 46.1053C28.8616 46.2091 28.9613 46.296 29.0751 46.3606C29.1889 46.4254 29.3145 46.4667 29.4446 46.4822C29.5747 46.4977 29.7065 46.4871 29.8323 46.451C30.665 46.2693 31.4837 46.0296 32.2827 45.7333L30.4739 48.2567L31.2468 50.9579C34.0311 49.8732 36.9188 49.0741 39.8652 48.5733C39.4401 47.871 39.3707 47.5932 38.8527 46.5513L36.8816 42.0212L37.1598 41.3498C37.4394 41.3872 37.7237 41.3607 37.9915 41.2726C38.2592 41.1844 38.5035 41.0366 38.7058 40.8404C39.1627 40.4509 39.5495 39.9863 39.8498 39.4666C39.7347 39.3869 39.5966 39.3476 39.4567 39.3545C39.3169 39.3615 39.1832 39.4146 39.0767 39.5053C38.8372 39.6597 38.6594 39.9607 38.3038 39.814C37.9483 39.6674 38.1184 39.2738 38.157 38.9188C38.1957 38.5638 37.7473 38.5638 37.4382 38.8339C37.2056 38.9566 36.9381 38.9969 36.6797 38.9478C36.4212 38.8986 36.1871 38.7633 36.016 38.5638C34.9904 37.6162 33.8948 36.7468 32.7387 35.9629C31.6416 35.3751 30.3797 35.1688 29.1521 35.3765C28.5261 35.4846 28.0856 35.7624 27.8536 35.6389L27.0807 34.435L27.2043 34.3578C27.4748 34.4736 27.7376 34.6974 28.0932 34.5816C28.9155 34.3434 29.7649 34.2112 30.6209 34.1879C32.1099 34.2236 33.5797 34.5323 34.957 35.0987C34.9957 36.1174 37.0595 37.4139 37.9948 37.5297C38.6024 37.6212 39.2222 37.4835 39.7339 37.1438L37.7164 35.3765L38.7831 34.026C38.7831 34.026 40.4835 35.6389 40.7154 35.9629C40.7724 35.7298 40.7724 35.4862 40.7154 35.2529C40.615 34.7437 39.3395 33.2157 37.1521 31.5641C35.4517 30.2676 32.9472 28.9941 30.8912 29.0097C27.4671 28.9557 26.0758 31.3712 25.7744 32.6137ZM28.6575 37.2441C29.1847 36.9478 29.7486 36.7221 30.3348 36.5727C31.5406 36.3179 32.8701 37.0358 33.8209 37.7766L33.6431 38.0622L32.2827 38.3786C31.8958 38.1286 31.4344 38.0196 30.9763 38.0699C30.6784 38.0867 30.3855 38.1546 30.1107 38.2704L30.3812 38.7027L29.7551 38.8571C29.4761 38.4639 29.0973 38.1523 28.6575 37.9541V37.2441ZM34.6092 31.1783C35.7624 31.7969 36.8702 32.4958 37.925 33.2697L36.9358 34.6511C35.951 34.0498 34.9166 33.5334 33.844 33.1076L34.6092 31.1783ZM30.8218 30.229C31.6384 30.2279 32.4455 30.4044 33.187 30.7461L32.8314 32.7989C32.2053 32.359 30.1107 32.4362 29.2449 32.6367L28.6111 30.8233C29.2778 30.4241 30.0447 30.2232 30.8218 30.2445V30.229ZM28.2942 32.8684C27.6849 33.2265 27.1172 33.651 26.6015 34.134C26.2459 32.9454 27.1967 31.7725 27.6295 31.3403L28.2942 32.8684Z" fill="white"/>
</g>
</g>
</g>
</svg>
