<svg width="288" height="108" viewBox="0 0 288 108" fill="none" xmlns="http://www.w3.org/2000/svg">
<path d="M2.352 95.278V98.54H5.908V99.59H2.352V102.95H6.328V104H1.078V94.228H6.328V95.278H2.352ZM11.1117 102.824L13.4917 96.328H14.8497L11.8397 104H10.3557L7.34573 96.328H8.71773L11.1117 102.824ZM19.4494 104.126C18.7307 104.126 18.0774 103.963 17.4894 103.636C16.9107 103.309 16.4534 102.847 16.1174 102.25C15.7907 101.643 15.6274 100.943 15.6274 100.15C15.6274 99.366 15.7954 98.6753 16.1314 98.078C16.4767 97.4713 16.9434 97.0093 17.5314 96.692C18.1194 96.3653 18.7774 96.202 19.5054 96.202C20.2334 96.202 20.8914 96.3653 21.4794 96.692C22.0674 97.0093 22.5294 97.4667 22.8654 98.064C23.2107 98.6613 23.3834 99.3567 23.3834 100.15C23.3834 100.943 23.2061 101.643 22.8514 102.25C22.5061 102.847 22.0347 103.309 21.4374 103.636C20.8401 103.963 20.1774 104.126 19.4494 104.126ZM19.4494 103.006C19.9067 103.006 20.3361 102.899 20.7374 102.684C21.1387 102.469 21.4607 102.147 21.7034 101.718C21.9554 101.289 22.0814 100.766 22.0814 100.15C22.0814 99.534 21.9601 99.0113 21.7174 98.582C21.4747 98.1527 21.1574 97.8353 20.7654 97.63C20.3734 97.4153 19.9487 97.308 19.4914 97.308C19.0247 97.308 18.5954 97.4153 18.2034 97.63C17.8207 97.8353 17.5127 98.1527 17.2794 98.582C17.0461 99.0113 16.9294 99.534 16.9294 100.15C16.9294 100.775 17.0414 101.303 17.2654 101.732C17.4987 102.161 17.8067 102.483 18.1894 102.698C18.5721 102.903 18.9921 103.006 19.4494 103.006ZM26.3325 93.64V104H25.0585V93.64H26.3325ZM31.3598 102.824L33.7398 96.328H35.0978L32.0878 104H30.6038L27.5938 96.328H28.9658L31.3598 102.824ZM37.0094 95.082C36.7668 95.082 36.5614 94.998 36.3934 94.83C36.2254 94.662 36.1414 94.4567 36.1414 94.214C36.1414 93.9713 36.2254 93.766 36.3934 93.598C36.5614 93.43 36.7668 93.346 37.0094 93.346C37.2428 93.346 37.4388 93.43 37.5974 93.598C37.7654 93.766 37.8494 93.9713 37.8494 94.214C37.8494 94.4567 37.7654 94.662 37.5974 94.83C37.4388 94.998 37.2428 95.082 37.0094 95.082ZM37.6254 96.328V104H36.3514V96.328H37.6254ZM43.5348 96.188C44.4681 96.188 45.2241 96.4727 45.8028 97.042C46.3814 97.602 46.6708 98.414 46.6708 99.478V104H45.4108V99.66C45.4108 98.8947 45.2194 98.3113 44.8368 97.91C44.4541 97.4993 43.9314 97.294 43.2688 97.294C42.5968 97.294 42.0601 97.504 41.6588 97.924C41.2668 98.344 41.0708 98.9553 41.0708 99.758V104H39.7968V96.328H41.0708V97.42C41.3228 97.028 41.6634 96.7247 42.0928 96.51C42.5314 96.2953 43.0121 96.188 43.5348 96.188ZM51.9158 96.202C52.5785 96.202 53.1572 96.3467 53.6518 96.636C54.1558 96.9253 54.5292 97.2893 54.7718 97.728V96.328H56.0598V104.168C56.0598 104.868 55.9105 105.489 55.6118 106.03C55.3132 106.581 54.8838 107.01 54.3238 107.318C53.7732 107.626 53.1292 107.78 52.3918 107.78C51.3838 107.78 50.5438 107.542 49.8718 107.066C49.1998 106.59 48.8032 105.941 48.6818 105.12H49.9418C50.0818 105.587 50.3712 105.96 50.8098 106.24C51.2485 106.529 51.7758 106.674 52.3918 106.674C53.0918 106.674 53.6612 106.455 54.0998 106.016C54.5478 105.577 54.7718 104.961 54.7718 104.168V102.558C54.5198 103.006 54.1465 103.379 53.6518 103.678C53.1572 103.977 52.5785 104.126 51.9158 104.126C51.2345 104.126 50.6138 103.958 50.0538 103.622C49.5032 103.286 49.0692 102.815 48.7518 102.208C48.4345 101.601 48.2758 100.911 48.2758 100.136C48.2758 99.352 48.4345 98.666 48.7518 98.078C49.0692 97.4807 49.5032 97.0187 50.0538 96.692C50.6138 96.3653 51.2345 96.202 51.9158 96.202ZM54.7718 100.15C54.7718 99.5713 54.6552 99.0673 54.4218 98.638C54.1885 98.2087 53.8712 97.882 53.4698 97.658C53.0778 97.4247 52.6438 97.308 52.1678 97.308C51.6918 97.308 51.2578 97.42 50.8658 97.644C50.4738 97.868 50.1612 98.1947 49.9278 98.624C49.6945 99.0533 49.5778 99.5573 49.5778 100.136C49.5778 100.724 49.6945 101.237 49.9278 101.676C50.1612 102.105 50.4738 102.437 50.8658 102.67C51.2578 102.894 51.6918 103.006 52.1678 103.006C52.6438 103.006 53.0778 102.894 53.4698 102.67C53.8712 102.437 54.1885 102.105 54.4218 101.676C54.6552 101.237 54.7718 100.729 54.7718 100.15ZM63.4992 97.378V101.9C63.4992 102.273 63.5785 102.539 63.7372 102.698C63.8959 102.847 64.1712 102.922 64.5632 102.922H65.5012V104H64.3532C63.6439 104 63.1119 103.837 62.7572 103.51C62.4025 103.183 62.2252 102.647 62.2252 101.9V97.378H61.2312V96.328H62.2252V94.396H63.4992V96.328H65.5012V97.378H63.4992ZM70.8528 96.188C71.4315 96.188 71.9541 96.314 72.4208 96.566C72.8875 96.8087 73.2515 97.1773 73.5128 97.672C73.7835 98.1667 73.9188 98.7687 73.9188 99.478V104H72.6588V99.66C72.6588 98.8947 72.4675 98.3113 72.0848 97.91C71.7021 97.4993 71.1795 97.294 70.5168 97.294C69.8448 97.294 69.3081 97.504 68.9068 97.924C68.5148 98.344 68.3188 98.9553 68.3188 99.758V104H67.0448V93.64H68.3188V97.42C68.5708 97.028 68.9161 96.7247 69.3548 96.51C69.8028 96.2953 70.3021 96.188 70.8528 96.188ZM82.9999 99.87C82.9999 100.113 82.9859 100.369 82.9579 100.64H76.8259C76.8725 101.396 77.1292 101.989 77.5959 102.418C78.0719 102.838 78.6459 103.048 79.3179 103.048C79.8685 103.048 80.3259 102.922 80.6899 102.67C81.0632 102.409 81.3245 102.063 81.4739 101.634H82.8459C82.6405 102.371 82.2299 102.973 81.6139 103.44C80.9979 103.897 80.2325 104.126 79.3179 104.126C78.5899 104.126 77.9365 103.963 77.3579 103.636C76.7885 103.309 76.3405 102.847 76.0139 102.25C75.6872 101.643 75.5239 100.943 75.5239 100.15C75.5239 99.3567 75.6825 98.6613 75.9999 98.064C76.3172 97.4667 76.7605 97.0093 77.3299 96.692C77.9085 96.3653 78.5712 96.202 79.3179 96.202C80.0459 96.202 80.6899 96.3607 81.2499 96.678C81.8099 96.9953 82.2392 97.434 82.5379 97.994C82.8459 98.5447 82.9999 99.17 82.9999 99.87ZM81.6839 99.604C81.6839 99.1187 81.5765 98.7033 81.3619 98.358C81.1472 98.0033 80.8532 97.7373 80.4799 97.56C80.1159 97.3733 79.7099 97.28 79.2619 97.28C78.6179 97.28 78.0672 97.4853 77.6099 97.896C77.1619 98.3067 76.9052 98.876 76.8399 99.604H81.6839ZM100.678 94.242L97.8499 104H96.4219L94.1539 96.146L91.8019 104L90.3879 104.014L87.6579 94.242H89.0159L91.1439 102.516L93.4959 94.242H94.9239L97.1639 102.488L99.3059 94.242H100.678ZM101.596 100.136C101.596 99.352 101.755 98.666 102.072 98.078C102.389 97.4807 102.823 97.0187 103.374 96.692C103.934 96.3653 104.555 96.202 105.236 96.202C105.908 96.202 106.491 96.3467 106.986 96.636C107.481 96.9253 107.849 97.2893 108.092 97.728V96.328H109.38V104H108.092V102.572C107.84 103.02 107.462 103.393 106.958 103.692C106.463 103.981 105.885 104.126 105.222 104.126C104.541 104.126 103.925 103.958 103.374 103.622C102.823 103.286 102.389 102.815 102.072 102.208C101.755 101.601 101.596 100.911 101.596 100.136ZM108.092 100.15C108.092 99.5713 107.975 99.0673 107.742 98.638C107.509 98.2087 107.191 97.882 106.79 97.658C106.398 97.4247 105.964 97.308 105.488 97.308C105.012 97.308 104.578 97.42 104.186 97.644C103.794 97.868 103.481 98.1947 103.248 98.624C103.015 99.0533 102.898 99.5573 102.898 100.136C102.898 100.724 103.015 101.237 103.248 101.676C103.481 102.105 103.794 102.437 104.186 102.67C104.578 102.894 105.012 103.006 105.488 103.006C105.964 103.006 106.398 102.894 106.79 102.67C107.191 102.437 107.509 102.105 107.742 101.676C107.975 101.237 108.092 100.729 108.092 100.15ZM118.141 96.328L113.521 107.612H112.205L113.717 103.916L110.623 96.328H112.037L114.445 102.544L116.825 96.328H118.141ZM129.762 96.328L125.142 107.612H123.826L125.338 103.916L122.244 96.328H123.658L126.066 102.544L128.446 96.328H129.762ZM134.389 104.126C133.67 104.126 133.017 103.963 132.429 103.636C131.85 103.309 131.393 102.847 131.057 102.25C130.73 101.643 130.567 100.943 130.567 100.15C130.567 99.366 130.735 98.6753 131.071 98.078C131.416 97.4713 131.883 97.0093 132.471 96.692C133.059 96.3653 133.717 96.202 134.445 96.202C135.173 96.202 135.831 96.3653 136.419 96.692C137.007 97.0093 137.469 97.4667 137.805 98.064C138.15 98.6613 138.323 99.3567 138.323 100.15C138.323 100.943 138.146 101.643 137.791 102.25C137.446 102.847 136.974 103.309 136.377 103.636C135.78 103.963 135.117 104.126 134.389 104.126ZM134.389 103.006C134.846 103.006 135.276 102.899 135.677 102.684C136.078 102.469 136.4 102.147 136.643 101.718C136.895 101.289 137.021 100.766 137.021 100.15C137.021 99.534 136.9 99.0113 136.657 98.582C136.414 98.1527 136.097 97.8353 135.705 97.63C135.313 97.4153 134.888 97.308 134.431 97.308C133.964 97.308 133.535 97.4153 133.143 97.63C132.76 97.8353 132.452 98.1527 132.219 98.582C131.986 99.0113 131.869 99.534 131.869 100.15C131.869 100.775 131.981 101.303 132.205 101.732C132.438 102.161 132.746 102.483 133.129 102.698C133.512 102.903 133.932 103.006 134.389 103.006ZM146.802 96.328V104H145.528V102.866C145.285 103.258 144.945 103.566 144.506 103.79C144.077 104.005 143.601 104.112 143.078 104.112C142.481 104.112 141.944 103.991 141.468 103.748C140.992 103.496 140.614 103.123 140.334 102.628C140.063 102.133 139.928 101.531 139.928 100.822V96.328H141.188V100.654C141.188 101.41 141.379 101.993 141.762 102.404C142.145 102.805 142.667 103.006 143.33 103.006C144.011 103.006 144.548 102.796 144.94 102.376C145.332 101.956 145.528 101.345 145.528 100.542V96.328H146.802ZM155.779 104.098C155.135 104.098 154.557 103.986 154.043 103.762C153.539 103.529 153.143 103.211 152.853 102.81C152.564 102.399 152.415 101.928 152.405 101.396H153.763C153.81 101.853 153.997 102.241 154.323 102.558C154.659 102.866 155.145 103.02 155.779 103.02C156.386 103.02 156.862 102.871 157.207 102.572C157.562 102.264 157.739 101.872 157.739 101.396C157.739 101.023 157.637 100.719 157.431 100.486C157.226 100.253 156.969 100.075 156.661 99.954C156.353 99.8327 155.938 99.702 155.415 99.562C154.771 99.394 154.253 99.226 153.861 99.058C153.479 98.89 153.147 98.6287 152.867 98.274C152.597 97.91 152.461 97.4247 152.461 96.818C152.461 96.286 152.597 95.8147 152.867 95.404C153.138 94.9933 153.516 94.676 154.001 94.452C154.496 94.228 155.061 94.116 155.695 94.116C156.61 94.116 157.357 94.3447 157.935 94.802C158.523 95.2593 158.855 95.866 158.929 96.622H157.529C157.483 96.2487 157.287 95.922 156.941 95.642C156.596 95.3527 156.139 95.208 155.569 95.208C155.037 95.208 154.603 95.348 154.267 95.628C153.931 95.8987 153.763 96.2813 153.763 96.776C153.763 97.1307 153.861 97.42 154.057 97.644C154.263 97.868 154.51 98.0407 154.799 98.162C155.098 98.274 155.513 98.4047 156.045 98.554C156.689 98.7313 157.207 98.9087 157.599 99.086C157.991 99.254 158.327 99.52 158.607 99.884C158.887 100.239 159.027 100.724 159.027 101.34C159.027 101.816 158.901 102.264 158.649 102.684C158.397 103.104 158.024 103.445 157.529 103.706C157.035 103.967 156.451 104.098 155.779 104.098ZM164.71 96.188C165.289 96.188 165.812 96.314 166.278 96.566C166.745 96.8087 167.109 97.1773 167.37 97.672C167.641 98.1667 167.776 98.7687 167.776 99.478V104H166.516V99.66C166.516 98.8947 166.325 98.3113 165.942 97.91C165.56 97.4993 165.037 97.294 164.374 97.294C163.702 97.294 163.166 97.504 162.764 97.924C162.372 98.344 162.176 98.9553 162.176 99.758V104H160.902V93.64H162.176V97.42C162.428 97.028 162.774 96.7247 163.212 96.51C163.66 96.2953 164.16 96.188 164.71 96.188ZM173.203 104.126C172.485 104.126 171.831 103.963 171.243 103.636C170.665 103.309 170.207 102.847 169.871 102.25C169.545 101.643 169.381 100.943 169.381 100.15C169.381 99.366 169.549 98.6753 169.885 98.078C170.231 97.4713 170.697 97.0093 171.285 96.692C171.873 96.3653 172.531 96.202 173.259 96.202C173.987 96.202 174.645 96.3653 175.233 96.692C175.821 97.0093 176.283 97.4667 176.619 98.064C176.965 98.6613 177.137 99.3567 177.137 100.15C177.137 100.943 176.96 101.643 176.605 102.25C176.26 102.847 175.789 103.309 175.191 103.636C174.594 103.963 173.931 104.126 173.203 104.126ZM173.203 103.006C173.661 103.006 174.09 102.899 174.491 102.684C174.893 102.469 175.215 102.147 175.457 101.718C175.709 101.289 175.835 100.766 175.835 100.15C175.835 99.534 175.714 99.0113 175.471 98.582C175.229 98.1527 174.911 97.8353 174.519 97.63C174.127 97.4153 173.703 97.308 173.245 97.308C172.779 97.308 172.349 97.4153 171.957 97.63C171.575 97.8353 171.267 98.1527 171.033 98.582C170.8 99.0113 170.683 99.534 170.683 100.15C170.683 100.775 170.795 101.303 171.019 101.732C171.253 102.161 171.561 102.483 171.943 102.698C172.326 102.903 172.746 103.006 173.203 103.006ZM180.086 97.742C180.338 97.3033 180.712 96.9393 181.206 96.65C181.71 96.3513 182.294 96.202 182.956 96.202C183.638 96.202 184.254 96.3653 184.804 96.692C185.364 97.0187 185.803 97.4807 186.12 98.078C186.438 98.666 186.596 99.352 186.596 100.136C186.596 100.911 186.438 101.601 186.12 102.208C185.803 102.815 185.364 103.286 184.804 103.622C184.254 103.958 183.638 104.126 182.956 104.126C182.303 104.126 181.724 103.981 181.22 103.692C180.726 103.393 180.348 103.025 180.086 102.586V107.64H178.812V96.328H180.086V97.742ZM185.294 100.136C185.294 99.5573 185.178 99.0533 184.944 98.624C184.711 98.1947 184.394 97.868 183.992 97.644C183.6 97.42 183.166 97.308 182.69 97.308C182.224 97.308 181.79 97.4247 181.388 97.658C180.996 97.882 180.679 98.2133 180.436 98.652C180.203 99.0813 180.086 99.5807 180.086 100.15C180.086 100.729 180.203 101.237 180.436 101.676C180.679 102.105 180.996 102.437 181.388 102.67C181.79 102.894 182.224 103.006 182.69 103.006C183.166 103.006 183.6 102.894 183.992 102.67C184.394 102.437 184.711 102.105 184.944 101.676C185.178 101.237 185.294 100.724 185.294 100.136ZM195.128 97.378H193.518V104H192.244V97.378H191.25V96.328H192.244V95.782C192.244 94.9233 192.463 94.298 192.902 93.906C193.35 93.5047 194.064 93.304 195.044 93.304V94.368C194.484 94.368 194.087 94.48 193.854 94.704C193.63 94.9187 193.518 95.278 193.518 95.782V96.328H195.128V97.378ZM199.959 104.126C199.24 104.126 198.587 103.963 197.999 103.636C197.42 103.309 196.963 102.847 196.627 102.25C196.3 101.643 196.137 100.943 196.137 100.15C196.137 99.366 196.305 98.6753 196.641 98.078C196.986 97.4713 197.453 97.0093 198.041 96.692C198.629 96.3653 199.287 96.202 200.015 96.202C200.743 96.202 201.401 96.3653 201.989 96.692C202.577 97.0093 203.039 97.4667 203.375 98.064C203.72 98.6613 203.893 99.3567 203.893 100.15C203.893 100.943 203.716 101.643 203.361 102.25C203.016 102.847 202.544 103.309 201.947 103.636C201.35 103.963 200.687 104.126 199.959 104.126ZM199.959 103.006C200.416 103.006 200.846 102.899 201.247 102.684C201.648 102.469 201.97 102.147 202.213 101.718C202.465 101.289 202.591 100.766 202.591 100.15C202.591 99.534 202.47 99.0113 202.227 98.582C201.984 98.1527 201.667 97.8353 201.275 97.63C200.883 97.4153 200.458 97.308 200.001 97.308C199.534 97.308 199.105 97.4153 198.713 97.63C198.33 97.8353 198.022 98.1527 197.789 98.582C197.556 99.0113 197.439 99.534 197.439 100.15C197.439 100.775 197.551 101.303 197.775 101.732C198.008 102.161 198.316 102.483 198.699 102.698C199.082 102.903 199.502 103.006 199.959 103.006ZM206.842 97.574C207.066 97.1353 207.384 96.7947 207.794 96.552C208.214 96.3093 208.723 96.188 209.32 96.188V97.504H208.984C207.556 97.504 206.842 98.2787 206.842 99.828V104H205.568V96.328H206.842V97.574ZM215.797 94.242V104H214.523V94.242H215.797ZM221.707 96.188C222.64 96.188 223.396 96.4727 223.975 97.042C224.553 97.602 224.843 98.414 224.843 99.478V104H223.583V99.66C223.583 98.8947 223.391 98.3113 223.009 97.91C222.626 97.4993 222.103 97.294 221.441 97.294C220.769 97.294 220.232 97.504 219.831 97.924C219.439 98.344 219.243 98.9553 219.243 99.758V104H217.969V96.328H219.243V97.42C219.495 97.028 219.835 96.7247 220.265 96.51C220.703 96.2953 221.184 96.188 221.707 96.188ZM229.64 104.126C229.052 104.126 228.524 104.028 228.058 103.832C227.591 103.627 227.222 103.347 226.952 102.992C226.681 102.628 226.532 102.213 226.504 101.746H227.82C227.857 102.129 228.034 102.441 228.352 102.684C228.678 102.927 229.103 103.048 229.626 103.048C230.111 103.048 230.494 102.941 230.774 102.726C231.054 102.511 231.194 102.241 231.194 101.914C231.194 101.578 231.044 101.331 230.746 101.172C230.447 101.004 229.985 100.841 229.36 100.682C228.79 100.533 228.324 100.383 227.96 100.234C227.605 100.075 227.297 99.8467 227.036 99.548C226.784 99.24 226.658 98.8387 226.658 98.344C226.658 97.952 226.774 97.5927 227.008 97.266C227.241 96.9393 227.572 96.6827 228.002 96.496C228.431 96.3 228.921 96.202 229.472 96.202C230.321 96.202 231.007 96.4167 231.53 96.846C232.052 97.2753 232.332 97.8633 232.37 98.61H231.096C231.068 98.2087 230.904 97.8867 230.606 97.644C230.316 97.4013 229.924 97.28 229.43 97.28C228.972 97.28 228.608 97.378 228.338 97.574C228.067 97.77 227.932 98.0267 227.932 98.344C227.932 98.596 228.011 98.806 228.17 98.974C228.338 99.1327 228.543 99.2633 228.786 99.366C229.038 99.4593 229.383 99.5667 229.822 99.688C230.372 99.8373 230.82 99.9867 231.166 100.136C231.511 100.276 231.805 100.491 232.048 100.78C232.3 101.069 232.43 101.447 232.44 101.914C232.44 102.334 232.323 102.712 232.09 103.048C231.856 103.384 231.525 103.65 231.096 103.846C230.676 104.033 230.19 104.126 229.64 104.126ZM241.042 96.328V104H239.768V102.866C239.525 103.258 239.185 103.566 238.746 103.79C238.317 104.005 237.841 104.112 237.318 104.112C236.721 104.112 236.184 103.991 235.708 103.748C235.232 103.496 234.854 103.123 234.574 102.628C234.303 102.133 234.168 101.531 234.168 100.822V96.328H235.428V100.654C235.428 101.41 235.619 101.993 236.002 102.404C236.385 102.805 236.907 103.006 237.57 103.006C238.251 103.006 238.788 102.796 239.18 102.376C239.572 101.956 239.768 101.345 239.768 100.542V96.328H241.042ZM244.467 97.574C244.691 97.1353 245.009 96.7947 245.419 96.552C245.839 96.3093 246.348 96.188 246.945 96.188V97.504H246.609C245.181 97.504 244.467 98.2787 244.467 99.828V104H243.193V96.328H244.467V97.574ZM247.94 100.136C247.94 99.352 248.099 98.666 248.416 98.078C248.733 97.4807 249.167 97.0187 249.718 96.692C250.278 96.3653 250.899 96.202 251.58 96.202C252.252 96.202 252.835 96.3467 253.33 96.636C253.825 96.9253 254.193 97.2893 254.436 97.728V96.328H255.724V104H254.436V102.572C254.184 103.02 253.806 103.393 253.302 103.692C252.807 103.981 252.229 104.126 251.566 104.126C250.885 104.126 250.269 103.958 249.718 103.622C249.167 103.286 248.733 102.815 248.416 102.208C248.099 101.601 247.94 100.911 247.94 100.136ZM254.436 100.15C254.436 99.5713 254.319 99.0673 254.086 98.638C253.853 98.2087 253.535 97.882 253.134 97.658C252.742 97.4247 252.308 97.308 251.832 97.308C251.356 97.308 250.922 97.42 250.53 97.644C250.138 97.868 249.825 98.1947 249.592 98.624C249.359 99.0533 249.242 99.5573 249.242 100.136C249.242 100.724 249.359 101.237 249.592 101.676C249.825 102.105 250.138 102.437 250.53 102.67C250.922 102.894 251.356 103.006 251.832 103.006C252.308 103.006 252.742 102.894 253.134 102.67C253.535 102.437 253.853 102.105 254.086 101.676C254.319 101.237 254.436 100.729 254.436 100.15ZM261.615 96.188C262.548 96.188 263.304 96.4727 263.883 97.042C264.461 97.602 264.751 98.414 264.751 99.478V104H263.491V99.66C263.491 98.8947 263.299 98.3113 262.917 97.91C262.534 97.4993 262.011 97.294 261.349 97.294C260.677 97.294 260.14 97.504 259.739 97.924C259.347 98.344 259.151 98.9553 259.151 99.758V104H257.877V96.328H259.151V97.42C259.403 97.028 259.743 96.7247 260.173 96.51C260.611 96.2953 261.092 96.188 261.615 96.188ZM266.356 100.15C266.356 99.3567 266.515 98.666 266.832 98.078C267.149 97.4807 267.588 97.0187 268.148 96.692C268.717 96.3653 269.366 96.202 270.094 96.202C271.037 96.202 271.811 96.4307 272.418 96.888C273.034 97.3453 273.44 97.98 273.636 98.792H272.264C272.133 98.3253 271.877 97.9567 271.494 97.686C271.121 97.4153 270.654 97.28 270.094 97.28C269.366 97.28 268.778 97.532 268.33 98.036C267.882 98.5307 267.658 99.2353 267.658 100.15C267.658 101.074 267.882 101.788 268.33 102.292C268.778 102.796 269.366 103.048 270.094 103.048C270.654 103.048 271.121 102.917 271.494 102.656C271.867 102.395 272.124 102.021 272.264 101.536H273.636C273.431 102.32 273.02 102.95 272.404 103.426C271.788 103.893 271.018 104.126 270.094 104.126C269.366 104.126 268.717 103.963 268.148 103.636C267.588 103.309 267.149 102.847 266.832 102.25C266.515 101.653 266.356 100.953 266.356 100.15ZM282.336 99.87C282.336 100.113 282.322 100.369 282.294 100.64H276.162C276.208 101.396 276.465 101.989 276.932 102.418C277.408 102.838 277.982 103.048 278.654 103.048C279.204 103.048 279.662 102.922 280.026 102.67C280.399 102.409 280.66 102.063 280.81 101.634H282.182C281.976 102.371 281.566 102.973 280.95 103.44C280.334 103.897 279.568 104.126 278.654 104.126C277.926 104.126 277.272 103.963 276.694 103.636C276.124 103.309 275.676 102.847 275.35 102.25C275.023 101.643 274.86 100.943 274.86 100.15C274.86 99.3567 275.018 98.6613 275.336 98.064C275.653 97.4667 276.096 97.0093 276.666 96.692C277.244 96.3653 277.907 96.202 278.654 96.202C279.382 96.202 280.026 96.3607 280.586 96.678C281.146 96.9953 281.575 97.434 281.874 97.994C282.182 98.5447 282.336 99.17 282.336 99.87ZM281.02 99.604C281.02 99.1187 280.912 98.7033 280.698 98.358C280.483 98.0033 280.189 97.7373 279.816 97.56C279.452 97.3733 279.046 97.28 278.598 97.28C277.954 97.28 277.403 97.4853 276.946 97.896C276.498 98.3067 276.241 98.876 276.176 99.604H281.02Z" fill="white"/>
<path d="M0 37.0555C0 32.3265 1.06633 28.0843 3.199 24.3289C5.33166 20.5272 8.2293 17.56 11.8919 15.4273C15.6009 13.2946 19.704 12.2283 24.2011 12.2283C29.4864 12.2283 34.0994 13.5032 38.0402 16.0532C41.981 18.6031 44.8555 22.2194 46.6636 26.9021H39.0834C37.7389 23.9812 35.7917 21.7326 33.2417 20.1563C30.7382 18.58 27.7246 17.7918 24.2011 17.7918C20.8167 17.7918 17.7799 18.58 15.0909 20.1563C12.4019 21.7326 10.2924 23.9812 8.76247 26.9021C7.23251 29.7765 6.46753 33.161 6.46753 37.0555C6.46753 40.9036 7.23251 44.2881 8.76247 47.2089C10.2924 50.0834 12.4019 52.3088 15.0909 53.8851C17.7799 55.4615 20.8167 56.2496 24.2011 56.2496C27.7246 56.2496 30.7382 55.4847 33.2417 53.9547C35.7917 52.3784 37.7389 50.1298 39.0834 47.2089H46.6636C44.8555 51.8452 41.981 55.4383 38.0402 57.9882C34.0994 60.4918 29.4864 61.7436 24.2011 61.7436C19.704 61.7436 15.6009 60.7005 11.8919 58.6141C8.2293 56.4814 5.33166 53.5374 3.199 49.782C1.06633 46.0267 0 41.7845 0 37.0555Z" fill="white"/>
<path d="M83.1364 12.8542V18.0004H69.9231V61.3264H63.5947V18.0004H50.3119V12.8542H83.1364Z" fill="white"/>
<path d="M124.863 26.9021C123.519 24.0739 121.572 21.8949 119.022 20.3649C116.472 18.7886 113.505 18.0004 110.12 18.0004C106.736 18.0004 103.676 18.7886 100.941 20.3649C98.2516 21.8949 96.1189 24.1203 94.5426 27.0411C93.0126 29.9156 92.2477 33.2537 92.2477 37.0555C92.2477 40.8572 93.0126 44.1953 94.5426 47.0698C96.1189 49.9443 98.2516 52.1697 100.941 53.7461C103.676 55.276 106.736 56.041 110.12 56.041C114.849 56.041 118.744 54.6269 121.804 51.7988C124.863 48.9707 126.648 45.1458 127.158 40.3241H107.825V35.1778H133.904V40.0459C133.533 44.0331 132.281 47.6957 130.149 51.0338C128.016 54.3256 125.211 56.9451 121.734 58.8923C118.257 60.7932 114.386 61.7436 110.12 61.7436C105.623 61.7436 101.52 60.7005 97.8111 58.6141C94.1021 56.4814 91.1581 53.5374 88.9791 49.782C86.8464 46.0267 85.7801 41.7845 85.7801 37.0555C85.7801 32.3265 86.8464 28.0843 88.9791 24.3289C91.1581 20.5272 94.1021 17.5832 97.8111 15.4968C101.52 13.3642 105.623 12.2978 110.12 12.2978C115.267 12.2978 119.81 13.5728 123.751 16.1227C127.738 18.6727 130.636 22.2658 132.444 26.9021H124.863Z" fill="white"/>
<path d="M164.02 27.5925C164.195 27.5925 164.37 27.6216 164.544 27.6798C164.719 27.738 164.923 27.8254 165.155 27.9418C165.738 28.2911 166.058 28.7859 166.116 29.4262C166.174 30.1247 165.854 31.4345 165.155 33.3555C164.748 34.3451 164.224 35.5967 163.584 37.1102C163.002 38.5655 162.245 40.341 161.313 42.4366C160.731 43.7173 160.266 44.8524 159.916 45.842C159.509 46.7734 159.334 47.2682 159.392 47.3264C159.392 47.3846 159.713 47.21 160.353 46.8025C160.993 46.395 161.721 45.9002 162.536 45.3181C167.251 42 170.918 39.4969 173.538 37.8087C176.099 36.1788 177.613 35.3638 178.078 35.3638C178.602 35.422 179.097 35.7131 179.563 36.237C180.028 36.7609 180.261 37.2848 180.261 37.8087C180.203 38.2744 179.446 39.0603 177.991 40.1663C176.536 41.3306 174.091 43.0769 170.656 45.4054C167.28 47.6175 164.602 49.5094 162.623 51.0811C160.702 52.711 159.334 54.079 158.519 55.185C157.704 56.4075 157.064 57.921 156.598 59.7256C156.074 61.5301 155.58 64.1788 155.114 67.6715C154.706 70.9314 154.328 73.289 153.979 74.7443C153.63 76.2578 153.164 77.6549 152.582 78.9356C151.883 80.4491 150.923 81.7006 149.7 82.6902C148.536 83.5634 147.459 84 146.469 84C146.411 84 146.324 84 146.208 84C145.975 84 145.655 83.8836 145.247 83.6507C144.84 83.4179 144.461 83.1559 144.112 82.8649C143.181 81.9335 142.715 80.4491 142.715 78.4116C142.715 76.8399 143.006 74.9771 143.588 72.8233C144.869 67.7006 147.692 60.5696 152.058 51.4304C152.698 50.0915 153.251 48.8981 153.717 47.8503C154.183 46.8025 154.415 46.2204 154.415 46.104C154.415 45.9293 154.241 45.9584 153.891 46.1913C153.6 46.3659 153.222 46.657 152.756 47.0644C150.777 48.6944 148.943 49.5676 147.255 49.684C145.625 49.7422 144.49 49.0146 143.85 47.501C143.093 45.7547 143.297 43.4553 144.461 40.6029C145.684 37.7505 147.517 35.1892 149.962 32.9189C151.592 31.4636 153.135 30.5613 154.59 30.2121C156.103 29.8628 157.326 30.1247 158.257 30.9979C158.548 31.2308 158.81 31.4345 159.043 31.6091C159.218 31.7256 159.334 31.8129 159.392 31.8711C159.451 31.8711 159.654 31.6674 160.004 31.2599C160.295 30.8524 160.615 30.3867 160.964 29.8628C161.488 29.0478 161.983 28.4657 162.449 28.1164C162.914 27.7672 163.38 27.5925 163.846 27.5925C163.904 27.5925 163.933 27.5925 163.933 27.5925C163.991 27.5925 164.02 27.5925 164.02 27.5925ZM149.962 40.1663C149.264 41.3888 148.769 42.3784 148.478 43.1351C148.129 43.9501 148.099 44.3867 148.39 44.4449C148.449 44.4449 148.74 44.2412 149.264 43.8337C149.729 43.4262 150.282 42.9605 150.923 42.4366C152.553 40.9231 153.659 39.7879 154.241 39.0312C154.765 38.2744 155.056 37.4304 155.114 36.499C155.114 36.0915 155.114 35.7422 155.114 35.4511C155.056 35.1019 154.968 34.9272 154.852 34.9272C154.561 34.9272 153.833 35.5385 152.669 36.7609C151.447 37.9834 150.544 39.1185 149.962 40.1663ZM147.692 76.4906C147.634 76.8981 147.605 77.4511 147.605 78.1497C147.779 77.8586 148.041 77.3929 148.39 76.7526C148.623 76.3451 148.856 75.7048 149.089 74.8316C149.38 73.9584 149.613 73.1143 149.788 72.2994C150.137 70.7277 150.37 69.5634 150.486 68.8067C150.544 67.9917 150.515 67.5842 150.399 67.5842C150.108 67.8753 149.584 69.2141 148.827 71.6008C148.07 73.9875 147.692 75.6175 147.692 76.4906Z" fill="white"/>
<path d="M185.591 56.2328C185.009 56 184.456 55.5052 183.932 54.7484C183.408 53.9917 183.059 53.2349 182.884 52.4782C182.826 52.1289 182.826 51.5759 182.884 50.8191C182.884 50.0042 182.943 49.2765 183.059 48.6362C183.175 47.9376 183.263 47.3264 183.321 46.8025C183.379 46.2786 183.379 45.9875 183.321 45.9293C183.321 45.9293 183.088 46.0748 182.622 46.3659C182.157 46.7152 181.633 47.1227 181.051 47.5884C179.945 48.4615 178.868 49.131 177.82 49.5967C176.714 50.0042 175.782 50.0915 175.026 49.8586C174.735 49.8004 174.415 49.6549 174.065 49.422C173.658 49.131 173.308 48.8399 173.017 48.5489C172.494 47.9667 172.115 47.1809 171.882 46.1913C171.766 45.6091 171.708 44.9688 171.708 44.2703C171.708 43.7464 171.737 43.2225 171.795 42.6985C171.853 42.1164 172.057 40.9813 172.406 39.2931C172.814 37.5468 173.105 36.3534 173.279 35.7131C173.512 34.8981 173.716 34.1996 173.891 33.6175C174.123 33.0936 174.385 32.6861 174.676 32.395C174.968 32.1622 175.288 32.0166 175.637 31.9584C175.928 31.9002 176.335 31.9293 176.859 32.0457C177.209 32.1622 177.5 32.3077 177.733 32.4823C177.965 32.7152 178.111 33.0062 178.169 33.3555C178.227 33.7048 178.227 34.1414 178.169 34.6653C178.111 35.1892 177.965 35.8586 177.733 36.6736C177.616 37.1393 177.383 38.1289 177.034 39.6424C176.685 41.1559 176.481 42.0873 176.423 42.4366C176.306 43.1351 176.277 43.7173 176.335 44.183C176.394 44.5904 176.51 44.8524 176.685 44.9688C177.034 45.2017 178.14 44.2412 180.003 42.0873C181.866 39.9917 183.466 37.8378 184.805 35.6258C186.202 33.3555 187.25 31.9584 187.949 31.4345C188.24 31.2017 188.56 31.0852 188.909 31.0852C189.317 31.0852 189.753 31.2308 190.219 31.5218C190.452 31.6965 190.685 31.9293 190.917 32.2204C191.15 32.5114 191.296 32.7734 191.354 33.0062C191.412 33.2391 191.296 34.0541 191.005 35.4511C190.714 36.79 190.335 38.3035 189.87 39.9917C189.346 41.6798 188.909 43.368 188.56 45.0561C188.152 46.7443 187.92 47.9085 187.861 48.5489C187.803 49.131 187.745 49.9751 187.687 51.0811C187.978 50.7318 188.443 50.2079 189.084 49.5094C189.491 49.1019 190.161 48.2287 191.092 46.8898C192.024 45.6091 192.955 44.2703 193.886 42.8732C194.759 41.4179 195.604 40.1372 196.418 39.0312C197.175 37.8669 197.641 37.1975 197.816 37.0229C198.456 36.3243 199.213 36.1788 200.086 36.5863C201.017 36.9938 201.483 37.7214 201.483 38.7692C201.483 39.0603 201.075 39.8753 200.26 41.2141C199.504 42.6112 198.631 44.0956 197.641 45.6674C197.117 46.5405 196.593 47.3555 196.069 48.1123C195.487 48.9272 194.963 49.6258 194.497 50.2079C192.693 52.5946 191.034 54.3119 189.52 55.3597C188.473 56.0582 187.512 56.4075 186.639 56.4075C186.29 56.4075 185.94 56.3493 185.591 56.2328Z" fill="white"/>
<path d="M206.725 39.7297C206.493 40.4865 206.376 40.9813 206.376 41.2141C206.434 41.447 206.58 41.5925 206.813 41.6507C207.278 41.7672 208.384 41.4761 210.131 40.7775C211.877 40.079 213.449 39.2058 214.846 38.158C216.243 37.052 217.378 36.4116 218.251 36.237C219.066 36.0042 219.677 36.237 220.085 36.9356C220.318 37.2848 220.434 37.5759 220.434 37.8087C220.434 38.0998 220.347 38.4491 220.172 38.8566C219.998 39.264 219.648 39.7006 219.124 40.1663C218.601 40.6902 217.96 41.2432 217.203 41.8254C215.806 42.815 214.147 43.7755 212.226 44.7069C210.364 45.58 208.617 46.1331 206.987 46.3659C206.289 46.4241 205.241 46.5405 203.844 46.7152C203.553 47.1227 203.058 47.7048 202.36 48.4615C200.962 50.2079 199.653 51.3721 198.43 51.9543C197.732 52.2453 197.062 52.3909 196.422 52.3909C195.84 52.3909 195.258 52.2744 194.676 52.0416C193.162 51.343 192.26 49.7713 191.969 47.3264C191.969 46.8607 191.969 46.395 191.969 45.9293C191.969 43.7173 192.434 41.0977 193.366 38.0707C193.657 37.1393 193.948 36.2952 194.239 35.5385C194.588 34.8399 194.879 34.4033 195.112 34.2287C195.287 34.1123 195.607 33.7921 196.073 33.2682C196.538 32.7443 196.975 32.1913 197.382 31.6091C197.848 30.9688 198.343 30.4158 198.867 29.9501C199.391 29.4844 199.827 29.1933 200.177 29.0769C200.409 28.9605 200.642 28.8732 200.875 28.815C201.108 28.7568 201.341 28.7277 201.574 28.7277C201.807 28.6694 202.01 28.6403 202.185 28.6403C204.048 28.6403 205.474 29.6299 206.463 31.6091C207.569 33.8212 207.657 36.5281 206.725 39.7297ZM200.264 37.8087C200.497 39.3222 200.817 40.1081 201.224 40.1663C201.632 40.2245 201.981 39.5551 202.272 38.158C202.563 36.9938 202.651 35.9459 202.534 35.0146C202.418 34.0249 202.156 33.5593 201.748 33.6175C201.341 33.6757 200.962 34.1996 200.613 35.1892C200.264 36.1206 200.148 36.9938 200.264 37.8087ZM196.597 46.0166C196.538 46.8898 196.655 47.3555 196.946 47.4137C197.179 47.4137 197.615 47.0353 198.256 46.2786C198.721 45.7547 198.954 45.4054 198.954 45.2308C198.954 45.0561 198.78 44.736 198.43 44.2703C198.139 43.921 197.877 43.659 197.644 43.4844C197.412 43.2516 197.237 43.1642 197.121 43.2225C196.946 43.2807 196.829 43.5426 196.771 44.0083C196.655 44.474 196.597 45.1435 196.597 46.0166Z" fill="white"/>
<path d="M215.373 62.5198C215.082 62.4615 214.704 62.2869 214.238 61.9958C213.772 61.763 213.365 61.4428 213.016 61.0353C212.259 60.2786 211.706 59.2017 211.357 57.8046C211.124 56.8732 211.007 55.8836 211.007 54.8358C211.007 54.2536 211.037 53.6715 211.095 53.0894C211.211 52.0416 211.473 50.6736 211.881 48.9855C212.23 47.2973 212.696 45.4345 213.278 43.3971C214.326 39.6715 215.606 35.5967 217.12 31.1726C218.633 26.8067 220.147 22.9064 221.66 19.4719C222.184 18.2495 222.592 17.2017 222.883 16.3285C223.174 15.4553 223.29 14.9896 223.232 14.9314C223.174 14.8732 222.883 14.8732 222.359 14.9314C221.835 14.9896 221.194 15.0769 220.438 15.1933C219.739 15.3098 218.953 15.4262 218.08 15.5426C217.207 15.7173 216.479 15.8337 215.897 15.8919C215.024 15.9501 214.442 15.9501 214.151 15.8919C213.918 15.7755 213.627 15.4844 213.278 15.0187C212.987 14.553 212.841 14.2037 212.841 13.9709C212.783 13.738 212.899 13.4179 213.19 13.0104C213.54 12.3701 214.18 11.8753 215.111 11.526C216.043 11.2349 217.789 10.8857 220.35 10.4782C221.456 10.3035 222.475 10.1289 223.407 9.95426C224.338 9.77963 224.92 9.69231 225.153 9.69231C225.444 9.6341 225.822 9.22661 226.288 8.46985C226.754 7.7131 227.394 6.49064 228.209 4.8025C229.257 2.64865 229.955 1.30977 230.305 0.785863C230.654 0.320166 231.12 0.0582121 231.702 0C231.818 0 231.905 0 231.964 0C232.546 0 233.041 0.174636 233.448 0.523909C233.914 0.873181 234.147 1.39709 234.147 2.09563C234.147 2.32848 234.03 2.76507 233.797 3.40541C233.564 3.98753 233.302 4.59875 233.011 5.23909C232.72 5.82121 232.429 6.40333 232.138 6.98545C231.905 7.56757 231.731 8.00416 231.614 8.29522C231.556 8.46985 231.469 8.73181 231.352 9.08108C232.458 9.08108 234.117 9.08108 236.329 9.08108C239.007 9.08108 240.695 9.22661 241.394 9.51767C242.151 9.80873 242.529 10.4782 242.529 11.526C242.529 12.3992 242.122 12.9813 241.307 13.2723C240.55 13.5634 238.978 13.7089 236.591 13.7089C235.427 13.7089 234.263 13.738 233.099 13.7963C231.935 13.8545 231.12 13.9127 230.654 13.9709C230.305 14.0291 229.752 14.1164 228.995 14.2328C228.529 15.2807 227.86 16.8233 226.987 18.8607C226.579 19.7339 226.084 20.9272 225.502 22.4408C224.92 23.9543 224.28 25.6133 223.581 27.4179C222.359 30.736 221.107 34.1705 219.826 37.7214C218.546 41.2724 217.673 43.9792 217.207 45.842C216.916 47.0062 216.654 48.2869 216.421 49.684C216.188 51.0229 216.043 52.3035 215.985 53.526C215.926 55.2724 215.897 56.3784 215.897 56.8441C215.955 57.3098 216.159 57.6008 216.508 57.7173C217.556 58.1247 219.943 56.6985 223.668 53.4387C227.336 50.1788 231.149 46.0748 235.107 41.1268C236.853 39.0312 238.047 37.6632 238.687 37.0229C239.269 36.3825 239.793 36.0624 240.259 36.0624C240.899 36.0624 241.452 36.2952 241.918 36.7609C242.383 37.2266 242.616 37.7505 242.616 38.3326C242.616 38.5655 242.383 39.0312 241.918 39.7297C241.51 40.4283 240.928 41.2724 240.171 42.262C238.774 44.0665 237.028 46.1622 234.932 48.5489C232.779 50.9356 230.712 53.0894 228.733 55.0104C225.764 57.9792 223.261 60.0166 221.224 61.1227C219.535 62.0541 217.906 62.5198 216.334 62.5198C215.985 62.5198 215.664 62.5198 215.373 62.5198Z" fill="white"/>
<path d="M247.248 30.0374C248.179 30.3867 248.878 30.9106 249.343 31.6091C249.809 32.3077 250.042 33.2391 250.042 34.4033C250.042 36.5572 249.227 38.5946 247.597 40.5156C246.025 42.4948 243.755 44.2121 240.786 45.6674C240.029 46.0748 238.865 46.657 237.293 47.4137C237.061 48.1705 237.031 48.8399 237.206 49.422C237.381 50.0624 237.643 50.5863 237.992 50.9938C238.225 51.343 238.603 51.5468 239.127 51.605C239.593 51.7214 240.262 51.7505 241.135 51.6923C243.231 51.5177 245.763 50.499 248.732 48.6362C251.701 46.7734 255.019 44.0956 258.686 40.6029C259.734 39.5551 260.694 38.6528 261.568 37.896C262.441 37.1393 262.965 36.7318 263.139 36.6736C263.721 36.499 264.304 36.6445 264.886 37.1102C265.41 37.6341 265.672 38.2453 265.672 38.9439C265.672 39.4678 265.439 40.0208 264.973 40.6029C264.507 41.185 263.43 42.2911 261.742 43.921C257.202 48.4615 252.836 51.8378 248.645 54.0499C245.385 55.7963 242.591 56.6694 240.262 56.6694C239.622 56.6694 238.982 56.5821 238.341 56.4075C236.129 55.8254 234.528 54.5447 233.539 52.5655C232.898 51.2848 232.578 49.8295 232.578 48.1996C232.578 47.2682 232.666 46.2786 232.84 45.2308C233.655 41.2724 235.402 37.7505 238.079 34.6653C240.757 31.5218 243.318 29.921 245.763 29.8628C245.821 29.8628 245.851 29.8628 245.851 29.8628C246.083 29.8628 246.316 29.8628 246.549 29.8628C246.782 29.921 247.015 29.9792 247.248 30.0374ZM240.262 39.2931C239.68 40.2827 239.389 40.8649 239.389 41.0395C239.447 41.2141 239.855 41.0977 240.612 40.6902C241.892 40.0499 243.144 38.8857 244.366 37.1975C245.647 35.5094 245.88 34.6653 245.065 34.6653C244.774 34.6653 244.017 35.2474 242.794 36.4116C241.63 37.5759 240.786 38.5364 240.262 39.2931Z" fill="white"/>
<path d="M272.398 26.9813C272.806 27.6798 272.835 28.3202 272.486 28.9023C272.078 29.4844 270.856 30.6486 268.818 32.395C266.141 34.6653 264.424 36.6736 263.667 38.42C262.91 40.2245 262.997 41.9709 263.929 43.659C264.22 44.1247 264.54 44.5613 264.889 44.9688C265.238 45.4345 265.53 45.7256 265.762 45.842C266.286 46.1331 266.752 46.1622 267.159 45.9293C267.625 45.7547 269.488 44.6195 272.748 42.5239C275.775 40.6029 278.394 39.0894 280.606 37.9834C282.818 36.8773 284.303 36.3534 285.06 36.4116C285.758 36.5281 286.311 36.8773 286.719 37.4595C286.951 37.8669 287.068 38.2453 287.068 38.5946C287.068 38.8274 287.01 39.0603 286.893 39.2931C286.777 39.526 286.34 39.9044 285.583 40.4283C284.827 40.9522 283.953 41.447 282.964 41.9127C281.509 42.6694 279.704 43.7173 277.55 45.0561C275.455 46.3368 273.039 47.8503 270.303 49.5967C269.954 49.8295 269.779 50.0915 269.779 50.3825C269.721 50.6736 269.866 51.2266 270.216 52.0416C270.565 53.0312 270.623 54.2827 270.39 55.7963C270.216 57.3098 269.808 58.5031 269.168 59.3763C268.586 60.2495 267.771 61.0936 266.723 61.9085C265.617 62.7817 264.627 63.3929 263.754 63.7422C263.114 63.9751 262.444 64.0915 261.746 64.0915C261.397 64.0915 261.047 64.0624 260.698 64.0042C259.592 63.8295 258.777 63.4803 258.253 62.9563C257.322 62.0832 256.856 61.0062 256.856 59.7256C256.856 59.2599 256.943 58.736 257.118 58.1538C257.584 56.1746 258.864 54.0208 260.96 51.6923C261.367 51.2266 261.717 50.79 262.008 50.3825C262.299 50.0333 262.444 49.8295 262.444 49.7713C262.503 49.7131 262.386 49.4511 262.095 48.9855C261.804 48.578 261.455 48.1123 261.047 47.5884C259.941 46.1331 259.214 44.8233 258.864 43.659C258.457 42.4366 258.34 41.1559 258.515 39.8171C258.748 37.896 259.592 35.9168 261.047 33.8794C262.503 31.842 264.627 29.7464 267.421 27.5925C268.236 26.9522 268.935 26.4574 269.517 26.1081C269.983 25.817 270.419 25.6715 270.827 25.6715C270.827 25.6715 270.856 25.6715 270.914 25.6715C271.205 25.7297 271.467 25.8753 271.7 26.1081C271.933 26.2827 272.166 26.5738 272.398 26.9813ZM261.833 58.6778C261.833 59.027 261.862 59.2599 261.92 59.3763C261.979 59.4345 262.153 59.4054 262.444 59.289C262.677 59.2308 262.939 59.0852 263.23 58.8524C263.579 58.6195 263.871 58.3867 264.103 58.1538C264.918 57.5135 265.471 56.6403 265.762 55.5343C266.112 54.4283 266.024 53.8462 265.5 53.7879C265.209 53.7879 264.54 54.4865 263.492 55.8836C262.444 57.2807 261.891 58.2121 261.833 58.6778Z" fill="white"/>
</svg>
