<svg width="315" height="43" viewBox="0 0 315 43" fill="none" xmlns="http://www.w3.org/2000/svg">
<g clip-path="url(#clip0_3_3962)">
<path fill-rule="evenodd" clip-rule="evenodd" d="M49.4557 39.9162C45.5932 39.9162 42.0093 38.9119 39.3557 37.0634C37.0562 35.4671 35.7499 33.4029 35.7499 31.2465C35.7573 28.3547 38.0327 26.3996 39.3607 25.4828C42.0141 23.6633 45.6175 22.6687 49.497 22.6639C53.3911 22.6712 57.0017 23.6609 59.6892 25.4876C61.0291 26.4044 63.3167 28.3645 63.3238 31.2465C63.2828 36.0663 56.8952 39.9064 49.4557 39.9162ZM33.1886 28.4808C32.4569 26.4336 30.9352 24.607 28.8607 23.1588C31.7176 23.6662 34.6417 23.6621 37.4972 23.1466C35.4253 24.5948 33.9059 26.4214 33.1886 28.4808ZM16.7495 39.9162C12.882 39.9162 9.298 38.9119 6.6446 37.0634C4.3498 35.4671 3.04367 33.4029 3.04367 31.2465C3.0558 28.3547 5.32151 26.3949 6.64701 25.4828C9.30776 23.6633 12.9063 22.6687 16.7882 22.6639C20.6799 22.6712 24.2953 23.6609 26.9731 25.4876C28.313 26.4044 30.6104 28.3597 30.6223 31.2465C30.5789 36.0663 24.1863 39.9064 16.7495 39.9162ZM19.4247 11.9079C19.4344 9.0139 21.7026 7.05876 23.0305 6.1491C25.6887 4.3152 29.2921 3.33033 33.1693 3.33033C37.061 3.33033 40.6765 4.32246 43.354 6.1491C44.6942 7.066 46.9889 9.02604 46.9987 11.9079C46.9551 16.7328 40.5675 20.5728 33.128 20.5825C29.2654 20.5825 25.679 19.5807 23.0305 17.7347C20.7284 16.1337 19.4247 14.0693 19.4247 11.9079ZM49.497 19.7117C47.9824 19.7117 46.5188 19.8499 45.1278 20.1047C48.1666 18.0015 50.0397 15.1076 50.0397 11.9128C50.0397 5.48683 42.5133 0.373291 33.1693 0.373291C23.8277 0.373291 16.3811 5.48683 16.3811 11.9128C16.3811 15.1148 18.2179 18.0063 21.2252 20.1119C19.7613 19.8447 18.2762 19.7107 16.7882 19.7117C7.44425 19.7141 -0.00231934 24.8254 -0.00231934 31.2465C-0.00231934 37.6625 7.40549 42.8756 16.7495 42.8756C24.7025 42.8756 31.3688 39.1035 33.1814 34.0214C34.9505 39.1035 41.5027 42.8756 49.4557 42.8756C58.7998 42.8756 66.37 37.6625 66.37 31.2465C66.37 24.8254 58.836 19.7117 49.497 19.7117ZM58.034 26.5038C55.887 25.2475 52.8871 24.4565 49.5333 24.4565C46.1845 24.4565 43.1965 25.2475 41.0715 26.499C38.939 27.7532 37.691 29.4366 37.691 31.2536C37.691 33.0632 38.9366 34.771 41.0641 36.0445C43.182 37.3059 46.1602 38.1114 49.5089 38.1186C52.863 38.1114 55.87 37.3059 58.0218 36.0374C60.1786 34.771 61.4484 33.0632 61.4508 31.2536C61.4508 29.4488 60.1834 27.7606 58.034 26.5038ZM25.238 26.5038C23.0935 25.2475 20.0935 24.4565 16.7422 24.4565C13.3884 24.4565 10.4055 25.2475 8.27788 26.499C6.14542 27.7532 4.89502 29.4366 4.89017 31.2465C4.89502 33.0632 6.14058 34.771 8.26573 36.0445C10.3861 37.3059 13.3642 38.1114 16.7156 38.1186C20.0693 38.1114 23.0765 37.3059 25.226 36.0374C27.3826 34.771 28.6524 33.0632 28.6571 31.2536C28.6524 29.4488 27.385 27.7606 25.238 26.5038ZM24.7025 16.7158C26.8204 17.9821 29.7985 18.7899 33.1523 18.7899C36.4963 18.7899 39.506 17.9821 41.6578 16.7158C43.8144 15.4471 45.0868 13.7345 45.0939 11.9297C45.0868 10.1201 43.8241 8.4269 41.6748 7.16794C39.5327 5.91379 36.5302 5.123 33.1764 5.11813C29.8253 5.123 26.8421 5.91379 24.7146 7.16794C22.5822 8.4269 21.3318 10.1153 21.3269 11.9225C21.3318 13.7418 22.5773 15.4471 24.7025 16.7158ZM100.356 4.24723L98.9406 11.3257L98.6256 11.4203C98.0633 10.6538 97.7237 10.353 96.9386 9.76353C95.1944 8.46326 93.1271 7.72586 91.019 7.72586C89.3636 7.72586 87.9903 8.228 87.035 9.06003C86.0759 9.8921 85.5278 11.0734 85.5278 12.3931C85.5349 14.8916 87.2973 16.1094 90.4301 17.9311L91.649 18.6007C94.2738 20.2696 98.349 22.8288 98.349 28.6361C98.3397 35.2369 93.98 41.8567 83.5165 41.8737C80.961 41.8751 78.4255 41.4284 76.0241 40.554C74.3956 39.9501 73.6105 39.4236 72.6218 38.7153L72.5395 38.2617L73.9279 31.3556L74.2405 31.2584C74.8705 32.0467 75.6606 32.6898 76.8407 33.449C78.6173 34.6083 80.6887 35.2347 82.8092 35.2538C86.5043 35.2514 89.4078 33.2039 89.4078 30.0286C89.4054 27.1856 87.0863 25.7616 84.6656 24.3765L82.9913 23.377C80.3546 21.7032 76.7025 19.4303 76.6903 13.7321C76.6903 11.5416 77.3399 8.39537 79.3411 5.82163C81.9802 2.43273 86.1263 1.21499 90.3086 1.21499C95.6889 1.21499 98.7664 3.06349 100.207 3.95856L100.356 4.24723ZM117.876 17.6521L117.553 17.9602L112.891 17.8438L110.734 27.7119C110.429 28.9491 109.766 32.0348 109.766 33.0293C109.766 33.9607 110.124 34.594 110.625 34.9698C111.132 35.3484 111.752 35.4745 112.309 35.4769C113.609 35.4769 114.064 35.1253 114.927 34.8049L115.08 34.9433L113.935 40.6269L113.541 40.9981C111.951 41.328 110.756 41.5946 109.069 41.5946C104.742 41.5705 101.601 40.1587 101.584 35.2538C101.584 32.9564 102.544 28.7768 103.251 25.672L104.972 17.8365L101.308 17.9602L101.087 17.6521L102.161 12.1311L102.493 11.954H106.212L107.703 4.68633L107.994 4.36856C111.716 3.44189 112.792 3.00042 116.194 1.91606L116.369 2.11015L115.242 6.7919L114.083 12.0656L118.855 11.9249L118.986 12.1675L117.876 17.6521ZM134.184 32.583C134.184 32.583 132.568 35.0476 130.234 35.9306C127.899 36.8064 126.216 36.1124 125.548 35.2369C125.019 34.5503 123.915 32.3864 126.02 29.9486C128.147 27.4911 135.204 27.3335 135.204 27.3335L134.184 32.583ZM141.141 13.1888C139.433 12.0195 136.702 11.4179 132.955 11.4179C131.097 11.4179 129.233 11.5901 127.365 11.937C126.149 12.1513 124.944 12.4241 123.755 12.7545L123.514 12.9947L122.3 19.0349L122.691 19.2653C123.474 18.9184 124.619 18.489 126.131 17.9699C127.68 17.4411 129.1 17.1767 130.385 17.1767C132.264 17.1767 133.687 17.4242 134.673 17.9408C135.674 18.4648 136.387 19.6146 136.387 20.8809C136.387 21.1915 136.363 21.4631 136.319 21.7129C136.281 21.878 136.25 22.0448 136.227 22.2127L136.21 22.3437C136.21 22.3437 135.604 22.3849 134.954 22.4407C134.531 22.4795 133.983 22.5377 133.357 22.6105C132.331 22.7148 131.148 22.8579 130.118 23.0277C127.638 23.4256 120.679 24.4759 118.59 29.0002C116.4 32.7068 116.773 37.6212 118.925 40.0132C119.676 40.8598 120.839 41.6553 122.405 41.9635L122.4 41.9683C122.468 41.9926 122.71 42.0191 122.761 42.0313C128.785 42.9338 133.103 37.847 133.103 37.847L132.457 40.9836L132.72 41.2019L139.486 40.9836L139.767 40.7432L143.741 21.3491C143.828 20.9416 143.899 20.4564 143.952 19.9058C143.993 19.3478 144.025 18.8966 144.025 18.5643C144.018 16.0827 142.864 14.3604 141.141 13.1888ZM303.545 18.3338C303.545 20.0901 303.14 21.9119 302.734 23.6876L299.283 40.7748L299.019 40.9836L291.244 41.2504L291.048 40.9836C291.048 40.9836 295.036 22.1035 295.036 21.1647C295.036 20.3084 294.57 18.0185 292.093 18.0185C290.146 18.0185 288.13 19.9251 288.13 19.9251L283.93 40.7748L283.672 40.9836L280.326 41.0951L277.329 41.1945L275.847 41.243L275.759 41.1267L275.661 40.9809L277.007 34.5527H276.99C278.15 28.9854 279.634 21.7397 279.634 21.1647C279.634 20.3084 279.171 18.0185 276.689 18.0185C274.747 18.0185 272.733 19.9251 272.733 19.9251L268.533 40.7748L268.265 40.9836L267.068 41.0247L260.45 41.2382L260.278 40.9836L266.108 11.954L266.399 11.6678L274.155 10.9594L274.472 11.2651L273.649 15.3501C273.649 15.3501 277.393 11.3718 282.166 11.2797C286.619 11.1971 287.552 15.3501 287.552 15.3501C287.552 15.3501 291.981 11.1851 296.706 11.2797C299.1 11.299 303.531 12.3227 303.545 18.3338ZM263.767 11.0225L262.109 19.3624L261.763 19.7069C261.171 19.604 260.574 19.5529 259.973 19.554C257.737 19.554 254.563 20.2502 252.079 23.4426L252.055 23.4668L248.633 40.7748L248.392 40.9836L240.958 41.2019L240.767 41.0101L246.609 11.954L246.927 11.6484L254.284 10.9594L254.57 11.2651L253.728 15.4714L254.088 15.1536C255.439 13.9464 256.923 12.8966 258.51 12.0243C260.021 11.1851 261.531 10.7653 263.054 10.7653C263.199 10.7653 263.35 10.7653 263.509 10.775L263.767 11.0225ZM230.922 32.583C230.922 32.583 229.306 35.0476 226.976 35.9306C224.638 36.8064 222.954 36.1124 222.29 35.2369C221.757 34.5503 220.65 32.3864 222.755 29.9486C224.888 27.4911 231.939 27.3335 231.939 27.3335L230.922 32.583ZM237.886 13.1888C236.173 12.0195 233.437 11.4179 229.688 11.4179C227.84 11.4179 225.968 11.5901 224.096 11.937C222.421 12.2451 221.381 12.5071 220.495 12.7545L220.252 12.9947L219.036 19.0349L219.428 19.2653C220.209 18.9184 221.355 18.489 222.865 17.9699C224.415 17.4411 225.835 17.1767 227.122 17.1767C229 17.1767 230.432 17.4242 231.406 17.9408C232.412 18.4648 233.127 19.6146 233.127 20.8809C233.127 21.1915 233.1 21.4631 233.054 21.7129C233.006 21.9458 232.974 22.1156 232.962 22.2127L232.943 22.3437C232.943 22.3437 232.337 22.3849 231.692 22.4407C231.266 22.4795 230.723 22.5377 230.093 22.6105C229.066 22.7148 227.883 22.8579 226.856 23.0277C224.377 23.4256 217.414 24.4759 215.326 29.0002C213.135 32.7068 213.508 37.6212 215.66 40.0132C216.418 40.8598 217.574 41.6553 219.14 41.9635L219.138 41.9683C219.205 41.9926 219.448 42.0191 219.496 42.0313C225.52 42.9338 229.839 37.847 229.839 37.847L229.192 40.9836L229.458 41.2019L236.224 40.9836L236.503 40.7432L240.486 21.3491C240.567 20.9416 240.634 20.4564 240.686 19.9058C240.729 19.3478 240.758 18.8966 240.758 18.5643C240.753 16.0827 239.593 14.3604 237.886 13.1888ZM220.495 8.342L220.235 8.61856L207.925 8.5894L205.923 18.5522L216.695 18.2368L216.855 18.4842C216.205 20.5163 215.642 22.5752 215.169 24.6555L214.894 24.9102L204.649 24.8858L203.304 31.7995L201.598 40.7748L201.371 40.9836L192.548 41.2019L192.438 40.9836L193.967 33.3422L196.309 22.5523C198.075 14.1687 198.581 11.4907 200.249 2.35997L200.515 2.10771H213.407L221.592 1.90148L221.75 2.10771L220.495 8.342ZM162.96 17.6521L162.638 17.9602L157.973 17.8438L155.814 27.7119C155.513 28.9491 154.854 32.0348 154.854 33.0293C154.847 33.9607 155.208 34.594 155.712 34.9698C156.214 35.3484 156.838 35.4745 157.396 35.4769C158.693 35.4769 159.148 35.1253 160.014 34.8049L160.163 34.9433L159.02 40.6269L158.624 40.9981C157.028 41.328 155.838 41.5946 154.156 41.5946C149.819 41.5705 146.685 40.1587 146.669 35.2538C146.669 32.9564 147.623 28.7768 148.336 25.672L150.059 17.8365L146.395 17.9602L146.174 17.6521L147.245 12.1311L147.577 11.954H151.297L152.787 4.68633L153.078 4.36856C156.802 3.44189 157.879 3.00042 161.274 1.91606L161.452 2.11015L160.329 6.7919L159.162 12.0656L163.942 11.9249L164.068 12.1675L162.96 17.6521ZM181.355 22.8239L181.33 22.9574L176.59 23.0156L171.909 23.0763L171.95 22.9234L171.974 22.8579C172.066 22.5377 172.168 22.1884 172.289 21.8318C172.611 20.83 173.072 19.7408 173.889 18.7414C174.032 18.5716 174.179 18.3993 174.341 18.2344C175.791 16.694 177.167 16.4562 178.057 16.4562C179.314 16.4562 180.23 16.9414 180.819 17.6667C181.263 18.2462 181.54 18.9369 181.619 19.6632C181.65 19.8693 181.665 20.0853 181.665 20.2939C181.665 21.1501 181.508 21.9944 181.355 22.8239ZM184.558 12.8685L184.645 12.7278L184.553 12.8685C182.923 11.7817 180.562 11.2797 178.255 11.2797C173.021 11.2845 169.282 13.7928 166.82 17.3199C164.372 20.8566 163.222 25.4147 163.222 29.4706C163.222 32.401 163.675 35.1325 165.519 37.5971C166.428 38.8051 168.626 41.6966 175.738 41.7088C180.674 41.7038 183.012 40.4645 184.28 39.744L184.493 39.4673C184.739 38.4193 185.573 33.6528 185.913 32.4569L185.659 32.2653C183.162 34.1841 180.438 35.5861 177.346 35.5861C175.272 35.5861 173.697 35.1107 172.633 34.1865C171.572 33.2741 171.054 31.9232 171.054 30.2469C171.054 29.6308 171.104 29.068 171.155 28.4517L171.17 28.3062L171.315 28.3014C176.149 28.1801 178.611 28.117 182.66 28.117C183.981 28.117 185.474 28.1244 187.277 28.1364L187.587 27.9278C187.99 26.1084 188.428 24.0248 188.428 21.4656C188.428 19.1926 188.179 15.1536 184.558 12.8685ZM309.607 14.962H310.203C310.881 14.962 311.304 14.6369 311.304 14.1396C311.304 13.5914 310.879 13.3391 310.227 13.3391C309.91 13.3391 309.705 13.3634 309.607 13.3828V14.962ZM308.612 12.7545C308.986 12.6963 309.55 12.6502 310.129 12.6502C310.919 12.6502 311.459 12.7691 311.826 13.0505C311.979 13.1676 312.101 13.3194 312.182 13.4931C312.265 13.6669 312.303 13.8578 312.299 14.0499C312.299 14.6951 311.817 15.1318 311.306 15.304V15.3259C311.693 15.4592 311.931 15.8062 312.07 16.2889C312.241 16.9099 312.385 17.4897 312.501 17.6813H311.468C311.385 17.5333 311.253 17.1258 311.098 16.5024C310.943 15.8522 310.683 15.6436 310.113 15.629H309.607V17.6813H308.612V12.7545Z" fill="#FC2929"/>
<mask id="mask0_3_3962" style="mask-type:alpha" maskUnits="userSpaceOnUse" x="305" y="10" width="10" height="10">
<path d="M305.669 10.5264H314.998V19.8657H305.669V10.5264Z" fill="white"/>
</mask>
<g mask="url(#mask0_3_3962)">
<path fill-rule="evenodd" clip-rule="evenodd" d="M310.335 18.9924C309.328 18.9924 308.364 18.5927 307.655 17.8811C306.944 17.1697 306.543 16.2047 306.543 15.1984C306.543 14.1922 306.944 13.2272 307.655 12.5157C308.364 11.8043 309.328 11.4045 310.335 11.4045C311.339 11.4045 312.304 11.8043 313.015 12.5157C313.723 13.2272 314.124 14.1922 314.124 15.1984C314.124 16.2047 313.723 17.1697 313.015 17.8811C312.304 18.5927 311.339 18.9924 310.335 18.9924ZM310.335 10.5264C309.721 10.5264 309.115 10.6471 308.55 10.8818C307.982 11.1165 307.469 11.4605 307.034 11.8941C306.603 12.3277 306.259 12.8425 306.025 13.409C305.791 13.9756 305.669 14.5828 305.669 15.196C305.669 15.8092 305.791 16.4165 306.025 16.983C306.259 17.5496 306.603 18.0643 307.034 18.4979C307.469 18.9316 307.982 19.2755 308.55 19.5102C309.115 19.7449 309.721 19.8657 310.335 19.8657C311.571 19.8657 312.757 19.3737 313.633 18.4979C314.506 17.6223 314.998 16.4345 314.998 15.196C314.998 13.9575 314.506 12.7698 313.633 11.8941C312.757 11.0184 311.571 10.5264 310.335 10.5264Z" fill="#FC2929"/>
</g>
</g>
<defs>
<clipPath id="clip0_3_3962">
<rect width="315" height="43" fill="white"/>
</clipPath>
</defs>
</svg>
