<svg width="10" height="6" viewBox="0 0 10 6" fill="none" xmlns="http://www.w3.org/2000/svg">
<path d="M9.79934 1.0181C9.92955 0.904797 10.0016 0.753046 9.99997 0.595531C9.99834 0.438016 9.92317 0.28734 9.79063 0.175956C9.6581 0.0645717 9.47881 0.00139147 9.29139 2.271e-05C9.10396 -0.00134605 8.92339 0.0592062 8.78858 0.168638L3.57035 4.55412L1.21142 2.57164C1.07661 2.46221 0.896039 2.40166 0.708614 2.40303C0.521189 2.40439 0.341902 2.46758 0.209367 2.57896C0.076833 2.69034 0.0016557 2.84102 2.70223e-05 2.99853C-0.00160165 3.15605 0.0704487 3.3078 0.20066 3.4211L3.05996 5.82411C3.19401 5.93673 3.3758 6 3.56535 6C3.75489 6 3.93668 5.93673 4.07073 5.82411L9.78933 1.0181H9.79934Z" fill="white"/>
</svg>
