<svg width="15" height="14" viewBox="0 0 15 14" fill="none" xmlns="http://www.w3.org/2000/svg">
<path d="M7.45216 5.00298V12.203M7.45216 5.00298L9.85216 7.40298M7.45216 5.00298L5.05216 7.40298M11.8522 9.00298C13.0674 9.00298 13.8522 8.01818 13.8522 6.80298C13.8521 6.32187 13.6944 5.85405 13.4031 5.47115C13.1118 5.08825 12.703 4.81139 12.2394 4.68298C12.168 3.78575 11.7962 2.93879 11.1839 2.27906C10.5717 1.61932 9.75478 1.18535 8.86536 1.04732C7.97594 0.909292 7.06597 1.07527 6.28255 1.51841C5.49914 1.96156 4.88808 2.65597 4.54816 3.48938C3.8325 3.291 3.06735 3.38504 2.42102 3.75081C1.77469 4.11658 1.30014 4.72412 1.10176 5.43978C0.903379 6.15544 0.997417 6.9206 1.36319 7.56692C1.72896 8.21325 2.3365 8.6878 3.05216 8.88618" stroke="white" stroke-width="2" stroke-linecap="round" stroke-linejoin="round"/>
</svg>
