<svg width="56" height="42" viewBox="0 0 56 42" fill="none" xmlns="http://www.w3.org/2000/svg">
<path d="M12.313 7.08924L10.01 13.9965H21V3.49913H17.297C16.1944 3.4985 15.1196 3.84495 14.225 4.48935C13.3304 5.13375 12.6614 6.04339 12.313 7.08924ZM8.848 17.4957L8.834 17.5307L7.903 17.7616L7.476 17.8666C6.3398 18.1507 5.33126 18.8065 4.6108 19.7297C3.89035 20.6529 3.49935 21.7904 3.5 22.9613V28.8678C3.5 29.4277 3.675 29.9526 3.9795 30.3795C4.60806 28.5681 5.81419 27.0133 7.41255 25.9539C9.0109 24.8945 10.913 24.3891 12.8266 24.5155C14.7401 24.6419 16.5592 25.3931 18.0042 26.6535C19.4492 27.914 20.4403 29.6139 20.825 31.4922H35.175C35.5573 29.612 36.5472 27.9096 37.9924 26.6471C39.4376 25.3847 41.2578 24.6323 43.1728 24.5058C45.0878 24.3793 46.9912 24.8858 48.59 25.9471C50.1887 27.0085 51.3941 28.5659 52.0205 30.3795C52.3324 29.9371 52.4999 29.4091 52.5 28.8678V24.6234C52.5004 23.4663 52.1183 22.3415 51.4132 21.4239C50.7081 20.5063 49.7194 19.8474 48.601 19.5497L40.901 17.4957H8.848ZM38.0555 13.9965L33.719 6.20046C33.2649 5.38257 32.6004 4.70087 31.7942 4.22593C30.9881 3.75099 30.0697 3.50007 29.134 3.49913H24.5V13.9965H38.0555ZM56 28.8678C56.0001 30.0418 55.6627 31.1911 55.0278 32.1787C54.393 33.1664 53.4876 33.9508 52.4195 34.4385C52.1392 36.4857 51.1431 38.3677 49.6077 39.7509C48.0722 41.1341 46.0966 41.9293 44.0308 41.9955C41.965 42.0617 39.9425 41.3947 38.3215 40.1127C36.7006 38.8307 35.5859 37.0164 35.175 34.9913H20.825C20.4141 37.0164 19.2994 38.8307 17.6785 40.1127C16.0575 41.3947 14.035 42.0617 11.9692 41.9955C9.90344 41.9293 7.92779 41.1341 6.39235 39.7509C4.8569 38.3677 3.86079 36.4857 3.5805 34.4385C2.51236 33.9508 1.60696 33.1664 0.972151 32.1787C0.337346 31.1911 -0.000103876 30.0418 2.39856e-08 28.8678V22.9613C-7.25416e-05 21.1016 0.592662 19.2903 1.69217 17.7903C2.79167 16.2902 4.34073 15.1795 6.1145 14.6194L8.995 5.98002C9.57606 4.23834 10.6905 2.72358 12.1805 1.65031C13.6705 0.577045 15.4605 -0.000319486 17.297 2.09576e-07H29.1305C30.6913 -0.000341311 32.2238 0.416724 33.5691 1.20795C34.9144 1.99918 36.0236 3.13577 36.7815 4.49988L42.1785 14.217L49.504 16.1695C51.3672 16.6661 53.0142 17.7641 54.1889 19.2929C55.3636 20.8217 56.0003 22.6956 56 24.6234V28.8678ZM12.25 27.9931C10.8576 27.9931 9.52225 28.546 8.53769 29.5304C7.55312 30.5147 7 31.8497 7 33.2418C7 34.6338 7.55312 35.9688 8.53769 36.9532C9.52225 37.9375 10.8576 38.4905 12.25 38.4905C13.6424 38.4905 14.9777 37.9375 15.9623 36.9532C16.9469 35.9688 17.5 34.6338 17.5 33.2418C17.5 31.8497 16.9469 30.5147 15.9623 29.5304C14.9777 28.546 13.6424 27.9931 12.25 27.9931ZM43.75 27.9931C42.3576 27.9931 41.0223 28.546 40.0377 29.5304C39.0531 30.5147 38.5 31.8497 38.5 33.2418C38.5 34.6338 39.0531 35.9688 40.0377 36.9532C41.0223 37.9375 42.3576 38.4905 43.75 38.4905C45.1424 38.4905 46.4777 37.9375 47.4623 36.9532C48.4469 35.9688 49 34.6338 49 33.2418C49 31.8497 48.4469 30.5147 47.4623 29.5304C46.4777 28.546 45.1424 27.9931 43.75 27.9931Z" fill="#0057FF"/>
</svg>
