<svg width="32" height="32" viewBox="0 0 32 32" fill="none" xmlns="http://www.w3.org/2000/svg">
<path d="M26.8979 8.99999H24.4166L18.3286 15.0853C18.5383 15.6197 18.5576 16.21 18.3832 16.7569C18.2088 17.3039 17.8515 17.7741 17.3712 18.0885C16.8909 18.4029 16.317 18.5424 15.746 18.4835C15.175 18.4245 14.6417 18.1707 14.2358 17.7648C13.8298 17.3589 13.5761 16.8256 13.5171 16.2546C13.4582 15.6836 13.5976 15.1097 13.9121 14.6294C14.2265 14.1491 14.6967 13.7917 15.2436 13.6174C15.7906 13.443 16.3809 13.4623 16.9153 13.672L23.0019 7.58532V5.10399C23.0021 4.77196 23.1339 4.45355 23.3686 4.21865L25.6753 1.91199C25.7179 1.86902 25.7715 1.8385 25.8303 1.8237C25.889 1.8089 25.9506 1.81038 26.0086 1.82799C26.1273 1.86265 26.2153 1.96132 26.2393 2.08265L26.8526 5.15065L29.9193 5.76399C30.0393 5.78799 30.1379 5.87599 30.1726 5.99465C30.1901 6.0523 30.1917 6.11361 30.1771 6.17207C30.1625 6.23053 30.1324 6.28395 30.0899 6.32665L27.7819 8.63332C27.5474 8.86766 27.2295 8.99951 26.8979 8.99999Z" fill="#007BFF"/>
<path d="M3.5 16C3.5 19.3152 4.81696 22.4946 7.16117 24.8388C9.50537 27.183 12.6848 28.5 16 28.5C17.6415 28.5 19.267 28.1767 20.7835 27.5485C22.3001 26.9203 23.6781 25.9996 24.8388 24.8388C25.9996 23.6781 26.9203 22.3001 27.5485 20.7836C28.1767 19.267 28.5 17.6415 28.5 16C28.5 14.8027 28.332 13.6453 28.0187 12.5507C27.9564 12.2993 27.994 12.0336 28.1237 11.8095C28.2533 11.5853 28.4649 11.4202 28.7138 11.3489C28.9627 11.2775 29.2296 11.3055 29.4583 11.427C29.687 11.5484 29.8597 11.7538 29.94 12C30.3053 13.272 30.5 14.6133 30.5 16C30.5 24.008 24.008 30.5 16 30.5C7.992 30.5 1.5 24.008 1.5 16C1.5 7.99201 7.992 1.50001 16 1.50001C17.3533 1.49867 18.6987 1.68667 20 2.05867C20.1269 2.09427 20.2455 2.15459 20.349 2.23617C20.4525 2.31775 20.5388 2.41898 20.6031 2.53404C20.6673 2.64911 20.7082 2.77573 20.7233 2.90664C20.7384 3.03755 20.7275 3.17016 20.6913 3.29685C20.655 3.42353 20.594 3.5418 20.5119 3.64485C20.4297 3.74789 20.328 3.83369 20.2126 3.8973C20.0972 3.96091 19.9703 4.00108 19.8394 4.0155C19.7084 4.02993 19.5758 4.01832 19.4493 3.98134C18.3276 3.66115 17.1666 3.49914 16 3.50001C12.6848 3.50001 9.50537 4.81697 7.16117 7.16117C4.81696 9.50538 3.5 12.6848 3.5 16Z" fill="#007BFF"/>
<path d="M9.49835 16C9.50207 16.8831 9.68575 17.7561 10.0382 18.5659C10.3906 19.3756 10.9043 20.1051 11.548 20.7096C12.1917 21.3142 12.9519 21.7812 13.7822 22.0822C14.6124 22.3832 15.4953 22.5118 16.3769 22.4601C17.2585 22.4085 18.1203 22.1777 18.9097 21.7819C19.6991 21.3861 20.3996 20.8336 20.9684 20.158C21.5371 19.4824 21.9622 18.698 22.2177 17.8527C22.4732 17.0073 22.5537 16.1188 22.4544 15.2413C22.4264 15.0636 22.447 14.8816 22.514 14.7146C22.581 14.5477 22.6919 14.4019 22.835 14.2929C22.9781 14.1838 23.148 14.1155 23.3267 14.0952C23.5055 14.0748 23.6864 14.1032 23.8504 14.1773C24.185 14.3266 24.4104 14.6453 24.4397 15.0106C24.6467 16.7643 24.3023 18.5389 23.4542 20.0878C22.6061 21.6366 21.2966 22.8828 19.7076 23.6531C18.1187 24.4234 16.3292 24.6795 14.5879 24.3859C12.8467 24.0922 11.2402 23.2634 9.99169 22.0146C8.74355 20.7672 7.91452 19.1623 7.61959 17.4225C7.32465 15.6827 7.57843 13.8942 8.34572 12.3051C9.11301 10.716 10.3558 9.40506 11.9017 8.55408C13.4476 7.7031 15.2199 7.35427 16.973 7.55597C17.1055 7.56826 17.2343 7.60689 17.3517 7.66959C17.4691 7.73228 17.5728 7.81778 17.6567 7.92108C17.7407 8.02438 17.8031 8.14339 17.8405 8.27114C17.8778 8.39889 17.8893 8.53281 17.8742 8.66505C17.8591 8.79729 17.8178 8.92518 17.7526 9.04124C17.6875 9.15729 17.5998 9.25918 17.4947 9.34091C17.3897 9.42265 17.2694 9.48259 17.1409 9.51723C17.0124 9.55187 16.8782 9.5605 16.7464 9.54263C15.8357 9.43735 14.9131 9.52584 14.0391 9.80228C13.1651 10.0787 12.3594 10.5369 11.675 11.1467C10.9905 11.7565 10.4427 12.5041 10.0676 13.3405C9.69249 14.177 9.49849 15.0833 9.49835 16Z" fill="#007BFF"/>
</svg>
