<svg width="32" height="32" viewBox="0 0 32 32" fill="none" xmlns="http://www.w3.org/2000/svg">
<path d="M16.0013 2.66663C23.3653 2.66663 29.3346 8.63596 29.3346 16C29.3346 23.364 23.3653 29.3333 16.0013 29.3333C8.6373 29.3333 2.66797 23.364 2.66797 16C2.66797 8.63596 8.6373 2.66663 16.0013 2.66663ZM16.0013 5.33329C13.1723 5.33329 10.4592 6.4571 8.45883 8.45749C6.45844 10.4579 5.33464 13.171 5.33464 16C5.33464 18.8289 6.45844 21.542 8.45883 23.5424C10.4592 25.5428 13.1723 26.6666 16.0013 26.6666C18.8303 26.6666 21.5434 25.5428 23.5438 23.5424C25.5442 21.542 26.668 18.8289 26.668 16C26.668 13.171 25.5442 10.4579 23.5438 8.45749C21.5434 6.4571 18.8303 5.33329 16.0013 5.33329ZM16.0013 7.99996C16.3279 8 16.6431 8.1199 16.8871 8.33691C17.1312 8.55392 17.2871 8.85296 17.3253 9.17729L17.3346 9.33329V15.448L20.944 19.0573C21.1831 19.2972 21.3219 19.6192 21.3323 19.9578C21.3426 20.2964 21.2237 20.6262 20.9996 20.8803C20.7756 21.1344 20.4632 21.2937 20.126 21.3258C19.7888 21.3579 19.452 21.2605 19.184 21.0533L19.0586 20.9426L15.0586 16.9426C14.8514 16.7352 14.7183 16.4653 14.68 16.1746L14.668 16V9.33329C14.668 8.97967 14.8084 8.64053 15.0585 8.39048C15.3085 8.14044 15.6477 7.99996 16.0013 7.99996Z" fill="#007BFF"/>
</svg>
