<svg width="32" height="32" viewBox="0 0 32 32" fill="none" xmlns="http://www.w3.org/2000/svg">
<path d="M29.3346 15.4226C29.3346 22.4666 23.364 28.1773 16.0013 28.1773C15.1329 28.1782 14.2729 28.0991 13.4213 27.94C12.8093 27.824 12.504 27.7666 12.2906 27.8C12.0773 27.832 11.7733 27.9933 11.168 28.3146C9.44309 29.2333 7.45837 29.542 5.53597 29.1906C6.2703 28.2828 6.76825 27.2072 6.9853 26.06C7.11864 25.3533 6.78797 24.6666 6.29197 24.164C4.04664 21.8813 2.66797 18.8066 2.66797 15.4226C2.66797 8.37863 8.63864 2.66663 16.0013 2.66663C23.364 2.66663 29.3346 8.37863 29.3346 15.4226Z" stroke="#007BFF" stroke-width="2" stroke-linejoin="round"/>
<path d="M14.3293 13.3333C14.3293 12.076 14.3293 11.448 13.9146 11.0573C13.5 10.6666 12.8333 10.6666 11.4986 10.6666C10.164 10.6666 9.4973 10.6666 9.08264 11.0573C8.66797 11.448 8.66797 12.076 8.66797 13.3333C8.66797 14.5906 8.66797 15.2186 9.0813 15.6093C9.4973 16 10.164 16 11.4986 16C12.8333 16 13.4986 16 13.9146 15.6093C14.328 15.2186 14.328 14.5906 14.328 13.3333H14.3293ZM14.3293 13.3333V16.092C14.3293 18.536 12.5493 20.6093 10.0826 21.3333M23.3346 13.3333C23.3346 12.076 23.3346 11.448 22.9213 11.0573C22.504 10.6666 21.8373 10.6666 20.5026 10.6666C19.168 10.6666 18.5026 10.6666 18.0866 11.0573C17.6733 11.448 17.6733 12.076 17.6733 13.3333C17.6733 14.5906 17.6733 15.2186 18.0866 15.6093C18.5013 16 19.1693 16 20.5026 16C21.836 16 22.504 16 22.9186 15.6093C23.3333 15.2186 23.3346 14.5906 23.3346 13.3333ZM23.3346 13.3333V16.092C23.3346 18.536 21.5546 20.6093 19.0893 21.3333" stroke="#007BFF" stroke-width="2" stroke-linecap="round"/>
</svg>
