<svg width="32" height="32" viewBox="0 0 32 32" fill="none" xmlns="http://www.w3.org/2000/svg">
<path d="M15.9987 16.6666C14.761 16.6666 13.574 17.1583 12.6989 18.0335C11.8237 18.9086 11.332 20.0956 11.332 21.3333C11.332 22.571 11.8237 23.758 12.6989 24.6331C13.574 25.5083 14.761 26 15.9987 26C17.2364 26 18.4234 25.5083 19.2985 24.6331C20.1737 23.758 20.6654 22.571 20.6654 21.3333C20.6654 20.0956 20.1737 18.9086 19.2985 18.0335C18.4234 17.1583 17.2364 16.6666 15.9987 16.6666ZM13.9987 21.3333C13.9987 20.8029 14.2094 20.2942 14.5845 19.9191C14.9596 19.544 15.4683 19.3333 15.9987 19.3333C16.5291 19.3333 17.0378 19.544 17.4129 19.9191C17.788 20.2942 17.9987 20.8029 17.9987 21.3333C17.9987 21.8637 17.788 22.3724 17.4129 22.7475C17.0378 23.1226 16.5291 23.3333 15.9987 23.3333C15.4683 23.3333 14.9596 23.1226 14.5845 22.7475C14.2094 22.3724 13.9987 21.8637 13.9987 21.3333Z" fill="#007BFF"/>
<path d="M23.368 6.82134L19.1293 0.87867L3.544 13.3293L2.68 13.32V13.3333H2V29.3333H30V13.3333H28.7173L26.1653 5.868L23.368 6.82134ZM25.9 13.3333H12.5293L22.488 9.93867L24.5173 9.28934L25.9 13.3333ZM20.7333 7.72L10.4533 11.224L18.5947 4.72L20.7333 7.72ZM4.66667 24.2253V18.4387C5.22957 18.24 5.74087 17.9179 6.16308 17.4959C6.58528 17.0739 6.90769 16.5628 7.10667 16H24.8933C25.0921 16.563 25.4145 17.0744 25.8367 17.4966C26.2589 17.9189 26.7703 18.2412 27.3333 18.44V24.2267C26.7703 24.4255 26.2589 24.7478 25.8367 25.17C25.4145 25.5922 25.0921 26.1036 24.8933 26.6667H7.10933C6.90958 26.1036 6.58662 25.5922 6.16403 25.1698C5.74143 24.7475 5.22987 24.4248 4.66667 24.2253Z" fill="#007BFF"/>
</svg>
