<svg width="64" height="64" viewBox="0 0 64 64" fill="none" xmlns="http://www.w3.org/2000/svg">
<path d="M20.912 6.77146C17.584 5.92666 14.096 6.28506 11.3632 7.81466C8.57919 9.36986 6.62719 12.1283 6.53119 15.8179C6.38399 21.5843 7.71839 29.3219 13.0176 38.4035C18.2496 47.3731 24.0256 52.7491 28.8192 55.9427C31.8464 57.9619 35.1904 58.0163 38.048 56.7011C40.864 55.4051 43.1488 52.8163 44.336 49.6067C44.631 48.8083 44.7495 47.9555 44.6832 47.1069C44.6169 46.2584 44.3674 45.4343 43.952 44.6915L40.8992 39.2451C39.9608 37.5688 38.4505 36.2862 36.6443 35.6317C34.8382 34.9771 32.8568 34.9944 31.0624 35.6803L28.9312 36.4963C27.8976 36.8899 26.9472 36.7075 26.4096 36.1763C24.6016 34.4003 23.3088 31.9907 22.7232 29.3923C22.5376 28.5731 22.9152 27.6067 23.8176 26.9251L25.7408 25.4723C27.2956 24.299 28.3689 22.5989 28.7595 20.6906C29.1501 18.7824 28.8311 16.7972 27.8624 15.1075L24.752 9.68346C24.3398 8.96548 23.7874 8.3377 23.1277 7.83745C22.4681 7.3372 21.7146 6.97468 20.912 6.77146ZM9.73119 15.9043C9.79519 13.4275 11.0496 11.6579 12.9248 10.6083C14.8512 9.52986 17.4816 9.20026 20.1248 9.87226C20.5121 9.97008 20.8757 10.1449 21.1941 10.3862C21.5124 10.6276 21.7788 10.9305 21.9776 11.2771L25.0848 16.7011C25.666 17.7145 25.8576 18.9051 25.6237 20.0498C25.3898 21.1944 24.7465 22.2144 23.8144 22.9187L21.8912 24.3715C20.2272 25.6259 19.0752 27.7763 19.6 30.0963C20.3104 33.2387 21.8816 36.2179 24.1664 38.4611C25.8368 40.0995 28.2176 40.1955 30.0736 39.4851L32.2048 38.6691C33.2816 38.2569 34.4707 38.2461 35.5548 38.6386C36.6389 39.0311 37.5455 39.8007 38.1088 40.8067L41.1584 46.2563C41.5424 46.9411 41.6064 47.7603 41.3344 48.4963C40.4064 51.0083 38.6624 52.8931 36.7104 53.7923C34.8 54.6723 32.64 54.6467 30.5952 53.2803C26.208 50.3555 20.7712 45.3411 15.7792 36.7907C10.784 28.2147 9.59999 21.0659 9.73439 15.9043M57.136 6.86746C57.4359 7.1675 57.6044 7.5744 57.6044 7.99866C57.6044 8.42292 57.4359 8.82981 57.136 9.12986L41.136 25.1299C40.9874 25.2789 40.8108 25.3971 40.6164 25.4777C40.422 25.5584 40.2136 25.5999 40.0032 25.5999C39.7927 25.5999 39.5843 25.5584 39.39 25.4777C39.1956 25.3971 39.019 25.2789 38.8704 25.1299L32.4704 18.7299C32.1704 18.4294 32.002 18.0221 32.0023 17.5975C32.0024 17.3873 32.044 17.1792 32.1246 16.985C32.2052 16.7908 32.3232 16.6144 32.472 16.4659C32.6208 16.3173 32.7973 16.1995 32.9916 16.1192C33.1859 16.0389 33.3941 15.9976 33.6043 15.9978C34.0289 15.9981 34.436 16.167 34.736 16.4675L40 21.7347L54.8672 6.86746C55.0158 6.71846 55.1924 6.60024 55.3868 6.51958C55.5812 6.43892 55.7895 6.3974 56 6.3974C56.2104 6.3974 56.4188 6.43892 56.6132 6.51958C56.8076 6.60024 56.9874 6.71846 57.136 6.86746Z" fill="#007BFF"/>
</svg>
