<svg width="64" height="64" viewBox="0 0 64 64" fill="none" xmlns="http://www.w3.org/2000/svg">
<path d="M58.4533 17.6533C58.1827 17.0017 57.6649 16.4839 57.0133 16.2133C56.6927 16.0767 56.3485 16.0042 56 16H42.6667C41.9594 16 41.2811 16.281 40.7811 16.781C40.281 17.2811 40 17.9594 40 18.6667C40 19.3739 40.281 20.0522 40.7811 20.5523C41.2811 21.0524 41.9594 21.3333 42.6667 21.3333H49.5733L34.6667 36.24L25.8933 27.44C25.6454 27.1901 25.3505 26.9917 25.0255 26.8563C24.7006 26.7209 24.352 26.6512 24 26.6512C23.648 26.6512 23.2994 26.7209 22.9745 26.8563C22.6495 26.9917 22.3546 27.1901 22.1067 27.44L6.10667 43.44C5.85672 43.6879 5.65834 43.9828 5.52296 44.3078C5.38757 44.6328 5.31787 44.9813 5.31787 45.3333C5.31787 45.6854 5.38757 46.0339 5.52296 46.3589C5.65834 46.6838 5.85672 46.9788 6.10667 47.2267C6.35457 47.4766 6.6495 47.675 6.97446 47.8104C7.29942 47.9458 7.64797 48.0155 8 48.0155C8.35203 48.0155 8.70058 47.9458 9.02554 47.8104C9.3505 47.675 9.64543 47.4766 9.89333 47.2267L24 33.0933L32.7733 41.8933C33.0212 42.1433 33.3162 42.3417 33.6411 42.477C33.9661 42.6124 34.3146 42.6821 34.6667 42.6821C35.0187 42.6821 35.3672 42.6124 35.6922 42.477C36.0172 42.3417 36.3121 42.1433 36.56 41.8933L53.3333 25.0933V32C53.3333 32.7072 53.6143 33.3855 54.1144 33.8856C54.6145 34.3857 55.2928 34.6667 56 34.6667C56.7072 34.6667 57.3855 34.3857 57.8856 33.8856C58.3857 33.3855 58.6667 32.7072 58.6667 32V18.6667C58.6625 18.3182 58.59 17.9739 58.4533 17.6533Z" fill="#007BFF"/>
</svg>
